G04 EAGLE Gerber RS-274X export*
G75*
%MOMM*%
%FSLAX34Y34*%
%LPD*%
%INTop solder mask*%
%IPPOS*%
%AMOC8*
5,1,8,0,0,1.08239X$1,22.5*%
G01*
%ADD10C,0.000000*%
%ADD11C,0.406400*%
%ADD12C,0.203200*%
%ADD13C,2.436000*%
%ADD14C,2.264400*%
%ADD15C,4.214000*%
%ADD16C,1.928000*%
%ADD17C,1.050000*%
%ADD18R,1.550000X1.550000*%
%ADD19R,2.750000X2.750000*%
%ADD20R,1.674000X3.452000*%
%ADD21R,7.366000X4.064000*%
%ADD22R,1.650000X1.150000*%
%ADD23P,1.475081X8X202.500000*%
%ADD24C,0.800000*%
%ADD25C,5.150000*%


D10*
X590000Y1000000D02*
X500000Y1000000D01*
X500000Y995000D01*
X499998Y994860D01*
X499992Y994720D01*
X499982Y994580D01*
X499969Y994440D01*
X499951Y994301D01*
X499929Y994162D01*
X499904Y994025D01*
X499875Y993887D01*
X499842Y993751D01*
X499805Y993616D01*
X499764Y993482D01*
X499719Y993349D01*
X499671Y993217D01*
X499619Y993087D01*
X499564Y992958D01*
X499505Y992831D01*
X499442Y992705D01*
X499376Y992581D01*
X499307Y992460D01*
X499234Y992340D01*
X499157Y992222D01*
X499078Y992107D01*
X498995Y991993D01*
X498909Y991883D01*
X498820Y991774D01*
X498728Y991668D01*
X498633Y991565D01*
X498536Y991464D01*
X498435Y991367D01*
X498332Y991272D01*
X498226Y991180D01*
X498117Y991091D01*
X498007Y991005D01*
X497893Y990922D01*
X497778Y990843D01*
X497660Y990766D01*
X497540Y990693D01*
X497419Y990624D01*
X497295Y990558D01*
X497169Y990495D01*
X497042Y990436D01*
X496913Y990381D01*
X496783Y990329D01*
X496651Y990281D01*
X496518Y990236D01*
X496384Y990195D01*
X496249Y990158D01*
X496113Y990125D01*
X495975Y990096D01*
X495838Y990071D01*
X495699Y990049D01*
X495560Y990031D01*
X495420Y990018D01*
X495280Y990008D01*
X495140Y990002D01*
X495000Y990000D01*
X485000Y990000D01*
X484860Y990002D01*
X484720Y990008D01*
X484580Y990018D01*
X484440Y990031D01*
X484301Y990049D01*
X484162Y990071D01*
X484025Y990096D01*
X483887Y990125D01*
X483751Y990158D01*
X483616Y990195D01*
X483482Y990236D01*
X483349Y990281D01*
X483217Y990329D01*
X483087Y990381D01*
X482958Y990436D01*
X482831Y990495D01*
X482705Y990558D01*
X482581Y990624D01*
X482460Y990693D01*
X482340Y990766D01*
X482222Y990843D01*
X482107Y990922D01*
X481993Y991005D01*
X481883Y991091D01*
X481774Y991180D01*
X481668Y991272D01*
X481565Y991367D01*
X481464Y991464D01*
X481367Y991565D01*
X481272Y991668D01*
X481180Y991774D01*
X481091Y991883D01*
X481005Y991993D01*
X480922Y992107D01*
X480843Y992222D01*
X480766Y992340D01*
X480693Y992460D01*
X480624Y992581D01*
X480558Y992705D01*
X480495Y992831D01*
X480436Y992958D01*
X480381Y993087D01*
X480329Y993217D01*
X480281Y993349D01*
X480236Y993482D01*
X480195Y993616D01*
X480158Y993751D01*
X480125Y993887D01*
X480096Y994025D01*
X480071Y994162D01*
X480049Y994301D01*
X480031Y994440D01*
X480018Y994580D01*
X480008Y994720D01*
X480002Y994860D01*
X480000Y995000D01*
X480000Y1000000D01*
X120000Y1000000D01*
X120000Y995000D01*
X119998Y994860D01*
X119992Y994720D01*
X119982Y994580D01*
X119969Y994440D01*
X119951Y994301D01*
X119929Y994162D01*
X119904Y994025D01*
X119875Y993887D01*
X119842Y993751D01*
X119805Y993616D01*
X119764Y993482D01*
X119719Y993349D01*
X119671Y993217D01*
X119619Y993087D01*
X119564Y992958D01*
X119505Y992831D01*
X119442Y992705D01*
X119376Y992581D01*
X119307Y992460D01*
X119234Y992340D01*
X119157Y992222D01*
X119078Y992107D01*
X118995Y991993D01*
X118909Y991883D01*
X118820Y991774D01*
X118728Y991668D01*
X118633Y991565D01*
X118536Y991464D01*
X118435Y991367D01*
X118332Y991272D01*
X118226Y991180D01*
X118117Y991091D01*
X118007Y991005D01*
X117893Y990922D01*
X117778Y990843D01*
X117660Y990766D01*
X117540Y990693D01*
X117419Y990624D01*
X117295Y990558D01*
X117169Y990495D01*
X117042Y990436D01*
X116913Y990381D01*
X116783Y990329D01*
X116651Y990281D01*
X116518Y990236D01*
X116384Y990195D01*
X116249Y990158D01*
X116113Y990125D01*
X115975Y990096D01*
X115838Y990071D01*
X115699Y990049D01*
X115560Y990031D01*
X115420Y990018D01*
X115280Y990008D01*
X115140Y990002D01*
X115000Y990000D01*
X105000Y990000D01*
X104860Y990002D01*
X104720Y990008D01*
X104580Y990018D01*
X104440Y990031D01*
X104301Y990049D01*
X104162Y990071D01*
X104025Y990096D01*
X103887Y990125D01*
X103751Y990158D01*
X103616Y990195D01*
X103482Y990236D01*
X103349Y990281D01*
X103217Y990329D01*
X103087Y990381D01*
X102958Y990436D01*
X102831Y990495D01*
X102705Y990558D01*
X102581Y990624D01*
X102460Y990693D01*
X102340Y990766D01*
X102222Y990843D01*
X102107Y990922D01*
X101993Y991005D01*
X101883Y991091D01*
X101774Y991180D01*
X101668Y991272D01*
X101565Y991367D01*
X101464Y991464D01*
X101367Y991565D01*
X101272Y991668D01*
X101180Y991774D01*
X101091Y991883D01*
X101005Y991993D01*
X100922Y992107D01*
X100843Y992222D01*
X100766Y992340D01*
X100693Y992460D01*
X100624Y992581D01*
X100558Y992705D01*
X100495Y992831D01*
X100436Y992958D01*
X100381Y993087D01*
X100329Y993217D01*
X100281Y993349D01*
X100236Y993482D01*
X100195Y993616D01*
X100158Y993751D01*
X100125Y993887D01*
X100096Y994025D01*
X100071Y994162D01*
X100049Y994301D01*
X100031Y994440D01*
X100018Y994580D01*
X100008Y994720D01*
X100002Y994860D01*
X100000Y995000D01*
X100000Y1000000D01*
X10000Y1000000D01*
X9758Y999997D01*
X9517Y999988D01*
X9276Y999974D01*
X9035Y999953D01*
X8795Y999927D01*
X8555Y999895D01*
X8316Y999857D01*
X8079Y999814D01*
X7842Y999764D01*
X7607Y999709D01*
X7373Y999649D01*
X7141Y999582D01*
X6910Y999511D01*
X6681Y999433D01*
X6454Y999350D01*
X6229Y999262D01*
X6006Y999168D01*
X5786Y999069D01*
X5568Y998964D01*
X5353Y998855D01*
X5140Y998740D01*
X4930Y998620D01*
X4724Y998495D01*
X4520Y998365D01*
X4319Y998230D01*
X4122Y998090D01*
X3928Y997946D01*
X3738Y997797D01*
X3552Y997643D01*
X3369Y997485D01*
X3190Y997323D01*
X3015Y997156D01*
X2844Y996985D01*
X2677Y996810D01*
X2515Y996631D01*
X2357Y996448D01*
X2203Y996262D01*
X2054Y996072D01*
X1910Y995878D01*
X1770Y995681D01*
X1635Y995480D01*
X1505Y995276D01*
X1380Y995070D01*
X1260Y994860D01*
X1145Y994647D01*
X1036Y994432D01*
X931Y994214D01*
X832Y993994D01*
X738Y993771D01*
X650Y993546D01*
X567Y993319D01*
X489Y993090D01*
X418Y992859D01*
X351Y992627D01*
X291Y992393D01*
X236Y992158D01*
X186Y991921D01*
X143Y991684D01*
X105Y991445D01*
X73Y991205D01*
X47Y990965D01*
X26Y990724D01*
X12Y990483D01*
X3Y990242D01*
X0Y990000D01*
X0Y10000D01*
X3Y9758D01*
X12Y9517D01*
X26Y9276D01*
X47Y9035D01*
X73Y8795D01*
X105Y8555D01*
X143Y8316D01*
X186Y8079D01*
X236Y7842D01*
X291Y7607D01*
X351Y7373D01*
X418Y7141D01*
X489Y6910D01*
X567Y6681D01*
X650Y6454D01*
X738Y6229D01*
X832Y6006D01*
X931Y5786D01*
X1036Y5568D01*
X1145Y5353D01*
X1260Y5140D01*
X1380Y4930D01*
X1505Y4724D01*
X1635Y4520D01*
X1770Y4319D01*
X1910Y4122D01*
X2054Y3928D01*
X2203Y3738D01*
X2357Y3552D01*
X2515Y3369D01*
X2677Y3190D01*
X2844Y3015D01*
X3015Y2844D01*
X3190Y2677D01*
X3369Y2515D01*
X3552Y2357D01*
X3738Y2203D01*
X3928Y2054D01*
X4122Y1910D01*
X4319Y1770D01*
X4520Y1635D01*
X4724Y1505D01*
X4930Y1380D01*
X5140Y1260D01*
X5353Y1145D01*
X5568Y1036D01*
X5786Y931D01*
X6006Y832D01*
X6229Y738D01*
X6454Y650D01*
X6681Y567D01*
X6910Y489D01*
X7141Y418D01*
X7373Y351D01*
X7607Y291D01*
X7842Y236D01*
X8079Y186D01*
X8316Y143D01*
X8555Y105D01*
X8795Y73D01*
X9035Y47D01*
X9276Y26D01*
X9517Y12D01*
X9758Y3D01*
X10000Y0D01*
X100000Y0D01*
X100000Y5000D01*
X100002Y5140D01*
X100008Y5280D01*
X100018Y5420D01*
X100031Y5560D01*
X100049Y5699D01*
X100071Y5838D01*
X100096Y5975D01*
X100125Y6113D01*
X100158Y6249D01*
X100195Y6384D01*
X100236Y6518D01*
X100281Y6651D01*
X100329Y6783D01*
X100381Y6913D01*
X100436Y7042D01*
X100495Y7169D01*
X100558Y7295D01*
X100624Y7419D01*
X100693Y7540D01*
X100766Y7660D01*
X100843Y7778D01*
X100922Y7893D01*
X101005Y8007D01*
X101091Y8117D01*
X101180Y8226D01*
X101272Y8332D01*
X101367Y8435D01*
X101464Y8536D01*
X101565Y8633D01*
X101668Y8728D01*
X101774Y8820D01*
X101883Y8909D01*
X101993Y8995D01*
X102107Y9078D01*
X102222Y9157D01*
X102340Y9234D01*
X102460Y9307D01*
X102581Y9376D01*
X102705Y9442D01*
X102831Y9505D01*
X102958Y9564D01*
X103087Y9619D01*
X103217Y9671D01*
X103349Y9719D01*
X103482Y9764D01*
X103616Y9805D01*
X103751Y9842D01*
X103887Y9875D01*
X104025Y9904D01*
X104162Y9929D01*
X104301Y9951D01*
X104440Y9969D01*
X104580Y9982D01*
X104720Y9992D01*
X104860Y9998D01*
X105000Y10000D01*
X115000Y10000D01*
X115140Y9998D01*
X115280Y9992D01*
X115420Y9982D01*
X115560Y9969D01*
X115699Y9951D01*
X115838Y9929D01*
X115975Y9904D01*
X116113Y9875D01*
X116249Y9842D01*
X116384Y9805D01*
X116518Y9764D01*
X116651Y9719D01*
X116783Y9671D01*
X116913Y9619D01*
X117042Y9564D01*
X117169Y9505D01*
X117295Y9442D01*
X117419Y9376D01*
X117540Y9307D01*
X117660Y9234D01*
X117778Y9157D01*
X117893Y9078D01*
X118007Y8995D01*
X118117Y8909D01*
X118226Y8820D01*
X118332Y8728D01*
X118435Y8633D01*
X118536Y8536D01*
X118633Y8435D01*
X118728Y8332D01*
X118820Y8226D01*
X118909Y8117D01*
X118995Y8007D01*
X119078Y7893D01*
X119157Y7778D01*
X119234Y7660D01*
X119307Y7540D01*
X119376Y7419D01*
X119442Y7295D01*
X119505Y7169D01*
X119564Y7042D01*
X119619Y6913D01*
X119671Y6783D01*
X119719Y6651D01*
X119764Y6518D01*
X119805Y6384D01*
X119842Y6249D01*
X119875Y6113D01*
X119904Y5975D01*
X119929Y5838D01*
X119951Y5699D01*
X119969Y5560D01*
X119982Y5420D01*
X119992Y5280D01*
X119998Y5140D01*
X120000Y5000D01*
X120000Y0D01*
X480000Y0D01*
X480000Y5000D01*
X480002Y5140D01*
X480008Y5280D01*
X480018Y5420D01*
X480031Y5560D01*
X480049Y5699D01*
X480071Y5838D01*
X480096Y5975D01*
X480125Y6113D01*
X480158Y6249D01*
X480195Y6384D01*
X480236Y6518D01*
X480281Y6651D01*
X480329Y6783D01*
X480381Y6913D01*
X480436Y7042D01*
X480495Y7169D01*
X480558Y7295D01*
X480624Y7419D01*
X480693Y7540D01*
X480766Y7660D01*
X480843Y7778D01*
X480922Y7893D01*
X481005Y8007D01*
X481091Y8117D01*
X481180Y8226D01*
X481272Y8332D01*
X481367Y8435D01*
X481464Y8536D01*
X481565Y8633D01*
X481668Y8728D01*
X481774Y8820D01*
X481883Y8909D01*
X481993Y8995D01*
X482107Y9078D01*
X482222Y9157D01*
X482340Y9234D01*
X482460Y9307D01*
X482581Y9376D01*
X482705Y9442D01*
X482831Y9505D01*
X482958Y9564D01*
X483087Y9619D01*
X483217Y9671D01*
X483349Y9719D01*
X483482Y9764D01*
X483616Y9805D01*
X483751Y9842D01*
X483887Y9875D01*
X484025Y9904D01*
X484162Y9929D01*
X484301Y9951D01*
X484440Y9969D01*
X484580Y9982D01*
X484720Y9992D01*
X484860Y9998D01*
X485000Y10000D01*
X495000Y10000D01*
X495140Y9998D01*
X495280Y9992D01*
X495420Y9982D01*
X495560Y9969D01*
X495699Y9951D01*
X495838Y9929D01*
X495975Y9904D01*
X496113Y9875D01*
X496249Y9842D01*
X496384Y9805D01*
X496518Y9764D01*
X496651Y9719D01*
X496783Y9671D01*
X496913Y9619D01*
X497042Y9564D01*
X497169Y9505D01*
X497295Y9442D01*
X497419Y9376D01*
X497540Y9307D01*
X497660Y9234D01*
X497778Y9157D01*
X497893Y9078D01*
X498007Y8995D01*
X498117Y8909D01*
X498226Y8820D01*
X498332Y8728D01*
X498435Y8633D01*
X498536Y8536D01*
X498633Y8435D01*
X498728Y8332D01*
X498820Y8226D01*
X498909Y8117D01*
X498995Y8007D01*
X499078Y7893D01*
X499157Y7778D01*
X499234Y7660D01*
X499307Y7540D01*
X499376Y7419D01*
X499442Y7295D01*
X499505Y7169D01*
X499564Y7042D01*
X499619Y6913D01*
X499671Y6783D01*
X499719Y6651D01*
X499764Y6518D01*
X499805Y6384D01*
X499842Y6249D01*
X499875Y6113D01*
X499904Y5975D01*
X499929Y5838D01*
X499951Y5699D01*
X499969Y5560D01*
X499982Y5420D01*
X499992Y5280D01*
X499998Y5140D01*
X500000Y5000D01*
X500000Y0D01*
X590000Y0D01*
X590242Y3D01*
X590483Y12D01*
X590724Y26D01*
X590965Y47D01*
X591205Y73D01*
X591445Y105D01*
X591684Y143D01*
X591921Y186D01*
X592158Y236D01*
X592393Y291D01*
X592627Y351D01*
X592859Y418D01*
X593090Y489D01*
X593319Y567D01*
X593546Y650D01*
X593771Y738D01*
X593994Y832D01*
X594214Y931D01*
X594432Y1036D01*
X594647Y1145D01*
X594860Y1260D01*
X595070Y1380D01*
X595276Y1505D01*
X595480Y1635D01*
X595681Y1770D01*
X595878Y1910D01*
X596072Y2054D01*
X596262Y2203D01*
X596448Y2357D01*
X596631Y2515D01*
X596810Y2677D01*
X596985Y2844D01*
X597156Y3015D01*
X597323Y3190D01*
X597485Y3369D01*
X597643Y3552D01*
X597797Y3738D01*
X597946Y3928D01*
X598090Y4122D01*
X598230Y4319D01*
X598365Y4520D01*
X598495Y4724D01*
X598620Y4930D01*
X598740Y5140D01*
X598855Y5353D01*
X598964Y5568D01*
X599069Y5786D01*
X599168Y6006D01*
X599262Y6229D01*
X599350Y6454D01*
X599433Y6681D01*
X599511Y6910D01*
X599582Y7141D01*
X599649Y7373D01*
X599709Y7607D01*
X599764Y7842D01*
X599814Y8079D01*
X599857Y8316D01*
X599895Y8555D01*
X599927Y8795D01*
X599953Y9035D01*
X599974Y9276D01*
X599988Y9517D01*
X599997Y9758D01*
X600000Y10000D01*
X600000Y990000D01*
X599997Y990242D01*
X599988Y990483D01*
X599974Y990724D01*
X599953Y990965D01*
X599927Y991205D01*
X599895Y991445D01*
X599857Y991684D01*
X599814Y991921D01*
X599764Y992158D01*
X599709Y992393D01*
X599649Y992627D01*
X599582Y992859D01*
X599511Y993090D01*
X599433Y993319D01*
X599350Y993546D01*
X599262Y993771D01*
X599168Y993994D01*
X599069Y994214D01*
X598964Y994432D01*
X598855Y994647D01*
X598740Y994860D01*
X598620Y995070D01*
X598495Y995276D01*
X598365Y995480D01*
X598230Y995681D01*
X598090Y995878D01*
X597946Y996072D01*
X597797Y996262D01*
X597643Y996448D01*
X597485Y996631D01*
X597323Y996810D01*
X597156Y996985D01*
X596985Y997156D01*
X596810Y997323D01*
X596631Y997485D01*
X596448Y997643D01*
X596262Y997797D01*
X596072Y997946D01*
X595878Y998090D01*
X595681Y998230D01*
X595480Y998365D01*
X595276Y998495D01*
X595070Y998620D01*
X594860Y998740D01*
X594647Y998855D01*
X594432Y998964D01*
X594214Y999069D01*
X593994Y999168D01*
X593771Y999262D01*
X593546Y999350D01*
X593319Y999433D01*
X593090Y999511D01*
X592859Y999582D01*
X592627Y999649D01*
X592393Y999709D01*
X592158Y999764D01*
X591921Y999814D01*
X591684Y999857D01*
X591445Y999895D01*
X591205Y999927D01*
X590965Y999953D01*
X590724Y999974D01*
X590483Y999988D01*
X590242Y999997D01*
X590000Y1000000D01*
D11*
X222106Y22968D02*
X222106Y7032D01*
X227418Y14115D02*
X222106Y22968D01*
X227418Y14115D02*
X232730Y22968D01*
X232730Y7032D01*
X244659Y13229D02*
X248643Y13229D01*
X244659Y13230D02*
X244548Y13228D01*
X244438Y13222D01*
X244328Y13212D01*
X244218Y13198D01*
X244109Y13181D01*
X244000Y13159D01*
X243893Y13134D01*
X243786Y13104D01*
X243680Y13071D01*
X243576Y13035D01*
X243473Y12994D01*
X243372Y12950D01*
X243272Y12902D01*
X243174Y12851D01*
X243078Y12796D01*
X242984Y12738D01*
X242892Y12677D01*
X242802Y12612D01*
X242714Y12544D01*
X242630Y12473D01*
X242547Y12399D01*
X242468Y12322D01*
X242391Y12243D01*
X242317Y12160D01*
X242246Y12076D01*
X242178Y11988D01*
X242113Y11898D01*
X242052Y11806D01*
X241994Y11712D01*
X241939Y11616D01*
X241888Y11518D01*
X241840Y11418D01*
X241796Y11317D01*
X241755Y11214D01*
X241719Y11110D01*
X241686Y11004D01*
X241656Y10897D01*
X241631Y10790D01*
X241609Y10681D01*
X241592Y10572D01*
X241578Y10462D01*
X241568Y10352D01*
X241562Y10242D01*
X241560Y10131D01*
X241562Y10020D01*
X241568Y9910D01*
X241578Y9800D01*
X241592Y9690D01*
X241609Y9581D01*
X241631Y9472D01*
X241656Y9365D01*
X241686Y9258D01*
X241719Y9152D01*
X241755Y9048D01*
X241796Y8945D01*
X241840Y8844D01*
X241888Y8744D01*
X241939Y8646D01*
X241994Y8550D01*
X242052Y8456D01*
X242113Y8364D01*
X242178Y8274D01*
X242246Y8186D01*
X242317Y8102D01*
X242391Y8019D01*
X242468Y7940D01*
X242547Y7863D01*
X242630Y7789D01*
X242714Y7718D01*
X242802Y7650D01*
X242892Y7585D01*
X242984Y7524D01*
X243078Y7466D01*
X243174Y7411D01*
X243272Y7360D01*
X243372Y7312D01*
X243473Y7268D01*
X243576Y7227D01*
X243680Y7191D01*
X243786Y7158D01*
X243893Y7128D01*
X244000Y7103D01*
X244109Y7081D01*
X244218Y7064D01*
X244328Y7050D01*
X244438Y7040D01*
X244548Y7034D01*
X244659Y7032D01*
X248643Y7032D01*
X248643Y15000D01*
X248641Y15102D01*
X248635Y15203D01*
X248625Y15305D01*
X248612Y15405D01*
X248594Y15506D01*
X248573Y15605D01*
X248548Y15704D01*
X248519Y15801D01*
X248487Y15898D01*
X248450Y15993D01*
X248411Y16086D01*
X248367Y16179D01*
X248320Y16269D01*
X248270Y16357D01*
X248216Y16444D01*
X248159Y16528D01*
X248099Y16610D01*
X248036Y16690D01*
X247970Y16767D01*
X247901Y16842D01*
X247829Y16914D01*
X247754Y16983D01*
X247677Y17049D01*
X247597Y17112D01*
X247515Y17172D01*
X247431Y17229D01*
X247344Y17283D01*
X247256Y17333D01*
X247166Y17380D01*
X247073Y17424D01*
X246980Y17463D01*
X246885Y17500D01*
X246788Y17532D01*
X246691Y17561D01*
X246592Y17586D01*
X246493Y17607D01*
X246392Y17625D01*
X246292Y17638D01*
X246190Y17648D01*
X246089Y17654D01*
X245987Y17656D01*
X242446Y17656D01*
X259918Y7032D02*
X263459Y7032D01*
X259918Y7032D02*
X259816Y7034D01*
X259715Y7040D01*
X259613Y7050D01*
X259513Y7063D01*
X259412Y7081D01*
X259313Y7102D01*
X259214Y7127D01*
X259117Y7156D01*
X259020Y7188D01*
X258925Y7225D01*
X258832Y7264D01*
X258739Y7308D01*
X258649Y7355D01*
X258561Y7405D01*
X258474Y7459D01*
X258390Y7516D01*
X258308Y7576D01*
X258228Y7639D01*
X258151Y7705D01*
X258076Y7774D01*
X258004Y7846D01*
X257935Y7921D01*
X257869Y7998D01*
X257806Y8078D01*
X257746Y8160D01*
X257689Y8244D01*
X257635Y8331D01*
X257585Y8419D01*
X257538Y8509D01*
X257494Y8602D01*
X257455Y8695D01*
X257418Y8790D01*
X257386Y8887D01*
X257357Y8984D01*
X257332Y9083D01*
X257311Y9182D01*
X257293Y9283D01*
X257280Y9383D01*
X257270Y9485D01*
X257264Y9586D01*
X257262Y9688D01*
X257262Y15000D01*
X257264Y15102D01*
X257270Y15203D01*
X257280Y15305D01*
X257293Y15405D01*
X257311Y15506D01*
X257332Y15605D01*
X257357Y15704D01*
X257386Y15801D01*
X257418Y15898D01*
X257455Y15993D01*
X257494Y16086D01*
X257538Y16179D01*
X257585Y16269D01*
X257635Y16357D01*
X257689Y16444D01*
X257746Y16528D01*
X257806Y16610D01*
X257869Y16690D01*
X257935Y16767D01*
X258004Y16842D01*
X258076Y16914D01*
X258151Y16983D01*
X258228Y17049D01*
X258308Y17112D01*
X258390Y17172D01*
X258474Y17229D01*
X258561Y17283D01*
X258649Y17333D01*
X258739Y17380D01*
X258832Y17424D01*
X258925Y17463D01*
X259020Y17500D01*
X259117Y17532D01*
X259214Y17561D01*
X259313Y17586D01*
X259412Y17607D01*
X259513Y17625D01*
X259613Y17638D01*
X259715Y17648D01*
X259816Y17654D01*
X259918Y17656D01*
X263459Y17656D01*
X271193Y17656D02*
X271193Y7032D01*
X271193Y17656D02*
X276505Y17656D01*
X276505Y15885D01*
X282526Y14115D02*
X282526Y10573D01*
X282527Y14115D02*
X282529Y14233D01*
X282535Y14352D01*
X282545Y14469D01*
X282559Y14587D01*
X282576Y14704D01*
X282598Y14820D01*
X282623Y14936D01*
X282653Y15051D01*
X282686Y15164D01*
X282723Y15277D01*
X282764Y15388D01*
X282808Y15497D01*
X282856Y15606D01*
X282908Y15712D01*
X282963Y15817D01*
X283021Y15920D01*
X283083Y16020D01*
X283149Y16119D01*
X283217Y16215D01*
X283289Y16310D01*
X283364Y16401D01*
X283442Y16490D01*
X283523Y16577D01*
X283606Y16660D01*
X283693Y16741D01*
X283782Y16819D01*
X283873Y16894D01*
X283968Y16966D01*
X284064Y17034D01*
X284163Y17100D01*
X284263Y17162D01*
X284366Y17220D01*
X284471Y17275D01*
X284577Y17327D01*
X284686Y17375D01*
X284795Y17419D01*
X284906Y17460D01*
X285019Y17497D01*
X285132Y17530D01*
X285247Y17560D01*
X285363Y17585D01*
X285479Y17607D01*
X285596Y17624D01*
X285714Y17638D01*
X285831Y17648D01*
X285950Y17654D01*
X286068Y17656D01*
X286186Y17654D01*
X286305Y17648D01*
X286422Y17638D01*
X286540Y17624D01*
X286657Y17607D01*
X286773Y17585D01*
X286889Y17560D01*
X287004Y17530D01*
X287117Y17497D01*
X287230Y17460D01*
X287341Y17419D01*
X287450Y17375D01*
X287559Y17327D01*
X287665Y17275D01*
X287770Y17220D01*
X287873Y17162D01*
X287973Y17100D01*
X288072Y17034D01*
X288168Y16966D01*
X288263Y16894D01*
X288354Y16819D01*
X288443Y16741D01*
X288530Y16660D01*
X288613Y16577D01*
X288694Y16490D01*
X288772Y16401D01*
X288847Y16310D01*
X288919Y16215D01*
X288987Y16119D01*
X289053Y16020D01*
X289115Y15920D01*
X289173Y15817D01*
X289228Y15712D01*
X289280Y15606D01*
X289328Y15497D01*
X289372Y15388D01*
X289413Y15277D01*
X289450Y15164D01*
X289483Y15051D01*
X289513Y14936D01*
X289538Y14820D01*
X289560Y14704D01*
X289577Y14587D01*
X289591Y14469D01*
X289601Y14352D01*
X289607Y14233D01*
X289609Y14115D01*
X289609Y10573D01*
X289607Y10455D01*
X289601Y10336D01*
X289591Y10219D01*
X289577Y10101D01*
X289560Y9984D01*
X289538Y9868D01*
X289513Y9752D01*
X289483Y9637D01*
X289450Y9524D01*
X289413Y9411D01*
X289372Y9300D01*
X289328Y9191D01*
X289280Y9082D01*
X289228Y8976D01*
X289173Y8871D01*
X289115Y8768D01*
X289053Y8668D01*
X288987Y8569D01*
X288919Y8473D01*
X288847Y8378D01*
X288772Y8287D01*
X288694Y8198D01*
X288613Y8111D01*
X288530Y8028D01*
X288443Y7947D01*
X288354Y7869D01*
X288263Y7794D01*
X288168Y7722D01*
X288072Y7654D01*
X287973Y7588D01*
X287873Y7526D01*
X287770Y7468D01*
X287665Y7413D01*
X287559Y7361D01*
X287450Y7313D01*
X287341Y7269D01*
X287230Y7228D01*
X287117Y7191D01*
X287004Y7158D01*
X286889Y7128D01*
X286773Y7103D01*
X286657Y7081D01*
X286540Y7064D01*
X286422Y7050D01*
X286305Y7040D01*
X286186Y7034D01*
X286068Y7032D01*
X285950Y7034D01*
X285831Y7040D01*
X285714Y7050D01*
X285596Y7064D01*
X285479Y7081D01*
X285363Y7103D01*
X285247Y7128D01*
X285132Y7158D01*
X285019Y7191D01*
X284906Y7228D01*
X284795Y7269D01*
X284686Y7313D01*
X284577Y7361D01*
X284471Y7413D01*
X284366Y7468D01*
X284263Y7526D01*
X284163Y7588D01*
X284064Y7654D01*
X283968Y7722D01*
X283873Y7794D01*
X283782Y7869D01*
X283693Y7947D01*
X283606Y8028D01*
X283523Y8111D01*
X283442Y8198D01*
X283364Y8287D01*
X283289Y8378D01*
X283217Y8473D01*
X283149Y8569D01*
X283083Y8668D01*
X283021Y8768D01*
X282963Y8871D01*
X282908Y8976D01*
X282856Y9082D01*
X282808Y9191D01*
X282764Y9300D01*
X282723Y9411D01*
X282686Y9524D01*
X282653Y9637D01*
X282623Y9752D01*
X282598Y9868D01*
X282576Y9984D01*
X282559Y10101D01*
X282545Y10219D01*
X282535Y10336D01*
X282529Y10455D01*
X282527Y10573D01*
X298722Y7032D02*
X298722Y22968D01*
X303149Y22968D01*
X303280Y22966D01*
X303411Y22960D01*
X303542Y22951D01*
X303673Y22937D01*
X303803Y22919D01*
X303932Y22898D01*
X304061Y22873D01*
X304189Y22844D01*
X304316Y22811D01*
X304442Y22775D01*
X304567Y22735D01*
X304690Y22691D01*
X304813Y22643D01*
X304934Y22592D01*
X305053Y22538D01*
X305170Y22480D01*
X305286Y22418D01*
X305400Y22353D01*
X305512Y22284D01*
X305622Y22213D01*
X305730Y22138D01*
X305835Y22060D01*
X305938Y21979D01*
X306039Y21895D01*
X306137Y21807D01*
X306233Y21717D01*
X306325Y21625D01*
X306415Y21529D01*
X306503Y21431D01*
X306587Y21330D01*
X306668Y21227D01*
X306746Y21122D01*
X306821Y21014D01*
X306892Y20904D01*
X306961Y20792D01*
X307026Y20678D01*
X307088Y20562D01*
X307146Y20445D01*
X307200Y20326D01*
X307251Y20205D01*
X307299Y20082D01*
X307343Y19959D01*
X307383Y19834D01*
X307419Y19708D01*
X307452Y19581D01*
X307481Y19453D01*
X307506Y19324D01*
X307527Y19195D01*
X307545Y19065D01*
X307559Y18934D01*
X307568Y18803D01*
X307574Y18672D01*
X307576Y18541D01*
X307574Y18410D01*
X307568Y18279D01*
X307559Y18148D01*
X307545Y18017D01*
X307527Y17887D01*
X307506Y17758D01*
X307481Y17629D01*
X307452Y17501D01*
X307419Y17374D01*
X307383Y17248D01*
X307343Y17123D01*
X307299Y17000D01*
X307251Y16877D01*
X307200Y16756D01*
X307146Y16637D01*
X307088Y16520D01*
X307026Y16404D01*
X306961Y16290D01*
X306892Y16178D01*
X306821Y16068D01*
X306746Y15960D01*
X306668Y15855D01*
X306587Y15752D01*
X306503Y15651D01*
X306415Y15553D01*
X306325Y15457D01*
X306233Y15365D01*
X306137Y15275D01*
X306039Y15187D01*
X305938Y15103D01*
X305835Y15022D01*
X305730Y14944D01*
X305622Y14869D01*
X305512Y14798D01*
X305400Y14729D01*
X305286Y14664D01*
X305170Y14602D01*
X305053Y14544D01*
X304934Y14490D01*
X304813Y14439D01*
X304690Y14391D01*
X304567Y14347D01*
X304442Y14307D01*
X304316Y14271D01*
X304189Y14238D01*
X304061Y14209D01*
X303932Y14184D01*
X303803Y14163D01*
X303673Y14145D01*
X303542Y14131D01*
X303411Y14122D01*
X303280Y14116D01*
X303149Y14114D01*
X303149Y14115D02*
X298722Y14115D01*
X317684Y13229D02*
X321668Y13229D01*
X317684Y13230D02*
X317573Y13228D01*
X317463Y13222D01*
X317353Y13212D01*
X317243Y13198D01*
X317134Y13181D01*
X317025Y13159D01*
X316918Y13134D01*
X316811Y13104D01*
X316705Y13071D01*
X316601Y13035D01*
X316498Y12994D01*
X316397Y12950D01*
X316297Y12902D01*
X316199Y12851D01*
X316103Y12796D01*
X316009Y12738D01*
X315917Y12677D01*
X315827Y12612D01*
X315739Y12544D01*
X315655Y12473D01*
X315572Y12399D01*
X315493Y12322D01*
X315416Y12243D01*
X315342Y12160D01*
X315271Y12076D01*
X315203Y11988D01*
X315138Y11898D01*
X315077Y11806D01*
X315019Y11712D01*
X314964Y11616D01*
X314913Y11518D01*
X314865Y11418D01*
X314821Y11317D01*
X314780Y11214D01*
X314744Y11110D01*
X314711Y11004D01*
X314681Y10897D01*
X314656Y10790D01*
X314634Y10681D01*
X314617Y10572D01*
X314603Y10462D01*
X314593Y10352D01*
X314587Y10242D01*
X314585Y10131D01*
X314587Y10020D01*
X314593Y9910D01*
X314603Y9800D01*
X314617Y9690D01*
X314634Y9581D01*
X314656Y9472D01*
X314681Y9365D01*
X314711Y9258D01*
X314744Y9152D01*
X314780Y9048D01*
X314821Y8945D01*
X314865Y8844D01*
X314913Y8744D01*
X314964Y8646D01*
X315019Y8550D01*
X315077Y8456D01*
X315138Y8364D01*
X315203Y8274D01*
X315271Y8186D01*
X315342Y8102D01*
X315416Y8019D01*
X315493Y7940D01*
X315572Y7863D01*
X315655Y7789D01*
X315739Y7718D01*
X315827Y7650D01*
X315917Y7585D01*
X316009Y7524D01*
X316103Y7466D01*
X316199Y7411D01*
X316297Y7360D01*
X316397Y7312D01*
X316498Y7268D01*
X316601Y7227D01*
X316705Y7191D01*
X316811Y7158D01*
X316918Y7128D01*
X317025Y7103D01*
X317134Y7081D01*
X317243Y7064D01*
X317353Y7050D01*
X317463Y7040D01*
X317573Y7034D01*
X317684Y7032D01*
X321668Y7032D01*
X321668Y15000D01*
X321666Y15102D01*
X321660Y15203D01*
X321650Y15305D01*
X321637Y15405D01*
X321619Y15506D01*
X321598Y15605D01*
X321573Y15704D01*
X321544Y15801D01*
X321512Y15898D01*
X321475Y15993D01*
X321436Y16086D01*
X321392Y16179D01*
X321345Y16269D01*
X321295Y16357D01*
X321241Y16444D01*
X321184Y16528D01*
X321124Y16610D01*
X321061Y16690D01*
X320995Y16767D01*
X320926Y16842D01*
X320854Y16914D01*
X320779Y16983D01*
X320702Y17049D01*
X320622Y17112D01*
X320540Y17172D01*
X320456Y17229D01*
X320369Y17283D01*
X320281Y17333D01*
X320191Y17380D01*
X320098Y17424D01*
X320005Y17463D01*
X319910Y17500D01*
X319813Y17532D01*
X319716Y17561D01*
X319617Y17586D01*
X319518Y17607D01*
X319417Y17625D01*
X319317Y17638D01*
X319215Y17648D01*
X319114Y17654D01*
X319012Y17656D01*
X315471Y17656D01*
X337193Y22968D02*
X337193Y7032D01*
X332767Y7032D01*
X332665Y7034D01*
X332564Y7040D01*
X332462Y7050D01*
X332362Y7063D01*
X332261Y7081D01*
X332162Y7102D01*
X332063Y7127D01*
X331966Y7156D01*
X331869Y7188D01*
X331774Y7225D01*
X331681Y7264D01*
X331588Y7308D01*
X331498Y7355D01*
X331410Y7405D01*
X331323Y7459D01*
X331239Y7516D01*
X331157Y7576D01*
X331077Y7639D01*
X331000Y7705D01*
X330925Y7774D01*
X330853Y7846D01*
X330784Y7921D01*
X330718Y7998D01*
X330655Y8078D01*
X330595Y8160D01*
X330538Y8244D01*
X330484Y8331D01*
X330434Y8419D01*
X330387Y8509D01*
X330343Y8602D01*
X330304Y8695D01*
X330267Y8790D01*
X330235Y8887D01*
X330206Y8984D01*
X330181Y9083D01*
X330160Y9182D01*
X330142Y9283D01*
X330129Y9383D01*
X330119Y9485D01*
X330113Y9586D01*
X330111Y9688D01*
X330111Y15000D01*
X330113Y15102D01*
X330119Y15203D01*
X330129Y15305D01*
X330142Y15405D01*
X330160Y15506D01*
X330181Y15605D01*
X330206Y15704D01*
X330235Y15801D01*
X330267Y15898D01*
X330304Y15993D01*
X330343Y16086D01*
X330387Y16179D01*
X330434Y16269D01*
X330484Y16357D01*
X330538Y16444D01*
X330595Y16528D01*
X330655Y16610D01*
X330718Y16690D01*
X330784Y16767D01*
X330853Y16842D01*
X330925Y16914D01*
X331000Y16983D01*
X331077Y17049D01*
X331157Y17112D01*
X331239Y17172D01*
X331323Y17229D01*
X331410Y17283D01*
X331498Y17333D01*
X331588Y17380D01*
X331681Y17424D01*
X331774Y17463D01*
X331869Y17500D01*
X331966Y17532D01*
X332063Y17561D01*
X332162Y17586D01*
X332261Y17607D01*
X332362Y17625D01*
X332462Y17638D01*
X332564Y17648D01*
X332665Y17654D01*
X332767Y17656D01*
X337193Y17656D01*
X354401Y17656D02*
X357943Y7032D01*
X361484Y17656D01*
X369041Y19427D02*
X373468Y22968D01*
X373468Y7032D01*
X377894Y7032D02*
X369041Y7032D01*
X88416Y722032D02*
X88416Y737968D01*
X95499Y737968D01*
X95499Y730885D02*
X88416Y730885D01*
X102731Y734427D02*
X107158Y737968D01*
X107158Y722032D01*
X111584Y722032D02*
X102731Y722032D01*
X278416Y722032D02*
X278416Y737968D01*
X285499Y737968D01*
X285499Y730885D02*
X278416Y730885D01*
X297600Y737968D02*
X297725Y737966D01*
X297850Y737960D01*
X297975Y737950D01*
X298099Y737937D01*
X298223Y737919D01*
X298347Y737897D01*
X298469Y737872D01*
X298591Y737843D01*
X298712Y737810D01*
X298831Y737773D01*
X298950Y737732D01*
X299067Y737688D01*
X299182Y737640D01*
X299296Y737589D01*
X299409Y737534D01*
X299519Y737475D01*
X299628Y737413D01*
X299735Y737348D01*
X299839Y737279D01*
X299942Y737207D01*
X300042Y737132D01*
X300139Y737054D01*
X300235Y736972D01*
X300327Y736888D01*
X300417Y736801D01*
X300504Y736711D01*
X300588Y736619D01*
X300670Y736523D01*
X300748Y736426D01*
X300823Y736326D01*
X300895Y736223D01*
X300964Y736119D01*
X301029Y736012D01*
X301091Y735903D01*
X301150Y735793D01*
X301205Y735680D01*
X301256Y735566D01*
X301304Y735451D01*
X301348Y735334D01*
X301389Y735215D01*
X301426Y735096D01*
X301459Y734975D01*
X301488Y734853D01*
X301513Y734731D01*
X301535Y734607D01*
X301553Y734483D01*
X301566Y734359D01*
X301576Y734234D01*
X301582Y734109D01*
X301584Y733984D01*
X297600Y737968D02*
X297460Y737966D01*
X297320Y737960D01*
X297181Y737951D01*
X297041Y737937D01*
X296903Y737920D01*
X296764Y737899D01*
X296627Y737875D01*
X296490Y737846D01*
X296353Y737814D01*
X296218Y737778D01*
X296084Y737738D01*
X295951Y737695D01*
X295819Y737648D01*
X295689Y737598D01*
X295560Y737544D01*
X295432Y737486D01*
X295306Y737425D01*
X295182Y737361D01*
X295059Y737293D01*
X294939Y737222D01*
X294820Y737147D01*
X294704Y737070D01*
X294590Y736989D01*
X294478Y736905D01*
X294368Y736818D01*
X294261Y736729D01*
X294156Y736636D01*
X294054Y736540D01*
X293954Y736442D01*
X293857Y736341D01*
X293763Y736237D01*
X293672Y736131D01*
X293584Y736023D01*
X293499Y735912D01*
X293417Y735798D01*
X293338Y735683D01*
X293262Y735565D01*
X293189Y735446D01*
X293120Y735324D01*
X293054Y735201D01*
X292991Y735076D01*
X292932Y734949D01*
X292877Y734820D01*
X292824Y734691D01*
X292776Y734559D01*
X292731Y734427D01*
X300256Y730885D02*
X300348Y730975D01*
X300436Y731068D01*
X300523Y731163D01*
X300606Y731261D01*
X300686Y731361D01*
X300763Y731464D01*
X300837Y731568D01*
X300908Y731675D01*
X300975Y731785D01*
X301040Y731896D01*
X301101Y732009D01*
X301158Y732123D01*
X301212Y732240D01*
X301263Y732358D01*
X301310Y732477D01*
X301353Y732598D01*
X301393Y732720D01*
X301429Y732843D01*
X301461Y732967D01*
X301490Y733092D01*
X301515Y733218D01*
X301536Y733345D01*
X301553Y733472D01*
X301567Y733600D01*
X301576Y733727D01*
X301582Y733856D01*
X301584Y733984D01*
X300256Y730885D02*
X292731Y722032D01*
X301584Y722032D01*
X468416Y722032D02*
X468416Y737968D01*
X475499Y737968D01*
X475499Y730885D02*
X468416Y730885D01*
X482731Y722032D02*
X487158Y722032D01*
X487289Y722034D01*
X487420Y722040D01*
X487551Y722049D01*
X487682Y722063D01*
X487812Y722081D01*
X487941Y722102D01*
X488070Y722127D01*
X488198Y722156D01*
X488325Y722189D01*
X488451Y722225D01*
X488576Y722265D01*
X488699Y722309D01*
X488822Y722357D01*
X488943Y722408D01*
X489062Y722462D01*
X489179Y722520D01*
X489295Y722582D01*
X489409Y722647D01*
X489521Y722716D01*
X489631Y722787D01*
X489739Y722862D01*
X489844Y722940D01*
X489947Y723021D01*
X490048Y723105D01*
X490146Y723193D01*
X490242Y723283D01*
X490334Y723375D01*
X490424Y723471D01*
X490512Y723569D01*
X490596Y723670D01*
X490677Y723773D01*
X490755Y723878D01*
X490830Y723986D01*
X490901Y724096D01*
X490970Y724208D01*
X491035Y724322D01*
X491097Y724438D01*
X491155Y724555D01*
X491209Y724674D01*
X491260Y724795D01*
X491308Y724918D01*
X491352Y725041D01*
X491392Y725166D01*
X491428Y725292D01*
X491461Y725419D01*
X491490Y725547D01*
X491515Y725676D01*
X491536Y725805D01*
X491554Y725935D01*
X491568Y726066D01*
X491577Y726197D01*
X491583Y726328D01*
X491585Y726459D01*
X491583Y726590D01*
X491577Y726721D01*
X491568Y726852D01*
X491554Y726983D01*
X491536Y727113D01*
X491515Y727242D01*
X491490Y727371D01*
X491461Y727499D01*
X491428Y727626D01*
X491392Y727752D01*
X491352Y727877D01*
X491308Y728000D01*
X491260Y728123D01*
X491209Y728244D01*
X491155Y728363D01*
X491097Y728480D01*
X491035Y728596D01*
X490970Y728710D01*
X490901Y728822D01*
X490830Y728932D01*
X490755Y729040D01*
X490677Y729145D01*
X490596Y729248D01*
X490512Y729349D01*
X490424Y729447D01*
X490334Y729543D01*
X490242Y729635D01*
X490146Y729725D01*
X490048Y729813D01*
X489947Y729897D01*
X489844Y729978D01*
X489739Y730056D01*
X489631Y730131D01*
X489521Y730202D01*
X489409Y730271D01*
X489295Y730336D01*
X489179Y730398D01*
X489062Y730456D01*
X488943Y730510D01*
X488822Y730561D01*
X488699Y730609D01*
X488576Y730653D01*
X488451Y730693D01*
X488325Y730729D01*
X488198Y730762D01*
X488070Y730791D01*
X487941Y730816D01*
X487812Y730837D01*
X487682Y730855D01*
X487551Y730869D01*
X487420Y730878D01*
X487289Y730884D01*
X487158Y730886D01*
X488043Y737968D02*
X482731Y737968D01*
X488043Y737968D02*
X488161Y737966D01*
X488280Y737960D01*
X488397Y737950D01*
X488515Y737936D01*
X488632Y737919D01*
X488748Y737897D01*
X488864Y737872D01*
X488979Y737842D01*
X489092Y737809D01*
X489205Y737772D01*
X489316Y737731D01*
X489425Y737687D01*
X489534Y737639D01*
X489640Y737587D01*
X489745Y737532D01*
X489848Y737474D01*
X489948Y737412D01*
X490047Y737346D01*
X490143Y737278D01*
X490238Y737206D01*
X490329Y737131D01*
X490418Y737053D01*
X490505Y736972D01*
X490588Y736889D01*
X490669Y736802D01*
X490747Y736713D01*
X490822Y736622D01*
X490894Y736527D01*
X490962Y736431D01*
X491028Y736332D01*
X491090Y736232D01*
X491148Y736129D01*
X491203Y736024D01*
X491255Y735918D01*
X491303Y735809D01*
X491347Y735700D01*
X491388Y735589D01*
X491425Y735476D01*
X491458Y735363D01*
X491488Y735248D01*
X491513Y735132D01*
X491535Y735016D01*
X491552Y734899D01*
X491566Y734781D01*
X491576Y734664D01*
X491582Y734545D01*
X491584Y734427D01*
X491582Y734309D01*
X491576Y734190D01*
X491566Y734073D01*
X491552Y733955D01*
X491535Y733838D01*
X491513Y733722D01*
X491488Y733606D01*
X491458Y733491D01*
X491425Y733378D01*
X491388Y733265D01*
X491347Y733154D01*
X491303Y733045D01*
X491255Y732936D01*
X491203Y732830D01*
X491148Y732725D01*
X491090Y732622D01*
X491028Y732522D01*
X490962Y732423D01*
X490894Y732327D01*
X490822Y732232D01*
X490747Y732141D01*
X490669Y732052D01*
X490588Y731965D01*
X490505Y731882D01*
X490418Y731801D01*
X490329Y731723D01*
X490238Y731648D01*
X490143Y731576D01*
X490047Y731508D01*
X489948Y731442D01*
X489848Y731380D01*
X489745Y731322D01*
X489640Y731267D01*
X489534Y731215D01*
X489425Y731167D01*
X489316Y731123D01*
X489205Y731082D01*
X489092Y731045D01*
X488979Y731012D01*
X488864Y730982D01*
X488748Y730957D01*
X488632Y730935D01*
X488515Y730918D01*
X488397Y730904D01*
X488280Y730894D01*
X488161Y730888D01*
X488043Y730886D01*
X488043Y730885D02*
X484502Y730885D01*
X88416Y547968D02*
X88416Y532032D01*
X88416Y547968D02*
X95499Y547968D01*
X95499Y540885D02*
X88416Y540885D01*
X102731Y535573D02*
X106272Y547968D01*
X102731Y535573D02*
X111584Y535573D01*
X108928Y532032D02*
X108928Y539115D01*
X278416Y532032D02*
X278416Y547968D01*
X285499Y547968D01*
X285499Y540885D02*
X278416Y540885D01*
X292731Y532032D02*
X298043Y532032D01*
X298161Y532034D01*
X298280Y532040D01*
X298397Y532050D01*
X298515Y532064D01*
X298632Y532081D01*
X298748Y532103D01*
X298864Y532128D01*
X298979Y532158D01*
X299092Y532191D01*
X299205Y532228D01*
X299316Y532269D01*
X299425Y532313D01*
X299534Y532361D01*
X299640Y532413D01*
X299745Y532468D01*
X299848Y532526D01*
X299948Y532588D01*
X300047Y532654D01*
X300143Y532722D01*
X300238Y532794D01*
X300329Y532869D01*
X300418Y532947D01*
X300505Y533028D01*
X300588Y533111D01*
X300669Y533198D01*
X300747Y533287D01*
X300822Y533378D01*
X300894Y533473D01*
X300962Y533569D01*
X301028Y533668D01*
X301090Y533768D01*
X301148Y533871D01*
X301203Y533976D01*
X301255Y534082D01*
X301303Y534191D01*
X301347Y534300D01*
X301388Y534411D01*
X301425Y534524D01*
X301458Y534637D01*
X301488Y534752D01*
X301513Y534868D01*
X301535Y534984D01*
X301552Y535101D01*
X301566Y535219D01*
X301576Y535336D01*
X301582Y535455D01*
X301584Y535573D01*
X301584Y537344D01*
X301582Y537462D01*
X301576Y537581D01*
X301566Y537698D01*
X301552Y537816D01*
X301535Y537933D01*
X301513Y538049D01*
X301488Y538165D01*
X301458Y538280D01*
X301425Y538393D01*
X301388Y538506D01*
X301347Y538617D01*
X301303Y538726D01*
X301255Y538835D01*
X301203Y538941D01*
X301148Y539046D01*
X301090Y539149D01*
X301028Y539249D01*
X300962Y539348D01*
X300894Y539444D01*
X300822Y539539D01*
X300747Y539630D01*
X300669Y539719D01*
X300588Y539806D01*
X300505Y539889D01*
X300418Y539970D01*
X300329Y540048D01*
X300238Y540123D01*
X300143Y540195D01*
X300047Y540263D01*
X299948Y540329D01*
X299848Y540391D01*
X299745Y540449D01*
X299640Y540504D01*
X299534Y540556D01*
X299425Y540604D01*
X299316Y540648D01*
X299205Y540689D01*
X299092Y540726D01*
X298979Y540759D01*
X298864Y540789D01*
X298748Y540814D01*
X298632Y540836D01*
X298515Y540853D01*
X298397Y540867D01*
X298280Y540877D01*
X298161Y540883D01*
X298043Y540885D01*
X292731Y540885D01*
X292731Y547968D01*
X301584Y547968D01*
X468416Y547968D02*
X468416Y532032D01*
X468416Y547968D02*
X475499Y547968D01*
X475499Y540885D02*
X468416Y540885D01*
X482731Y540885D02*
X488043Y540885D01*
X488161Y540883D01*
X488280Y540877D01*
X488397Y540867D01*
X488515Y540853D01*
X488632Y540836D01*
X488748Y540814D01*
X488864Y540789D01*
X488979Y540759D01*
X489092Y540726D01*
X489205Y540689D01*
X489316Y540648D01*
X489425Y540604D01*
X489534Y540556D01*
X489640Y540504D01*
X489745Y540449D01*
X489848Y540391D01*
X489948Y540329D01*
X490047Y540263D01*
X490143Y540195D01*
X490238Y540123D01*
X490329Y540048D01*
X490418Y539970D01*
X490505Y539889D01*
X490588Y539806D01*
X490669Y539719D01*
X490747Y539630D01*
X490822Y539539D01*
X490894Y539444D01*
X490962Y539348D01*
X491028Y539249D01*
X491090Y539149D01*
X491148Y539046D01*
X491203Y538941D01*
X491255Y538835D01*
X491303Y538726D01*
X491347Y538617D01*
X491388Y538506D01*
X491425Y538393D01*
X491458Y538280D01*
X491488Y538165D01*
X491513Y538049D01*
X491535Y537933D01*
X491552Y537816D01*
X491566Y537698D01*
X491576Y537581D01*
X491582Y537462D01*
X491584Y537344D01*
X491584Y536459D01*
X491585Y536459D02*
X491583Y536328D01*
X491577Y536197D01*
X491568Y536066D01*
X491554Y535935D01*
X491536Y535805D01*
X491515Y535676D01*
X491490Y535547D01*
X491461Y535419D01*
X491428Y535292D01*
X491392Y535166D01*
X491352Y535041D01*
X491308Y534918D01*
X491260Y534795D01*
X491209Y534674D01*
X491155Y534555D01*
X491097Y534438D01*
X491035Y534322D01*
X490970Y534208D01*
X490901Y534096D01*
X490830Y533986D01*
X490755Y533878D01*
X490677Y533773D01*
X490596Y533670D01*
X490512Y533569D01*
X490424Y533471D01*
X490334Y533375D01*
X490242Y533283D01*
X490146Y533193D01*
X490048Y533105D01*
X489947Y533021D01*
X489844Y532940D01*
X489739Y532862D01*
X489631Y532787D01*
X489521Y532716D01*
X489409Y532647D01*
X489295Y532582D01*
X489179Y532520D01*
X489062Y532462D01*
X488943Y532408D01*
X488822Y532357D01*
X488699Y532309D01*
X488576Y532265D01*
X488451Y532225D01*
X488325Y532189D01*
X488198Y532156D01*
X488070Y532127D01*
X487941Y532102D01*
X487812Y532081D01*
X487682Y532063D01*
X487551Y532049D01*
X487420Y532040D01*
X487289Y532034D01*
X487158Y532032D01*
X487027Y532034D01*
X486896Y532040D01*
X486765Y532049D01*
X486634Y532063D01*
X486504Y532081D01*
X486375Y532102D01*
X486246Y532127D01*
X486118Y532156D01*
X485991Y532189D01*
X485865Y532225D01*
X485740Y532265D01*
X485617Y532309D01*
X485494Y532357D01*
X485373Y532408D01*
X485254Y532462D01*
X485137Y532520D01*
X485021Y532582D01*
X484907Y532647D01*
X484795Y532716D01*
X484685Y532787D01*
X484577Y532862D01*
X484472Y532940D01*
X484369Y533021D01*
X484268Y533105D01*
X484170Y533193D01*
X484074Y533283D01*
X483982Y533375D01*
X483892Y533471D01*
X483804Y533569D01*
X483720Y533670D01*
X483639Y533773D01*
X483561Y533878D01*
X483486Y533986D01*
X483415Y534096D01*
X483346Y534208D01*
X483281Y534322D01*
X483219Y534438D01*
X483161Y534555D01*
X483107Y534674D01*
X483056Y534795D01*
X483008Y534918D01*
X482964Y535041D01*
X482924Y535166D01*
X482888Y535292D01*
X482855Y535419D01*
X482826Y535547D01*
X482801Y535676D01*
X482780Y535805D01*
X482762Y535935D01*
X482748Y536066D01*
X482739Y536197D01*
X482733Y536328D01*
X482731Y536459D01*
X482731Y540885D01*
X482733Y541059D01*
X482740Y541233D01*
X482750Y541406D01*
X482765Y541579D01*
X482784Y541752D01*
X482808Y541924D01*
X482835Y542096D01*
X482867Y542267D01*
X482903Y542437D01*
X482943Y542606D01*
X482988Y542774D01*
X483036Y542941D01*
X483088Y543107D01*
X483145Y543271D01*
X483206Y543434D01*
X483270Y543596D01*
X483339Y543755D01*
X483411Y543913D01*
X483487Y544070D01*
X483567Y544224D01*
X483651Y544376D01*
X483739Y544526D01*
X483830Y544674D01*
X483925Y544820D01*
X484023Y544963D01*
X484125Y545104D01*
X484230Y545243D01*
X484339Y545378D01*
X484451Y545511D01*
X484566Y545642D01*
X484684Y545769D01*
X484806Y545893D01*
X484930Y546015D01*
X485057Y546133D01*
X485188Y546248D01*
X485321Y546360D01*
X485456Y546469D01*
X485595Y546574D01*
X485736Y546676D01*
X485879Y546774D01*
X486025Y546869D01*
X486173Y546960D01*
X486323Y547048D01*
X486475Y547132D01*
X486629Y547212D01*
X486786Y547288D01*
X486944Y547360D01*
X487103Y547429D01*
X487265Y547493D01*
X487428Y547554D01*
X487592Y547611D01*
X487758Y547663D01*
X487925Y547711D01*
X488093Y547756D01*
X488262Y547796D01*
X488432Y547832D01*
X488603Y547864D01*
X488775Y547891D01*
X488947Y547915D01*
X489120Y547934D01*
X489293Y547949D01*
X489466Y547959D01*
X489640Y547966D01*
X489814Y547968D01*
X88416Y357968D02*
X88416Y342032D01*
X88416Y357968D02*
X95499Y357968D01*
X95499Y350885D02*
X88416Y350885D01*
X102731Y356197D02*
X102731Y357968D01*
X111584Y357968D01*
X107158Y342032D01*
X278416Y342032D02*
X278416Y357968D01*
X285499Y357968D01*
X285499Y350885D02*
X278416Y350885D01*
X292731Y346459D02*
X292733Y346590D01*
X292739Y346721D01*
X292748Y346852D01*
X292762Y346983D01*
X292780Y347113D01*
X292801Y347242D01*
X292826Y347371D01*
X292855Y347499D01*
X292888Y347626D01*
X292924Y347752D01*
X292964Y347877D01*
X293008Y348000D01*
X293056Y348123D01*
X293107Y348244D01*
X293161Y348363D01*
X293219Y348480D01*
X293281Y348596D01*
X293346Y348710D01*
X293415Y348822D01*
X293486Y348932D01*
X293561Y349040D01*
X293639Y349145D01*
X293720Y349248D01*
X293804Y349349D01*
X293892Y349447D01*
X293982Y349543D01*
X294074Y349635D01*
X294170Y349725D01*
X294268Y349813D01*
X294369Y349897D01*
X294472Y349978D01*
X294577Y350056D01*
X294685Y350131D01*
X294795Y350202D01*
X294907Y350271D01*
X295021Y350336D01*
X295137Y350398D01*
X295254Y350456D01*
X295373Y350510D01*
X295494Y350561D01*
X295617Y350609D01*
X295740Y350653D01*
X295865Y350693D01*
X295991Y350729D01*
X296118Y350762D01*
X296246Y350791D01*
X296375Y350816D01*
X296504Y350837D01*
X296634Y350855D01*
X296765Y350869D01*
X296896Y350878D01*
X297027Y350884D01*
X297158Y350886D01*
X297289Y350884D01*
X297420Y350878D01*
X297551Y350869D01*
X297682Y350855D01*
X297812Y350837D01*
X297941Y350816D01*
X298070Y350791D01*
X298198Y350762D01*
X298325Y350729D01*
X298451Y350693D01*
X298576Y350653D01*
X298699Y350609D01*
X298822Y350561D01*
X298943Y350510D01*
X299062Y350456D01*
X299179Y350398D01*
X299295Y350336D01*
X299409Y350271D01*
X299521Y350202D01*
X299631Y350131D01*
X299739Y350056D01*
X299844Y349978D01*
X299947Y349897D01*
X300048Y349813D01*
X300146Y349725D01*
X300242Y349635D01*
X300334Y349543D01*
X300424Y349447D01*
X300512Y349349D01*
X300596Y349248D01*
X300677Y349145D01*
X300755Y349040D01*
X300830Y348932D01*
X300901Y348822D01*
X300970Y348710D01*
X301035Y348596D01*
X301097Y348480D01*
X301155Y348363D01*
X301209Y348244D01*
X301260Y348123D01*
X301308Y348000D01*
X301352Y347877D01*
X301392Y347752D01*
X301428Y347626D01*
X301461Y347499D01*
X301490Y347371D01*
X301515Y347242D01*
X301536Y347113D01*
X301554Y346983D01*
X301568Y346852D01*
X301577Y346721D01*
X301583Y346590D01*
X301585Y346459D01*
X301583Y346328D01*
X301577Y346197D01*
X301568Y346066D01*
X301554Y345935D01*
X301536Y345805D01*
X301515Y345676D01*
X301490Y345547D01*
X301461Y345419D01*
X301428Y345292D01*
X301392Y345166D01*
X301352Y345041D01*
X301308Y344918D01*
X301260Y344795D01*
X301209Y344674D01*
X301155Y344555D01*
X301097Y344438D01*
X301035Y344322D01*
X300970Y344208D01*
X300901Y344096D01*
X300830Y343986D01*
X300755Y343878D01*
X300677Y343773D01*
X300596Y343670D01*
X300512Y343569D01*
X300424Y343471D01*
X300334Y343375D01*
X300242Y343283D01*
X300146Y343193D01*
X300048Y343105D01*
X299947Y343021D01*
X299844Y342940D01*
X299739Y342862D01*
X299631Y342787D01*
X299521Y342716D01*
X299409Y342647D01*
X299295Y342582D01*
X299179Y342520D01*
X299062Y342462D01*
X298943Y342408D01*
X298822Y342357D01*
X298699Y342309D01*
X298576Y342265D01*
X298451Y342225D01*
X298325Y342189D01*
X298198Y342156D01*
X298070Y342127D01*
X297941Y342102D01*
X297812Y342081D01*
X297682Y342063D01*
X297551Y342049D01*
X297420Y342040D01*
X297289Y342034D01*
X297158Y342032D01*
X297027Y342034D01*
X296896Y342040D01*
X296765Y342049D01*
X296634Y342063D01*
X296504Y342081D01*
X296375Y342102D01*
X296246Y342127D01*
X296118Y342156D01*
X295991Y342189D01*
X295865Y342225D01*
X295740Y342265D01*
X295617Y342309D01*
X295494Y342357D01*
X295373Y342408D01*
X295254Y342462D01*
X295137Y342520D01*
X295021Y342582D01*
X294907Y342647D01*
X294795Y342716D01*
X294685Y342787D01*
X294577Y342862D01*
X294472Y342940D01*
X294369Y343021D01*
X294268Y343105D01*
X294170Y343193D01*
X294074Y343283D01*
X293982Y343375D01*
X293892Y343471D01*
X293804Y343569D01*
X293720Y343670D01*
X293639Y343773D01*
X293561Y343878D01*
X293486Y343986D01*
X293415Y344096D01*
X293346Y344208D01*
X293281Y344322D01*
X293219Y344438D01*
X293161Y344555D01*
X293107Y344674D01*
X293056Y344795D01*
X293008Y344918D01*
X292964Y345041D01*
X292924Y345166D01*
X292888Y345292D01*
X292855Y345419D01*
X292826Y345547D01*
X292801Y345676D01*
X292780Y345805D01*
X292762Y345935D01*
X292748Y346066D01*
X292739Y346197D01*
X292733Y346328D01*
X292731Y346459D01*
X293617Y354427D02*
X293619Y354545D01*
X293625Y354664D01*
X293635Y354781D01*
X293649Y354899D01*
X293666Y355016D01*
X293688Y355132D01*
X293713Y355248D01*
X293743Y355363D01*
X293776Y355476D01*
X293813Y355589D01*
X293854Y355700D01*
X293898Y355809D01*
X293946Y355918D01*
X293998Y356024D01*
X294053Y356129D01*
X294111Y356232D01*
X294173Y356332D01*
X294239Y356431D01*
X294307Y356527D01*
X294379Y356622D01*
X294454Y356713D01*
X294532Y356802D01*
X294613Y356889D01*
X294696Y356972D01*
X294783Y357053D01*
X294872Y357131D01*
X294963Y357206D01*
X295058Y357278D01*
X295154Y357346D01*
X295253Y357412D01*
X295353Y357474D01*
X295456Y357532D01*
X295561Y357587D01*
X295667Y357639D01*
X295776Y357687D01*
X295885Y357731D01*
X295996Y357772D01*
X296109Y357809D01*
X296222Y357842D01*
X296337Y357872D01*
X296453Y357897D01*
X296569Y357919D01*
X296686Y357936D01*
X296804Y357950D01*
X296921Y357960D01*
X297040Y357966D01*
X297158Y357968D01*
X297276Y357966D01*
X297395Y357960D01*
X297512Y357950D01*
X297630Y357936D01*
X297747Y357919D01*
X297863Y357897D01*
X297979Y357872D01*
X298094Y357842D01*
X298207Y357809D01*
X298320Y357772D01*
X298431Y357731D01*
X298540Y357687D01*
X298649Y357639D01*
X298755Y357587D01*
X298860Y357532D01*
X298963Y357474D01*
X299063Y357412D01*
X299162Y357346D01*
X299258Y357278D01*
X299353Y357206D01*
X299444Y357131D01*
X299533Y357053D01*
X299620Y356972D01*
X299703Y356889D01*
X299784Y356802D01*
X299862Y356713D01*
X299937Y356622D01*
X300009Y356527D01*
X300077Y356431D01*
X300143Y356332D01*
X300205Y356232D01*
X300263Y356129D01*
X300318Y356024D01*
X300370Y355918D01*
X300418Y355809D01*
X300462Y355700D01*
X300503Y355589D01*
X300540Y355476D01*
X300573Y355363D01*
X300603Y355248D01*
X300628Y355132D01*
X300650Y355016D01*
X300667Y354899D01*
X300681Y354781D01*
X300691Y354664D01*
X300697Y354545D01*
X300699Y354427D01*
X300697Y354309D01*
X300691Y354190D01*
X300681Y354073D01*
X300667Y353955D01*
X300650Y353838D01*
X300628Y353722D01*
X300603Y353606D01*
X300573Y353491D01*
X300540Y353378D01*
X300503Y353265D01*
X300462Y353154D01*
X300418Y353045D01*
X300370Y352936D01*
X300318Y352830D01*
X300263Y352725D01*
X300205Y352622D01*
X300143Y352522D01*
X300077Y352423D01*
X300009Y352327D01*
X299937Y352232D01*
X299862Y352141D01*
X299784Y352052D01*
X299703Y351965D01*
X299620Y351882D01*
X299533Y351801D01*
X299444Y351723D01*
X299353Y351648D01*
X299258Y351576D01*
X299162Y351508D01*
X299063Y351442D01*
X298963Y351380D01*
X298860Y351322D01*
X298755Y351267D01*
X298649Y351215D01*
X298540Y351167D01*
X298431Y351123D01*
X298320Y351082D01*
X298207Y351045D01*
X298094Y351012D01*
X297979Y350982D01*
X297863Y350957D01*
X297747Y350935D01*
X297630Y350918D01*
X297512Y350904D01*
X297395Y350894D01*
X297276Y350888D01*
X297158Y350886D01*
X297040Y350888D01*
X296921Y350894D01*
X296804Y350904D01*
X296686Y350918D01*
X296569Y350935D01*
X296453Y350957D01*
X296337Y350982D01*
X296222Y351012D01*
X296109Y351045D01*
X295996Y351082D01*
X295885Y351123D01*
X295776Y351167D01*
X295667Y351215D01*
X295561Y351267D01*
X295456Y351322D01*
X295353Y351380D01*
X295253Y351442D01*
X295154Y351508D01*
X295058Y351576D01*
X294963Y351648D01*
X294872Y351723D01*
X294783Y351801D01*
X294696Y351882D01*
X294613Y351965D01*
X294532Y352052D01*
X294454Y352141D01*
X294379Y352232D01*
X294307Y352327D01*
X294239Y352423D01*
X294173Y352522D01*
X294111Y352622D01*
X294053Y352725D01*
X293998Y352830D01*
X293946Y352936D01*
X293898Y353045D01*
X293854Y353154D01*
X293813Y353265D01*
X293776Y353378D01*
X293743Y353491D01*
X293713Y353606D01*
X293688Y353722D01*
X293666Y353838D01*
X293649Y353955D01*
X293635Y354073D01*
X293625Y354190D01*
X293619Y354309D01*
X293617Y354427D01*
X468416Y357968D02*
X468416Y342032D01*
X468416Y357968D02*
X475499Y357968D01*
X475499Y350885D02*
X468416Y350885D01*
X486272Y349115D02*
X491584Y349115D01*
X486272Y349115D02*
X486154Y349117D01*
X486035Y349123D01*
X485918Y349133D01*
X485800Y349147D01*
X485683Y349164D01*
X485567Y349186D01*
X485451Y349211D01*
X485336Y349241D01*
X485223Y349274D01*
X485110Y349311D01*
X484999Y349352D01*
X484890Y349396D01*
X484781Y349444D01*
X484675Y349496D01*
X484570Y349551D01*
X484467Y349609D01*
X484367Y349671D01*
X484268Y349737D01*
X484172Y349805D01*
X484077Y349877D01*
X483986Y349952D01*
X483897Y350030D01*
X483810Y350111D01*
X483727Y350194D01*
X483646Y350281D01*
X483568Y350370D01*
X483493Y350461D01*
X483421Y350556D01*
X483353Y350652D01*
X483287Y350751D01*
X483225Y350851D01*
X483167Y350954D01*
X483112Y351059D01*
X483060Y351165D01*
X483012Y351274D01*
X482968Y351383D01*
X482927Y351494D01*
X482890Y351607D01*
X482857Y351721D01*
X482827Y351835D01*
X482802Y351951D01*
X482780Y352067D01*
X482763Y352184D01*
X482749Y352302D01*
X482739Y352420D01*
X482733Y352538D01*
X482731Y352656D01*
X482731Y353541D01*
X482733Y353672D01*
X482739Y353803D01*
X482748Y353934D01*
X482762Y354065D01*
X482780Y354195D01*
X482801Y354324D01*
X482826Y354453D01*
X482855Y354581D01*
X482888Y354708D01*
X482924Y354834D01*
X482964Y354959D01*
X483008Y355082D01*
X483056Y355205D01*
X483107Y355326D01*
X483161Y355445D01*
X483219Y355562D01*
X483281Y355678D01*
X483346Y355792D01*
X483415Y355904D01*
X483486Y356014D01*
X483561Y356122D01*
X483639Y356227D01*
X483720Y356330D01*
X483804Y356431D01*
X483892Y356529D01*
X483982Y356625D01*
X484074Y356717D01*
X484170Y356807D01*
X484268Y356895D01*
X484369Y356979D01*
X484472Y357060D01*
X484577Y357138D01*
X484685Y357213D01*
X484795Y357284D01*
X484907Y357353D01*
X485021Y357418D01*
X485137Y357480D01*
X485254Y357538D01*
X485373Y357592D01*
X485494Y357643D01*
X485617Y357691D01*
X485740Y357735D01*
X485865Y357775D01*
X485991Y357811D01*
X486118Y357844D01*
X486246Y357873D01*
X486375Y357898D01*
X486504Y357919D01*
X486634Y357937D01*
X486765Y357951D01*
X486896Y357960D01*
X487027Y357966D01*
X487158Y357968D01*
X487289Y357966D01*
X487420Y357960D01*
X487551Y357951D01*
X487682Y357937D01*
X487812Y357919D01*
X487941Y357898D01*
X488070Y357873D01*
X488198Y357844D01*
X488325Y357811D01*
X488451Y357775D01*
X488576Y357735D01*
X488699Y357691D01*
X488822Y357643D01*
X488943Y357592D01*
X489062Y357538D01*
X489179Y357480D01*
X489295Y357418D01*
X489409Y357353D01*
X489521Y357284D01*
X489631Y357213D01*
X489739Y357138D01*
X489844Y357060D01*
X489947Y356979D01*
X490048Y356895D01*
X490146Y356807D01*
X490242Y356717D01*
X490334Y356625D01*
X490424Y356529D01*
X490512Y356431D01*
X490596Y356330D01*
X490677Y356227D01*
X490755Y356122D01*
X490830Y356014D01*
X490901Y355904D01*
X490970Y355792D01*
X491035Y355678D01*
X491097Y355562D01*
X491155Y355445D01*
X491209Y355326D01*
X491260Y355205D01*
X491308Y355082D01*
X491352Y354959D01*
X491392Y354834D01*
X491428Y354708D01*
X491461Y354581D01*
X491490Y354453D01*
X491515Y354324D01*
X491536Y354195D01*
X491554Y354065D01*
X491568Y353934D01*
X491577Y353803D01*
X491583Y353672D01*
X491585Y353541D01*
X491584Y353541D02*
X491584Y349115D01*
X491582Y348941D01*
X491575Y348767D01*
X491565Y348594D01*
X491550Y348421D01*
X491531Y348248D01*
X491507Y348076D01*
X491480Y347904D01*
X491448Y347733D01*
X491412Y347563D01*
X491372Y347394D01*
X491327Y347226D01*
X491279Y347059D01*
X491227Y346893D01*
X491170Y346729D01*
X491109Y346566D01*
X491045Y346404D01*
X490976Y346245D01*
X490904Y346087D01*
X490828Y345930D01*
X490748Y345776D01*
X490664Y345624D01*
X490576Y345474D01*
X490485Y345326D01*
X490390Y345180D01*
X490292Y345037D01*
X490190Y344896D01*
X490085Y344757D01*
X489976Y344622D01*
X489864Y344489D01*
X489749Y344358D01*
X489631Y344231D01*
X489509Y344107D01*
X489385Y343985D01*
X489258Y343867D01*
X489127Y343752D01*
X488994Y343640D01*
X488859Y343531D01*
X488720Y343426D01*
X488579Y343324D01*
X488436Y343226D01*
X488290Y343131D01*
X488142Y343040D01*
X487992Y342952D01*
X487840Y342868D01*
X487686Y342788D01*
X487529Y342712D01*
X487371Y342640D01*
X487212Y342571D01*
X487050Y342507D01*
X486887Y342446D01*
X486723Y342389D01*
X486557Y342337D01*
X486390Y342289D01*
X486222Y342244D01*
X486053Y342204D01*
X485883Y342168D01*
X485712Y342136D01*
X485540Y342109D01*
X485368Y342085D01*
X485195Y342066D01*
X485022Y342051D01*
X484849Y342041D01*
X484675Y342034D01*
X484501Y342032D01*
X74791Y167968D02*
X74791Y152032D01*
X74791Y167968D02*
X81874Y167968D01*
X81874Y160885D02*
X74791Y160885D01*
X89106Y164427D02*
X93533Y167968D01*
X93533Y152032D01*
X97959Y152032D02*
X89106Y152032D01*
X106356Y160000D02*
X106360Y160313D01*
X106371Y160627D01*
X106390Y160940D01*
X106416Y161252D01*
X106449Y161564D01*
X106490Y161875D01*
X106539Y162184D01*
X106595Y162493D01*
X106658Y162800D01*
X106728Y163105D01*
X106806Y163409D01*
X106891Y163711D01*
X106983Y164011D01*
X107083Y164308D01*
X107189Y164603D01*
X107302Y164895D01*
X107423Y165185D01*
X107550Y165471D01*
X107684Y165755D01*
X107684Y165754D02*
X107723Y165861D01*
X107765Y165965D01*
X107810Y166069D01*
X107859Y166170D01*
X107912Y166270D01*
X107968Y166368D01*
X108028Y166464D01*
X108090Y166558D01*
X108156Y166650D01*
X108225Y166739D01*
X108297Y166826D01*
X108372Y166910D01*
X108450Y166992D01*
X108531Y167071D01*
X108614Y167147D01*
X108700Y167220D01*
X108788Y167291D01*
X108879Y167358D01*
X108972Y167422D01*
X109067Y167483D01*
X109164Y167540D01*
X109263Y167594D01*
X109364Y167645D01*
X109467Y167692D01*
X109571Y167735D01*
X109676Y167775D01*
X109783Y167812D01*
X109891Y167844D01*
X110000Y167873D01*
X110111Y167898D01*
X110221Y167919D01*
X110333Y167937D01*
X110445Y167951D01*
X110557Y167960D01*
X110670Y167966D01*
X110783Y167968D01*
X110896Y167966D01*
X111009Y167960D01*
X111121Y167951D01*
X111233Y167937D01*
X111345Y167919D01*
X111456Y167898D01*
X111566Y167873D01*
X111675Y167844D01*
X111783Y167812D01*
X111890Y167775D01*
X111995Y167735D01*
X112099Y167692D01*
X112202Y167645D01*
X112303Y167594D01*
X112402Y167540D01*
X112499Y167483D01*
X112594Y167422D01*
X112687Y167358D01*
X112778Y167291D01*
X112866Y167220D01*
X112952Y167147D01*
X113035Y167071D01*
X113116Y166992D01*
X113194Y166910D01*
X113269Y166826D01*
X113341Y166739D01*
X113410Y166650D01*
X113476Y166558D01*
X113538Y166464D01*
X113598Y166368D01*
X113654Y166270D01*
X113707Y166170D01*
X113756Y166069D01*
X113801Y165965D01*
X113843Y165861D01*
X113882Y165754D01*
X113881Y165755D02*
X114015Y165471D01*
X114142Y165185D01*
X114263Y164895D01*
X114376Y164603D01*
X114482Y164308D01*
X114582Y164011D01*
X114674Y163711D01*
X114759Y163409D01*
X114837Y163105D01*
X114907Y162800D01*
X114970Y162493D01*
X115026Y162184D01*
X115075Y161875D01*
X115116Y161564D01*
X115149Y161252D01*
X115175Y160940D01*
X115194Y160627D01*
X115205Y160313D01*
X115209Y160000D01*
X106355Y160000D02*
X106359Y159686D01*
X106370Y159373D01*
X106389Y159060D01*
X106415Y158748D01*
X106448Y158436D01*
X106490Y158125D01*
X106538Y157815D01*
X106594Y157507D01*
X106657Y157200D01*
X106727Y156894D01*
X106805Y156591D01*
X106890Y156289D01*
X106982Y155989D01*
X107082Y155692D01*
X107188Y155397D01*
X107301Y155105D01*
X107422Y154815D01*
X107549Y154529D01*
X107683Y154245D01*
X107684Y154245D02*
X107723Y154139D01*
X107765Y154035D01*
X107810Y153931D01*
X107859Y153830D01*
X107912Y153730D01*
X107968Y153632D01*
X108028Y153536D01*
X108090Y153442D01*
X108156Y153350D01*
X108225Y153261D01*
X108297Y153174D01*
X108372Y153090D01*
X108450Y153008D01*
X108531Y152929D01*
X108614Y152853D01*
X108700Y152780D01*
X108788Y152709D01*
X108879Y152642D01*
X108972Y152578D01*
X109067Y152517D01*
X109164Y152460D01*
X109263Y152406D01*
X109364Y152355D01*
X109467Y152308D01*
X109571Y152265D01*
X109676Y152225D01*
X109783Y152188D01*
X109891Y152156D01*
X110000Y152127D01*
X110111Y152102D01*
X110221Y152081D01*
X110333Y152063D01*
X110445Y152049D01*
X110557Y152040D01*
X110670Y152034D01*
X110783Y152032D01*
X113882Y154245D02*
X114016Y154529D01*
X114143Y154815D01*
X114264Y155105D01*
X114377Y155397D01*
X114483Y155692D01*
X114583Y155989D01*
X114675Y156289D01*
X114760Y156591D01*
X114838Y156894D01*
X114908Y157200D01*
X114971Y157507D01*
X115027Y157815D01*
X115075Y158125D01*
X115117Y158436D01*
X115150Y158748D01*
X115176Y159060D01*
X115195Y159373D01*
X115206Y159686D01*
X115210Y160000D01*
X113882Y154246D02*
X113843Y154139D01*
X113801Y154035D01*
X113756Y153931D01*
X113707Y153830D01*
X113654Y153730D01*
X113598Y153632D01*
X113538Y153536D01*
X113476Y153442D01*
X113410Y153350D01*
X113341Y153261D01*
X113269Y153174D01*
X113194Y153090D01*
X113116Y153008D01*
X113035Y152929D01*
X112952Y152853D01*
X112866Y152780D01*
X112778Y152709D01*
X112687Y152642D01*
X112594Y152578D01*
X112499Y152517D01*
X112402Y152460D01*
X112303Y152406D01*
X112202Y152355D01*
X112099Y152308D01*
X111995Y152265D01*
X111890Y152225D01*
X111783Y152188D01*
X111675Y152156D01*
X111566Y152127D01*
X111455Y152102D01*
X111345Y152081D01*
X111233Y152063D01*
X111121Y152049D01*
X111009Y152040D01*
X110896Y152034D01*
X110783Y152032D01*
X107241Y155573D02*
X114324Y164427D01*
X264791Y167968D02*
X264791Y152032D01*
X264791Y167968D02*
X271874Y167968D01*
X271874Y160885D02*
X264791Y160885D01*
X279106Y164427D02*
X283533Y167968D01*
X283533Y152032D01*
X287959Y152032D02*
X279106Y152032D01*
X296356Y164427D02*
X300783Y167968D01*
X300783Y152032D01*
X305209Y152032D02*
X296356Y152032D01*
X454791Y152032D02*
X454791Y167968D01*
X461874Y167968D01*
X461874Y160885D02*
X454791Y160885D01*
X469106Y164427D02*
X473533Y167968D01*
X473533Y152032D01*
X477959Y152032D02*
X469106Y152032D01*
X491225Y167968D02*
X491350Y167966D01*
X491475Y167960D01*
X491600Y167950D01*
X491724Y167937D01*
X491848Y167919D01*
X491972Y167897D01*
X492094Y167872D01*
X492216Y167843D01*
X492337Y167810D01*
X492456Y167773D01*
X492575Y167732D01*
X492692Y167688D01*
X492807Y167640D01*
X492921Y167589D01*
X493034Y167534D01*
X493144Y167475D01*
X493253Y167413D01*
X493360Y167348D01*
X493464Y167279D01*
X493567Y167207D01*
X493667Y167132D01*
X493764Y167054D01*
X493860Y166972D01*
X493952Y166888D01*
X494042Y166801D01*
X494129Y166711D01*
X494213Y166619D01*
X494295Y166523D01*
X494373Y166426D01*
X494448Y166326D01*
X494520Y166223D01*
X494589Y166119D01*
X494654Y166012D01*
X494716Y165903D01*
X494775Y165793D01*
X494830Y165680D01*
X494881Y165566D01*
X494929Y165451D01*
X494973Y165334D01*
X495014Y165215D01*
X495051Y165096D01*
X495084Y164975D01*
X495113Y164853D01*
X495138Y164731D01*
X495160Y164607D01*
X495178Y164483D01*
X495191Y164359D01*
X495201Y164234D01*
X495207Y164109D01*
X495209Y163984D01*
X491225Y167968D02*
X491085Y167966D01*
X490945Y167960D01*
X490806Y167951D01*
X490666Y167937D01*
X490528Y167920D01*
X490389Y167899D01*
X490252Y167875D01*
X490115Y167846D01*
X489978Y167814D01*
X489843Y167778D01*
X489709Y167738D01*
X489576Y167695D01*
X489444Y167648D01*
X489314Y167598D01*
X489185Y167544D01*
X489057Y167486D01*
X488931Y167425D01*
X488807Y167361D01*
X488684Y167293D01*
X488564Y167222D01*
X488445Y167147D01*
X488329Y167070D01*
X488215Y166989D01*
X488103Y166905D01*
X487993Y166818D01*
X487886Y166729D01*
X487781Y166636D01*
X487679Y166540D01*
X487579Y166442D01*
X487482Y166341D01*
X487388Y166237D01*
X487297Y166131D01*
X487209Y166023D01*
X487124Y165912D01*
X487042Y165798D01*
X486963Y165683D01*
X486887Y165565D01*
X486814Y165446D01*
X486745Y165324D01*
X486679Y165201D01*
X486616Y165076D01*
X486557Y164949D01*
X486502Y164820D01*
X486449Y164691D01*
X486401Y164559D01*
X486356Y164427D01*
X493881Y160885D02*
X493973Y160975D01*
X494061Y161068D01*
X494148Y161163D01*
X494231Y161261D01*
X494311Y161361D01*
X494388Y161464D01*
X494462Y161568D01*
X494533Y161675D01*
X494600Y161785D01*
X494665Y161896D01*
X494726Y162009D01*
X494783Y162123D01*
X494837Y162240D01*
X494888Y162358D01*
X494935Y162477D01*
X494978Y162598D01*
X495018Y162720D01*
X495054Y162843D01*
X495086Y162967D01*
X495115Y163092D01*
X495140Y163218D01*
X495161Y163345D01*
X495178Y163472D01*
X495192Y163600D01*
X495201Y163727D01*
X495207Y163856D01*
X495209Y163984D01*
X493881Y160885D02*
X486356Y152032D01*
X495209Y152032D01*
X106066Y832032D02*
X98984Y832032D01*
X98984Y847968D01*
X106066Y847968D01*
X104296Y840885D02*
X98984Y840885D01*
X113934Y847968D02*
X113934Y832032D01*
X121016Y832032D01*
X478040Y832032D02*
X485123Y832032D01*
X478040Y832032D02*
X478040Y847968D01*
X485123Y847968D01*
X483352Y840885D02*
X478040Y840885D01*
X493106Y847968D02*
X493106Y832032D01*
X493106Y847968D02*
X497533Y847968D01*
X497664Y847966D01*
X497795Y847960D01*
X497926Y847951D01*
X498057Y847937D01*
X498187Y847919D01*
X498316Y847898D01*
X498445Y847873D01*
X498573Y847844D01*
X498700Y847811D01*
X498826Y847775D01*
X498951Y847735D01*
X499074Y847691D01*
X499197Y847643D01*
X499318Y847592D01*
X499437Y847538D01*
X499554Y847480D01*
X499670Y847418D01*
X499784Y847353D01*
X499896Y847284D01*
X500006Y847213D01*
X500114Y847138D01*
X500219Y847060D01*
X500322Y846979D01*
X500423Y846895D01*
X500521Y846807D01*
X500617Y846717D01*
X500709Y846625D01*
X500799Y846529D01*
X500887Y846431D01*
X500971Y846330D01*
X501052Y846227D01*
X501130Y846122D01*
X501205Y846014D01*
X501276Y845904D01*
X501345Y845792D01*
X501410Y845678D01*
X501472Y845562D01*
X501530Y845445D01*
X501584Y845326D01*
X501635Y845205D01*
X501683Y845082D01*
X501727Y844959D01*
X501767Y844834D01*
X501803Y844708D01*
X501836Y844581D01*
X501865Y844453D01*
X501890Y844324D01*
X501911Y844195D01*
X501929Y844065D01*
X501943Y843934D01*
X501952Y843803D01*
X501958Y843672D01*
X501960Y843541D01*
X501958Y843410D01*
X501952Y843279D01*
X501943Y843148D01*
X501929Y843017D01*
X501911Y842887D01*
X501890Y842758D01*
X501865Y842629D01*
X501836Y842501D01*
X501803Y842374D01*
X501767Y842248D01*
X501727Y842123D01*
X501683Y842000D01*
X501635Y841877D01*
X501584Y841756D01*
X501530Y841637D01*
X501472Y841520D01*
X501410Y841404D01*
X501345Y841290D01*
X501276Y841178D01*
X501205Y841068D01*
X501130Y840960D01*
X501052Y840855D01*
X500971Y840752D01*
X500887Y840651D01*
X500799Y840553D01*
X500709Y840457D01*
X500617Y840365D01*
X500521Y840275D01*
X500423Y840187D01*
X500322Y840103D01*
X500219Y840022D01*
X500114Y839944D01*
X500006Y839869D01*
X499896Y839798D01*
X499784Y839729D01*
X499670Y839664D01*
X499554Y839602D01*
X499437Y839544D01*
X499318Y839490D01*
X499197Y839439D01*
X499074Y839391D01*
X498951Y839347D01*
X498826Y839307D01*
X498700Y839271D01*
X498573Y839238D01*
X498445Y839209D01*
X498316Y839184D01*
X498187Y839163D01*
X498057Y839145D01*
X497926Y839131D01*
X497795Y839122D01*
X497664Y839116D01*
X497533Y839114D01*
X497533Y839115D02*
X493106Y839115D01*
X498418Y839115D02*
X501960Y832032D01*
D12*
X289438Y951016D02*
X289438Y958984D01*
X291651Y958984D01*
X291744Y958982D01*
X291836Y958976D01*
X291928Y958967D01*
X292020Y958953D01*
X292111Y958936D01*
X292201Y958914D01*
X292291Y958890D01*
X292379Y958861D01*
X292466Y958829D01*
X292551Y958793D01*
X292635Y958753D01*
X292717Y958710D01*
X292797Y958664D01*
X292876Y958614D01*
X292952Y958561D01*
X293026Y958505D01*
X293097Y958446D01*
X293166Y958384D01*
X293232Y958319D01*
X293296Y958252D01*
X293356Y958182D01*
X293414Y958109D01*
X293468Y958034D01*
X293519Y957957D01*
X293568Y957878D01*
X293612Y957796D01*
X293653Y957713D01*
X293691Y957629D01*
X293725Y957542D01*
X293756Y957455D01*
X293782Y957366D01*
X293806Y957276D01*
X293825Y957186D01*
X293840Y957094D01*
X293852Y957002D01*
X293860Y956910D01*
X293864Y956817D01*
X293864Y956725D01*
X293860Y956632D01*
X293852Y956540D01*
X293840Y956448D01*
X293825Y956356D01*
X293806Y956266D01*
X293782Y956176D01*
X293756Y956087D01*
X293725Y956000D01*
X293691Y955913D01*
X293653Y955829D01*
X293612Y955746D01*
X293568Y955665D01*
X293519Y955585D01*
X293468Y955508D01*
X293414Y955433D01*
X293356Y955360D01*
X293296Y955290D01*
X293232Y955223D01*
X293166Y955158D01*
X293097Y955096D01*
X293026Y955037D01*
X292952Y954981D01*
X292876Y954928D01*
X292797Y954878D01*
X292717Y954832D01*
X292635Y954789D01*
X292551Y954749D01*
X292466Y954713D01*
X292379Y954681D01*
X292291Y954652D01*
X292201Y954628D01*
X292111Y954606D01*
X292020Y954589D01*
X291928Y954575D01*
X291836Y954566D01*
X291744Y954560D01*
X291651Y954558D01*
X291651Y954557D02*
X289438Y954557D01*
X292094Y954557D02*
X293865Y951016D01*
X300691Y951016D02*
X300773Y951018D01*
X300854Y951024D01*
X300936Y951033D01*
X301016Y951046D01*
X301096Y951063D01*
X301176Y951084D01*
X301254Y951108D01*
X301331Y951136D01*
X301406Y951167D01*
X301480Y951202D01*
X301553Y951240D01*
X301623Y951281D01*
X301692Y951326D01*
X301758Y951374D01*
X301822Y951425D01*
X301884Y951478D01*
X301943Y951535D01*
X302000Y951594D01*
X302053Y951656D01*
X302104Y951720D01*
X302152Y951786D01*
X302197Y951855D01*
X302238Y951925D01*
X302276Y951998D01*
X302311Y952072D01*
X302342Y952147D01*
X302370Y952224D01*
X302394Y952302D01*
X302415Y952382D01*
X302432Y952462D01*
X302445Y952542D01*
X302454Y952624D01*
X302460Y952705D01*
X302462Y952787D01*
X300691Y951016D02*
X300573Y951018D01*
X300455Y951023D01*
X300337Y951033D01*
X300220Y951046D01*
X300103Y951063D01*
X299987Y951083D01*
X299871Y951107D01*
X299756Y951135D01*
X299642Y951166D01*
X299529Y951201D01*
X299418Y951239D01*
X299307Y951281D01*
X299198Y951327D01*
X299091Y951376D01*
X298985Y951428D01*
X298880Y951483D01*
X298778Y951542D01*
X298677Y951604D01*
X298579Y951669D01*
X298483Y951738D01*
X298388Y951809D01*
X298296Y951883D01*
X298207Y951960D01*
X298120Y952040D01*
X298035Y952123D01*
X298256Y957213D02*
X298258Y957295D01*
X298264Y957376D01*
X298273Y957458D01*
X298286Y957538D01*
X298303Y957618D01*
X298324Y957698D01*
X298348Y957776D01*
X298376Y957853D01*
X298407Y957928D01*
X298442Y958002D01*
X298480Y958075D01*
X298521Y958145D01*
X298566Y958214D01*
X298614Y958280D01*
X298665Y958344D01*
X298718Y958406D01*
X298775Y958465D01*
X298834Y958522D01*
X298896Y958575D01*
X298960Y958626D01*
X299026Y958674D01*
X299095Y958719D01*
X299165Y958760D01*
X299238Y958798D01*
X299312Y958833D01*
X299387Y958864D01*
X299464Y958892D01*
X299542Y958916D01*
X299622Y958937D01*
X299702Y958954D01*
X299782Y958967D01*
X299864Y958976D01*
X299945Y958982D01*
X300027Y958984D01*
X300139Y958982D01*
X300252Y958976D01*
X300364Y958967D01*
X300475Y958954D01*
X300587Y958937D01*
X300697Y958916D01*
X300807Y958891D01*
X300916Y958863D01*
X301023Y958831D01*
X301130Y958795D01*
X301235Y958756D01*
X301339Y958714D01*
X301442Y958667D01*
X301543Y958618D01*
X301642Y958565D01*
X301739Y958508D01*
X301835Y958449D01*
X301928Y958386D01*
X302019Y958320D01*
X299142Y955664D02*
X299073Y955707D01*
X299006Y955753D01*
X298941Y955801D01*
X298879Y955853D01*
X298819Y955908D01*
X298761Y955965D01*
X298706Y956024D01*
X298654Y956086D01*
X298604Y956151D01*
X298558Y956217D01*
X298514Y956286D01*
X298474Y956356D01*
X298437Y956429D01*
X298403Y956502D01*
X298373Y956578D01*
X298346Y956654D01*
X298323Y956732D01*
X298303Y956811D01*
X298286Y956890D01*
X298273Y956970D01*
X298264Y957051D01*
X298259Y957132D01*
X298257Y957213D01*
X301577Y954336D02*
X301646Y954293D01*
X301713Y954247D01*
X301778Y954199D01*
X301840Y954147D01*
X301900Y954092D01*
X301958Y954035D01*
X302013Y953976D01*
X302065Y953914D01*
X302115Y953849D01*
X302161Y953783D01*
X302205Y953714D01*
X302245Y953644D01*
X302282Y953571D01*
X302316Y953498D01*
X302346Y953422D01*
X302373Y953346D01*
X302396Y953268D01*
X302416Y953189D01*
X302433Y953110D01*
X302446Y953030D01*
X302455Y952949D01*
X302460Y952868D01*
X302462Y952787D01*
X301577Y954336D02*
X299142Y955664D01*
X308349Y958984D02*
X308349Y951016D01*
X306135Y958984D02*
X310562Y958984D01*
D13*
X71900Y705400D03*
X135400Y730800D03*
D14*
X59200Y680000D03*
X160800Y680000D03*
D10*
X89680Y680000D02*
X89686Y680499D01*
X89704Y680997D01*
X89735Y681495D01*
X89778Y681992D01*
X89833Y682487D01*
X89900Y682982D01*
X89979Y683474D01*
X90070Y683964D01*
X90174Y684452D01*
X90289Y684937D01*
X90416Y685420D01*
X90555Y685899D01*
X90706Y686374D01*
X90868Y686846D01*
X91042Y687313D01*
X91227Y687776D01*
X91423Y688235D01*
X91631Y688688D01*
X91850Y689136D01*
X92079Y689579D01*
X92320Y690016D01*
X92571Y690447D01*
X92833Y690871D01*
X93105Y691289D01*
X93387Y691700D01*
X93679Y692105D01*
X93981Y692502D01*
X94292Y692891D01*
X94614Y693272D01*
X94944Y693646D01*
X95283Y694011D01*
X95632Y694368D01*
X95989Y694717D01*
X96354Y695056D01*
X96728Y695386D01*
X97109Y695708D01*
X97498Y696019D01*
X97895Y696321D01*
X98300Y696613D01*
X98711Y696895D01*
X99129Y697167D01*
X99553Y697429D01*
X99984Y697680D01*
X100421Y697921D01*
X100864Y698150D01*
X101312Y698369D01*
X101765Y698577D01*
X102224Y698773D01*
X102687Y698958D01*
X103154Y699132D01*
X103626Y699294D01*
X104101Y699445D01*
X104580Y699584D01*
X105063Y699711D01*
X105548Y699826D01*
X106036Y699930D01*
X106526Y700021D01*
X107018Y700100D01*
X107513Y700167D01*
X108008Y700222D01*
X108505Y700265D01*
X109003Y700296D01*
X109501Y700314D01*
X110000Y700320D01*
X110499Y700314D01*
X110997Y700296D01*
X111495Y700265D01*
X111992Y700222D01*
X112487Y700167D01*
X112982Y700100D01*
X113474Y700021D01*
X113964Y699930D01*
X114452Y699826D01*
X114937Y699711D01*
X115420Y699584D01*
X115899Y699445D01*
X116374Y699294D01*
X116846Y699132D01*
X117313Y698958D01*
X117776Y698773D01*
X118235Y698577D01*
X118688Y698369D01*
X119136Y698150D01*
X119579Y697921D01*
X120016Y697680D01*
X120447Y697429D01*
X120871Y697167D01*
X121289Y696895D01*
X121700Y696613D01*
X122105Y696321D01*
X122502Y696019D01*
X122891Y695708D01*
X123272Y695386D01*
X123646Y695056D01*
X124011Y694717D01*
X124368Y694368D01*
X124717Y694011D01*
X125056Y693646D01*
X125386Y693272D01*
X125708Y692891D01*
X126019Y692502D01*
X126321Y692105D01*
X126613Y691700D01*
X126895Y691289D01*
X127167Y690871D01*
X127429Y690447D01*
X127680Y690016D01*
X127921Y689579D01*
X128150Y689136D01*
X128369Y688688D01*
X128577Y688235D01*
X128773Y687776D01*
X128958Y687313D01*
X129132Y686846D01*
X129294Y686374D01*
X129445Y685899D01*
X129584Y685420D01*
X129711Y684937D01*
X129826Y684452D01*
X129930Y683964D01*
X130021Y683474D01*
X130100Y682982D01*
X130167Y682487D01*
X130222Y681992D01*
X130265Y681495D01*
X130296Y680997D01*
X130314Y680499D01*
X130320Y680000D01*
X130314Y679501D01*
X130296Y679003D01*
X130265Y678505D01*
X130222Y678008D01*
X130167Y677513D01*
X130100Y677018D01*
X130021Y676526D01*
X129930Y676036D01*
X129826Y675548D01*
X129711Y675063D01*
X129584Y674580D01*
X129445Y674101D01*
X129294Y673626D01*
X129132Y673154D01*
X128958Y672687D01*
X128773Y672224D01*
X128577Y671765D01*
X128369Y671312D01*
X128150Y670864D01*
X127921Y670421D01*
X127680Y669984D01*
X127429Y669553D01*
X127167Y669129D01*
X126895Y668711D01*
X126613Y668300D01*
X126321Y667895D01*
X126019Y667498D01*
X125708Y667109D01*
X125386Y666728D01*
X125056Y666354D01*
X124717Y665989D01*
X124368Y665632D01*
X124011Y665283D01*
X123646Y664944D01*
X123272Y664614D01*
X122891Y664292D01*
X122502Y663981D01*
X122105Y663679D01*
X121700Y663387D01*
X121289Y663105D01*
X120871Y662833D01*
X120447Y662571D01*
X120016Y662320D01*
X119579Y662079D01*
X119136Y661850D01*
X118688Y661631D01*
X118235Y661423D01*
X117776Y661227D01*
X117313Y661042D01*
X116846Y660868D01*
X116374Y660706D01*
X115899Y660555D01*
X115420Y660416D01*
X114937Y660289D01*
X114452Y660174D01*
X113964Y660070D01*
X113474Y659979D01*
X112982Y659900D01*
X112487Y659833D01*
X111992Y659778D01*
X111495Y659735D01*
X110997Y659704D01*
X110499Y659686D01*
X110000Y659680D01*
X109501Y659686D01*
X109003Y659704D01*
X108505Y659735D01*
X108008Y659778D01*
X107513Y659833D01*
X107018Y659900D01*
X106526Y659979D01*
X106036Y660070D01*
X105548Y660174D01*
X105063Y660289D01*
X104580Y660416D01*
X104101Y660555D01*
X103626Y660706D01*
X103154Y660868D01*
X102687Y661042D01*
X102224Y661227D01*
X101765Y661423D01*
X101312Y661631D01*
X100864Y661850D01*
X100421Y662079D01*
X99984Y662320D01*
X99553Y662571D01*
X99129Y662833D01*
X98711Y663105D01*
X98300Y663387D01*
X97895Y663679D01*
X97498Y663981D01*
X97109Y664292D01*
X96728Y664614D01*
X96354Y664944D01*
X95989Y665283D01*
X95632Y665632D01*
X95283Y665989D01*
X94944Y666354D01*
X94614Y666728D01*
X94292Y667109D01*
X93981Y667498D01*
X93679Y667895D01*
X93387Y668300D01*
X93105Y668711D01*
X92833Y669129D01*
X92571Y669553D01*
X92320Y669984D01*
X92079Y670421D01*
X91850Y670864D01*
X91631Y671312D01*
X91423Y671765D01*
X91227Y672224D01*
X91042Y672687D01*
X90868Y673154D01*
X90706Y673626D01*
X90555Y674101D01*
X90416Y674580D01*
X90289Y675063D01*
X90174Y675548D01*
X90070Y676036D01*
X89979Y676526D01*
X89900Y677018D01*
X89833Y677513D01*
X89778Y678008D01*
X89735Y678505D01*
X89704Y679003D01*
X89686Y679501D01*
X89680Y680000D01*
D15*
X110000Y680000D03*
D16*
X97300Y629200D03*
X122700Y629200D03*
D13*
X261900Y705400D03*
X325400Y730800D03*
D14*
X249200Y680000D03*
X350800Y680000D03*
D10*
X279680Y680000D02*
X279686Y680499D01*
X279704Y680997D01*
X279735Y681495D01*
X279778Y681992D01*
X279833Y682487D01*
X279900Y682982D01*
X279979Y683474D01*
X280070Y683964D01*
X280174Y684452D01*
X280289Y684937D01*
X280416Y685420D01*
X280555Y685899D01*
X280706Y686374D01*
X280868Y686846D01*
X281042Y687313D01*
X281227Y687776D01*
X281423Y688235D01*
X281631Y688688D01*
X281850Y689136D01*
X282079Y689579D01*
X282320Y690016D01*
X282571Y690447D01*
X282833Y690871D01*
X283105Y691289D01*
X283387Y691700D01*
X283679Y692105D01*
X283981Y692502D01*
X284292Y692891D01*
X284614Y693272D01*
X284944Y693646D01*
X285283Y694011D01*
X285632Y694368D01*
X285989Y694717D01*
X286354Y695056D01*
X286728Y695386D01*
X287109Y695708D01*
X287498Y696019D01*
X287895Y696321D01*
X288300Y696613D01*
X288711Y696895D01*
X289129Y697167D01*
X289553Y697429D01*
X289984Y697680D01*
X290421Y697921D01*
X290864Y698150D01*
X291312Y698369D01*
X291765Y698577D01*
X292224Y698773D01*
X292687Y698958D01*
X293154Y699132D01*
X293626Y699294D01*
X294101Y699445D01*
X294580Y699584D01*
X295063Y699711D01*
X295548Y699826D01*
X296036Y699930D01*
X296526Y700021D01*
X297018Y700100D01*
X297513Y700167D01*
X298008Y700222D01*
X298505Y700265D01*
X299003Y700296D01*
X299501Y700314D01*
X300000Y700320D01*
X300499Y700314D01*
X300997Y700296D01*
X301495Y700265D01*
X301992Y700222D01*
X302487Y700167D01*
X302982Y700100D01*
X303474Y700021D01*
X303964Y699930D01*
X304452Y699826D01*
X304937Y699711D01*
X305420Y699584D01*
X305899Y699445D01*
X306374Y699294D01*
X306846Y699132D01*
X307313Y698958D01*
X307776Y698773D01*
X308235Y698577D01*
X308688Y698369D01*
X309136Y698150D01*
X309579Y697921D01*
X310016Y697680D01*
X310447Y697429D01*
X310871Y697167D01*
X311289Y696895D01*
X311700Y696613D01*
X312105Y696321D01*
X312502Y696019D01*
X312891Y695708D01*
X313272Y695386D01*
X313646Y695056D01*
X314011Y694717D01*
X314368Y694368D01*
X314717Y694011D01*
X315056Y693646D01*
X315386Y693272D01*
X315708Y692891D01*
X316019Y692502D01*
X316321Y692105D01*
X316613Y691700D01*
X316895Y691289D01*
X317167Y690871D01*
X317429Y690447D01*
X317680Y690016D01*
X317921Y689579D01*
X318150Y689136D01*
X318369Y688688D01*
X318577Y688235D01*
X318773Y687776D01*
X318958Y687313D01*
X319132Y686846D01*
X319294Y686374D01*
X319445Y685899D01*
X319584Y685420D01*
X319711Y684937D01*
X319826Y684452D01*
X319930Y683964D01*
X320021Y683474D01*
X320100Y682982D01*
X320167Y682487D01*
X320222Y681992D01*
X320265Y681495D01*
X320296Y680997D01*
X320314Y680499D01*
X320320Y680000D01*
X320314Y679501D01*
X320296Y679003D01*
X320265Y678505D01*
X320222Y678008D01*
X320167Y677513D01*
X320100Y677018D01*
X320021Y676526D01*
X319930Y676036D01*
X319826Y675548D01*
X319711Y675063D01*
X319584Y674580D01*
X319445Y674101D01*
X319294Y673626D01*
X319132Y673154D01*
X318958Y672687D01*
X318773Y672224D01*
X318577Y671765D01*
X318369Y671312D01*
X318150Y670864D01*
X317921Y670421D01*
X317680Y669984D01*
X317429Y669553D01*
X317167Y669129D01*
X316895Y668711D01*
X316613Y668300D01*
X316321Y667895D01*
X316019Y667498D01*
X315708Y667109D01*
X315386Y666728D01*
X315056Y666354D01*
X314717Y665989D01*
X314368Y665632D01*
X314011Y665283D01*
X313646Y664944D01*
X313272Y664614D01*
X312891Y664292D01*
X312502Y663981D01*
X312105Y663679D01*
X311700Y663387D01*
X311289Y663105D01*
X310871Y662833D01*
X310447Y662571D01*
X310016Y662320D01*
X309579Y662079D01*
X309136Y661850D01*
X308688Y661631D01*
X308235Y661423D01*
X307776Y661227D01*
X307313Y661042D01*
X306846Y660868D01*
X306374Y660706D01*
X305899Y660555D01*
X305420Y660416D01*
X304937Y660289D01*
X304452Y660174D01*
X303964Y660070D01*
X303474Y659979D01*
X302982Y659900D01*
X302487Y659833D01*
X301992Y659778D01*
X301495Y659735D01*
X300997Y659704D01*
X300499Y659686D01*
X300000Y659680D01*
X299501Y659686D01*
X299003Y659704D01*
X298505Y659735D01*
X298008Y659778D01*
X297513Y659833D01*
X297018Y659900D01*
X296526Y659979D01*
X296036Y660070D01*
X295548Y660174D01*
X295063Y660289D01*
X294580Y660416D01*
X294101Y660555D01*
X293626Y660706D01*
X293154Y660868D01*
X292687Y661042D01*
X292224Y661227D01*
X291765Y661423D01*
X291312Y661631D01*
X290864Y661850D01*
X290421Y662079D01*
X289984Y662320D01*
X289553Y662571D01*
X289129Y662833D01*
X288711Y663105D01*
X288300Y663387D01*
X287895Y663679D01*
X287498Y663981D01*
X287109Y664292D01*
X286728Y664614D01*
X286354Y664944D01*
X285989Y665283D01*
X285632Y665632D01*
X285283Y665989D01*
X284944Y666354D01*
X284614Y666728D01*
X284292Y667109D01*
X283981Y667498D01*
X283679Y667895D01*
X283387Y668300D01*
X283105Y668711D01*
X282833Y669129D01*
X282571Y669553D01*
X282320Y669984D01*
X282079Y670421D01*
X281850Y670864D01*
X281631Y671312D01*
X281423Y671765D01*
X281227Y672224D01*
X281042Y672687D01*
X280868Y673154D01*
X280706Y673626D01*
X280555Y674101D01*
X280416Y674580D01*
X280289Y675063D01*
X280174Y675548D01*
X280070Y676036D01*
X279979Y676526D01*
X279900Y677018D01*
X279833Y677513D01*
X279778Y678008D01*
X279735Y678505D01*
X279704Y679003D01*
X279686Y679501D01*
X279680Y680000D01*
D15*
X300000Y680000D03*
D16*
X287300Y629200D03*
X312700Y629200D03*
D13*
X451900Y705400D03*
X515400Y730800D03*
D14*
X439200Y680000D03*
X540800Y680000D03*
D10*
X469680Y680000D02*
X469686Y680499D01*
X469704Y680997D01*
X469735Y681495D01*
X469778Y681992D01*
X469833Y682487D01*
X469900Y682982D01*
X469979Y683474D01*
X470070Y683964D01*
X470174Y684452D01*
X470289Y684937D01*
X470416Y685420D01*
X470555Y685899D01*
X470706Y686374D01*
X470868Y686846D01*
X471042Y687313D01*
X471227Y687776D01*
X471423Y688235D01*
X471631Y688688D01*
X471850Y689136D01*
X472079Y689579D01*
X472320Y690016D01*
X472571Y690447D01*
X472833Y690871D01*
X473105Y691289D01*
X473387Y691700D01*
X473679Y692105D01*
X473981Y692502D01*
X474292Y692891D01*
X474614Y693272D01*
X474944Y693646D01*
X475283Y694011D01*
X475632Y694368D01*
X475989Y694717D01*
X476354Y695056D01*
X476728Y695386D01*
X477109Y695708D01*
X477498Y696019D01*
X477895Y696321D01*
X478300Y696613D01*
X478711Y696895D01*
X479129Y697167D01*
X479553Y697429D01*
X479984Y697680D01*
X480421Y697921D01*
X480864Y698150D01*
X481312Y698369D01*
X481765Y698577D01*
X482224Y698773D01*
X482687Y698958D01*
X483154Y699132D01*
X483626Y699294D01*
X484101Y699445D01*
X484580Y699584D01*
X485063Y699711D01*
X485548Y699826D01*
X486036Y699930D01*
X486526Y700021D01*
X487018Y700100D01*
X487513Y700167D01*
X488008Y700222D01*
X488505Y700265D01*
X489003Y700296D01*
X489501Y700314D01*
X490000Y700320D01*
X490499Y700314D01*
X490997Y700296D01*
X491495Y700265D01*
X491992Y700222D01*
X492487Y700167D01*
X492982Y700100D01*
X493474Y700021D01*
X493964Y699930D01*
X494452Y699826D01*
X494937Y699711D01*
X495420Y699584D01*
X495899Y699445D01*
X496374Y699294D01*
X496846Y699132D01*
X497313Y698958D01*
X497776Y698773D01*
X498235Y698577D01*
X498688Y698369D01*
X499136Y698150D01*
X499579Y697921D01*
X500016Y697680D01*
X500447Y697429D01*
X500871Y697167D01*
X501289Y696895D01*
X501700Y696613D01*
X502105Y696321D01*
X502502Y696019D01*
X502891Y695708D01*
X503272Y695386D01*
X503646Y695056D01*
X504011Y694717D01*
X504368Y694368D01*
X504717Y694011D01*
X505056Y693646D01*
X505386Y693272D01*
X505708Y692891D01*
X506019Y692502D01*
X506321Y692105D01*
X506613Y691700D01*
X506895Y691289D01*
X507167Y690871D01*
X507429Y690447D01*
X507680Y690016D01*
X507921Y689579D01*
X508150Y689136D01*
X508369Y688688D01*
X508577Y688235D01*
X508773Y687776D01*
X508958Y687313D01*
X509132Y686846D01*
X509294Y686374D01*
X509445Y685899D01*
X509584Y685420D01*
X509711Y684937D01*
X509826Y684452D01*
X509930Y683964D01*
X510021Y683474D01*
X510100Y682982D01*
X510167Y682487D01*
X510222Y681992D01*
X510265Y681495D01*
X510296Y680997D01*
X510314Y680499D01*
X510320Y680000D01*
X510314Y679501D01*
X510296Y679003D01*
X510265Y678505D01*
X510222Y678008D01*
X510167Y677513D01*
X510100Y677018D01*
X510021Y676526D01*
X509930Y676036D01*
X509826Y675548D01*
X509711Y675063D01*
X509584Y674580D01*
X509445Y674101D01*
X509294Y673626D01*
X509132Y673154D01*
X508958Y672687D01*
X508773Y672224D01*
X508577Y671765D01*
X508369Y671312D01*
X508150Y670864D01*
X507921Y670421D01*
X507680Y669984D01*
X507429Y669553D01*
X507167Y669129D01*
X506895Y668711D01*
X506613Y668300D01*
X506321Y667895D01*
X506019Y667498D01*
X505708Y667109D01*
X505386Y666728D01*
X505056Y666354D01*
X504717Y665989D01*
X504368Y665632D01*
X504011Y665283D01*
X503646Y664944D01*
X503272Y664614D01*
X502891Y664292D01*
X502502Y663981D01*
X502105Y663679D01*
X501700Y663387D01*
X501289Y663105D01*
X500871Y662833D01*
X500447Y662571D01*
X500016Y662320D01*
X499579Y662079D01*
X499136Y661850D01*
X498688Y661631D01*
X498235Y661423D01*
X497776Y661227D01*
X497313Y661042D01*
X496846Y660868D01*
X496374Y660706D01*
X495899Y660555D01*
X495420Y660416D01*
X494937Y660289D01*
X494452Y660174D01*
X493964Y660070D01*
X493474Y659979D01*
X492982Y659900D01*
X492487Y659833D01*
X491992Y659778D01*
X491495Y659735D01*
X490997Y659704D01*
X490499Y659686D01*
X490000Y659680D01*
X489501Y659686D01*
X489003Y659704D01*
X488505Y659735D01*
X488008Y659778D01*
X487513Y659833D01*
X487018Y659900D01*
X486526Y659979D01*
X486036Y660070D01*
X485548Y660174D01*
X485063Y660289D01*
X484580Y660416D01*
X484101Y660555D01*
X483626Y660706D01*
X483154Y660868D01*
X482687Y661042D01*
X482224Y661227D01*
X481765Y661423D01*
X481312Y661631D01*
X480864Y661850D01*
X480421Y662079D01*
X479984Y662320D01*
X479553Y662571D01*
X479129Y662833D01*
X478711Y663105D01*
X478300Y663387D01*
X477895Y663679D01*
X477498Y663981D01*
X477109Y664292D01*
X476728Y664614D01*
X476354Y664944D01*
X475989Y665283D01*
X475632Y665632D01*
X475283Y665989D01*
X474944Y666354D01*
X474614Y666728D01*
X474292Y667109D01*
X473981Y667498D01*
X473679Y667895D01*
X473387Y668300D01*
X473105Y668711D01*
X472833Y669129D01*
X472571Y669553D01*
X472320Y669984D01*
X472079Y670421D01*
X471850Y670864D01*
X471631Y671312D01*
X471423Y671765D01*
X471227Y672224D01*
X471042Y672687D01*
X470868Y673154D01*
X470706Y673626D01*
X470555Y674101D01*
X470416Y674580D01*
X470289Y675063D01*
X470174Y675548D01*
X470070Y676036D01*
X469979Y676526D01*
X469900Y677018D01*
X469833Y677513D01*
X469778Y678008D01*
X469735Y678505D01*
X469704Y679003D01*
X469686Y679501D01*
X469680Y680000D01*
D15*
X490000Y680000D03*
D16*
X477300Y629200D03*
X502700Y629200D03*
D13*
X71900Y515400D03*
X135400Y540800D03*
D14*
X59200Y490000D03*
X160800Y490000D03*
D10*
X89680Y490000D02*
X89686Y490499D01*
X89704Y490997D01*
X89735Y491495D01*
X89778Y491992D01*
X89833Y492487D01*
X89900Y492982D01*
X89979Y493474D01*
X90070Y493964D01*
X90174Y494452D01*
X90289Y494937D01*
X90416Y495420D01*
X90555Y495899D01*
X90706Y496374D01*
X90868Y496846D01*
X91042Y497313D01*
X91227Y497776D01*
X91423Y498235D01*
X91631Y498688D01*
X91850Y499136D01*
X92079Y499579D01*
X92320Y500016D01*
X92571Y500447D01*
X92833Y500871D01*
X93105Y501289D01*
X93387Y501700D01*
X93679Y502105D01*
X93981Y502502D01*
X94292Y502891D01*
X94614Y503272D01*
X94944Y503646D01*
X95283Y504011D01*
X95632Y504368D01*
X95989Y504717D01*
X96354Y505056D01*
X96728Y505386D01*
X97109Y505708D01*
X97498Y506019D01*
X97895Y506321D01*
X98300Y506613D01*
X98711Y506895D01*
X99129Y507167D01*
X99553Y507429D01*
X99984Y507680D01*
X100421Y507921D01*
X100864Y508150D01*
X101312Y508369D01*
X101765Y508577D01*
X102224Y508773D01*
X102687Y508958D01*
X103154Y509132D01*
X103626Y509294D01*
X104101Y509445D01*
X104580Y509584D01*
X105063Y509711D01*
X105548Y509826D01*
X106036Y509930D01*
X106526Y510021D01*
X107018Y510100D01*
X107513Y510167D01*
X108008Y510222D01*
X108505Y510265D01*
X109003Y510296D01*
X109501Y510314D01*
X110000Y510320D01*
X110499Y510314D01*
X110997Y510296D01*
X111495Y510265D01*
X111992Y510222D01*
X112487Y510167D01*
X112982Y510100D01*
X113474Y510021D01*
X113964Y509930D01*
X114452Y509826D01*
X114937Y509711D01*
X115420Y509584D01*
X115899Y509445D01*
X116374Y509294D01*
X116846Y509132D01*
X117313Y508958D01*
X117776Y508773D01*
X118235Y508577D01*
X118688Y508369D01*
X119136Y508150D01*
X119579Y507921D01*
X120016Y507680D01*
X120447Y507429D01*
X120871Y507167D01*
X121289Y506895D01*
X121700Y506613D01*
X122105Y506321D01*
X122502Y506019D01*
X122891Y505708D01*
X123272Y505386D01*
X123646Y505056D01*
X124011Y504717D01*
X124368Y504368D01*
X124717Y504011D01*
X125056Y503646D01*
X125386Y503272D01*
X125708Y502891D01*
X126019Y502502D01*
X126321Y502105D01*
X126613Y501700D01*
X126895Y501289D01*
X127167Y500871D01*
X127429Y500447D01*
X127680Y500016D01*
X127921Y499579D01*
X128150Y499136D01*
X128369Y498688D01*
X128577Y498235D01*
X128773Y497776D01*
X128958Y497313D01*
X129132Y496846D01*
X129294Y496374D01*
X129445Y495899D01*
X129584Y495420D01*
X129711Y494937D01*
X129826Y494452D01*
X129930Y493964D01*
X130021Y493474D01*
X130100Y492982D01*
X130167Y492487D01*
X130222Y491992D01*
X130265Y491495D01*
X130296Y490997D01*
X130314Y490499D01*
X130320Y490000D01*
X130314Y489501D01*
X130296Y489003D01*
X130265Y488505D01*
X130222Y488008D01*
X130167Y487513D01*
X130100Y487018D01*
X130021Y486526D01*
X129930Y486036D01*
X129826Y485548D01*
X129711Y485063D01*
X129584Y484580D01*
X129445Y484101D01*
X129294Y483626D01*
X129132Y483154D01*
X128958Y482687D01*
X128773Y482224D01*
X128577Y481765D01*
X128369Y481312D01*
X128150Y480864D01*
X127921Y480421D01*
X127680Y479984D01*
X127429Y479553D01*
X127167Y479129D01*
X126895Y478711D01*
X126613Y478300D01*
X126321Y477895D01*
X126019Y477498D01*
X125708Y477109D01*
X125386Y476728D01*
X125056Y476354D01*
X124717Y475989D01*
X124368Y475632D01*
X124011Y475283D01*
X123646Y474944D01*
X123272Y474614D01*
X122891Y474292D01*
X122502Y473981D01*
X122105Y473679D01*
X121700Y473387D01*
X121289Y473105D01*
X120871Y472833D01*
X120447Y472571D01*
X120016Y472320D01*
X119579Y472079D01*
X119136Y471850D01*
X118688Y471631D01*
X118235Y471423D01*
X117776Y471227D01*
X117313Y471042D01*
X116846Y470868D01*
X116374Y470706D01*
X115899Y470555D01*
X115420Y470416D01*
X114937Y470289D01*
X114452Y470174D01*
X113964Y470070D01*
X113474Y469979D01*
X112982Y469900D01*
X112487Y469833D01*
X111992Y469778D01*
X111495Y469735D01*
X110997Y469704D01*
X110499Y469686D01*
X110000Y469680D01*
X109501Y469686D01*
X109003Y469704D01*
X108505Y469735D01*
X108008Y469778D01*
X107513Y469833D01*
X107018Y469900D01*
X106526Y469979D01*
X106036Y470070D01*
X105548Y470174D01*
X105063Y470289D01*
X104580Y470416D01*
X104101Y470555D01*
X103626Y470706D01*
X103154Y470868D01*
X102687Y471042D01*
X102224Y471227D01*
X101765Y471423D01*
X101312Y471631D01*
X100864Y471850D01*
X100421Y472079D01*
X99984Y472320D01*
X99553Y472571D01*
X99129Y472833D01*
X98711Y473105D01*
X98300Y473387D01*
X97895Y473679D01*
X97498Y473981D01*
X97109Y474292D01*
X96728Y474614D01*
X96354Y474944D01*
X95989Y475283D01*
X95632Y475632D01*
X95283Y475989D01*
X94944Y476354D01*
X94614Y476728D01*
X94292Y477109D01*
X93981Y477498D01*
X93679Y477895D01*
X93387Y478300D01*
X93105Y478711D01*
X92833Y479129D01*
X92571Y479553D01*
X92320Y479984D01*
X92079Y480421D01*
X91850Y480864D01*
X91631Y481312D01*
X91423Y481765D01*
X91227Y482224D01*
X91042Y482687D01*
X90868Y483154D01*
X90706Y483626D01*
X90555Y484101D01*
X90416Y484580D01*
X90289Y485063D01*
X90174Y485548D01*
X90070Y486036D01*
X89979Y486526D01*
X89900Y487018D01*
X89833Y487513D01*
X89778Y488008D01*
X89735Y488505D01*
X89704Y489003D01*
X89686Y489501D01*
X89680Y490000D01*
D15*
X110000Y490000D03*
D16*
X97300Y439200D03*
X122700Y439200D03*
D13*
X261900Y515400D03*
X325400Y540800D03*
D14*
X249200Y490000D03*
X350800Y490000D03*
D10*
X279680Y490000D02*
X279686Y490499D01*
X279704Y490997D01*
X279735Y491495D01*
X279778Y491992D01*
X279833Y492487D01*
X279900Y492982D01*
X279979Y493474D01*
X280070Y493964D01*
X280174Y494452D01*
X280289Y494937D01*
X280416Y495420D01*
X280555Y495899D01*
X280706Y496374D01*
X280868Y496846D01*
X281042Y497313D01*
X281227Y497776D01*
X281423Y498235D01*
X281631Y498688D01*
X281850Y499136D01*
X282079Y499579D01*
X282320Y500016D01*
X282571Y500447D01*
X282833Y500871D01*
X283105Y501289D01*
X283387Y501700D01*
X283679Y502105D01*
X283981Y502502D01*
X284292Y502891D01*
X284614Y503272D01*
X284944Y503646D01*
X285283Y504011D01*
X285632Y504368D01*
X285989Y504717D01*
X286354Y505056D01*
X286728Y505386D01*
X287109Y505708D01*
X287498Y506019D01*
X287895Y506321D01*
X288300Y506613D01*
X288711Y506895D01*
X289129Y507167D01*
X289553Y507429D01*
X289984Y507680D01*
X290421Y507921D01*
X290864Y508150D01*
X291312Y508369D01*
X291765Y508577D01*
X292224Y508773D01*
X292687Y508958D01*
X293154Y509132D01*
X293626Y509294D01*
X294101Y509445D01*
X294580Y509584D01*
X295063Y509711D01*
X295548Y509826D01*
X296036Y509930D01*
X296526Y510021D01*
X297018Y510100D01*
X297513Y510167D01*
X298008Y510222D01*
X298505Y510265D01*
X299003Y510296D01*
X299501Y510314D01*
X300000Y510320D01*
X300499Y510314D01*
X300997Y510296D01*
X301495Y510265D01*
X301992Y510222D01*
X302487Y510167D01*
X302982Y510100D01*
X303474Y510021D01*
X303964Y509930D01*
X304452Y509826D01*
X304937Y509711D01*
X305420Y509584D01*
X305899Y509445D01*
X306374Y509294D01*
X306846Y509132D01*
X307313Y508958D01*
X307776Y508773D01*
X308235Y508577D01*
X308688Y508369D01*
X309136Y508150D01*
X309579Y507921D01*
X310016Y507680D01*
X310447Y507429D01*
X310871Y507167D01*
X311289Y506895D01*
X311700Y506613D01*
X312105Y506321D01*
X312502Y506019D01*
X312891Y505708D01*
X313272Y505386D01*
X313646Y505056D01*
X314011Y504717D01*
X314368Y504368D01*
X314717Y504011D01*
X315056Y503646D01*
X315386Y503272D01*
X315708Y502891D01*
X316019Y502502D01*
X316321Y502105D01*
X316613Y501700D01*
X316895Y501289D01*
X317167Y500871D01*
X317429Y500447D01*
X317680Y500016D01*
X317921Y499579D01*
X318150Y499136D01*
X318369Y498688D01*
X318577Y498235D01*
X318773Y497776D01*
X318958Y497313D01*
X319132Y496846D01*
X319294Y496374D01*
X319445Y495899D01*
X319584Y495420D01*
X319711Y494937D01*
X319826Y494452D01*
X319930Y493964D01*
X320021Y493474D01*
X320100Y492982D01*
X320167Y492487D01*
X320222Y491992D01*
X320265Y491495D01*
X320296Y490997D01*
X320314Y490499D01*
X320320Y490000D01*
X320314Y489501D01*
X320296Y489003D01*
X320265Y488505D01*
X320222Y488008D01*
X320167Y487513D01*
X320100Y487018D01*
X320021Y486526D01*
X319930Y486036D01*
X319826Y485548D01*
X319711Y485063D01*
X319584Y484580D01*
X319445Y484101D01*
X319294Y483626D01*
X319132Y483154D01*
X318958Y482687D01*
X318773Y482224D01*
X318577Y481765D01*
X318369Y481312D01*
X318150Y480864D01*
X317921Y480421D01*
X317680Y479984D01*
X317429Y479553D01*
X317167Y479129D01*
X316895Y478711D01*
X316613Y478300D01*
X316321Y477895D01*
X316019Y477498D01*
X315708Y477109D01*
X315386Y476728D01*
X315056Y476354D01*
X314717Y475989D01*
X314368Y475632D01*
X314011Y475283D01*
X313646Y474944D01*
X313272Y474614D01*
X312891Y474292D01*
X312502Y473981D01*
X312105Y473679D01*
X311700Y473387D01*
X311289Y473105D01*
X310871Y472833D01*
X310447Y472571D01*
X310016Y472320D01*
X309579Y472079D01*
X309136Y471850D01*
X308688Y471631D01*
X308235Y471423D01*
X307776Y471227D01*
X307313Y471042D01*
X306846Y470868D01*
X306374Y470706D01*
X305899Y470555D01*
X305420Y470416D01*
X304937Y470289D01*
X304452Y470174D01*
X303964Y470070D01*
X303474Y469979D01*
X302982Y469900D01*
X302487Y469833D01*
X301992Y469778D01*
X301495Y469735D01*
X300997Y469704D01*
X300499Y469686D01*
X300000Y469680D01*
X299501Y469686D01*
X299003Y469704D01*
X298505Y469735D01*
X298008Y469778D01*
X297513Y469833D01*
X297018Y469900D01*
X296526Y469979D01*
X296036Y470070D01*
X295548Y470174D01*
X295063Y470289D01*
X294580Y470416D01*
X294101Y470555D01*
X293626Y470706D01*
X293154Y470868D01*
X292687Y471042D01*
X292224Y471227D01*
X291765Y471423D01*
X291312Y471631D01*
X290864Y471850D01*
X290421Y472079D01*
X289984Y472320D01*
X289553Y472571D01*
X289129Y472833D01*
X288711Y473105D01*
X288300Y473387D01*
X287895Y473679D01*
X287498Y473981D01*
X287109Y474292D01*
X286728Y474614D01*
X286354Y474944D01*
X285989Y475283D01*
X285632Y475632D01*
X285283Y475989D01*
X284944Y476354D01*
X284614Y476728D01*
X284292Y477109D01*
X283981Y477498D01*
X283679Y477895D01*
X283387Y478300D01*
X283105Y478711D01*
X282833Y479129D01*
X282571Y479553D01*
X282320Y479984D01*
X282079Y480421D01*
X281850Y480864D01*
X281631Y481312D01*
X281423Y481765D01*
X281227Y482224D01*
X281042Y482687D01*
X280868Y483154D01*
X280706Y483626D01*
X280555Y484101D01*
X280416Y484580D01*
X280289Y485063D01*
X280174Y485548D01*
X280070Y486036D01*
X279979Y486526D01*
X279900Y487018D01*
X279833Y487513D01*
X279778Y488008D01*
X279735Y488505D01*
X279704Y489003D01*
X279686Y489501D01*
X279680Y490000D01*
D15*
X300000Y490000D03*
D16*
X287300Y439200D03*
X312700Y439200D03*
D13*
X451900Y515400D03*
X515400Y540800D03*
D14*
X439200Y490000D03*
X540800Y490000D03*
D10*
X469680Y490000D02*
X469686Y490499D01*
X469704Y490997D01*
X469735Y491495D01*
X469778Y491992D01*
X469833Y492487D01*
X469900Y492982D01*
X469979Y493474D01*
X470070Y493964D01*
X470174Y494452D01*
X470289Y494937D01*
X470416Y495420D01*
X470555Y495899D01*
X470706Y496374D01*
X470868Y496846D01*
X471042Y497313D01*
X471227Y497776D01*
X471423Y498235D01*
X471631Y498688D01*
X471850Y499136D01*
X472079Y499579D01*
X472320Y500016D01*
X472571Y500447D01*
X472833Y500871D01*
X473105Y501289D01*
X473387Y501700D01*
X473679Y502105D01*
X473981Y502502D01*
X474292Y502891D01*
X474614Y503272D01*
X474944Y503646D01*
X475283Y504011D01*
X475632Y504368D01*
X475989Y504717D01*
X476354Y505056D01*
X476728Y505386D01*
X477109Y505708D01*
X477498Y506019D01*
X477895Y506321D01*
X478300Y506613D01*
X478711Y506895D01*
X479129Y507167D01*
X479553Y507429D01*
X479984Y507680D01*
X480421Y507921D01*
X480864Y508150D01*
X481312Y508369D01*
X481765Y508577D01*
X482224Y508773D01*
X482687Y508958D01*
X483154Y509132D01*
X483626Y509294D01*
X484101Y509445D01*
X484580Y509584D01*
X485063Y509711D01*
X485548Y509826D01*
X486036Y509930D01*
X486526Y510021D01*
X487018Y510100D01*
X487513Y510167D01*
X488008Y510222D01*
X488505Y510265D01*
X489003Y510296D01*
X489501Y510314D01*
X490000Y510320D01*
X490499Y510314D01*
X490997Y510296D01*
X491495Y510265D01*
X491992Y510222D01*
X492487Y510167D01*
X492982Y510100D01*
X493474Y510021D01*
X493964Y509930D01*
X494452Y509826D01*
X494937Y509711D01*
X495420Y509584D01*
X495899Y509445D01*
X496374Y509294D01*
X496846Y509132D01*
X497313Y508958D01*
X497776Y508773D01*
X498235Y508577D01*
X498688Y508369D01*
X499136Y508150D01*
X499579Y507921D01*
X500016Y507680D01*
X500447Y507429D01*
X500871Y507167D01*
X501289Y506895D01*
X501700Y506613D01*
X502105Y506321D01*
X502502Y506019D01*
X502891Y505708D01*
X503272Y505386D01*
X503646Y505056D01*
X504011Y504717D01*
X504368Y504368D01*
X504717Y504011D01*
X505056Y503646D01*
X505386Y503272D01*
X505708Y502891D01*
X506019Y502502D01*
X506321Y502105D01*
X506613Y501700D01*
X506895Y501289D01*
X507167Y500871D01*
X507429Y500447D01*
X507680Y500016D01*
X507921Y499579D01*
X508150Y499136D01*
X508369Y498688D01*
X508577Y498235D01*
X508773Y497776D01*
X508958Y497313D01*
X509132Y496846D01*
X509294Y496374D01*
X509445Y495899D01*
X509584Y495420D01*
X509711Y494937D01*
X509826Y494452D01*
X509930Y493964D01*
X510021Y493474D01*
X510100Y492982D01*
X510167Y492487D01*
X510222Y491992D01*
X510265Y491495D01*
X510296Y490997D01*
X510314Y490499D01*
X510320Y490000D01*
X510314Y489501D01*
X510296Y489003D01*
X510265Y488505D01*
X510222Y488008D01*
X510167Y487513D01*
X510100Y487018D01*
X510021Y486526D01*
X509930Y486036D01*
X509826Y485548D01*
X509711Y485063D01*
X509584Y484580D01*
X509445Y484101D01*
X509294Y483626D01*
X509132Y483154D01*
X508958Y482687D01*
X508773Y482224D01*
X508577Y481765D01*
X508369Y481312D01*
X508150Y480864D01*
X507921Y480421D01*
X507680Y479984D01*
X507429Y479553D01*
X507167Y479129D01*
X506895Y478711D01*
X506613Y478300D01*
X506321Y477895D01*
X506019Y477498D01*
X505708Y477109D01*
X505386Y476728D01*
X505056Y476354D01*
X504717Y475989D01*
X504368Y475632D01*
X504011Y475283D01*
X503646Y474944D01*
X503272Y474614D01*
X502891Y474292D01*
X502502Y473981D01*
X502105Y473679D01*
X501700Y473387D01*
X501289Y473105D01*
X500871Y472833D01*
X500447Y472571D01*
X500016Y472320D01*
X499579Y472079D01*
X499136Y471850D01*
X498688Y471631D01*
X498235Y471423D01*
X497776Y471227D01*
X497313Y471042D01*
X496846Y470868D01*
X496374Y470706D01*
X495899Y470555D01*
X495420Y470416D01*
X494937Y470289D01*
X494452Y470174D01*
X493964Y470070D01*
X493474Y469979D01*
X492982Y469900D01*
X492487Y469833D01*
X491992Y469778D01*
X491495Y469735D01*
X490997Y469704D01*
X490499Y469686D01*
X490000Y469680D01*
X489501Y469686D01*
X489003Y469704D01*
X488505Y469735D01*
X488008Y469778D01*
X487513Y469833D01*
X487018Y469900D01*
X486526Y469979D01*
X486036Y470070D01*
X485548Y470174D01*
X485063Y470289D01*
X484580Y470416D01*
X484101Y470555D01*
X483626Y470706D01*
X483154Y470868D01*
X482687Y471042D01*
X482224Y471227D01*
X481765Y471423D01*
X481312Y471631D01*
X480864Y471850D01*
X480421Y472079D01*
X479984Y472320D01*
X479553Y472571D01*
X479129Y472833D01*
X478711Y473105D01*
X478300Y473387D01*
X477895Y473679D01*
X477498Y473981D01*
X477109Y474292D01*
X476728Y474614D01*
X476354Y474944D01*
X475989Y475283D01*
X475632Y475632D01*
X475283Y475989D01*
X474944Y476354D01*
X474614Y476728D01*
X474292Y477109D01*
X473981Y477498D01*
X473679Y477895D01*
X473387Y478300D01*
X473105Y478711D01*
X472833Y479129D01*
X472571Y479553D01*
X472320Y479984D01*
X472079Y480421D01*
X471850Y480864D01*
X471631Y481312D01*
X471423Y481765D01*
X471227Y482224D01*
X471042Y482687D01*
X470868Y483154D01*
X470706Y483626D01*
X470555Y484101D01*
X470416Y484580D01*
X470289Y485063D01*
X470174Y485548D01*
X470070Y486036D01*
X469979Y486526D01*
X469900Y487018D01*
X469833Y487513D01*
X469778Y488008D01*
X469735Y488505D01*
X469704Y489003D01*
X469686Y489501D01*
X469680Y490000D01*
D15*
X490000Y490000D03*
D16*
X477300Y439200D03*
X502700Y439200D03*
D13*
X71900Y325400D03*
X135400Y350800D03*
D14*
X59200Y300000D03*
X160800Y300000D03*
D10*
X89680Y300000D02*
X89686Y300499D01*
X89704Y300997D01*
X89735Y301495D01*
X89778Y301992D01*
X89833Y302487D01*
X89900Y302982D01*
X89979Y303474D01*
X90070Y303964D01*
X90174Y304452D01*
X90289Y304937D01*
X90416Y305420D01*
X90555Y305899D01*
X90706Y306374D01*
X90868Y306846D01*
X91042Y307313D01*
X91227Y307776D01*
X91423Y308235D01*
X91631Y308688D01*
X91850Y309136D01*
X92079Y309579D01*
X92320Y310016D01*
X92571Y310447D01*
X92833Y310871D01*
X93105Y311289D01*
X93387Y311700D01*
X93679Y312105D01*
X93981Y312502D01*
X94292Y312891D01*
X94614Y313272D01*
X94944Y313646D01*
X95283Y314011D01*
X95632Y314368D01*
X95989Y314717D01*
X96354Y315056D01*
X96728Y315386D01*
X97109Y315708D01*
X97498Y316019D01*
X97895Y316321D01*
X98300Y316613D01*
X98711Y316895D01*
X99129Y317167D01*
X99553Y317429D01*
X99984Y317680D01*
X100421Y317921D01*
X100864Y318150D01*
X101312Y318369D01*
X101765Y318577D01*
X102224Y318773D01*
X102687Y318958D01*
X103154Y319132D01*
X103626Y319294D01*
X104101Y319445D01*
X104580Y319584D01*
X105063Y319711D01*
X105548Y319826D01*
X106036Y319930D01*
X106526Y320021D01*
X107018Y320100D01*
X107513Y320167D01*
X108008Y320222D01*
X108505Y320265D01*
X109003Y320296D01*
X109501Y320314D01*
X110000Y320320D01*
X110499Y320314D01*
X110997Y320296D01*
X111495Y320265D01*
X111992Y320222D01*
X112487Y320167D01*
X112982Y320100D01*
X113474Y320021D01*
X113964Y319930D01*
X114452Y319826D01*
X114937Y319711D01*
X115420Y319584D01*
X115899Y319445D01*
X116374Y319294D01*
X116846Y319132D01*
X117313Y318958D01*
X117776Y318773D01*
X118235Y318577D01*
X118688Y318369D01*
X119136Y318150D01*
X119579Y317921D01*
X120016Y317680D01*
X120447Y317429D01*
X120871Y317167D01*
X121289Y316895D01*
X121700Y316613D01*
X122105Y316321D01*
X122502Y316019D01*
X122891Y315708D01*
X123272Y315386D01*
X123646Y315056D01*
X124011Y314717D01*
X124368Y314368D01*
X124717Y314011D01*
X125056Y313646D01*
X125386Y313272D01*
X125708Y312891D01*
X126019Y312502D01*
X126321Y312105D01*
X126613Y311700D01*
X126895Y311289D01*
X127167Y310871D01*
X127429Y310447D01*
X127680Y310016D01*
X127921Y309579D01*
X128150Y309136D01*
X128369Y308688D01*
X128577Y308235D01*
X128773Y307776D01*
X128958Y307313D01*
X129132Y306846D01*
X129294Y306374D01*
X129445Y305899D01*
X129584Y305420D01*
X129711Y304937D01*
X129826Y304452D01*
X129930Y303964D01*
X130021Y303474D01*
X130100Y302982D01*
X130167Y302487D01*
X130222Y301992D01*
X130265Y301495D01*
X130296Y300997D01*
X130314Y300499D01*
X130320Y300000D01*
X130314Y299501D01*
X130296Y299003D01*
X130265Y298505D01*
X130222Y298008D01*
X130167Y297513D01*
X130100Y297018D01*
X130021Y296526D01*
X129930Y296036D01*
X129826Y295548D01*
X129711Y295063D01*
X129584Y294580D01*
X129445Y294101D01*
X129294Y293626D01*
X129132Y293154D01*
X128958Y292687D01*
X128773Y292224D01*
X128577Y291765D01*
X128369Y291312D01*
X128150Y290864D01*
X127921Y290421D01*
X127680Y289984D01*
X127429Y289553D01*
X127167Y289129D01*
X126895Y288711D01*
X126613Y288300D01*
X126321Y287895D01*
X126019Y287498D01*
X125708Y287109D01*
X125386Y286728D01*
X125056Y286354D01*
X124717Y285989D01*
X124368Y285632D01*
X124011Y285283D01*
X123646Y284944D01*
X123272Y284614D01*
X122891Y284292D01*
X122502Y283981D01*
X122105Y283679D01*
X121700Y283387D01*
X121289Y283105D01*
X120871Y282833D01*
X120447Y282571D01*
X120016Y282320D01*
X119579Y282079D01*
X119136Y281850D01*
X118688Y281631D01*
X118235Y281423D01*
X117776Y281227D01*
X117313Y281042D01*
X116846Y280868D01*
X116374Y280706D01*
X115899Y280555D01*
X115420Y280416D01*
X114937Y280289D01*
X114452Y280174D01*
X113964Y280070D01*
X113474Y279979D01*
X112982Y279900D01*
X112487Y279833D01*
X111992Y279778D01*
X111495Y279735D01*
X110997Y279704D01*
X110499Y279686D01*
X110000Y279680D01*
X109501Y279686D01*
X109003Y279704D01*
X108505Y279735D01*
X108008Y279778D01*
X107513Y279833D01*
X107018Y279900D01*
X106526Y279979D01*
X106036Y280070D01*
X105548Y280174D01*
X105063Y280289D01*
X104580Y280416D01*
X104101Y280555D01*
X103626Y280706D01*
X103154Y280868D01*
X102687Y281042D01*
X102224Y281227D01*
X101765Y281423D01*
X101312Y281631D01*
X100864Y281850D01*
X100421Y282079D01*
X99984Y282320D01*
X99553Y282571D01*
X99129Y282833D01*
X98711Y283105D01*
X98300Y283387D01*
X97895Y283679D01*
X97498Y283981D01*
X97109Y284292D01*
X96728Y284614D01*
X96354Y284944D01*
X95989Y285283D01*
X95632Y285632D01*
X95283Y285989D01*
X94944Y286354D01*
X94614Y286728D01*
X94292Y287109D01*
X93981Y287498D01*
X93679Y287895D01*
X93387Y288300D01*
X93105Y288711D01*
X92833Y289129D01*
X92571Y289553D01*
X92320Y289984D01*
X92079Y290421D01*
X91850Y290864D01*
X91631Y291312D01*
X91423Y291765D01*
X91227Y292224D01*
X91042Y292687D01*
X90868Y293154D01*
X90706Y293626D01*
X90555Y294101D01*
X90416Y294580D01*
X90289Y295063D01*
X90174Y295548D01*
X90070Y296036D01*
X89979Y296526D01*
X89900Y297018D01*
X89833Y297513D01*
X89778Y298008D01*
X89735Y298505D01*
X89704Y299003D01*
X89686Y299501D01*
X89680Y300000D01*
D15*
X110000Y300000D03*
D16*
X97300Y249200D03*
X122700Y249200D03*
D13*
X261900Y325400D03*
X325400Y350800D03*
D14*
X249200Y300000D03*
X350800Y300000D03*
D10*
X279680Y300000D02*
X279686Y300499D01*
X279704Y300997D01*
X279735Y301495D01*
X279778Y301992D01*
X279833Y302487D01*
X279900Y302982D01*
X279979Y303474D01*
X280070Y303964D01*
X280174Y304452D01*
X280289Y304937D01*
X280416Y305420D01*
X280555Y305899D01*
X280706Y306374D01*
X280868Y306846D01*
X281042Y307313D01*
X281227Y307776D01*
X281423Y308235D01*
X281631Y308688D01*
X281850Y309136D01*
X282079Y309579D01*
X282320Y310016D01*
X282571Y310447D01*
X282833Y310871D01*
X283105Y311289D01*
X283387Y311700D01*
X283679Y312105D01*
X283981Y312502D01*
X284292Y312891D01*
X284614Y313272D01*
X284944Y313646D01*
X285283Y314011D01*
X285632Y314368D01*
X285989Y314717D01*
X286354Y315056D01*
X286728Y315386D01*
X287109Y315708D01*
X287498Y316019D01*
X287895Y316321D01*
X288300Y316613D01*
X288711Y316895D01*
X289129Y317167D01*
X289553Y317429D01*
X289984Y317680D01*
X290421Y317921D01*
X290864Y318150D01*
X291312Y318369D01*
X291765Y318577D01*
X292224Y318773D01*
X292687Y318958D01*
X293154Y319132D01*
X293626Y319294D01*
X294101Y319445D01*
X294580Y319584D01*
X295063Y319711D01*
X295548Y319826D01*
X296036Y319930D01*
X296526Y320021D01*
X297018Y320100D01*
X297513Y320167D01*
X298008Y320222D01*
X298505Y320265D01*
X299003Y320296D01*
X299501Y320314D01*
X300000Y320320D01*
X300499Y320314D01*
X300997Y320296D01*
X301495Y320265D01*
X301992Y320222D01*
X302487Y320167D01*
X302982Y320100D01*
X303474Y320021D01*
X303964Y319930D01*
X304452Y319826D01*
X304937Y319711D01*
X305420Y319584D01*
X305899Y319445D01*
X306374Y319294D01*
X306846Y319132D01*
X307313Y318958D01*
X307776Y318773D01*
X308235Y318577D01*
X308688Y318369D01*
X309136Y318150D01*
X309579Y317921D01*
X310016Y317680D01*
X310447Y317429D01*
X310871Y317167D01*
X311289Y316895D01*
X311700Y316613D01*
X312105Y316321D01*
X312502Y316019D01*
X312891Y315708D01*
X313272Y315386D01*
X313646Y315056D01*
X314011Y314717D01*
X314368Y314368D01*
X314717Y314011D01*
X315056Y313646D01*
X315386Y313272D01*
X315708Y312891D01*
X316019Y312502D01*
X316321Y312105D01*
X316613Y311700D01*
X316895Y311289D01*
X317167Y310871D01*
X317429Y310447D01*
X317680Y310016D01*
X317921Y309579D01*
X318150Y309136D01*
X318369Y308688D01*
X318577Y308235D01*
X318773Y307776D01*
X318958Y307313D01*
X319132Y306846D01*
X319294Y306374D01*
X319445Y305899D01*
X319584Y305420D01*
X319711Y304937D01*
X319826Y304452D01*
X319930Y303964D01*
X320021Y303474D01*
X320100Y302982D01*
X320167Y302487D01*
X320222Y301992D01*
X320265Y301495D01*
X320296Y300997D01*
X320314Y300499D01*
X320320Y300000D01*
X320314Y299501D01*
X320296Y299003D01*
X320265Y298505D01*
X320222Y298008D01*
X320167Y297513D01*
X320100Y297018D01*
X320021Y296526D01*
X319930Y296036D01*
X319826Y295548D01*
X319711Y295063D01*
X319584Y294580D01*
X319445Y294101D01*
X319294Y293626D01*
X319132Y293154D01*
X318958Y292687D01*
X318773Y292224D01*
X318577Y291765D01*
X318369Y291312D01*
X318150Y290864D01*
X317921Y290421D01*
X317680Y289984D01*
X317429Y289553D01*
X317167Y289129D01*
X316895Y288711D01*
X316613Y288300D01*
X316321Y287895D01*
X316019Y287498D01*
X315708Y287109D01*
X315386Y286728D01*
X315056Y286354D01*
X314717Y285989D01*
X314368Y285632D01*
X314011Y285283D01*
X313646Y284944D01*
X313272Y284614D01*
X312891Y284292D01*
X312502Y283981D01*
X312105Y283679D01*
X311700Y283387D01*
X311289Y283105D01*
X310871Y282833D01*
X310447Y282571D01*
X310016Y282320D01*
X309579Y282079D01*
X309136Y281850D01*
X308688Y281631D01*
X308235Y281423D01*
X307776Y281227D01*
X307313Y281042D01*
X306846Y280868D01*
X306374Y280706D01*
X305899Y280555D01*
X305420Y280416D01*
X304937Y280289D01*
X304452Y280174D01*
X303964Y280070D01*
X303474Y279979D01*
X302982Y279900D01*
X302487Y279833D01*
X301992Y279778D01*
X301495Y279735D01*
X300997Y279704D01*
X300499Y279686D01*
X300000Y279680D01*
X299501Y279686D01*
X299003Y279704D01*
X298505Y279735D01*
X298008Y279778D01*
X297513Y279833D01*
X297018Y279900D01*
X296526Y279979D01*
X296036Y280070D01*
X295548Y280174D01*
X295063Y280289D01*
X294580Y280416D01*
X294101Y280555D01*
X293626Y280706D01*
X293154Y280868D01*
X292687Y281042D01*
X292224Y281227D01*
X291765Y281423D01*
X291312Y281631D01*
X290864Y281850D01*
X290421Y282079D01*
X289984Y282320D01*
X289553Y282571D01*
X289129Y282833D01*
X288711Y283105D01*
X288300Y283387D01*
X287895Y283679D01*
X287498Y283981D01*
X287109Y284292D01*
X286728Y284614D01*
X286354Y284944D01*
X285989Y285283D01*
X285632Y285632D01*
X285283Y285989D01*
X284944Y286354D01*
X284614Y286728D01*
X284292Y287109D01*
X283981Y287498D01*
X283679Y287895D01*
X283387Y288300D01*
X283105Y288711D01*
X282833Y289129D01*
X282571Y289553D01*
X282320Y289984D01*
X282079Y290421D01*
X281850Y290864D01*
X281631Y291312D01*
X281423Y291765D01*
X281227Y292224D01*
X281042Y292687D01*
X280868Y293154D01*
X280706Y293626D01*
X280555Y294101D01*
X280416Y294580D01*
X280289Y295063D01*
X280174Y295548D01*
X280070Y296036D01*
X279979Y296526D01*
X279900Y297018D01*
X279833Y297513D01*
X279778Y298008D01*
X279735Y298505D01*
X279704Y299003D01*
X279686Y299501D01*
X279680Y300000D01*
D15*
X300000Y300000D03*
D16*
X287300Y249200D03*
X312700Y249200D03*
D13*
X451900Y325400D03*
X515400Y350800D03*
D14*
X439200Y300000D03*
X540800Y300000D03*
D10*
X469680Y300000D02*
X469686Y300499D01*
X469704Y300997D01*
X469735Y301495D01*
X469778Y301992D01*
X469833Y302487D01*
X469900Y302982D01*
X469979Y303474D01*
X470070Y303964D01*
X470174Y304452D01*
X470289Y304937D01*
X470416Y305420D01*
X470555Y305899D01*
X470706Y306374D01*
X470868Y306846D01*
X471042Y307313D01*
X471227Y307776D01*
X471423Y308235D01*
X471631Y308688D01*
X471850Y309136D01*
X472079Y309579D01*
X472320Y310016D01*
X472571Y310447D01*
X472833Y310871D01*
X473105Y311289D01*
X473387Y311700D01*
X473679Y312105D01*
X473981Y312502D01*
X474292Y312891D01*
X474614Y313272D01*
X474944Y313646D01*
X475283Y314011D01*
X475632Y314368D01*
X475989Y314717D01*
X476354Y315056D01*
X476728Y315386D01*
X477109Y315708D01*
X477498Y316019D01*
X477895Y316321D01*
X478300Y316613D01*
X478711Y316895D01*
X479129Y317167D01*
X479553Y317429D01*
X479984Y317680D01*
X480421Y317921D01*
X480864Y318150D01*
X481312Y318369D01*
X481765Y318577D01*
X482224Y318773D01*
X482687Y318958D01*
X483154Y319132D01*
X483626Y319294D01*
X484101Y319445D01*
X484580Y319584D01*
X485063Y319711D01*
X485548Y319826D01*
X486036Y319930D01*
X486526Y320021D01*
X487018Y320100D01*
X487513Y320167D01*
X488008Y320222D01*
X488505Y320265D01*
X489003Y320296D01*
X489501Y320314D01*
X490000Y320320D01*
X490499Y320314D01*
X490997Y320296D01*
X491495Y320265D01*
X491992Y320222D01*
X492487Y320167D01*
X492982Y320100D01*
X493474Y320021D01*
X493964Y319930D01*
X494452Y319826D01*
X494937Y319711D01*
X495420Y319584D01*
X495899Y319445D01*
X496374Y319294D01*
X496846Y319132D01*
X497313Y318958D01*
X497776Y318773D01*
X498235Y318577D01*
X498688Y318369D01*
X499136Y318150D01*
X499579Y317921D01*
X500016Y317680D01*
X500447Y317429D01*
X500871Y317167D01*
X501289Y316895D01*
X501700Y316613D01*
X502105Y316321D01*
X502502Y316019D01*
X502891Y315708D01*
X503272Y315386D01*
X503646Y315056D01*
X504011Y314717D01*
X504368Y314368D01*
X504717Y314011D01*
X505056Y313646D01*
X505386Y313272D01*
X505708Y312891D01*
X506019Y312502D01*
X506321Y312105D01*
X506613Y311700D01*
X506895Y311289D01*
X507167Y310871D01*
X507429Y310447D01*
X507680Y310016D01*
X507921Y309579D01*
X508150Y309136D01*
X508369Y308688D01*
X508577Y308235D01*
X508773Y307776D01*
X508958Y307313D01*
X509132Y306846D01*
X509294Y306374D01*
X509445Y305899D01*
X509584Y305420D01*
X509711Y304937D01*
X509826Y304452D01*
X509930Y303964D01*
X510021Y303474D01*
X510100Y302982D01*
X510167Y302487D01*
X510222Y301992D01*
X510265Y301495D01*
X510296Y300997D01*
X510314Y300499D01*
X510320Y300000D01*
X510314Y299501D01*
X510296Y299003D01*
X510265Y298505D01*
X510222Y298008D01*
X510167Y297513D01*
X510100Y297018D01*
X510021Y296526D01*
X509930Y296036D01*
X509826Y295548D01*
X509711Y295063D01*
X509584Y294580D01*
X509445Y294101D01*
X509294Y293626D01*
X509132Y293154D01*
X508958Y292687D01*
X508773Y292224D01*
X508577Y291765D01*
X508369Y291312D01*
X508150Y290864D01*
X507921Y290421D01*
X507680Y289984D01*
X507429Y289553D01*
X507167Y289129D01*
X506895Y288711D01*
X506613Y288300D01*
X506321Y287895D01*
X506019Y287498D01*
X505708Y287109D01*
X505386Y286728D01*
X505056Y286354D01*
X504717Y285989D01*
X504368Y285632D01*
X504011Y285283D01*
X503646Y284944D01*
X503272Y284614D01*
X502891Y284292D01*
X502502Y283981D01*
X502105Y283679D01*
X501700Y283387D01*
X501289Y283105D01*
X500871Y282833D01*
X500447Y282571D01*
X500016Y282320D01*
X499579Y282079D01*
X499136Y281850D01*
X498688Y281631D01*
X498235Y281423D01*
X497776Y281227D01*
X497313Y281042D01*
X496846Y280868D01*
X496374Y280706D01*
X495899Y280555D01*
X495420Y280416D01*
X494937Y280289D01*
X494452Y280174D01*
X493964Y280070D01*
X493474Y279979D01*
X492982Y279900D01*
X492487Y279833D01*
X491992Y279778D01*
X491495Y279735D01*
X490997Y279704D01*
X490499Y279686D01*
X490000Y279680D01*
X489501Y279686D01*
X489003Y279704D01*
X488505Y279735D01*
X488008Y279778D01*
X487513Y279833D01*
X487018Y279900D01*
X486526Y279979D01*
X486036Y280070D01*
X485548Y280174D01*
X485063Y280289D01*
X484580Y280416D01*
X484101Y280555D01*
X483626Y280706D01*
X483154Y280868D01*
X482687Y281042D01*
X482224Y281227D01*
X481765Y281423D01*
X481312Y281631D01*
X480864Y281850D01*
X480421Y282079D01*
X479984Y282320D01*
X479553Y282571D01*
X479129Y282833D01*
X478711Y283105D01*
X478300Y283387D01*
X477895Y283679D01*
X477498Y283981D01*
X477109Y284292D01*
X476728Y284614D01*
X476354Y284944D01*
X475989Y285283D01*
X475632Y285632D01*
X475283Y285989D01*
X474944Y286354D01*
X474614Y286728D01*
X474292Y287109D01*
X473981Y287498D01*
X473679Y287895D01*
X473387Y288300D01*
X473105Y288711D01*
X472833Y289129D01*
X472571Y289553D01*
X472320Y289984D01*
X472079Y290421D01*
X471850Y290864D01*
X471631Y291312D01*
X471423Y291765D01*
X471227Y292224D01*
X471042Y292687D01*
X470868Y293154D01*
X470706Y293626D01*
X470555Y294101D01*
X470416Y294580D01*
X470289Y295063D01*
X470174Y295548D01*
X470070Y296036D01*
X469979Y296526D01*
X469900Y297018D01*
X469833Y297513D01*
X469778Y298008D01*
X469735Y298505D01*
X469704Y299003D01*
X469686Y299501D01*
X469680Y300000D01*
D15*
X490000Y300000D03*
D16*
X477300Y249200D03*
X502700Y249200D03*
D13*
X71900Y135400D03*
X135400Y160800D03*
D14*
X59200Y110000D03*
X160800Y110000D03*
D10*
X89680Y110000D02*
X89686Y110499D01*
X89704Y110997D01*
X89735Y111495D01*
X89778Y111992D01*
X89833Y112487D01*
X89900Y112982D01*
X89979Y113474D01*
X90070Y113964D01*
X90174Y114452D01*
X90289Y114937D01*
X90416Y115420D01*
X90555Y115899D01*
X90706Y116374D01*
X90868Y116846D01*
X91042Y117313D01*
X91227Y117776D01*
X91423Y118235D01*
X91631Y118688D01*
X91850Y119136D01*
X92079Y119579D01*
X92320Y120016D01*
X92571Y120447D01*
X92833Y120871D01*
X93105Y121289D01*
X93387Y121700D01*
X93679Y122105D01*
X93981Y122502D01*
X94292Y122891D01*
X94614Y123272D01*
X94944Y123646D01*
X95283Y124011D01*
X95632Y124368D01*
X95989Y124717D01*
X96354Y125056D01*
X96728Y125386D01*
X97109Y125708D01*
X97498Y126019D01*
X97895Y126321D01*
X98300Y126613D01*
X98711Y126895D01*
X99129Y127167D01*
X99553Y127429D01*
X99984Y127680D01*
X100421Y127921D01*
X100864Y128150D01*
X101312Y128369D01*
X101765Y128577D01*
X102224Y128773D01*
X102687Y128958D01*
X103154Y129132D01*
X103626Y129294D01*
X104101Y129445D01*
X104580Y129584D01*
X105063Y129711D01*
X105548Y129826D01*
X106036Y129930D01*
X106526Y130021D01*
X107018Y130100D01*
X107513Y130167D01*
X108008Y130222D01*
X108505Y130265D01*
X109003Y130296D01*
X109501Y130314D01*
X110000Y130320D01*
X110499Y130314D01*
X110997Y130296D01*
X111495Y130265D01*
X111992Y130222D01*
X112487Y130167D01*
X112982Y130100D01*
X113474Y130021D01*
X113964Y129930D01*
X114452Y129826D01*
X114937Y129711D01*
X115420Y129584D01*
X115899Y129445D01*
X116374Y129294D01*
X116846Y129132D01*
X117313Y128958D01*
X117776Y128773D01*
X118235Y128577D01*
X118688Y128369D01*
X119136Y128150D01*
X119579Y127921D01*
X120016Y127680D01*
X120447Y127429D01*
X120871Y127167D01*
X121289Y126895D01*
X121700Y126613D01*
X122105Y126321D01*
X122502Y126019D01*
X122891Y125708D01*
X123272Y125386D01*
X123646Y125056D01*
X124011Y124717D01*
X124368Y124368D01*
X124717Y124011D01*
X125056Y123646D01*
X125386Y123272D01*
X125708Y122891D01*
X126019Y122502D01*
X126321Y122105D01*
X126613Y121700D01*
X126895Y121289D01*
X127167Y120871D01*
X127429Y120447D01*
X127680Y120016D01*
X127921Y119579D01*
X128150Y119136D01*
X128369Y118688D01*
X128577Y118235D01*
X128773Y117776D01*
X128958Y117313D01*
X129132Y116846D01*
X129294Y116374D01*
X129445Y115899D01*
X129584Y115420D01*
X129711Y114937D01*
X129826Y114452D01*
X129930Y113964D01*
X130021Y113474D01*
X130100Y112982D01*
X130167Y112487D01*
X130222Y111992D01*
X130265Y111495D01*
X130296Y110997D01*
X130314Y110499D01*
X130320Y110000D01*
X130314Y109501D01*
X130296Y109003D01*
X130265Y108505D01*
X130222Y108008D01*
X130167Y107513D01*
X130100Y107018D01*
X130021Y106526D01*
X129930Y106036D01*
X129826Y105548D01*
X129711Y105063D01*
X129584Y104580D01*
X129445Y104101D01*
X129294Y103626D01*
X129132Y103154D01*
X128958Y102687D01*
X128773Y102224D01*
X128577Y101765D01*
X128369Y101312D01*
X128150Y100864D01*
X127921Y100421D01*
X127680Y99984D01*
X127429Y99553D01*
X127167Y99129D01*
X126895Y98711D01*
X126613Y98300D01*
X126321Y97895D01*
X126019Y97498D01*
X125708Y97109D01*
X125386Y96728D01*
X125056Y96354D01*
X124717Y95989D01*
X124368Y95632D01*
X124011Y95283D01*
X123646Y94944D01*
X123272Y94614D01*
X122891Y94292D01*
X122502Y93981D01*
X122105Y93679D01*
X121700Y93387D01*
X121289Y93105D01*
X120871Y92833D01*
X120447Y92571D01*
X120016Y92320D01*
X119579Y92079D01*
X119136Y91850D01*
X118688Y91631D01*
X118235Y91423D01*
X117776Y91227D01*
X117313Y91042D01*
X116846Y90868D01*
X116374Y90706D01*
X115899Y90555D01*
X115420Y90416D01*
X114937Y90289D01*
X114452Y90174D01*
X113964Y90070D01*
X113474Y89979D01*
X112982Y89900D01*
X112487Y89833D01*
X111992Y89778D01*
X111495Y89735D01*
X110997Y89704D01*
X110499Y89686D01*
X110000Y89680D01*
X109501Y89686D01*
X109003Y89704D01*
X108505Y89735D01*
X108008Y89778D01*
X107513Y89833D01*
X107018Y89900D01*
X106526Y89979D01*
X106036Y90070D01*
X105548Y90174D01*
X105063Y90289D01*
X104580Y90416D01*
X104101Y90555D01*
X103626Y90706D01*
X103154Y90868D01*
X102687Y91042D01*
X102224Y91227D01*
X101765Y91423D01*
X101312Y91631D01*
X100864Y91850D01*
X100421Y92079D01*
X99984Y92320D01*
X99553Y92571D01*
X99129Y92833D01*
X98711Y93105D01*
X98300Y93387D01*
X97895Y93679D01*
X97498Y93981D01*
X97109Y94292D01*
X96728Y94614D01*
X96354Y94944D01*
X95989Y95283D01*
X95632Y95632D01*
X95283Y95989D01*
X94944Y96354D01*
X94614Y96728D01*
X94292Y97109D01*
X93981Y97498D01*
X93679Y97895D01*
X93387Y98300D01*
X93105Y98711D01*
X92833Y99129D01*
X92571Y99553D01*
X92320Y99984D01*
X92079Y100421D01*
X91850Y100864D01*
X91631Y101312D01*
X91423Y101765D01*
X91227Y102224D01*
X91042Y102687D01*
X90868Y103154D01*
X90706Y103626D01*
X90555Y104101D01*
X90416Y104580D01*
X90289Y105063D01*
X90174Y105548D01*
X90070Y106036D01*
X89979Y106526D01*
X89900Y107018D01*
X89833Y107513D01*
X89778Y108008D01*
X89735Y108505D01*
X89704Y109003D01*
X89686Y109501D01*
X89680Y110000D01*
D15*
X110000Y110000D03*
D16*
X97300Y59200D03*
X122700Y59200D03*
D13*
X261900Y135400D03*
X325400Y160800D03*
D14*
X249200Y110000D03*
X350800Y110000D03*
D10*
X279680Y110000D02*
X279686Y110499D01*
X279704Y110997D01*
X279735Y111495D01*
X279778Y111992D01*
X279833Y112487D01*
X279900Y112982D01*
X279979Y113474D01*
X280070Y113964D01*
X280174Y114452D01*
X280289Y114937D01*
X280416Y115420D01*
X280555Y115899D01*
X280706Y116374D01*
X280868Y116846D01*
X281042Y117313D01*
X281227Y117776D01*
X281423Y118235D01*
X281631Y118688D01*
X281850Y119136D01*
X282079Y119579D01*
X282320Y120016D01*
X282571Y120447D01*
X282833Y120871D01*
X283105Y121289D01*
X283387Y121700D01*
X283679Y122105D01*
X283981Y122502D01*
X284292Y122891D01*
X284614Y123272D01*
X284944Y123646D01*
X285283Y124011D01*
X285632Y124368D01*
X285989Y124717D01*
X286354Y125056D01*
X286728Y125386D01*
X287109Y125708D01*
X287498Y126019D01*
X287895Y126321D01*
X288300Y126613D01*
X288711Y126895D01*
X289129Y127167D01*
X289553Y127429D01*
X289984Y127680D01*
X290421Y127921D01*
X290864Y128150D01*
X291312Y128369D01*
X291765Y128577D01*
X292224Y128773D01*
X292687Y128958D01*
X293154Y129132D01*
X293626Y129294D01*
X294101Y129445D01*
X294580Y129584D01*
X295063Y129711D01*
X295548Y129826D01*
X296036Y129930D01*
X296526Y130021D01*
X297018Y130100D01*
X297513Y130167D01*
X298008Y130222D01*
X298505Y130265D01*
X299003Y130296D01*
X299501Y130314D01*
X300000Y130320D01*
X300499Y130314D01*
X300997Y130296D01*
X301495Y130265D01*
X301992Y130222D01*
X302487Y130167D01*
X302982Y130100D01*
X303474Y130021D01*
X303964Y129930D01*
X304452Y129826D01*
X304937Y129711D01*
X305420Y129584D01*
X305899Y129445D01*
X306374Y129294D01*
X306846Y129132D01*
X307313Y128958D01*
X307776Y128773D01*
X308235Y128577D01*
X308688Y128369D01*
X309136Y128150D01*
X309579Y127921D01*
X310016Y127680D01*
X310447Y127429D01*
X310871Y127167D01*
X311289Y126895D01*
X311700Y126613D01*
X312105Y126321D01*
X312502Y126019D01*
X312891Y125708D01*
X313272Y125386D01*
X313646Y125056D01*
X314011Y124717D01*
X314368Y124368D01*
X314717Y124011D01*
X315056Y123646D01*
X315386Y123272D01*
X315708Y122891D01*
X316019Y122502D01*
X316321Y122105D01*
X316613Y121700D01*
X316895Y121289D01*
X317167Y120871D01*
X317429Y120447D01*
X317680Y120016D01*
X317921Y119579D01*
X318150Y119136D01*
X318369Y118688D01*
X318577Y118235D01*
X318773Y117776D01*
X318958Y117313D01*
X319132Y116846D01*
X319294Y116374D01*
X319445Y115899D01*
X319584Y115420D01*
X319711Y114937D01*
X319826Y114452D01*
X319930Y113964D01*
X320021Y113474D01*
X320100Y112982D01*
X320167Y112487D01*
X320222Y111992D01*
X320265Y111495D01*
X320296Y110997D01*
X320314Y110499D01*
X320320Y110000D01*
X320314Y109501D01*
X320296Y109003D01*
X320265Y108505D01*
X320222Y108008D01*
X320167Y107513D01*
X320100Y107018D01*
X320021Y106526D01*
X319930Y106036D01*
X319826Y105548D01*
X319711Y105063D01*
X319584Y104580D01*
X319445Y104101D01*
X319294Y103626D01*
X319132Y103154D01*
X318958Y102687D01*
X318773Y102224D01*
X318577Y101765D01*
X318369Y101312D01*
X318150Y100864D01*
X317921Y100421D01*
X317680Y99984D01*
X317429Y99553D01*
X317167Y99129D01*
X316895Y98711D01*
X316613Y98300D01*
X316321Y97895D01*
X316019Y97498D01*
X315708Y97109D01*
X315386Y96728D01*
X315056Y96354D01*
X314717Y95989D01*
X314368Y95632D01*
X314011Y95283D01*
X313646Y94944D01*
X313272Y94614D01*
X312891Y94292D01*
X312502Y93981D01*
X312105Y93679D01*
X311700Y93387D01*
X311289Y93105D01*
X310871Y92833D01*
X310447Y92571D01*
X310016Y92320D01*
X309579Y92079D01*
X309136Y91850D01*
X308688Y91631D01*
X308235Y91423D01*
X307776Y91227D01*
X307313Y91042D01*
X306846Y90868D01*
X306374Y90706D01*
X305899Y90555D01*
X305420Y90416D01*
X304937Y90289D01*
X304452Y90174D01*
X303964Y90070D01*
X303474Y89979D01*
X302982Y89900D01*
X302487Y89833D01*
X301992Y89778D01*
X301495Y89735D01*
X300997Y89704D01*
X300499Y89686D01*
X300000Y89680D01*
X299501Y89686D01*
X299003Y89704D01*
X298505Y89735D01*
X298008Y89778D01*
X297513Y89833D01*
X297018Y89900D01*
X296526Y89979D01*
X296036Y90070D01*
X295548Y90174D01*
X295063Y90289D01*
X294580Y90416D01*
X294101Y90555D01*
X293626Y90706D01*
X293154Y90868D01*
X292687Y91042D01*
X292224Y91227D01*
X291765Y91423D01*
X291312Y91631D01*
X290864Y91850D01*
X290421Y92079D01*
X289984Y92320D01*
X289553Y92571D01*
X289129Y92833D01*
X288711Y93105D01*
X288300Y93387D01*
X287895Y93679D01*
X287498Y93981D01*
X287109Y94292D01*
X286728Y94614D01*
X286354Y94944D01*
X285989Y95283D01*
X285632Y95632D01*
X285283Y95989D01*
X284944Y96354D01*
X284614Y96728D01*
X284292Y97109D01*
X283981Y97498D01*
X283679Y97895D01*
X283387Y98300D01*
X283105Y98711D01*
X282833Y99129D01*
X282571Y99553D01*
X282320Y99984D01*
X282079Y100421D01*
X281850Y100864D01*
X281631Y101312D01*
X281423Y101765D01*
X281227Y102224D01*
X281042Y102687D01*
X280868Y103154D01*
X280706Y103626D01*
X280555Y104101D01*
X280416Y104580D01*
X280289Y105063D01*
X280174Y105548D01*
X280070Y106036D01*
X279979Y106526D01*
X279900Y107018D01*
X279833Y107513D01*
X279778Y108008D01*
X279735Y108505D01*
X279704Y109003D01*
X279686Y109501D01*
X279680Y110000D01*
D15*
X300000Y110000D03*
D16*
X287300Y59200D03*
X312700Y59200D03*
D13*
X451900Y135400D03*
X515400Y160800D03*
D14*
X439200Y110000D03*
X540800Y110000D03*
D10*
X469680Y110000D02*
X469686Y110499D01*
X469704Y110997D01*
X469735Y111495D01*
X469778Y111992D01*
X469833Y112487D01*
X469900Y112982D01*
X469979Y113474D01*
X470070Y113964D01*
X470174Y114452D01*
X470289Y114937D01*
X470416Y115420D01*
X470555Y115899D01*
X470706Y116374D01*
X470868Y116846D01*
X471042Y117313D01*
X471227Y117776D01*
X471423Y118235D01*
X471631Y118688D01*
X471850Y119136D01*
X472079Y119579D01*
X472320Y120016D01*
X472571Y120447D01*
X472833Y120871D01*
X473105Y121289D01*
X473387Y121700D01*
X473679Y122105D01*
X473981Y122502D01*
X474292Y122891D01*
X474614Y123272D01*
X474944Y123646D01*
X475283Y124011D01*
X475632Y124368D01*
X475989Y124717D01*
X476354Y125056D01*
X476728Y125386D01*
X477109Y125708D01*
X477498Y126019D01*
X477895Y126321D01*
X478300Y126613D01*
X478711Y126895D01*
X479129Y127167D01*
X479553Y127429D01*
X479984Y127680D01*
X480421Y127921D01*
X480864Y128150D01*
X481312Y128369D01*
X481765Y128577D01*
X482224Y128773D01*
X482687Y128958D01*
X483154Y129132D01*
X483626Y129294D01*
X484101Y129445D01*
X484580Y129584D01*
X485063Y129711D01*
X485548Y129826D01*
X486036Y129930D01*
X486526Y130021D01*
X487018Y130100D01*
X487513Y130167D01*
X488008Y130222D01*
X488505Y130265D01*
X489003Y130296D01*
X489501Y130314D01*
X490000Y130320D01*
X490499Y130314D01*
X490997Y130296D01*
X491495Y130265D01*
X491992Y130222D01*
X492487Y130167D01*
X492982Y130100D01*
X493474Y130021D01*
X493964Y129930D01*
X494452Y129826D01*
X494937Y129711D01*
X495420Y129584D01*
X495899Y129445D01*
X496374Y129294D01*
X496846Y129132D01*
X497313Y128958D01*
X497776Y128773D01*
X498235Y128577D01*
X498688Y128369D01*
X499136Y128150D01*
X499579Y127921D01*
X500016Y127680D01*
X500447Y127429D01*
X500871Y127167D01*
X501289Y126895D01*
X501700Y126613D01*
X502105Y126321D01*
X502502Y126019D01*
X502891Y125708D01*
X503272Y125386D01*
X503646Y125056D01*
X504011Y124717D01*
X504368Y124368D01*
X504717Y124011D01*
X505056Y123646D01*
X505386Y123272D01*
X505708Y122891D01*
X506019Y122502D01*
X506321Y122105D01*
X506613Y121700D01*
X506895Y121289D01*
X507167Y120871D01*
X507429Y120447D01*
X507680Y120016D01*
X507921Y119579D01*
X508150Y119136D01*
X508369Y118688D01*
X508577Y118235D01*
X508773Y117776D01*
X508958Y117313D01*
X509132Y116846D01*
X509294Y116374D01*
X509445Y115899D01*
X509584Y115420D01*
X509711Y114937D01*
X509826Y114452D01*
X509930Y113964D01*
X510021Y113474D01*
X510100Y112982D01*
X510167Y112487D01*
X510222Y111992D01*
X510265Y111495D01*
X510296Y110997D01*
X510314Y110499D01*
X510320Y110000D01*
X510314Y109501D01*
X510296Y109003D01*
X510265Y108505D01*
X510222Y108008D01*
X510167Y107513D01*
X510100Y107018D01*
X510021Y106526D01*
X509930Y106036D01*
X509826Y105548D01*
X509711Y105063D01*
X509584Y104580D01*
X509445Y104101D01*
X509294Y103626D01*
X509132Y103154D01*
X508958Y102687D01*
X508773Y102224D01*
X508577Y101765D01*
X508369Y101312D01*
X508150Y100864D01*
X507921Y100421D01*
X507680Y99984D01*
X507429Y99553D01*
X507167Y99129D01*
X506895Y98711D01*
X506613Y98300D01*
X506321Y97895D01*
X506019Y97498D01*
X505708Y97109D01*
X505386Y96728D01*
X505056Y96354D01*
X504717Y95989D01*
X504368Y95632D01*
X504011Y95283D01*
X503646Y94944D01*
X503272Y94614D01*
X502891Y94292D01*
X502502Y93981D01*
X502105Y93679D01*
X501700Y93387D01*
X501289Y93105D01*
X500871Y92833D01*
X500447Y92571D01*
X500016Y92320D01*
X499579Y92079D01*
X499136Y91850D01*
X498688Y91631D01*
X498235Y91423D01*
X497776Y91227D01*
X497313Y91042D01*
X496846Y90868D01*
X496374Y90706D01*
X495899Y90555D01*
X495420Y90416D01*
X494937Y90289D01*
X494452Y90174D01*
X493964Y90070D01*
X493474Y89979D01*
X492982Y89900D01*
X492487Y89833D01*
X491992Y89778D01*
X491495Y89735D01*
X490997Y89704D01*
X490499Y89686D01*
X490000Y89680D01*
X489501Y89686D01*
X489003Y89704D01*
X488505Y89735D01*
X488008Y89778D01*
X487513Y89833D01*
X487018Y89900D01*
X486526Y89979D01*
X486036Y90070D01*
X485548Y90174D01*
X485063Y90289D01*
X484580Y90416D01*
X484101Y90555D01*
X483626Y90706D01*
X483154Y90868D01*
X482687Y91042D01*
X482224Y91227D01*
X481765Y91423D01*
X481312Y91631D01*
X480864Y91850D01*
X480421Y92079D01*
X479984Y92320D01*
X479553Y92571D01*
X479129Y92833D01*
X478711Y93105D01*
X478300Y93387D01*
X477895Y93679D01*
X477498Y93981D01*
X477109Y94292D01*
X476728Y94614D01*
X476354Y94944D01*
X475989Y95283D01*
X475632Y95632D01*
X475283Y95989D01*
X474944Y96354D01*
X474614Y96728D01*
X474292Y97109D01*
X473981Y97498D01*
X473679Y97895D01*
X473387Y98300D01*
X473105Y98711D01*
X472833Y99129D01*
X472571Y99553D01*
X472320Y99984D01*
X472079Y100421D01*
X471850Y100864D01*
X471631Y101312D01*
X471423Y101765D01*
X471227Y102224D01*
X471042Y102687D01*
X470868Y103154D01*
X470706Y103626D01*
X470555Y104101D01*
X470416Y104580D01*
X470289Y105063D01*
X470174Y105548D01*
X470070Y106036D01*
X469979Y106526D01*
X469900Y107018D01*
X469833Y107513D01*
X469778Y108008D01*
X469735Y108505D01*
X469704Y109003D01*
X469686Y109501D01*
X469680Y110000D01*
D15*
X490000Y110000D03*
D16*
X477300Y59200D03*
X502700Y59200D03*
D10*
X273500Y950000D02*
X273502Y950134D01*
X273508Y950268D01*
X273518Y950401D01*
X273532Y950535D01*
X273550Y950668D01*
X273572Y950800D01*
X273597Y950931D01*
X273627Y951062D01*
X273661Y951192D01*
X273698Y951320D01*
X273739Y951448D01*
X273784Y951574D01*
X273833Y951699D01*
X273885Y951822D01*
X273941Y951944D01*
X274001Y952064D01*
X274064Y952182D01*
X274131Y952298D01*
X274201Y952412D01*
X274275Y952524D01*
X274352Y952634D01*
X274432Y952742D01*
X274515Y952847D01*
X274601Y952949D01*
X274690Y953049D01*
X274783Y953146D01*
X274878Y953241D01*
X274976Y953332D01*
X275076Y953421D01*
X275179Y953506D01*
X275285Y953589D01*
X275393Y953668D01*
X275503Y953744D01*
X275616Y953817D01*
X275731Y953886D01*
X275847Y953952D01*
X275966Y954014D01*
X276086Y954073D01*
X276209Y954128D01*
X276332Y954180D01*
X276457Y954227D01*
X276584Y954271D01*
X276712Y954312D01*
X276841Y954348D01*
X276971Y954381D01*
X277102Y954409D01*
X277233Y954434D01*
X277366Y954455D01*
X277499Y954472D01*
X277632Y954485D01*
X277766Y954494D01*
X277900Y954499D01*
X278034Y954500D01*
X278167Y954497D01*
X278301Y954490D01*
X278435Y954479D01*
X278568Y954464D01*
X278701Y954445D01*
X278833Y954422D01*
X278964Y954396D01*
X279094Y954365D01*
X279224Y954330D01*
X279352Y954292D01*
X279479Y954250D01*
X279605Y954204D01*
X279730Y954154D01*
X279853Y954101D01*
X279974Y954044D01*
X280094Y953983D01*
X280211Y953919D01*
X280327Y953852D01*
X280441Y953781D01*
X280552Y953706D01*
X280661Y953629D01*
X280768Y953548D01*
X280873Y953464D01*
X280974Y953377D01*
X281074Y953287D01*
X281170Y953194D01*
X281264Y953098D01*
X281355Y952999D01*
X281442Y952898D01*
X281527Y952794D01*
X281609Y952688D01*
X281687Y952580D01*
X281762Y952469D01*
X281834Y952356D01*
X281903Y952240D01*
X281968Y952123D01*
X282029Y952004D01*
X282087Y951883D01*
X282141Y951761D01*
X282192Y951637D01*
X282239Y951511D01*
X282282Y951384D01*
X282321Y951256D01*
X282357Y951127D01*
X282388Y950997D01*
X282416Y950866D01*
X282440Y950734D01*
X282460Y950601D01*
X282476Y950468D01*
X282488Y950335D01*
X282496Y950201D01*
X282500Y950067D01*
X282500Y949933D01*
X282496Y949799D01*
X282488Y949665D01*
X282476Y949532D01*
X282460Y949399D01*
X282440Y949266D01*
X282416Y949134D01*
X282388Y949003D01*
X282357Y948873D01*
X282321Y948744D01*
X282282Y948616D01*
X282239Y948489D01*
X282192Y948363D01*
X282141Y948239D01*
X282087Y948117D01*
X282029Y947996D01*
X281968Y947877D01*
X281903Y947760D01*
X281834Y947644D01*
X281762Y947531D01*
X281687Y947420D01*
X281609Y947312D01*
X281527Y947206D01*
X281442Y947102D01*
X281355Y947001D01*
X281264Y946902D01*
X281170Y946806D01*
X281074Y946713D01*
X280974Y946623D01*
X280873Y946536D01*
X280768Y946452D01*
X280661Y946371D01*
X280552Y946294D01*
X280441Y946219D01*
X280327Y946148D01*
X280211Y946081D01*
X280094Y946017D01*
X279974Y945956D01*
X279853Y945899D01*
X279730Y945846D01*
X279605Y945796D01*
X279479Y945750D01*
X279352Y945708D01*
X279224Y945670D01*
X279094Y945635D01*
X278964Y945604D01*
X278833Y945578D01*
X278701Y945555D01*
X278568Y945536D01*
X278435Y945521D01*
X278301Y945510D01*
X278167Y945503D01*
X278034Y945500D01*
X277900Y945501D01*
X277766Y945506D01*
X277632Y945515D01*
X277499Y945528D01*
X277366Y945545D01*
X277233Y945566D01*
X277102Y945591D01*
X276971Y945619D01*
X276841Y945652D01*
X276712Y945688D01*
X276584Y945729D01*
X276457Y945773D01*
X276332Y945820D01*
X276209Y945872D01*
X276086Y945927D01*
X275966Y945986D01*
X275847Y946048D01*
X275731Y946114D01*
X275616Y946183D01*
X275503Y946256D01*
X275393Y946332D01*
X275285Y946411D01*
X275179Y946494D01*
X275076Y946579D01*
X274976Y946668D01*
X274878Y946759D01*
X274783Y946854D01*
X274690Y946951D01*
X274601Y947051D01*
X274515Y947153D01*
X274432Y947258D01*
X274352Y947366D01*
X274275Y947476D01*
X274201Y947588D01*
X274131Y947702D01*
X274064Y947818D01*
X274001Y947936D01*
X273941Y948056D01*
X273885Y948178D01*
X273833Y948301D01*
X273784Y948426D01*
X273739Y948552D01*
X273698Y948680D01*
X273661Y948808D01*
X273627Y948938D01*
X273597Y949069D01*
X273572Y949200D01*
X273550Y949332D01*
X273532Y949465D01*
X273518Y949599D01*
X273508Y949732D01*
X273502Y949866D01*
X273500Y950000D01*
D17*
X278000Y950000D03*
D10*
X317500Y950000D02*
X317502Y950134D01*
X317508Y950268D01*
X317518Y950401D01*
X317532Y950535D01*
X317550Y950668D01*
X317572Y950800D01*
X317597Y950931D01*
X317627Y951062D01*
X317661Y951192D01*
X317698Y951320D01*
X317739Y951448D01*
X317784Y951574D01*
X317833Y951699D01*
X317885Y951822D01*
X317941Y951944D01*
X318001Y952064D01*
X318064Y952182D01*
X318131Y952298D01*
X318201Y952412D01*
X318275Y952524D01*
X318352Y952634D01*
X318432Y952742D01*
X318515Y952847D01*
X318601Y952949D01*
X318690Y953049D01*
X318783Y953146D01*
X318878Y953241D01*
X318976Y953332D01*
X319076Y953421D01*
X319179Y953506D01*
X319285Y953589D01*
X319393Y953668D01*
X319503Y953744D01*
X319616Y953817D01*
X319731Y953886D01*
X319847Y953952D01*
X319966Y954014D01*
X320086Y954073D01*
X320209Y954128D01*
X320332Y954180D01*
X320457Y954227D01*
X320584Y954271D01*
X320712Y954312D01*
X320841Y954348D01*
X320971Y954381D01*
X321102Y954409D01*
X321233Y954434D01*
X321366Y954455D01*
X321499Y954472D01*
X321632Y954485D01*
X321766Y954494D01*
X321900Y954499D01*
X322034Y954500D01*
X322167Y954497D01*
X322301Y954490D01*
X322435Y954479D01*
X322568Y954464D01*
X322701Y954445D01*
X322833Y954422D01*
X322964Y954396D01*
X323094Y954365D01*
X323224Y954330D01*
X323352Y954292D01*
X323479Y954250D01*
X323605Y954204D01*
X323730Y954154D01*
X323853Y954101D01*
X323974Y954044D01*
X324094Y953983D01*
X324211Y953919D01*
X324327Y953852D01*
X324441Y953781D01*
X324552Y953706D01*
X324661Y953629D01*
X324768Y953548D01*
X324873Y953464D01*
X324974Y953377D01*
X325074Y953287D01*
X325170Y953194D01*
X325264Y953098D01*
X325355Y952999D01*
X325442Y952898D01*
X325527Y952794D01*
X325609Y952688D01*
X325687Y952580D01*
X325762Y952469D01*
X325834Y952356D01*
X325903Y952240D01*
X325968Y952123D01*
X326029Y952004D01*
X326087Y951883D01*
X326141Y951761D01*
X326192Y951637D01*
X326239Y951511D01*
X326282Y951384D01*
X326321Y951256D01*
X326357Y951127D01*
X326388Y950997D01*
X326416Y950866D01*
X326440Y950734D01*
X326460Y950601D01*
X326476Y950468D01*
X326488Y950335D01*
X326496Y950201D01*
X326500Y950067D01*
X326500Y949933D01*
X326496Y949799D01*
X326488Y949665D01*
X326476Y949532D01*
X326460Y949399D01*
X326440Y949266D01*
X326416Y949134D01*
X326388Y949003D01*
X326357Y948873D01*
X326321Y948744D01*
X326282Y948616D01*
X326239Y948489D01*
X326192Y948363D01*
X326141Y948239D01*
X326087Y948117D01*
X326029Y947996D01*
X325968Y947877D01*
X325903Y947760D01*
X325834Y947644D01*
X325762Y947531D01*
X325687Y947420D01*
X325609Y947312D01*
X325527Y947206D01*
X325442Y947102D01*
X325355Y947001D01*
X325264Y946902D01*
X325170Y946806D01*
X325074Y946713D01*
X324974Y946623D01*
X324873Y946536D01*
X324768Y946452D01*
X324661Y946371D01*
X324552Y946294D01*
X324441Y946219D01*
X324327Y946148D01*
X324211Y946081D01*
X324094Y946017D01*
X323974Y945956D01*
X323853Y945899D01*
X323730Y945846D01*
X323605Y945796D01*
X323479Y945750D01*
X323352Y945708D01*
X323224Y945670D01*
X323094Y945635D01*
X322964Y945604D01*
X322833Y945578D01*
X322701Y945555D01*
X322568Y945536D01*
X322435Y945521D01*
X322301Y945510D01*
X322167Y945503D01*
X322034Y945500D01*
X321900Y945501D01*
X321766Y945506D01*
X321632Y945515D01*
X321499Y945528D01*
X321366Y945545D01*
X321233Y945566D01*
X321102Y945591D01*
X320971Y945619D01*
X320841Y945652D01*
X320712Y945688D01*
X320584Y945729D01*
X320457Y945773D01*
X320332Y945820D01*
X320209Y945872D01*
X320086Y945927D01*
X319966Y945986D01*
X319847Y946048D01*
X319731Y946114D01*
X319616Y946183D01*
X319503Y946256D01*
X319393Y946332D01*
X319285Y946411D01*
X319179Y946494D01*
X319076Y946579D01*
X318976Y946668D01*
X318878Y946759D01*
X318783Y946854D01*
X318690Y946951D01*
X318601Y947051D01*
X318515Y947153D01*
X318432Y947258D01*
X318352Y947366D01*
X318275Y947476D01*
X318201Y947588D01*
X318131Y947702D01*
X318064Y947818D01*
X318001Y947936D01*
X317941Y948056D01*
X317885Y948178D01*
X317833Y948301D01*
X317784Y948426D01*
X317739Y948552D01*
X317698Y948680D01*
X317661Y948808D01*
X317627Y948938D01*
X317597Y949069D01*
X317572Y949200D01*
X317550Y949332D01*
X317532Y949465D01*
X317518Y949599D01*
X317508Y949732D01*
X317502Y949866D01*
X317500Y950000D01*
D17*
X322000Y950000D03*
D18*
X85000Y815000D03*
X110000Y815000D03*
X135000Y815000D03*
X85000Y960000D03*
X135000Y960000D03*
D19*
X49000Y890000D03*
X171000Y890000D03*
D18*
X465000Y815000D03*
X490000Y815000D03*
X515000Y815000D03*
X465000Y960000D03*
X515000Y960000D03*
D19*
X429000Y890000D03*
X551000Y890000D03*
D20*
X374600Y980000D03*
X400000Y980000D03*
X425400Y980000D03*
D21*
X400000Y980000D03*
D22*
X325000Y971500D03*
X325000Y988500D03*
X275000Y988500D03*
X275000Y971500D03*
D23*
X42700Y970000D03*
X17300Y970000D03*
X582700Y970000D03*
X557300Y970000D03*
D24*
X250000Y800000D03*
X250000Y810000D03*
X250000Y820000D03*
X250000Y830000D03*
X285000Y750000D03*
X188000Y743000D03*
X50000Y750000D03*
X300000Y815000D03*
X330000Y880000D03*
X330000Y761000D03*
X254000Y850000D03*
X490000Y880000D03*
X110000Y880000D03*
X420000Y840000D03*
X199000Y821000D03*
X224000Y850000D03*
X211000Y821000D03*
X199000Y809000D03*
X211000Y809000D03*
X240000Y770000D03*
X360000Y780000D03*
X205000Y395000D03*
X395000Y395000D03*
X205000Y15000D03*
X395000Y15000D03*
X15000Y15000D03*
X585000Y15000D03*
X425000Y945000D03*
X277000Y860000D03*
X250000Y770000D03*
X320000Y770000D03*
X308000Y860000D03*
X350000Y827000D03*
X410000Y783000D03*
X450000Y860000D03*
X530000Y860000D03*
X150000Y860000D03*
X70000Y860000D03*
X158000Y810000D03*
X210000Y891000D03*
X405000Y935000D03*
X375000Y935000D03*
X395000Y950000D03*
X250000Y790000D03*
X350000Y800000D03*
X250000Y780000D03*
X360000Y800000D03*
X35000Y610000D03*
X230000Y640000D03*
X40000Y460000D03*
X220000Y420000D03*
X221000Y660000D03*
X435000Y230000D03*
X585000Y230000D03*
X410000Y40000D03*
X205000Y650000D03*
X122000Y762000D03*
X265000Y762000D03*
X98000Y762000D03*
X275000Y756000D03*
D25*
X205000Y585000D03*
X395000Y585000D03*
X205000Y205000D03*
X395000Y205000D03*
M02*
