G04 EAGLE Gerber RS-274X export*
G75*
%MOMM*%
%FSLAX34Y34*%
%LPD*%
%INTop silk*%
%IPPOS*%
%AMOC8*
5,1,8,0,0,1.08239X$1,22.5*%
G01*
%ADD10C,0.000000*%
%ADD11C,0.203200*%
%ADD12C,0.127000*%
%ADD13C,0.254000*%
%ADD14C,0.152400*%


D10*
X590000Y1000000D02*
X500000Y1000000D01*
X500000Y995000D01*
X499998Y994860D01*
X499992Y994720D01*
X499982Y994580D01*
X499969Y994440D01*
X499951Y994301D01*
X499929Y994162D01*
X499904Y994025D01*
X499875Y993887D01*
X499842Y993751D01*
X499805Y993616D01*
X499764Y993482D01*
X499719Y993349D01*
X499671Y993217D01*
X499619Y993087D01*
X499564Y992958D01*
X499505Y992831D01*
X499442Y992705D01*
X499376Y992581D01*
X499307Y992460D01*
X499234Y992340D01*
X499157Y992222D01*
X499078Y992107D01*
X498995Y991993D01*
X498909Y991883D01*
X498820Y991774D01*
X498728Y991668D01*
X498633Y991565D01*
X498536Y991464D01*
X498435Y991367D01*
X498332Y991272D01*
X498226Y991180D01*
X498117Y991091D01*
X498007Y991005D01*
X497893Y990922D01*
X497778Y990843D01*
X497660Y990766D01*
X497540Y990693D01*
X497419Y990624D01*
X497295Y990558D01*
X497169Y990495D01*
X497042Y990436D01*
X496913Y990381D01*
X496783Y990329D01*
X496651Y990281D01*
X496518Y990236D01*
X496384Y990195D01*
X496249Y990158D01*
X496113Y990125D01*
X495975Y990096D01*
X495838Y990071D01*
X495699Y990049D01*
X495560Y990031D01*
X495420Y990018D01*
X495280Y990008D01*
X495140Y990002D01*
X495000Y990000D01*
X485000Y990000D01*
X484860Y990002D01*
X484720Y990008D01*
X484580Y990018D01*
X484440Y990031D01*
X484301Y990049D01*
X484162Y990071D01*
X484025Y990096D01*
X483887Y990125D01*
X483751Y990158D01*
X483616Y990195D01*
X483482Y990236D01*
X483349Y990281D01*
X483217Y990329D01*
X483087Y990381D01*
X482958Y990436D01*
X482831Y990495D01*
X482705Y990558D01*
X482581Y990624D01*
X482460Y990693D01*
X482340Y990766D01*
X482222Y990843D01*
X482107Y990922D01*
X481993Y991005D01*
X481883Y991091D01*
X481774Y991180D01*
X481668Y991272D01*
X481565Y991367D01*
X481464Y991464D01*
X481367Y991565D01*
X481272Y991668D01*
X481180Y991774D01*
X481091Y991883D01*
X481005Y991993D01*
X480922Y992107D01*
X480843Y992222D01*
X480766Y992340D01*
X480693Y992460D01*
X480624Y992581D01*
X480558Y992705D01*
X480495Y992831D01*
X480436Y992958D01*
X480381Y993087D01*
X480329Y993217D01*
X480281Y993349D01*
X480236Y993482D01*
X480195Y993616D01*
X480158Y993751D01*
X480125Y993887D01*
X480096Y994025D01*
X480071Y994162D01*
X480049Y994301D01*
X480031Y994440D01*
X480018Y994580D01*
X480008Y994720D01*
X480002Y994860D01*
X480000Y995000D01*
X480000Y1000000D01*
X120000Y1000000D01*
X120000Y995000D01*
X119998Y994860D01*
X119992Y994720D01*
X119982Y994580D01*
X119969Y994440D01*
X119951Y994301D01*
X119929Y994162D01*
X119904Y994025D01*
X119875Y993887D01*
X119842Y993751D01*
X119805Y993616D01*
X119764Y993482D01*
X119719Y993349D01*
X119671Y993217D01*
X119619Y993087D01*
X119564Y992958D01*
X119505Y992831D01*
X119442Y992705D01*
X119376Y992581D01*
X119307Y992460D01*
X119234Y992340D01*
X119157Y992222D01*
X119078Y992107D01*
X118995Y991993D01*
X118909Y991883D01*
X118820Y991774D01*
X118728Y991668D01*
X118633Y991565D01*
X118536Y991464D01*
X118435Y991367D01*
X118332Y991272D01*
X118226Y991180D01*
X118117Y991091D01*
X118007Y991005D01*
X117893Y990922D01*
X117778Y990843D01*
X117660Y990766D01*
X117540Y990693D01*
X117419Y990624D01*
X117295Y990558D01*
X117169Y990495D01*
X117042Y990436D01*
X116913Y990381D01*
X116783Y990329D01*
X116651Y990281D01*
X116518Y990236D01*
X116384Y990195D01*
X116249Y990158D01*
X116113Y990125D01*
X115975Y990096D01*
X115838Y990071D01*
X115699Y990049D01*
X115560Y990031D01*
X115420Y990018D01*
X115280Y990008D01*
X115140Y990002D01*
X115000Y990000D01*
X105000Y990000D01*
X104860Y990002D01*
X104720Y990008D01*
X104580Y990018D01*
X104440Y990031D01*
X104301Y990049D01*
X104162Y990071D01*
X104025Y990096D01*
X103887Y990125D01*
X103751Y990158D01*
X103616Y990195D01*
X103482Y990236D01*
X103349Y990281D01*
X103217Y990329D01*
X103087Y990381D01*
X102958Y990436D01*
X102831Y990495D01*
X102705Y990558D01*
X102581Y990624D01*
X102460Y990693D01*
X102340Y990766D01*
X102222Y990843D01*
X102107Y990922D01*
X101993Y991005D01*
X101883Y991091D01*
X101774Y991180D01*
X101668Y991272D01*
X101565Y991367D01*
X101464Y991464D01*
X101367Y991565D01*
X101272Y991668D01*
X101180Y991774D01*
X101091Y991883D01*
X101005Y991993D01*
X100922Y992107D01*
X100843Y992222D01*
X100766Y992340D01*
X100693Y992460D01*
X100624Y992581D01*
X100558Y992705D01*
X100495Y992831D01*
X100436Y992958D01*
X100381Y993087D01*
X100329Y993217D01*
X100281Y993349D01*
X100236Y993482D01*
X100195Y993616D01*
X100158Y993751D01*
X100125Y993887D01*
X100096Y994025D01*
X100071Y994162D01*
X100049Y994301D01*
X100031Y994440D01*
X100018Y994580D01*
X100008Y994720D01*
X100002Y994860D01*
X100000Y995000D01*
X100000Y1000000D01*
X10000Y1000000D01*
X9758Y999997D01*
X9517Y999988D01*
X9276Y999974D01*
X9035Y999953D01*
X8795Y999927D01*
X8555Y999895D01*
X8316Y999857D01*
X8079Y999814D01*
X7842Y999764D01*
X7607Y999709D01*
X7373Y999649D01*
X7141Y999582D01*
X6910Y999511D01*
X6681Y999433D01*
X6454Y999350D01*
X6229Y999262D01*
X6006Y999168D01*
X5786Y999069D01*
X5568Y998964D01*
X5353Y998855D01*
X5140Y998740D01*
X4930Y998620D01*
X4724Y998495D01*
X4520Y998365D01*
X4319Y998230D01*
X4122Y998090D01*
X3928Y997946D01*
X3738Y997797D01*
X3552Y997643D01*
X3369Y997485D01*
X3190Y997323D01*
X3015Y997156D01*
X2844Y996985D01*
X2677Y996810D01*
X2515Y996631D01*
X2357Y996448D01*
X2203Y996262D01*
X2054Y996072D01*
X1910Y995878D01*
X1770Y995681D01*
X1635Y995480D01*
X1505Y995276D01*
X1380Y995070D01*
X1260Y994860D01*
X1145Y994647D01*
X1036Y994432D01*
X931Y994214D01*
X832Y993994D01*
X738Y993771D01*
X650Y993546D01*
X567Y993319D01*
X489Y993090D01*
X418Y992859D01*
X351Y992627D01*
X291Y992393D01*
X236Y992158D01*
X186Y991921D01*
X143Y991684D01*
X105Y991445D01*
X73Y991205D01*
X47Y990965D01*
X26Y990724D01*
X12Y990483D01*
X3Y990242D01*
X0Y990000D01*
X0Y10000D01*
X3Y9758D01*
X12Y9517D01*
X26Y9276D01*
X47Y9035D01*
X73Y8795D01*
X105Y8555D01*
X143Y8316D01*
X186Y8079D01*
X236Y7842D01*
X291Y7607D01*
X351Y7373D01*
X418Y7141D01*
X489Y6910D01*
X567Y6681D01*
X650Y6454D01*
X738Y6229D01*
X832Y6006D01*
X931Y5786D01*
X1036Y5568D01*
X1145Y5353D01*
X1260Y5140D01*
X1380Y4930D01*
X1505Y4724D01*
X1635Y4520D01*
X1770Y4319D01*
X1910Y4122D01*
X2054Y3928D01*
X2203Y3738D01*
X2357Y3552D01*
X2515Y3369D01*
X2677Y3190D01*
X2844Y3015D01*
X3015Y2844D01*
X3190Y2677D01*
X3369Y2515D01*
X3552Y2357D01*
X3738Y2203D01*
X3928Y2054D01*
X4122Y1910D01*
X4319Y1770D01*
X4520Y1635D01*
X4724Y1505D01*
X4930Y1380D01*
X5140Y1260D01*
X5353Y1145D01*
X5568Y1036D01*
X5786Y931D01*
X6006Y832D01*
X6229Y738D01*
X6454Y650D01*
X6681Y567D01*
X6910Y489D01*
X7141Y418D01*
X7373Y351D01*
X7607Y291D01*
X7842Y236D01*
X8079Y186D01*
X8316Y143D01*
X8555Y105D01*
X8795Y73D01*
X9035Y47D01*
X9276Y26D01*
X9517Y12D01*
X9758Y3D01*
X10000Y0D01*
X100000Y0D01*
X100000Y5000D01*
X100002Y5140D01*
X100008Y5280D01*
X100018Y5420D01*
X100031Y5560D01*
X100049Y5699D01*
X100071Y5838D01*
X100096Y5975D01*
X100125Y6113D01*
X100158Y6249D01*
X100195Y6384D01*
X100236Y6518D01*
X100281Y6651D01*
X100329Y6783D01*
X100381Y6913D01*
X100436Y7042D01*
X100495Y7169D01*
X100558Y7295D01*
X100624Y7419D01*
X100693Y7540D01*
X100766Y7660D01*
X100843Y7778D01*
X100922Y7893D01*
X101005Y8007D01*
X101091Y8117D01*
X101180Y8226D01*
X101272Y8332D01*
X101367Y8435D01*
X101464Y8536D01*
X101565Y8633D01*
X101668Y8728D01*
X101774Y8820D01*
X101883Y8909D01*
X101993Y8995D01*
X102107Y9078D01*
X102222Y9157D01*
X102340Y9234D01*
X102460Y9307D01*
X102581Y9376D01*
X102705Y9442D01*
X102831Y9505D01*
X102958Y9564D01*
X103087Y9619D01*
X103217Y9671D01*
X103349Y9719D01*
X103482Y9764D01*
X103616Y9805D01*
X103751Y9842D01*
X103887Y9875D01*
X104025Y9904D01*
X104162Y9929D01*
X104301Y9951D01*
X104440Y9969D01*
X104580Y9982D01*
X104720Y9992D01*
X104860Y9998D01*
X105000Y10000D01*
X115000Y10000D01*
X115140Y9998D01*
X115280Y9992D01*
X115420Y9982D01*
X115560Y9969D01*
X115699Y9951D01*
X115838Y9929D01*
X115975Y9904D01*
X116113Y9875D01*
X116249Y9842D01*
X116384Y9805D01*
X116518Y9764D01*
X116651Y9719D01*
X116783Y9671D01*
X116913Y9619D01*
X117042Y9564D01*
X117169Y9505D01*
X117295Y9442D01*
X117419Y9376D01*
X117540Y9307D01*
X117660Y9234D01*
X117778Y9157D01*
X117893Y9078D01*
X118007Y8995D01*
X118117Y8909D01*
X118226Y8820D01*
X118332Y8728D01*
X118435Y8633D01*
X118536Y8536D01*
X118633Y8435D01*
X118728Y8332D01*
X118820Y8226D01*
X118909Y8117D01*
X118995Y8007D01*
X119078Y7893D01*
X119157Y7778D01*
X119234Y7660D01*
X119307Y7540D01*
X119376Y7419D01*
X119442Y7295D01*
X119505Y7169D01*
X119564Y7042D01*
X119619Y6913D01*
X119671Y6783D01*
X119719Y6651D01*
X119764Y6518D01*
X119805Y6384D01*
X119842Y6249D01*
X119875Y6113D01*
X119904Y5975D01*
X119929Y5838D01*
X119951Y5699D01*
X119969Y5560D01*
X119982Y5420D01*
X119992Y5280D01*
X119998Y5140D01*
X120000Y5000D01*
X120000Y0D01*
X480000Y0D01*
X480000Y5000D01*
X480002Y5140D01*
X480008Y5280D01*
X480018Y5420D01*
X480031Y5560D01*
X480049Y5699D01*
X480071Y5838D01*
X480096Y5975D01*
X480125Y6113D01*
X480158Y6249D01*
X480195Y6384D01*
X480236Y6518D01*
X480281Y6651D01*
X480329Y6783D01*
X480381Y6913D01*
X480436Y7042D01*
X480495Y7169D01*
X480558Y7295D01*
X480624Y7419D01*
X480693Y7540D01*
X480766Y7660D01*
X480843Y7778D01*
X480922Y7893D01*
X481005Y8007D01*
X481091Y8117D01*
X481180Y8226D01*
X481272Y8332D01*
X481367Y8435D01*
X481464Y8536D01*
X481565Y8633D01*
X481668Y8728D01*
X481774Y8820D01*
X481883Y8909D01*
X481993Y8995D01*
X482107Y9078D01*
X482222Y9157D01*
X482340Y9234D01*
X482460Y9307D01*
X482581Y9376D01*
X482705Y9442D01*
X482831Y9505D01*
X482958Y9564D01*
X483087Y9619D01*
X483217Y9671D01*
X483349Y9719D01*
X483482Y9764D01*
X483616Y9805D01*
X483751Y9842D01*
X483887Y9875D01*
X484025Y9904D01*
X484162Y9929D01*
X484301Y9951D01*
X484440Y9969D01*
X484580Y9982D01*
X484720Y9992D01*
X484860Y9998D01*
X485000Y10000D01*
X495000Y10000D01*
X495140Y9998D01*
X495280Y9992D01*
X495420Y9982D01*
X495560Y9969D01*
X495699Y9951D01*
X495838Y9929D01*
X495975Y9904D01*
X496113Y9875D01*
X496249Y9842D01*
X496384Y9805D01*
X496518Y9764D01*
X496651Y9719D01*
X496783Y9671D01*
X496913Y9619D01*
X497042Y9564D01*
X497169Y9505D01*
X497295Y9442D01*
X497419Y9376D01*
X497540Y9307D01*
X497660Y9234D01*
X497778Y9157D01*
X497893Y9078D01*
X498007Y8995D01*
X498117Y8909D01*
X498226Y8820D01*
X498332Y8728D01*
X498435Y8633D01*
X498536Y8536D01*
X498633Y8435D01*
X498728Y8332D01*
X498820Y8226D01*
X498909Y8117D01*
X498995Y8007D01*
X499078Y7893D01*
X499157Y7778D01*
X499234Y7660D01*
X499307Y7540D01*
X499376Y7419D01*
X499442Y7295D01*
X499505Y7169D01*
X499564Y7042D01*
X499619Y6913D01*
X499671Y6783D01*
X499719Y6651D01*
X499764Y6518D01*
X499805Y6384D01*
X499842Y6249D01*
X499875Y6113D01*
X499904Y5975D01*
X499929Y5838D01*
X499951Y5699D01*
X499969Y5560D01*
X499982Y5420D01*
X499992Y5280D01*
X499998Y5140D01*
X500000Y5000D01*
X500000Y0D01*
X590000Y0D01*
X590242Y3D01*
X590483Y12D01*
X590724Y26D01*
X590965Y47D01*
X591205Y73D01*
X591445Y105D01*
X591684Y143D01*
X591921Y186D01*
X592158Y236D01*
X592393Y291D01*
X592627Y351D01*
X592859Y418D01*
X593090Y489D01*
X593319Y567D01*
X593546Y650D01*
X593771Y738D01*
X593994Y832D01*
X594214Y931D01*
X594432Y1036D01*
X594647Y1145D01*
X594860Y1260D01*
X595070Y1380D01*
X595276Y1505D01*
X595480Y1635D01*
X595681Y1770D01*
X595878Y1910D01*
X596072Y2054D01*
X596262Y2203D01*
X596448Y2357D01*
X596631Y2515D01*
X596810Y2677D01*
X596985Y2844D01*
X597156Y3015D01*
X597323Y3190D01*
X597485Y3369D01*
X597643Y3552D01*
X597797Y3738D01*
X597946Y3928D01*
X598090Y4122D01*
X598230Y4319D01*
X598365Y4520D01*
X598495Y4724D01*
X598620Y4930D01*
X598740Y5140D01*
X598855Y5353D01*
X598964Y5568D01*
X599069Y5786D01*
X599168Y6006D01*
X599262Y6229D01*
X599350Y6454D01*
X599433Y6681D01*
X599511Y6910D01*
X599582Y7141D01*
X599649Y7373D01*
X599709Y7607D01*
X599764Y7842D01*
X599814Y8079D01*
X599857Y8316D01*
X599895Y8555D01*
X599927Y8795D01*
X599953Y9035D01*
X599974Y9276D01*
X599988Y9517D01*
X599997Y9758D01*
X600000Y10000D01*
X600000Y990000D01*
X599997Y990242D01*
X599988Y990483D01*
X599974Y990724D01*
X599953Y990965D01*
X599927Y991205D01*
X599895Y991445D01*
X599857Y991684D01*
X599814Y991921D01*
X599764Y992158D01*
X599709Y992393D01*
X599649Y992627D01*
X599582Y992859D01*
X599511Y993090D01*
X599433Y993319D01*
X599350Y993546D01*
X599262Y993771D01*
X599168Y993994D01*
X599069Y994214D01*
X598964Y994432D01*
X598855Y994647D01*
X598740Y994860D01*
X598620Y995070D01*
X598495Y995276D01*
X598365Y995480D01*
X598230Y995681D01*
X598090Y995878D01*
X597946Y996072D01*
X597797Y996262D01*
X597643Y996448D01*
X597485Y996631D01*
X597323Y996810D01*
X597156Y996985D01*
X596985Y997156D01*
X596810Y997323D01*
X596631Y997485D01*
X596448Y997643D01*
X596262Y997797D01*
X596072Y997946D01*
X595878Y998090D01*
X595681Y998230D01*
X595480Y998365D01*
X595276Y998495D01*
X595070Y998620D01*
X594860Y998740D01*
X594647Y998855D01*
X594432Y998964D01*
X594214Y999069D01*
X593994Y999168D01*
X593771Y999262D01*
X593546Y999350D01*
X593319Y999433D01*
X593090Y999511D01*
X592859Y999582D01*
X592627Y999649D01*
X592393Y999709D01*
X592158Y999764D01*
X591921Y999814D01*
X591684Y999857D01*
X591445Y999895D01*
X591205Y999927D01*
X590965Y999953D01*
X590724Y999974D01*
X590483Y999988D01*
X590242Y999997D01*
X590000Y1000000D01*
D11*
X260876Y463984D02*
X260876Y457787D01*
X260877Y457787D02*
X260875Y457705D01*
X260869Y457624D01*
X260860Y457542D01*
X260847Y457462D01*
X260830Y457382D01*
X260809Y457302D01*
X260785Y457224D01*
X260757Y457147D01*
X260726Y457072D01*
X260691Y456998D01*
X260653Y456925D01*
X260612Y456855D01*
X260567Y456786D01*
X260519Y456720D01*
X260468Y456656D01*
X260415Y456594D01*
X260358Y456535D01*
X260299Y456478D01*
X260237Y456424D01*
X260173Y456374D01*
X260107Y456326D01*
X260038Y456281D01*
X259968Y456240D01*
X259895Y456202D01*
X259821Y456167D01*
X259746Y456136D01*
X259669Y456108D01*
X259591Y456084D01*
X259511Y456063D01*
X259431Y456046D01*
X259351Y456033D01*
X259269Y456024D01*
X259188Y456018D01*
X259106Y456016D01*
X258220Y456016D01*
X266016Y456016D02*
X266016Y463984D01*
X266016Y456016D02*
X269558Y456016D01*
X275209Y456016D02*
X276980Y456016D01*
X275209Y456016D02*
X275127Y456018D01*
X275046Y456024D01*
X274964Y456033D01*
X274884Y456046D01*
X274804Y456063D01*
X274724Y456084D01*
X274646Y456108D01*
X274569Y456136D01*
X274494Y456167D01*
X274420Y456202D01*
X274347Y456240D01*
X274277Y456281D01*
X274208Y456326D01*
X274142Y456374D01*
X274078Y456425D01*
X274016Y456478D01*
X273957Y456535D01*
X273900Y456594D01*
X273847Y456656D01*
X273796Y456720D01*
X273748Y456786D01*
X273703Y456855D01*
X273662Y456925D01*
X273624Y456998D01*
X273589Y457072D01*
X273558Y457147D01*
X273530Y457224D01*
X273506Y457302D01*
X273485Y457382D01*
X273468Y457462D01*
X273455Y457542D01*
X273446Y457624D01*
X273440Y457705D01*
X273438Y457787D01*
X273439Y457787D02*
X273439Y462213D01*
X273438Y462213D02*
X273440Y462295D01*
X273446Y462376D01*
X273455Y462458D01*
X273468Y462538D01*
X273485Y462618D01*
X273506Y462698D01*
X273530Y462776D01*
X273558Y462853D01*
X273589Y462928D01*
X273624Y463002D01*
X273662Y463075D01*
X273703Y463145D01*
X273748Y463214D01*
X273796Y463280D01*
X273847Y463344D01*
X273900Y463406D01*
X273957Y463465D01*
X274016Y463522D01*
X274078Y463575D01*
X274142Y463626D01*
X274208Y463674D01*
X274277Y463719D01*
X274347Y463760D01*
X274420Y463798D01*
X274494Y463833D01*
X274569Y463864D01*
X274646Y463892D01*
X274724Y463916D01*
X274804Y463937D01*
X274884Y463954D01*
X274964Y463967D01*
X275046Y463976D01*
X275127Y463982D01*
X275209Y463984D01*
X276980Y463984D01*
X282476Y463984D02*
X282476Y457787D01*
X282477Y457787D02*
X282475Y457705D01*
X282469Y457624D01*
X282460Y457542D01*
X282447Y457462D01*
X282430Y457382D01*
X282409Y457302D01*
X282385Y457224D01*
X282357Y457147D01*
X282326Y457072D01*
X282291Y456998D01*
X282253Y456925D01*
X282212Y456855D01*
X282167Y456786D01*
X282119Y456720D01*
X282068Y456656D01*
X282015Y456594D01*
X281958Y456535D01*
X281899Y456478D01*
X281837Y456424D01*
X281773Y456374D01*
X281707Y456326D01*
X281638Y456281D01*
X281568Y456240D01*
X281495Y456202D01*
X281421Y456167D01*
X281346Y456136D01*
X281269Y456108D01*
X281191Y456084D01*
X281111Y456063D01*
X281031Y456046D01*
X280951Y456033D01*
X280869Y456024D01*
X280788Y456018D01*
X280706Y456016D01*
X279820Y456016D01*
X287616Y456016D02*
X287616Y463984D01*
X287616Y456016D02*
X291158Y456016D01*
X296809Y456016D02*
X298580Y456016D01*
X296809Y456016D02*
X296727Y456018D01*
X296646Y456024D01*
X296564Y456033D01*
X296484Y456046D01*
X296404Y456063D01*
X296324Y456084D01*
X296246Y456108D01*
X296169Y456136D01*
X296094Y456167D01*
X296020Y456202D01*
X295947Y456240D01*
X295877Y456281D01*
X295808Y456326D01*
X295742Y456374D01*
X295678Y456425D01*
X295616Y456478D01*
X295557Y456535D01*
X295500Y456594D01*
X295447Y456656D01*
X295396Y456720D01*
X295348Y456786D01*
X295303Y456855D01*
X295262Y456925D01*
X295224Y456998D01*
X295189Y457072D01*
X295158Y457147D01*
X295130Y457224D01*
X295106Y457302D01*
X295085Y457382D01*
X295068Y457462D01*
X295055Y457542D01*
X295046Y457624D01*
X295040Y457705D01*
X295038Y457787D01*
X295039Y457787D02*
X295039Y462213D01*
X295038Y462213D02*
X295040Y462295D01*
X295046Y462376D01*
X295055Y462458D01*
X295068Y462538D01*
X295085Y462618D01*
X295106Y462698D01*
X295130Y462776D01*
X295158Y462853D01*
X295189Y462928D01*
X295224Y463002D01*
X295262Y463075D01*
X295303Y463145D01*
X295348Y463214D01*
X295396Y463280D01*
X295447Y463344D01*
X295500Y463406D01*
X295557Y463465D01*
X295616Y463522D01*
X295678Y463575D01*
X295742Y463626D01*
X295808Y463674D01*
X295877Y463719D01*
X295947Y463760D01*
X296020Y463798D01*
X296094Y463833D01*
X296169Y463864D01*
X296246Y463892D01*
X296324Y463916D01*
X296404Y463937D01*
X296484Y463954D01*
X296564Y463967D01*
X296646Y463976D01*
X296727Y463982D01*
X296809Y463984D01*
X298580Y463984D01*
X304076Y463984D02*
X304076Y457787D01*
X304077Y457787D02*
X304075Y457705D01*
X304069Y457624D01*
X304060Y457542D01*
X304047Y457462D01*
X304030Y457382D01*
X304009Y457302D01*
X303985Y457224D01*
X303957Y457147D01*
X303926Y457072D01*
X303891Y456998D01*
X303853Y456925D01*
X303812Y456855D01*
X303767Y456786D01*
X303719Y456720D01*
X303668Y456656D01*
X303615Y456594D01*
X303558Y456535D01*
X303499Y456478D01*
X303437Y456424D01*
X303373Y456374D01*
X303307Y456326D01*
X303238Y456281D01*
X303168Y456240D01*
X303095Y456202D01*
X303021Y456167D01*
X302946Y456136D01*
X302869Y456108D01*
X302791Y456084D01*
X302711Y456063D01*
X302631Y456046D01*
X302551Y456033D01*
X302469Y456024D01*
X302388Y456018D01*
X302306Y456016D01*
X301420Y456016D01*
X309216Y456016D02*
X309216Y463984D01*
X309216Y456016D02*
X312758Y456016D01*
X318409Y456016D02*
X320180Y456016D01*
X318409Y456016D02*
X318327Y456018D01*
X318246Y456024D01*
X318164Y456033D01*
X318084Y456046D01*
X318004Y456063D01*
X317924Y456084D01*
X317846Y456108D01*
X317769Y456136D01*
X317694Y456167D01*
X317620Y456202D01*
X317547Y456240D01*
X317477Y456281D01*
X317408Y456326D01*
X317342Y456374D01*
X317278Y456425D01*
X317216Y456478D01*
X317157Y456535D01*
X317100Y456594D01*
X317047Y456656D01*
X316996Y456720D01*
X316948Y456786D01*
X316903Y456855D01*
X316862Y456925D01*
X316824Y456998D01*
X316789Y457072D01*
X316758Y457147D01*
X316730Y457224D01*
X316706Y457302D01*
X316685Y457382D01*
X316668Y457462D01*
X316655Y457542D01*
X316646Y457624D01*
X316640Y457705D01*
X316638Y457787D01*
X316638Y462213D01*
X316640Y462295D01*
X316646Y462376D01*
X316655Y462458D01*
X316668Y462538D01*
X316685Y462618D01*
X316706Y462698D01*
X316730Y462776D01*
X316758Y462853D01*
X316789Y462928D01*
X316824Y463002D01*
X316862Y463075D01*
X316903Y463145D01*
X316948Y463214D01*
X316996Y463280D01*
X317047Y463344D01*
X317100Y463406D01*
X317157Y463465D01*
X317216Y463522D01*
X317278Y463575D01*
X317342Y463626D01*
X317408Y463674D01*
X317477Y463719D01*
X317547Y463760D01*
X317620Y463798D01*
X317694Y463833D01*
X317769Y463864D01*
X317846Y463892D01*
X317924Y463916D01*
X318004Y463937D01*
X318084Y463954D01*
X318164Y463967D01*
X318246Y463976D01*
X318327Y463982D01*
X318409Y463984D01*
X320180Y463984D01*
X325676Y463984D02*
X325676Y457787D01*
X325674Y457705D01*
X325668Y457624D01*
X325659Y457542D01*
X325646Y457462D01*
X325629Y457382D01*
X325608Y457302D01*
X325584Y457224D01*
X325556Y457147D01*
X325525Y457072D01*
X325490Y456998D01*
X325452Y456925D01*
X325411Y456855D01*
X325366Y456786D01*
X325318Y456720D01*
X325267Y456656D01*
X325214Y456594D01*
X325157Y456535D01*
X325098Y456478D01*
X325036Y456424D01*
X324972Y456374D01*
X324906Y456326D01*
X324837Y456281D01*
X324767Y456240D01*
X324694Y456202D01*
X324620Y456167D01*
X324545Y456136D01*
X324468Y456108D01*
X324390Y456084D01*
X324310Y456063D01*
X324230Y456046D01*
X324150Y456033D01*
X324068Y456024D01*
X323987Y456018D01*
X323905Y456016D01*
X323020Y456016D01*
X330816Y456016D02*
X330816Y463984D01*
X330816Y456016D02*
X334357Y456016D01*
X340009Y456016D02*
X341780Y456016D01*
X340009Y456016D02*
X339927Y456018D01*
X339846Y456024D01*
X339764Y456033D01*
X339684Y456046D01*
X339604Y456063D01*
X339524Y456084D01*
X339446Y456108D01*
X339369Y456136D01*
X339294Y456167D01*
X339220Y456202D01*
X339147Y456240D01*
X339077Y456281D01*
X339008Y456326D01*
X338942Y456374D01*
X338878Y456425D01*
X338816Y456478D01*
X338757Y456535D01*
X338700Y456594D01*
X338647Y456656D01*
X338596Y456720D01*
X338548Y456786D01*
X338503Y456855D01*
X338462Y456925D01*
X338424Y456998D01*
X338389Y457072D01*
X338358Y457147D01*
X338330Y457224D01*
X338306Y457302D01*
X338285Y457382D01*
X338268Y457462D01*
X338255Y457542D01*
X338246Y457624D01*
X338240Y457705D01*
X338238Y457787D01*
X338238Y462213D01*
X338240Y462295D01*
X338246Y462376D01*
X338255Y462458D01*
X338268Y462538D01*
X338285Y462618D01*
X338306Y462698D01*
X338330Y462776D01*
X338358Y462853D01*
X338389Y462928D01*
X338424Y463002D01*
X338462Y463075D01*
X338503Y463145D01*
X338548Y463214D01*
X338596Y463280D01*
X338647Y463344D01*
X338700Y463406D01*
X338757Y463465D01*
X338816Y463522D01*
X338878Y463575D01*
X338942Y463626D01*
X339008Y463674D01*
X339077Y463719D01*
X339147Y463760D01*
X339220Y463798D01*
X339294Y463833D01*
X339369Y463864D01*
X339446Y463892D01*
X339524Y463916D01*
X339604Y463937D01*
X339684Y463954D01*
X339764Y463967D01*
X339846Y463976D01*
X339927Y463982D01*
X340009Y463984D01*
X341780Y463984D01*
D12*
X186200Y756200D02*
X33800Y756200D01*
X186200Y756200D02*
X186200Y603800D01*
X33800Y603800D01*
X33800Y756200D01*
D10*
X89680Y680000D02*
X89686Y680499D01*
X89704Y680997D01*
X89735Y681495D01*
X89778Y681992D01*
X89833Y682487D01*
X89900Y682982D01*
X89979Y683474D01*
X90070Y683964D01*
X90174Y684452D01*
X90289Y684937D01*
X90416Y685420D01*
X90555Y685899D01*
X90706Y686374D01*
X90868Y686846D01*
X91042Y687313D01*
X91227Y687776D01*
X91423Y688235D01*
X91631Y688688D01*
X91850Y689136D01*
X92079Y689579D01*
X92320Y690016D01*
X92571Y690447D01*
X92833Y690871D01*
X93105Y691289D01*
X93387Y691700D01*
X93679Y692105D01*
X93981Y692502D01*
X94292Y692891D01*
X94614Y693272D01*
X94944Y693646D01*
X95283Y694011D01*
X95632Y694368D01*
X95989Y694717D01*
X96354Y695056D01*
X96728Y695386D01*
X97109Y695708D01*
X97498Y696019D01*
X97895Y696321D01*
X98300Y696613D01*
X98711Y696895D01*
X99129Y697167D01*
X99553Y697429D01*
X99984Y697680D01*
X100421Y697921D01*
X100864Y698150D01*
X101312Y698369D01*
X101765Y698577D01*
X102224Y698773D01*
X102687Y698958D01*
X103154Y699132D01*
X103626Y699294D01*
X104101Y699445D01*
X104580Y699584D01*
X105063Y699711D01*
X105548Y699826D01*
X106036Y699930D01*
X106526Y700021D01*
X107018Y700100D01*
X107513Y700167D01*
X108008Y700222D01*
X108505Y700265D01*
X109003Y700296D01*
X109501Y700314D01*
X110000Y700320D01*
X110499Y700314D01*
X110997Y700296D01*
X111495Y700265D01*
X111992Y700222D01*
X112487Y700167D01*
X112982Y700100D01*
X113474Y700021D01*
X113964Y699930D01*
X114452Y699826D01*
X114937Y699711D01*
X115420Y699584D01*
X115899Y699445D01*
X116374Y699294D01*
X116846Y699132D01*
X117313Y698958D01*
X117776Y698773D01*
X118235Y698577D01*
X118688Y698369D01*
X119136Y698150D01*
X119579Y697921D01*
X120016Y697680D01*
X120447Y697429D01*
X120871Y697167D01*
X121289Y696895D01*
X121700Y696613D01*
X122105Y696321D01*
X122502Y696019D01*
X122891Y695708D01*
X123272Y695386D01*
X123646Y695056D01*
X124011Y694717D01*
X124368Y694368D01*
X124717Y694011D01*
X125056Y693646D01*
X125386Y693272D01*
X125708Y692891D01*
X126019Y692502D01*
X126321Y692105D01*
X126613Y691700D01*
X126895Y691289D01*
X127167Y690871D01*
X127429Y690447D01*
X127680Y690016D01*
X127921Y689579D01*
X128150Y689136D01*
X128369Y688688D01*
X128577Y688235D01*
X128773Y687776D01*
X128958Y687313D01*
X129132Y686846D01*
X129294Y686374D01*
X129445Y685899D01*
X129584Y685420D01*
X129711Y684937D01*
X129826Y684452D01*
X129930Y683964D01*
X130021Y683474D01*
X130100Y682982D01*
X130167Y682487D01*
X130222Y681992D01*
X130265Y681495D01*
X130296Y680997D01*
X130314Y680499D01*
X130320Y680000D01*
X130314Y679501D01*
X130296Y679003D01*
X130265Y678505D01*
X130222Y678008D01*
X130167Y677513D01*
X130100Y677018D01*
X130021Y676526D01*
X129930Y676036D01*
X129826Y675548D01*
X129711Y675063D01*
X129584Y674580D01*
X129445Y674101D01*
X129294Y673626D01*
X129132Y673154D01*
X128958Y672687D01*
X128773Y672224D01*
X128577Y671765D01*
X128369Y671312D01*
X128150Y670864D01*
X127921Y670421D01*
X127680Y669984D01*
X127429Y669553D01*
X127167Y669129D01*
X126895Y668711D01*
X126613Y668300D01*
X126321Y667895D01*
X126019Y667498D01*
X125708Y667109D01*
X125386Y666728D01*
X125056Y666354D01*
X124717Y665989D01*
X124368Y665632D01*
X124011Y665283D01*
X123646Y664944D01*
X123272Y664614D01*
X122891Y664292D01*
X122502Y663981D01*
X122105Y663679D01*
X121700Y663387D01*
X121289Y663105D01*
X120871Y662833D01*
X120447Y662571D01*
X120016Y662320D01*
X119579Y662079D01*
X119136Y661850D01*
X118688Y661631D01*
X118235Y661423D01*
X117776Y661227D01*
X117313Y661042D01*
X116846Y660868D01*
X116374Y660706D01*
X115899Y660555D01*
X115420Y660416D01*
X114937Y660289D01*
X114452Y660174D01*
X113964Y660070D01*
X113474Y659979D01*
X112982Y659900D01*
X112487Y659833D01*
X111992Y659778D01*
X111495Y659735D01*
X110997Y659704D01*
X110499Y659686D01*
X110000Y659680D01*
X109501Y659686D01*
X109003Y659704D01*
X108505Y659735D01*
X108008Y659778D01*
X107513Y659833D01*
X107018Y659900D01*
X106526Y659979D01*
X106036Y660070D01*
X105548Y660174D01*
X105063Y660289D01*
X104580Y660416D01*
X104101Y660555D01*
X103626Y660706D01*
X103154Y660868D01*
X102687Y661042D01*
X102224Y661227D01*
X101765Y661423D01*
X101312Y661631D01*
X100864Y661850D01*
X100421Y662079D01*
X99984Y662320D01*
X99553Y662571D01*
X99129Y662833D01*
X98711Y663105D01*
X98300Y663387D01*
X97895Y663679D01*
X97498Y663981D01*
X97109Y664292D01*
X96728Y664614D01*
X96354Y664944D01*
X95989Y665283D01*
X95632Y665632D01*
X95283Y665989D01*
X94944Y666354D01*
X94614Y666728D01*
X94292Y667109D01*
X93981Y667498D01*
X93679Y667895D01*
X93387Y668300D01*
X93105Y668711D01*
X92833Y669129D01*
X92571Y669553D01*
X92320Y669984D01*
X92079Y670421D01*
X91850Y670864D01*
X91631Y671312D01*
X91423Y671765D01*
X91227Y672224D01*
X91042Y672687D01*
X90868Y673154D01*
X90706Y673626D01*
X90555Y674101D01*
X90416Y674580D01*
X90289Y675063D01*
X90174Y675548D01*
X90070Y676036D01*
X89979Y676526D01*
X89900Y677018D01*
X89833Y677513D01*
X89778Y678008D01*
X89735Y678505D01*
X89704Y679003D01*
X89686Y679501D01*
X89680Y680000D01*
D13*
X161601Y760120D02*
X161601Y770280D01*
X167246Y770280D02*
X161601Y764071D01*
X163859Y766329D02*
X167246Y760120D01*
X172354Y768022D02*
X175176Y770280D01*
X175176Y760120D01*
X172354Y760120D02*
X177999Y760120D01*
D12*
X223800Y756200D02*
X376200Y756200D01*
X376200Y603800D01*
X223800Y603800D01*
X223800Y756200D01*
D10*
X279680Y680000D02*
X279686Y680499D01*
X279704Y680997D01*
X279735Y681495D01*
X279778Y681992D01*
X279833Y682487D01*
X279900Y682982D01*
X279979Y683474D01*
X280070Y683964D01*
X280174Y684452D01*
X280289Y684937D01*
X280416Y685420D01*
X280555Y685899D01*
X280706Y686374D01*
X280868Y686846D01*
X281042Y687313D01*
X281227Y687776D01*
X281423Y688235D01*
X281631Y688688D01*
X281850Y689136D01*
X282079Y689579D01*
X282320Y690016D01*
X282571Y690447D01*
X282833Y690871D01*
X283105Y691289D01*
X283387Y691700D01*
X283679Y692105D01*
X283981Y692502D01*
X284292Y692891D01*
X284614Y693272D01*
X284944Y693646D01*
X285283Y694011D01*
X285632Y694368D01*
X285989Y694717D01*
X286354Y695056D01*
X286728Y695386D01*
X287109Y695708D01*
X287498Y696019D01*
X287895Y696321D01*
X288300Y696613D01*
X288711Y696895D01*
X289129Y697167D01*
X289553Y697429D01*
X289984Y697680D01*
X290421Y697921D01*
X290864Y698150D01*
X291312Y698369D01*
X291765Y698577D01*
X292224Y698773D01*
X292687Y698958D01*
X293154Y699132D01*
X293626Y699294D01*
X294101Y699445D01*
X294580Y699584D01*
X295063Y699711D01*
X295548Y699826D01*
X296036Y699930D01*
X296526Y700021D01*
X297018Y700100D01*
X297513Y700167D01*
X298008Y700222D01*
X298505Y700265D01*
X299003Y700296D01*
X299501Y700314D01*
X300000Y700320D01*
X300499Y700314D01*
X300997Y700296D01*
X301495Y700265D01*
X301992Y700222D01*
X302487Y700167D01*
X302982Y700100D01*
X303474Y700021D01*
X303964Y699930D01*
X304452Y699826D01*
X304937Y699711D01*
X305420Y699584D01*
X305899Y699445D01*
X306374Y699294D01*
X306846Y699132D01*
X307313Y698958D01*
X307776Y698773D01*
X308235Y698577D01*
X308688Y698369D01*
X309136Y698150D01*
X309579Y697921D01*
X310016Y697680D01*
X310447Y697429D01*
X310871Y697167D01*
X311289Y696895D01*
X311700Y696613D01*
X312105Y696321D01*
X312502Y696019D01*
X312891Y695708D01*
X313272Y695386D01*
X313646Y695056D01*
X314011Y694717D01*
X314368Y694368D01*
X314717Y694011D01*
X315056Y693646D01*
X315386Y693272D01*
X315708Y692891D01*
X316019Y692502D01*
X316321Y692105D01*
X316613Y691700D01*
X316895Y691289D01*
X317167Y690871D01*
X317429Y690447D01*
X317680Y690016D01*
X317921Y689579D01*
X318150Y689136D01*
X318369Y688688D01*
X318577Y688235D01*
X318773Y687776D01*
X318958Y687313D01*
X319132Y686846D01*
X319294Y686374D01*
X319445Y685899D01*
X319584Y685420D01*
X319711Y684937D01*
X319826Y684452D01*
X319930Y683964D01*
X320021Y683474D01*
X320100Y682982D01*
X320167Y682487D01*
X320222Y681992D01*
X320265Y681495D01*
X320296Y680997D01*
X320314Y680499D01*
X320320Y680000D01*
X320314Y679501D01*
X320296Y679003D01*
X320265Y678505D01*
X320222Y678008D01*
X320167Y677513D01*
X320100Y677018D01*
X320021Y676526D01*
X319930Y676036D01*
X319826Y675548D01*
X319711Y675063D01*
X319584Y674580D01*
X319445Y674101D01*
X319294Y673626D01*
X319132Y673154D01*
X318958Y672687D01*
X318773Y672224D01*
X318577Y671765D01*
X318369Y671312D01*
X318150Y670864D01*
X317921Y670421D01*
X317680Y669984D01*
X317429Y669553D01*
X317167Y669129D01*
X316895Y668711D01*
X316613Y668300D01*
X316321Y667895D01*
X316019Y667498D01*
X315708Y667109D01*
X315386Y666728D01*
X315056Y666354D01*
X314717Y665989D01*
X314368Y665632D01*
X314011Y665283D01*
X313646Y664944D01*
X313272Y664614D01*
X312891Y664292D01*
X312502Y663981D01*
X312105Y663679D01*
X311700Y663387D01*
X311289Y663105D01*
X310871Y662833D01*
X310447Y662571D01*
X310016Y662320D01*
X309579Y662079D01*
X309136Y661850D01*
X308688Y661631D01*
X308235Y661423D01*
X307776Y661227D01*
X307313Y661042D01*
X306846Y660868D01*
X306374Y660706D01*
X305899Y660555D01*
X305420Y660416D01*
X304937Y660289D01*
X304452Y660174D01*
X303964Y660070D01*
X303474Y659979D01*
X302982Y659900D01*
X302487Y659833D01*
X301992Y659778D01*
X301495Y659735D01*
X300997Y659704D01*
X300499Y659686D01*
X300000Y659680D01*
X299501Y659686D01*
X299003Y659704D01*
X298505Y659735D01*
X298008Y659778D01*
X297513Y659833D01*
X297018Y659900D01*
X296526Y659979D01*
X296036Y660070D01*
X295548Y660174D01*
X295063Y660289D01*
X294580Y660416D01*
X294101Y660555D01*
X293626Y660706D01*
X293154Y660868D01*
X292687Y661042D01*
X292224Y661227D01*
X291765Y661423D01*
X291312Y661631D01*
X290864Y661850D01*
X290421Y662079D01*
X289984Y662320D01*
X289553Y662571D01*
X289129Y662833D01*
X288711Y663105D01*
X288300Y663387D01*
X287895Y663679D01*
X287498Y663981D01*
X287109Y664292D01*
X286728Y664614D01*
X286354Y664944D01*
X285989Y665283D01*
X285632Y665632D01*
X285283Y665989D01*
X284944Y666354D01*
X284614Y666728D01*
X284292Y667109D01*
X283981Y667498D01*
X283679Y667895D01*
X283387Y668300D01*
X283105Y668711D01*
X282833Y669129D01*
X282571Y669553D01*
X282320Y669984D01*
X282079Y670421D01*
X281850Y670864D01*
X281631Y671312D01*
X281423Y671765D01*
X281227Y672224D01*
X281042Y672687D01*
X280868Y673154D01*
X280706Y673626D01*
X280555Y674101D01*
X280416Y674580D01*
X280289Y675063D01*
X280174Y675548D01*
X280070Y676036D01*
X279979Y676526D01*
X279900Y677018D01*
X279833Y677513D01*
X279778Y678008D01*
X279735Y678505D01*
X279704Y679003D01*
X279686Y679501D01*
X279680Y680000D01*
D13*
X351601Y760120D02*
X351601Y770280D01*
X357246Y770280D02*
X351601Y764071D01*
X353859Y766329D02*
X357246Y760120D01*
X365459Y770280D02*
X365559Y770278D01*
X365658Y770272D01*
X365758Y770262D01*
X365856Y770249D01*
X365955Y770231D01*
X366052Y770210D01*
X366148Y770185D01*
X366244Y770156D01*
X366338Y770123D01*
X366431Y770087D01*
X366522Y770047D01*
X366612Y770003D01*
X366700Y769956D01*
X366786Y769906D01*
X366870Y769852D01*
X366952Y769795D01*
X367031Y769735D01*
X367109Y769671D01*
X367183Y769605D01*
X367255Y769536D01*
X367324Y769464D01*
X367390Y769390D01*
X367454Y769312D01*
X367514Y769233D01*
X367571Y769151D01*
X367625Y769067D01*
X367675Y768981D01*
X367722Y768893D01*
X367766Y768803D01*
X367806Y768712D01*
X367842Y768619D01*
X367875Y768525D01*
X367904Y768429D01*
X367929Y768333D01*
X367950Y768236D01*
X367968Y768137D01*
X367981Y768039D01*
X367991Y767939D01*
X367997Y767840D01*
X367999Y767740D01*
X365459Y770280D02*
X365348Y770278D01*
X365237Y770272D01*
X365127Y770263D01*
X365017Y770250D01*
X364907Y770233D01*
X364798Y770212D01*
X364690Y770188D01*
X364583Y770160D01*
X364476Y770129D01*
X364371Y770093D01*
X364267Y770055D01*
X364165Y770012D01*
X364064Y769967D01*
X363964Y769917D01*
X363867Y769865D01*
X363771Y769809D01*
X363677Y769750D01*
X363585Y769688D01*
X363495Y769623D01*
X363408Y769555D01*
X363323Y769483D01*
X363240Y769409D01*
X363160Y769333D01*
X363083Y769253D01*
X363008Y769171D01*
X362936Y769087D01*
X362867Y769000D01*
X362802Y768911D01*
X362739Y768819D01*
X362679Y768726D01*
X362623Y768630D01*
X362569Y768533D01*
X362520Y768434D01*
X362473Y768333D01*
X362430Y768231D01*
X362391Y768127D01*
X362355Y768022D01*
X367151Y765765D02*
X367223Y765835D01*
X367292Y765908D01*
X367358Y765984D01*
X367421Y766062D01*
X367481Y766142D01*
X367538Y766225D01*
X367593Y766309D01*
X367644Y766396D01*
X367692Y766484D01*
X367736Y766574D01*
X367777Y766665D01*
X367815Y766758D01*
X367850Y766853D01*
X367881Y766948D01*
X367908Y767045D01*
X367932Y767142D01*
X367952Y767241D01*
X367968Y767340D01*
X367981Y767439D01*
X367991Y767539D01*
X367996Y767640D01*
X367998Y767740D01*
X367152Y765764D02*
X362354Y760120D01*
X367999Y760120D01*
D12*
X413800Y756200D02*
X566200Y756200D01*
X566200Y603800D01*
X413800Y603800D01*
X413800Y756200D01*
D10*
X469680Y680000D02*
X469686Y680499D01*
X469704Y680997D01*
X469735Y681495D01*
X469778Y681992D01*
X469833Y682487D01*
X469900Y682982D01*
X469979Y683474D01*
X470070Y683964D01*
X470174Y684452D01*
X470289Y684937D01*
X470416Y685420D01*
X470555Y685899D01*
X470706Y686374D01*
X470868Y686846D01*
X471042Y687313D01*
X471227Y687776D01*
X471423Y688235D01*
X471631Y688688D01*
X471850Y689136D01*
X472079Y689579D01*
X472320Y690016D01*
X472571Y690447D01*
X472833Y690871D01*
X473105Y691289D01*
X473387Y691700D01*
X473679Y692105D01*
X473981Y692502D01*
X474292Y692891D01*
X474614Y693272D01*
X474944Y693646D01*
X475283Y694011D01*
X475632Y694368D01*
X475989Y694717D01*
X476354Y695056D01*
X476728Y695386D01*
X477109Y695708D01*
X477498Y696019D01*
X477895Y696321D01*
X478300Y696613D01*
X478711Y696895D01*
X479129Y697167D01*
X479553Y697429D01*
X479984Y697680D01*
X480421Y697921D01*
X480864Y698150D01*
X481312Y698369D01*
X481765Y698577D01*
X482224Y698773D01*
X482687Y698958D01*
X483154Y699132D01*
X483626Y699294D01*
X484101Y699445D01*
X484580Y699584D01*
X485063Y699711D01*
X485548Y699826D01*
X486036Y699930D01*
X486526Y700021D01*
X487018Y700100D01*
X487513Y700167D01*
X488008Y700222D01*
X488505Y700265D01*
X489003Y700296D01*
X489501Y700314D01*
X490000Y700320D01*
X490499Y700314D01*
X490997Y700296D01*
X491495Y700265D01*
X491992Y700222D01*
X492487Y700167D01*
X492982Y700100D01*
X493474Y700021D01*
X493964Y699930D01*
X494452Y699826D01*
X494937Y699711D01*
X495420Y699584D01*
X495899Y699445D01*
X496374Y699294D01*
X496846Y699132D01*
X497313Y698958D01*
X497776Y698773D01*
X498235Y698577D01*
X498688Y698369D01*
X499136Y698150D01*
X499579Y697921D01*
X500016Y697680D01*
X500447Y697429D01*
X500871Y697167D01*
X501289Y696895D01*
X501700Y696613D01*
X502105Y696321D01*
X502502Y696019D01*
X502891Y695708D01*
X503272Y695386D01*
X503646Y695056D01*
X504011Y694717D01*
X504368Y694368D01*
X504717Y694011D01*
X505056Y693646D01*
X505386Y693272D01*
X505708Y692891D01*
X506019Y692502D01*
X506321Y692105D01*
X506613Y691700D01*
X506895Y691289D01*
X507167Y690871D01*
X507429Y690447D01*
X507680Y690016D01*
X507921Y689579D01*
X508150Y689136D01*
X508369Y688688D01*
X508577Y688235D01*
X508773Y687776D01*
X508958Y687313D01*
X509132Y686846D01*
X509294Y686374D01*
X509445Y685899D01*
X509584Y685420D01*
X509711Y684937D01*
X509826Y684452D01*
X509930Y683964D01*
X510021Y683474D01*
X510100Y682982D01*
X510167Y682487D01*
X510222Y681992D01*
X510265Y681495D01*
X510296Y680997D01*
X510314Y680499D01*
X510320Y680000D01*
X510314Y679501D01*
X510296Y679003D01*
X510265Y678505D01*
X510222Y678008D01*
X510167Y677513D01*
X510100Y677018D01*
X510021Y676526D01*
X509930Y676036D01*
X509826Y675548D01*
X509711Y675063D01*
X509584Y674580D01*
X509445Y674101D01*
X509294Y673626D01*
X509132Y673154D01*
X508958Y672687D01*
X508773Y672224D01*
X508577Y671765D01*
X508369Y671312D01*
X508150Y670864D01*
X507921Y670421D01*
X507680Y669984D01*
X507429Y669553D01*
X507167Y669129D01*
X506895Y668711D01*
X506613Y668300D01*
X506321Y667895D01*
X506019Y667498D01*
X505708Y667109D01*
X505386Y666728D01*
X505056Y666354D01*
X504717Y665989D01*
X504368Y665632D01*
X504011Y665283D01*
X503646Y664944D01*
X503272Y664614D01*
X502891Y664292D01*
X502502Y663981D01*
X502105Y663679D01*
X501700Y663387D01*
X501289Y663105D01*
X500871Y662833D01*
X500447Y662571D01*
X500016Y662320D01*
X499579Y662079D01*
X499136Y661850D01*
X498688Y661631D01*
X498235Y661423D01*
X497776Y661227D01*
X497313Y661042D01*
X496846Y660868D01*
X496374Y660706D01*
X495899Y660555D01*
X495420Y660416D01*
X494937Y660289D01*
X494452Y660174D01*
X493964Y660070D01*
X493474Y659979D01*
X492982Y659900D01*
X492487Y659833D01*
X491992Y659778D01*
X491495Y659735D01*
X490997Y659704D01*
X490499Y659686D01*
X490000Y659680D01*
X489501Y659686D01*
X489003Y659704D01*
X488505Y659735D01*
X488008Y659778D01*
X487513Y659833D01*
X487018Y659900D01*
X486526Y659979D01*
X486036Y660070D01*
X485548Y660174D01*
X485063Y660289D01*
X484580Y660416D01*
X484101Y660555D01*
X483626Y660706D01*
X483154Y660868D01*
X482687Y661042D01*
X482224Y661227D01*
X481765Y661423D01*
X481312Y661631D01*
X480864Y661850D01*
X480421Y662079D01*
X479984Y662320D01*
X479553Y662571D01*
X479129Y662833D01*
X478711Y663105D01*
X478300Y663387D01*
X477895Y663679D01*
X477498Y663981D01*
X477109Y664292D01*
X476728Y664614D01*
X476354Y664944D01*
X475989Y665283D01*
X475632Y665632D01*
X475283Y665989D01*
X474944Y666354D01*
X474614Y666728D01*
X474292Y667109D01*
X473981Y667498D01*
X473679Y667895D01*
X473387Y668300D01*
X473105Y668711D01*
X472833Y669129D01*
X472571Y669553D01*
X472320Y669984D01*
X472079Y670421D01*
X471850Y670864D01*
X471631Y671312D01*
X471423Y671765D01*
X471227Y672224D01*
X471042Y672687D01*
X470868Y673154D01*
X470706Y673626D01*
X470555Y674101D01*
X470416Y674580D01*
X470289Y675063D01*
X470174Y675548D01*
X470070Y676036D01*
X469979Y676526D01*
X469900Y677018D01*
X469833Y677513D01*
X469778Y678008D01*
X469735Y678505D01*
X469704Y679003D01*
X469686Y679501D01*
X469680Y680000D01*
D13*
X541601Y760120D02*
X541601Y770280D01*
X547246Y770280D02*
X541601Y764071D01*
X543859Y766329D02*
X547246Y760120D01*
X552354Y760120D02*
X555176Y760120D01*
X555282Y760122D01*
X555387Y760128D01*
X555492Y760138D01*
X555597Y760152D01*
X555701Y760169D01*
X555804Y760191D01*
X555906Y760216D01*
X556008Y760245D01*
X556108Y760278D01*
X556207Y760315D01*
X556304Y760355D01*
X556400Y760399D01*
X556495Y760447D01*
X556587Y760498D01*
X556677Y760553D01*
X556766Y760610D01*
X556852Y760671D01*
X556935Y760736D01*
X557017Y760803D01*
X557095Y760873D01*
X557171Y760947D01*
X557245Y761023D01*
X557315Y761101D01*
X557382Y761183D01*
X557447Y761266D01*
X557508Y761352D01*
X557565Y761441D01*
X557620Y761531D01*
X557671Y761623D01*
X557719Y761718D01*
X557763Y761814D01*
X557803Y761911D01*
X557840Y762010D01*
X557873Y762110D01*
X557902Y762212D01*
X557927Y762314D01*
X557949Y762417D01*
X557966Y762521D01*
X557980Y762626D01*
X557990Y762731D01*
X557996Y762836D01*
X557998Y762942D01*
X557996Y763048D01*
X557990Y763153D01*
X557980Y763258D01*
X557966Y763363D01*
X557949Y763467D01*
X557927Y763570D01*
X557902Y763672D01*
X557873Y763774D01*
X557840Y763874D01*
X557803Y763973D01*
X557763Y764070D01*
X557719Y764166D01*
X557671Y764261D01*
X557620Y764353D01*
X557565Y764443D01*
X557508Y764532D01*
X557447Y764618D01*
X557382Y764701D01*
X557315Y764783D01*
X557245Y764861D01*
X557171Y764937D01*
X557095Y765011D01*
X557017Y765081D01*
X556935Y765148D01*
X556852Y765213D01*
X556766Y765274D01*
X556677Y765331D01*
X556587Y765386D01*
X556495Y765437D01*
X556400Y765485D01*
X556304Y765529D01*
X556207Y765569D01*
X556108Y765606D01*
X556008Y765639D01*
X555906Y765668D01*
X555804Y765693D01*
X555701Y765715D01*
X555597Y765732D01*
X555492Y765746D01*
X555387Y765756D01*
X555282Y765762D01*
X555176Y765764D01*
X555741Y770280D02*
X552354Y770280D01*
X555741Y770280D02*
X555834Y770278D01*
X555927Y770272D01*
X556020Y770263D01*
X556113Y770249D01*
X556204Y770232D01*
X556295Y770211D01*
X556385Y770186D01*
X556474Y770158D01*
X556562Y770126D01*
X556648Y770090D01*
X556733Y770051D01*
X556816Y770008D01*
X556897Y769962D01*
X556976Y769912D01*
X557053Y769860D01*
X557128Y769804D01*
X557200Y769745D01*
X557270Y769683D01*
X557338Y769619D01*
X557402Y769551D01*
X557464Y769481D01*
X557523Y769409D01*
X557579Y769334D01*
X557631Y769257D01*
X557681Y769178D01*
X557727Y769097D01*
X557770Y769014D01*
X557809Y768929D01*
X557845Y768843D01*
X557877Y768755D01*
X557905Y768666D01*
X557930Y768576D01*
X557951Y768485D01*
X557968Y768394D01*
X557982Y768301D01*
X557991Y768208D01*
X557997Y768115D01*
X557999Y768022D01*
X557997Y767929D01*
X557991Y767836D01*
X557982Y767743D01*
X557968Y767650D01*
X557951Y767559D01*
X557930Y767468D01*
X557905Y767378D01*
X557877Y767289D01*
X557845Y767201D01*
X557809Y767115D01*
X557770Y767030D01*
X557727Y766947D01*
X557681Y766866D01*
X557631Y766787D01*
X557579Y766710D01*
X557523Y766635D01*
X557464Y766563D01*
X557402Y766493D01*
X557338Y766425D01*
X557270Y766361D01*
X557200Y766299D01*
X557128Y766240D01*
X557053Y766184D01*
X556976Y766132D01*
X556897Y766082D01*
X556816Y766036D01*
X556733Y765993D01*
X556648Y765954D01*
X556562Y765918D01*
X556474Y765886D01*
X556385Y765858D01*
X556295Y765833D01*
X556204Y765812D01*
X556113Y765795D01*
X556020Y765781D01*
X555927Y765772D01*
X555834Y765766D01*
X555741Y765764D01*
X553483Y765764D01*
D12*
X186200Y566200D02*
X33800Y566200D01*
X186200Y566200D02*
X186200Y413800D01*
X33800Y413800D01*
X33800Y566200D01*
D10*
X89680Y490000D02*
X89686Y490499D01*
X89704Y490997D01*
X89735Y491495D01*
X89778Y491992D01*
X89833Y492487D01*
X89900Y492982D01*
X89979Y493474D01*
X90070Y493964D01*
X90174Y494452D01*
X90289Y494937D01*
X90416Y495420D01*
X90555Y495899D01*
X90706Y496374D01*
X90868Y496846D01*
X91042Y497313D01*
X91227Y497776D01*
X91423Y498235D01*
X91631Y498688D01*
X91850Y499136D01*
X92079Y499579D01*
X92320Y500016D01*
X92571Y500447D01*
X92833Y500871D01*
X93105Y501289D01*
X93387Y501700D01*
X93679Y502105D01*
X93981Y502502D01*
X94292Y502891D01*
X94614Y503272D01*
X94944Y503646D01*
X95283Y504011D01*
X95632Y504368D01*
X95989Y504717D01*
X96354Y505056D01*
X96728Y505386D01*
X97109Y505708D01*
X97498Y506019D01*
X97895Y506321D01*
X98300Y506613D01*
X98711Y506895D01*
X99129Y507167D01*
X99553Y507429D01*
X99984Y507680D01*
X100421Y507921D01*
X100864Y508150D01*
X101312Y508369D01*
X101765Y508577D01*
X102224Y508773D01*
X102687Y508958D01*
X103154Y509132D01*
X103626Y509294D01*
X104101Y509445D01*
X104580Y509584D01*
X105063Y509711D01*
X105548Y509826D01*
X106036Y509930D01*
X106526Y510021D01*
X107018Y510100D01*
X107513Y510167D01*
X108008Y510222D01*
X108505Y510265D01*
X109003Y510296D01*
X109501Y510314D01*
X110000Y510320D01*
X110499Y510314D01*
X110997Y510296D01*
X111495Y510265D01*
X111992Y510222D01*
X112487Y510167D01*
X112982Y510100D01*
X113474Y510021D01*
X113964Y509930D01*
X114452Y509826D01*
X114937Y509711D01*
X115420Y509584D01*
X115899Y509445D01*
X116374Y509294D01*
X116846Y509132D01*
X117313Y508958D01*
X117776Y508773D01*
X118235Y508577D01*
X118688Y508369D01*
X119136Y508150D01*
X119579Y507921D01*
X120016Y507680D01*
X120447Y507429D01*
X120871Y507167D01*
X121289Y506895D01*
X121700Y506613D01*
X122105Y506321D01*
X122502Y506019D01*
X122891Y505708D01*
X123272Y505386D01*
X123646Y505056D01*
X124011Y504717D01*
X124368Y504368D01*
X124717Y504011D01*
X125056Y503646D01*
X125386Y503272D01*
X125708Y502891D01*
X126019Y502502D01*
X126321Y502105D01*
X126613Y501700D01*
X126895Y501289D01*
X127167Y500871D01*
X127429Y500447D01*
X127680Y500016D01*
X127921Y499579D01*
X128150Y499136D01*
X128369Y498688D01*
X128577Y498235D01*
X128773Y497776D01*
X128958Y497313D01*
X129132Y496846D01*
X129294Y496374D01*
X129445Y495899D01*
X129584Y495420D01*
X129711Y494937D01*
X129826Y494452D01*
X129930Y493964D01*
X130021Y493474D01*
X130100Y492982D01*
X130167Y492487D01*
X130222Y491992D01*
X130265Y491495D01*
X130296Y490997D01*
X130314Y490499D01*
X130320Y490000D01*
X130314Y489501D01*
X130296Y489003D01*
X130265Y488505D01*
X130222Y488008D01*
X130167Y487513D01*
X130100Y487018D01*
X130021Y486526D01*
X129930Y486036D01*
X129826Y485548D01*
X129711Y485063D01*
X129584Y484580D01*
X129445Y484101D01*
X129294Y483626D01*
X129132Y483154D01*
X128958Y482687D01*
X128773Y482224D01*
X128577Y481765D01*
X128369Y481312D01*
X128150Y480864D01*
X127921Y480421D01*
X127680Y479984D01*
X127429Y479553D01*
X127167Y479129D01*
X126895Y478711D01*
X126613Y478300D01*
X126321Y477895D01*
X126019Y477498D01*
X125708Y477109D01*
X125386Y476728D01*
X125056Y476354D01*
X124717Y475989D01*
X124368Y475632D01*
X124011Y475283D01*
X123646Y474944D01*
X123272Y474614D01*
X122891Y474292D01*
X122502Y473981D01*
X122105Y473679D01*
X121700Y473387D01*
X121289Y473105D01*
X120871Y472833D01*
X120447Y472571D01*
X120016Y472320D01*
X119579Y472079D01*
X119136Y471850D01*
X118688Y471631D01*
X118235Y471423D01*
X117776Y471227D01*
X117313Y471042D01*
X116846Y470868D01*
X116374Y470706D01*
X115899Y470555D01*
X115420Y470416D01*
X114937Y470289D01*
X114452Y470174D01*
X113964Y470070D01*
X113474Y469979D01*
X112982Y469900D01*
X112487Y469833D01*
X111992Y469778D01*
X111495Y469735D01*
X110997Y469704D01*
X110499Y469686D01*
X110000Y469680D01*
X109501Y469686D01*
X109003Y469704D01*
X108505Y469735D01*
X108008Y469778D01*
X107513Y469833D01*
X107018Y469900D01*
X106526Y469979D01*
X106036Y470070D01*
X105548Y470174D01*
X105063Y470289D01*
X104580Y470416D01*
X104101Y470555D01*
X103626Y470706D01*
X103154Y470868D01*
X102687Y471042D01*
X102224Y471227D01*
X101765Y471423D01*
X101312Y471631D01*
X100864Y471850D01*
X100421Y472079D01*
X99984Y472320D01*
X99553Y472571D01*
X99129Y472833D01*
X98711Y473105D01*
X98300Y473387D01*
X97895Y473679D01*
X97498Y473981D01*
X97109Y474292D01*
X96728Y474614D01*
X96354Y474944D01*
X95989Y475283D01*
X95632Y475632D01*
X95283Y475989D01*
X94944Y476354D01*
X94614Y476728D01*
X94292Y477109D01*
X93981Y477498D01*
X93679Y477895D01*
X93387Y478300D01*
X93105Y478711D01*
X92833Y479129D01*
X92571Y479553D01*
X92320Y479984D01*
X92079Y480421D01*
X91850Y480864D01*
X91631Y481312D01*
X91423Y481765D01*
X91227Y482224D01*
X91042Y482687D01*
X90868Y483154D01*
X90706Y483626D01*
X90555Y484101D01*
X90416Y484580D01*
X90289Y485063D01*
X90174Y485548D01*
X90070Y486036D01*
X89979Y486526D01*
X89900Y487018D01*
X89833Y487513D01*
X89778Y488008D01*
X89735Y488505D01*
X89704Y489003D01*
X89686Y489501D01*
X89680Y490000D01*
D13*
X161601Y570120D02*
X161601Y580280D01*
X167246Y580280D02*
X161601Y574071D01*
X163859Y576329D02*
X167246Y570120D01*
X172354Y572378D02*
X174612Y580280D01*
X172354Y572378D02*
X177999Y572378D01*
X176305Y574636D02*
X176305Y570120D01*
D12*
X223800Y566200D02*
X376200Y566200D01*
X376200Y413800D01*
X223800Y413800D01*
X223800Y566200D01*
D10*
X279680Y490000D02*
X279686Y490499D01*
X279704Y490997D01*
X279735Y491495D01*
X279778Y491992D01*
X279833Y492487D01*
X279900Y492982D01*
X279979Y493474D01*
X280070Y493964D01*
X280174Y494452D01*
X280289Y494937D01*
X280416Y495420D01*
X280555Y495899D01*
X280706Y496374D01*
X280868Y496846D01*
X281042Y497313D01*
X281227Y497776D01*
X281423Y498235D01*
X281631Y498688D01*
X281850Y499136D01*
X282079Y499579D01*
X282320Y500016D01*
X282571Y500447D01*
X282833Y500871D01*
X283105Y501289D01*
X283387Y501700D01*
X283679Y502105D01*
X283981Y502502D01*
X284292Y502891D01*
X284614Y503272D01*
X284944Y503646D01*
X285283Y504011D01*
X285632Y504368D01*
X285989Y504717D01*
X286354Y505056D01*
X286728Y505386D01*
X287109Y505708D01*
X287498Y506019D01*
X287895Y506321D01*
X288300Y506613D01*
X288711Y506895D01*
X289129Y507167D01*
X289553Y507429D01*
X289984Y507680D01*
X290421Y507921D01*
X290864Y508150D01*
X291312Y508369D01*
X291765Y508577D01*
X292224Y508773D01*
X292687Y508958D01*
X293154Y509132D01*
X293626Y509294D01*
X294101Y509445D01*
X294580Y509584D01*
X295063Y509711D01*
X295548Y509826D01*
X296036Y509930D01*
X296526Y510021D01*
X297018Y510100D01*
X297513Y510167D01*
X298008Y510222D01*
X298505Y510265D01*
X299003Y510296D01*
X299501Y510314D01*
X300000Y510320D01*
X300499Y510314D01*
X300997Y510296D01*
X301495Y510265D01*
X301992Y510222D01*
X302487Y510167D01*
X302982Y510100D01*
X303474Y510021D01*
X303964Y509930D01*
X304452Y509826D01*
X304937Y509711D01*
X305420Y509584D01*
X305899Y509445D01*
X306374Y509294D01*
X306846Y509132D01*
X307313Y508958D01*
X307776Y508773D01*
X308235Y508577D01*
X308688Y508369D01*
X309136Y508150D01*
X309579Y507921D01*
X310016Y507680D01*
X310447Y507429D01*
X310871Y507167D01*
X311289Y506895D01*
X311700Y506613D01*
X312105Y506321D01*
X312502Y506019D01*
X312891Y505708D01*
X313272Y505386D01*
X313646Y505056D01*
X314011Y504717D01*
X314368Y504368D01*
X314717Y504011D01*
X315056Y503646D01*
X315386Y503272D01*
X315708Y502891D01*
X316019Y502502D01*
X316321Y502105D01*
X316613Y501700D01*
X316895Y501289D01*
X317167Y500871D01*
X317429Y500447D01*
X317680Y500016D01*
X317921Y499579D01*
X318150Y499136D01*
X318369Y498688D01*
X318577Y498235D01*
X318773Y497776D01*
X318958Y497313D01*
X319132Y496846D01*
X319294Y496374D01*
X319445Y495899D01*
X319584Y495420D01*
X319711Y494937D01*
X319826Y494452D01*
X319930Y493964D01*
X320021Y493474D01*
X320100Y492982D01*
X320167Y492487D01*
X320222Y491992D01*
X320265Y491495D01*
X320296Y490997D01*
X320314Y490499D01*
X320320Y490000D01*
X320314Y489501D01*
X320296Y489003D01*
X320265Y488505D01*
X320222Y488008D01*
X320167Y487513D01*
X320100Y487018D01*
X320021Y486526D01*
X319930Y486036D01*
X319826Y485548D01*
X319711Y485063D01*
X319584Y484580D01*
X319445Y484101D01*
X319294Y483626D01*
X319132Y483154D01*
X318958Y482687D01*
X318773Y482224D01*
X318577Y481765D01*
X318369Y481312D01*
X318150Y480864D01*
X317921Y480421D01*
X317680Y479984D01*
X317429Y479553D01*
X317167Y479129D01*
X316895Y478711D01*
X316613Y478300D01*
X316321Y477895D01*
X316019Y477498D01*
X315708Y477109D01*
X315386Y476728D01*
X315056Y476354D01*
X314717Y475989D01*
X314368Y475632D01*
X314011Y475283D01*
X313646Y474944D01*
X313272Y474614D01*
X312891Y474292D01*
X312502Y473981D01*
X312105Y473679D01*
X311700Y473387D01*
X311289Y473105D01*
X310871Y472833D01*
X310447Y472571D01*
X310016Y472320D01*
X309579Y472079D01*
X309136Y471850D01*
X308688Y471631D01*
X308235Y471423D01*
X307776Y471227D01*
X307313Y471042D01*
X306846Y470868D01*
X306374Y470706D01*
X305899Y470555D01*
X305420Y470416D01*
X304937Y470289D01*
X304452Y470174D01*
X303964Y470070D01*
X303474Y469979D01*
X302982Y469900D01*
X302487Y469833D01*
X301992Y469778D01*
X301495Y469735D01*
X300997Y469704D01*
X300499Y469686D01*
X300000Y469680D01*
X299501Y469686D01*
X299003Y469704D01*
X298505Y469735D01*
X298008Y469778D01*
X297513Y469833D01*
X297018Y469900D01*
X296526Y469979D01*
X296036Y470070D01*
X295548Y470174D01*
X295063Y470289D01*
X294580Y470416D01*
X294101Y470555D01*
X293626Y470706D01*
X293154Y470868D01*
X292687Y471042D01*
X292224Y471227D01*
X291765Y471423D01*
X291312Y471631D01*
X290864Y471850D01*
X290421Y472079D01*
X289984Y472320D01*
X289553Y472571D01*
X289129Y472833D01*
X288711Y473105D01*
X288300Y473387D01*
X287895Y473679D01*
X287498Y473981D01*
X287109Y474292D01*
X286728Y474614D01*
X286354Y474944D01*
X285989Y475283D01*
X285632Y475632D01*
X285283Y475989D01*
X284944Y476354D01*
X284614Y476728D01*
X284292Y477109D01*
X283981Y477498D01*
X283679Y477895D01*
X283387Y478300D01*
X283105Y478711D01*
X282833Y479129D01*
X282571Y479553D01*
X282320Y479984D01*
X282079Y480421D01*
X281850Y480864D01*
X281631Y481312D01*
X281423Y481765D01*
X281227Y482224D01*
X281042Y482687D01*
X280868Y483154D01*
X280706Y483626D01*
X280555Y484101D01*
X280416Y484580D01*
X280289Y485063D01*
X280174Y485548D01*
X280070Y486036D01*
X279979Y486526D01*
X279900Y487018D01*
X279833Y487513D01*
X279778Y488008D01*
X279735Y488505D01*
X279704Y489003D01*
X279686Y489501D01*
X279680Y490000D01*
D13*
X352601Y570120D02*
X352601Y580280D01*
X358246Y580280D02*
X352601Y574071D01*
X354859Y576329D02*
X358246Y570120D01*
X363354Y570120D02*
X366741Y570120D01*
X366834Y570122D01*
X366927Y570128D01*
X367020Y570137D01*
X367113Y570151D01*
X367204Y570168D01*
X367295Y570189D01*
X367385Y570214D01*
X367474Y570242D01*
X367562Y570274D01*
X367648Y570310D01*
X367733Y570349D01*
X367816Y570392D01*
X367897Y570438D01*
X367976Y570488D01*
X368053Y570540D01*
X368128Y570596D01*
X368200Y570655D01*
X368270Y570717D01*
X368338Y570781D01*
X368402Y570849D01*
X368464Y570919D01*
X368523Y570991D01*
X368579Y571066D01*
X368631Y571143D01*
X368681Y571222D01*
X368727Y571303D01*
X368770Y571386D01*
X368809Y571471D01*
X368845Y571557D01*
X368877Y571645D01*
X368905Y571734D01*
X368930Y571824D01*
X368951Y571915D01*
X368968Y572006D01*
X368982Y572099D01*
X368991Y572192D01*
X368997Y572285D01*
X368999Y572378D01*
X368999Y573507D01*
X368997Y573600D01*
X368991Y573693D01*
X368982Y573786D01*
X368968Y573879D01*
X368951Y573970D01*
X368930Y574061D01*
X368905Y574151D01*
X368877Y574240D01*
X368845Y574328D01*
X368809Y574414D01*
X368770Y574499D01*
X368727Y574582D01*
X368681Y574663D01*
X368631Y574742D01*
X368579Y574819D01*
X368523Y574894D01*
X368464Y574966D01*
X368402Y575036D01*
X368338Y575104D01*
X368270Y575168D01*
X368200Y575230D01*
X368128Y575289D01*
X368053Y575345D01*
X367976Y575397D01*
X367897Y575447D01*
X367816Y575493D01*
X367733Y575536D01*
X367648Y575575D01*
X367562Y575611D01*
X367474Y575643D01*
X367385Y575671D01*
X367295Y575696D01*
X367204Y575717D01*
X367113Y575734D01*
X367020Y575748D01*
X366927Y575757D01*
X366834Y575763D01*
X366741Y575765D01*
X366741Y575764D02*
X363354Y575764D01*
X363354Y580280D01*
X368999Y580280D01*
D12*
X413800Y566200D02*
X566200Y566200D01*
X566200Y413800D01*
X413800Y413800D01*
X413800Y566200D01*
D10*
X469680Y490000D02*
X469686Y490499D01*
X469704Y490997D01*
X469735Y491495D01*
X469778Y491992D01*
X469833Y492487D01*
X469900Y492982D01*
X469979Y493474D01*
X470070Y493964D01*
X470174Y494452D01*
X470289Y494937D01*
X470416Y495420D01*
X470555Y495899D01*
X470706Y496374D01*
X470868Y496846D01*
X471042Y497313D01*
X471227Y497776D01*
X471423Y498235D01*
X471631Y498688D01*
X471850Y499136D01*
X472079Y499579D01*
X472320Y500016D01*
X472571Y500447D01*
X472833Y500871D01*
X473105Y501289D01*
X473387Y501700D01*
X473679Y502105D01*
X473981Y502502D01*
X474292Y502891D01*
X474614Y503272D01*
X474944Y503646D01*
X475283Y504011D01*
X475632Y504368D01*
X475989Y504717D01*
X476354Y505056D01*
X476728Y505386D01*
X477109Y505708D01*
X477498Y506019D01*
X477895Y506321D01*
X478300Y506613D01*
X478711Y506895D01*
X479129Y507167D01*
X479553Y507429D01*
X479984Y507680D01*
X480421Y507921D01*
X480864Y508150D01*
X481312Y508369D01*
X481765Y508577D01*
X482224Y508773D01*
X482687Y508958D01*
X483154Y509132D01*
X483626Y509294D01*
X484101Y509445D01*
X484580Y509584D01*
X485063Y509711D01*
X485548Y509826D01*
X486036Y509930D01*
X486526Y510021D01*
X487018Y510100D01*
X487513Y510167D01*
X488008Y510222D01*
X488505Y510265D01*
X489003Y510296D01*
X489501Y510314D01*
X490000Y510320D01*
X490499Y510314D01*
X490997Y510296D01*
X491495Y510265D01*
X491992Y510222D01*
X492487Y510167D01*
X492982Y510100D01*
X493474Y510021D01*
X493964Y509930D01*
X494452Y509826D01*
X494937Y509711D01*
X495420Y509584D01*
X495899Y509445D01*
X496374Y509294D01*
X496846Y509132D01*
X497313Y508958D01*
X497776Y508773D01*
X498235Y508577D01*
X498688Y508369D01*
X499136Y508150D01*
X499579Y507921D01*
X500016Y507680D01*
X500447Y507429D01*
X500871Y507167D01*
X501289Y506895D01*
X501700Y506613D01*
X502105Y506321D01*
X502502Y506019D01*
X502891Y505708D01*
X503272Y505386D01*
X503646Y505056D01*
X504011Y504717D01*
X504368Y504368D01*
X504717Y504011D01*
X505056Y503646D01*
X505386Y503272D01*
X505708Y502891D01*
X506019Y502502D01*
X506321Y502105D01*
X506613Y501700D01*
X506895Y501289D01*
X507167Y500871D01*
X507429Y500447D01*
X507680Y500016D01*
X507921Y499579D01*
X508150Y499136D01*
X508369Y498688D01*
X508577Y498235D01*
X508773Y497776D01*
X508958Y497313D01*
X509132Y496846D01*
X509294Y496374D01*
X509445Y495899D01*
X509584Y495420D01*
X509711Y494937D01*
X509826Y494452D01*
X509930Y493964D01*
X510021Y493474D01*
X510100Y492982D01*
X510167Y492487D01*
X510222Y491992D01*
X510265Y491495D01*
X510296Y490997D01*
X510314Y490499D01*
X510320Y490000D01*
X510314Y489501D01*
X510296Y489003D01*
X510265Y488505D01*
X510222Y488008D01*
X510167Y487513D01*
X510100Y487018D01*
X510021Y486526D01*
X509930Y486036D01*
X509826Y485548D01*
X509711Y485063D01*
X509584Y484580D01*
X509445Y484101D01*
X509294Y483626D01*
X509132Y483154D01*
X508958Y482687D01*
X508773Y482224D01*
X508577Y481765D01*
X508369Y481312D01*
X508150Y480864D01*
X507921Y480421D01*
X507680Y479984D01*
X507429Y479553D01*
X507167Y479129D01*
X506895Y478711D01*
X506613Y478300D01*
X506321Y477895D01*
X506019Y477498D01*
X505708Y477109D01*
X505386Y476728D01*
X505056Y476354D01*
X504717Y475989D01*
X504368Y475632D01*
X504011Y475283D01*
X503646Y474944D01*
X503272Y474614D01*
X502891Y474292D01*
X502502Y473981D01*
X502105Y473679D01*
X501700Y473387D01*
X501289Y473105D01*
X500871Y472833D01*
X500447Y472571D01*
X500016Y472320D01*
X499579Y472079D01*
X499136Y471850D01*
X498688Y471631D01*
X498235Y471423D01*
X497776Y471227D01*
X497313Y471042D01*
X496846Y470868D01*
X496374Y470706D01*
X495899Y470555D01*
X495420Y470416D01*
X494937Y470289D01*
X494452Y470174D01*
X493964Y470070D01*
X493474Y469979D01*
X492982Y469900D01*
X492487Y469833D01*
X491992Y469778D01*
X491495Y469735D01*
X490997Y469704D01*
X490499Y469686D01*
X490000Y469680D01*
X489501Y469686D01*
X489003Y469704D01*
X488505Y469735D01*
X488008Y469778D01*
X487513Y469833D01*
X487018Y469900D01*
X486526Y469979D01*
X486036Y470070D01*
X485548Y470174D01*
X485063Y470289D01*
X484580Y470416D01*
X484101Y470555D01*
X483626Y470706D01*
X483154Y470868D01*
X482687Y471042D01*
X482224Y471227D01*
X481765Y471423D01*
X481312Y471631D01*
X480864Y471850D01*
X480421Y472079D01*
X479984Y472320D01*
X479553Y472571D01*
X479129Y472833D01*
X478711Y473105D01*
X478300Y473387D01*
X477895Y473679D01*
X477498Y473981D01*
X477109Y474292D01*
X476728Y474614D01*
X476354Y474944D01*
X475989Y475283D01*
X475632Y475632D01*
X475283Y475989D01*
X474944Y476354D01*
X474614Y476728D01*
X474292Y477109D01*
X473981Y477498D01*
X473679Y477895D01*
X473387Y478300D01*
X473105Y478711D01*
X472833Y479129D01*
X472571Y479553D01*
X472320Y479984D01*
X472079Y480421D01*
X471850Y480864D01*
X471631Y481312D01*
X471423Y481765D01*
X471227Y482224D01*
X471042Y482687D01*
X470868Y483154D01*
X470706Y483626D01*
X470555Y484101D01*
X470416Y484580D01*
X470289Y485063D01*
X470174Y485548D01*
X470070Y486036D01*
X469979Y486526D01*
X469900Y487018D01*
X469833Y487513D01*
X469778Y488008D01*
X469735Y488505D01*
X469704Y489003D01*
X469686Y489501D01*
X469680Y490000D01*
D13*
X541601Y570120D02*
X541601Y580280D01*
X547246Y580280D02*
X541601Y574071D01*
X543859Y576329D02*
X547246Y570120D01*
X552354Y575764D02*
X555741Y575764D01*
X555741Y575765D02*
X555834Y575763D01*
X555927Y575757D01*
X556020Y575748D01*
X556113Y575734D01*
X556204Y575717D01*
X556295Y575696D01*
X556385Y575671D01*
X556474Y575643D01*
X556562Y575611D01*
X556648Y575575D01*
X556733Y575536D01*
X556816Y575493D01*
X556897Y575447D01*
X556976Y575397D01*
X557053Y575345D01*
X557128Y575289D01*
X557200Y575230D01*
X557270Y575168D01*
X557338Y575104D01*
X557402Y575036D01*
X557464Y574966D01*
X557523Y574894D01*
X557579Y574819D01*
X557631Y574742D01*
X557681Y574663D01*
X557727Y574582D01*
X557770Y574499D01*
X557809Y574414D01*
X557845Y574328D01*
X557877Y574240D01*
X557905Y574151D01*
X557930Y574061D01*
X557951Y573970D01*
X557968Y573879D01*
X557982Y573786D01*
X557991Y573693D01*
X557997Y573600D01*
X557999Y573507D01*
X557999Y572942D01*
X557998Y572942D02*
X557996Y572836D01*
X557990Y572731D01*
X557980Y572626D01*
X557966Y572521D01*
X557949Y572417D01*
X557927Y572314D01*
X557902Y572212D01*
X557873Y572110D01*
X557840Y572010D01*
X557803Y571911D01*
X557763Y571814D01*
X557719Y571718D01*
X557671Y571623D01*
X557620Y571531D01*
X557565Y571441D01*
X557508Y571352D01*
X557447Y571266D01*
X557382Y571183D01*
X557315Y571101D01*
X557245Y571023D01*
X557171Y570947D01*
X557095Y570873D01*
X557017Y570803D01*
X556935Y570736D01*
X556852Y570671D01*
X556766Y570610D01*
X556677Y570553D01*
X556587Y570498D01*
X556495Y570447D01*
X556400Y570399D01*
X556304Y570355D01*
X556207Y570315D01*
X556108Y570278D01*
X556008Y570245D01*
X555906Y570216D01*
X555804Y570191D01*
X555701Y570169D01*
X555597Y570152D01*
X555492Y570138D01*
X555387Y570128D01*
X555282Y570122D01*
X555176Y570120D01*
X555070Y570122D01*
X554965Y570128D01*
X554860Y570138D01*
X554755Y570152D01*
X554651Y570169D01*
X554548Y570191D01*
X554446Y570216D01*
X554344Y570245D01*
X554244Y570278D01*
X554145Y570315D01*
X554048Y570355D01*
X553952Y570399D01*
X553857Y570447D01*
X553765Y570498D01*
X553675Y570553D01*
X553586Y570610D01*
X553500Y570671D01*
X553417Y570736D01*
X553335Y570803D01*
X553257Y570873D01*
X553181Y570947D01*
X553107Y571023D01*
X553037Y571101D01*
X552970Y571183D01*
X552905Y571266D01*
X552844Y571352D01*
X552787Y571441D01*
X552732Y571531D01*
X552681Y571623D01*
X552633Y571718D01*
X552589Y571814D01*
X552549Y571911D01*
X552512Y572010D01*
X552479Y572110D01*
X552450Y572212D01*
X552425Y572314D01*
X552403Y572417D01*
X552386Y572521D01*
X552372Y572626D01*
X552362Y572731D01*
X552356Y572836D01*
X552354Y572942D01*
X552354Y575764D01*
X552356Y575898D01*
X552362Y576032D01*
X552372Y576165D01*
X552386Y576298D01*
X552403Y576431D01*
X552425Y576563D01*
X552451Y576694D01*
X552480Y576825D01*
X552514Y576954D01*
X552551Y577083D01*
X552592Y577210D01*
X552637Y577336D01*
X552685Y577461D01*
X552737Y577584D01*
X552793Y577706D01*
X552852Y577826D01*
X552915Y577944D01*
X552982Y578061D01*
X553051Y578175D01*
X553124Y578287D01*
X553201Y578397D01*
X553280Y578504D01*
X553363Y578609D01*
X553449Y578712D01*
X553538Y578812D01*
X553630Y578910D01*
X553724Y579004D01*
X553822Y579096D01*
X553922Y579185D01*
X554025Y579271D01*
X554130Y579354D01*
X554237Y579433D01*
X554347Y579510D01*
X554459Y579583D01*
X554573Y579652D01*
X554690Y579719D01*
X554808Y579782D01*
X554928Y579841D01*
X555049Y579897D01*
X555173Y579949D01*
X555297Y579997D01*
X555424Y580042D01*
X555551Y580083D01*
X555680Y580120D01*
X555809Y580154D01*
X555940Y580183D01*
X556071Y580209D01*
X556203Y580231D01*
X556336Y580248D01*
X556469Y580262D01*
X556602Y580272D01*
X556736Y580278D01*
X556870Y580280D01*
D12*
X186200Y376200D02*
X33800Y376200D01*
X186200Y376200D02*
X186200Y223800D01*
X33800Y223800D01*
X33800Y376200D01*
D10*
X89680Y300000D02*
X89686Y300499D01*
X89704Y300997D01*
X89735Y301495D01*
X89778Y301992D01*
X89833Y302487D01*
X89900Y302982D01*
X89979Y303474D01*
X90070Y303964D01*
X90174Y304452D01*
X90289Y304937D01*
X90416Y305420D01*
X90555Y305899D01*
X90706Y306374D01*
X90868Y306846D01*
X91042Y307313D01*
X91227Y307776D01*
X91423Y308235D01*
X91631Y308688D01*
X91850Y309136D01*
X92079Y309579D01*
X92320Y310016D01*
X92571Y310447D01*
X92833Y310871D01*
X93105Y311289D01*
X93387Y311700D01*
X93679Y312105D01*
X93981Y312502D01*
X94292Y312891D01*
X94614Y313272D01*
X94944Y313646D01*
X95283Y314011D01*
X95632Y314368D01*
X95989Y314717D01*
X96354Y315056D01*
X96728Y315386D01*
X97109Y315708D01*
X97498Y316019D01*
X97895Y316321D01*
X98300Y316613D01*
X98711Y316895D01*
X99129Y317167D01*
X99553Y317429D01*
X99984Y317680D01*
X100421Y317921D01*
X100864Y318150D01*
X101312Y318369D01*
X101765Y318577D01*
X102224Y318773D01*
X102687Y318958D01*
X103154Y319132D01*
X103626Y319294D01*
X104101Y319445D01*
X104580Y319584D01*
X105063Y319711D01*
X105548Y319826D01*
X106036Y319930D01*
X106526Y320021D01*
X107018Y320100D01*
X107513Y320167D01*
X108008Y320222D01*
X108505Y320265D01*
X109003Y320296D01*
X109501Y320314D01*
X110000Y320320D01*
X110499Y320314D01*
X110997Y320296D01*
X111495Y320265D01*
X111992Y320222D01*
X112487Y320167D01*
X112982Y320100D01*
X113474Y320021D01*
X113964Y319930D01*
X114452Y319826D01*
X114937Y319711D01*
X115420Y319584D01*
X115899Y319445D01*
X116374Y319294D01*
X116846Y319132D01*
X117313Y318958D01*
X117776Y318773D01*
X118235Y318577D01*
X118688Y318369D01*
X119136Y318150D01*
X119579Y317921D01*
X120016Y317680D01*
X120447Y317429D01*
X120871Y317167D01*
X121289Y316895D01*
X121700Y316613D01*
X122105Y316321D01*
X122502Y316019D01*
X122891Y315708D01*
X123272Y315386D01*
X123646Y315056D01*
X124011Y314717D01*
X124368Y314368D01*
X124717Y314011D01*
X125056Y313646D01*
X125386Y313272D01*
X125708Y312891D01*
X126019Y312502D01*
X126321Y312105D01*
X126613Y311700D01*
X126895Y311289D01*
X127167Y310871D01*
X127429Y310447D01*
X127680Y310016D01*
X127921Y309579D01*
X128150Y309136D01*
X128369Y308688D01*
X128577Y308235D01*
X128773Y307776D01*
X128958Y307313D01*
X129132Y306846D01*
X129294Y306374D01*
X129445Y305899D01*
X129584Y305420D01*
X129711Y304937D01*
X129826Y304452D01*
X129930Y303964D01*
X130021Y303474D01*
X130100Y302982D01*
X130167Y302487D01*
X130222Y301992D01*
X130265Y301495D01*
X130296Y300997D01*
X130314Y300499D01*
X130320Y300000D01*
X130314Y299501D01*
X130296Y299003D01*
X130265Y298505D01*
X130222Y298008D01*
X130167Y297513D01*
X130100Y297018D01*
X130021Y296526D01*
X129930Y296036D01*
X129826Y295548D01*
X129711Y295063D01*
X129584Y294580D01*
X129445Y294101D01*
X129294Y293626D01*
X129132Y293154D01*
X128958Y292687D01*
X128773Y292224D01*
X128577Y291765D01*
X128369Y291312D01*
X128150Y290864D01*
X127921Y290421D01*
X127680Y289984D01*
X127429Y289553D01*
X127167Y289129D01*
X126895Y288711D01*
X126613Y288300D01*
X126321Y287895D01*
X126019Y287498D01*
X125708Y287109D01*
X125386Y286728D01*
X125056Y286354D01*
X124717Y285989D01*
X124368Y285632D01*
X124011Y285283D01*
X123646Y284944D01*
X123272Y284614D01*
X122891Y284292D01*
X122502Y283981D01*
X122105Y283679D01*
X121700Y283387D01*
X121289Y283105D01*
X120871Y282833D01*
X120447Y282571D01*
X120016Y282320D01*
X119579Y282079D01*
X119136Y281850D01*
X118688Y281631D01*
X118235Y281423D01*
X117776Y281227D01*
X117313Y281042D01*
X116846Y280868D01*
X116374Y280706D01*
X115899Y280555D01*
X115420Y280416D01*
X114937Y280289D01*
X114452Y280174D01*
X113964Y280070D01*
X113474Y279979D01*
X112982Y279900D01*
X112487Y279833D01*
X111992Y279778D01*
X111495Y279735D01*
X110997Y279704D01*
X110499Y279686D01*
X110000Y279680D01*
X109501Y279686D01*
X109003Y279704D01*
X108505Y279735D01*
X108008Y279778D01*
X107513Y279833D01*
X107018Y279900D01*
X106526Y279979D01*
X106036Y280070D01*
X105548Y280174D01*
X105063Y280289D01*
X104580Y280416D01*
X104101Y280555D01*
X103626Y280706D01*
X103154Y280868D01*
X102687Y281042D01*
X102224Y281227D01*
X101765Y281423D01*
X101312Y281631D01*
X100864Y281850D01*
X100421Y282079D01*
X99984Y282320D01*
X99553Y282571D01*
X99129Y282833D01*
X98711Y283105D01*
X98300Y283387D01*
X97895Y283679D01*
X97498Y283981D01*
X97109Y284292D01*
X96728Y284614D01*
X96354Y284944D01*
X95989Y285283D01*
X95632Y285632D01*
X95283Y285989D01*
X94944Y286354D01*
X94614Y286728D01*
X94292Y287109D01*
X93981Y287498D01*
X93679Y287895D01*
X93387Y288300D01*
X93105Y288711D01*
X92833Y289129D01*
X92571Y289553D01*
X92320Y289984D01*
X92079Y290421D01*
X91850Y290864D01*
X91631Y291312D01*
X91423Y291765D01*
X91227Y292224D01*
X91042Y292687D01*
X90868Y293154D01*
X90706Y293626D01*
X90555Y294101D01*
X90416Y294580D01*
X90289Y295063D01*
X90174Y295548D01*
X90070Y296036D01*
X89979Y296526D01*
X89900Y297018D01*
X89833Y297513D01*
X89778Y298008D01*
X89735Y298505D01*
X89704Y299003D01*
X89686Y299501D01*
X89680Y300000D01*
D13*
X161601Y380120D02*
X161601Y390280D01*
X167246Y390280D02*
X161601Y384071D01*
X163859Y386329D02*
X167246Y380120D01*
X172354Y389151D02*
X172354Y390280D01*
X177999Y390280D01*
X175176Y380120D01*
D12*
X223800Y376200D02*
X376200Y376200D01*
X376200Y223800D01*
X223800Y223800D01*
X223800Y376200D01*
D10*
X279680Y300000D02*
X279686Y300499D01*
X279704Y300997D01*
X279735Y301495D01*
X279778Y301992D01*
X279833Y302487D01*
X279900Y302982D01*
X279979Y303474D01*
X280070Y303964D01*
X280174Y304452D01*
X280289Y304937D01*
X280416Y305420D01*
X280555Y305899D01*
X280706Y306374D01*
X280868Y306846D01*
X281042Y307313D01*
X281227Y307776D01*
X281423Y308235D01*
X281631Y308688D01*
X281850Y309136D01*
X282079Y309579D01*
X282320Y310016D01*
X282571Y310447D01*
X282833Y310871D01*
X283105Y311289D01*
X283387Y311700D01*
X283679Y312105D01*
X283981Y312502D01*
X284292Y312891D01*
X284614Y313272D01*
X284944Y313646D01*
X285283Y314011D01*
X285632Y314368D01*
X285989Y314717D01*
X286354Y315056D01*
X286728Y315386D01*
X287109Y315708D01*
X287498Y316019D01*
X287895Y316321D01*
X288300Y316613D01*
X288711Y316895D01*
X289129Y317167D01*
X289553Y317429D01*
X289984Y317680D01*
X290421Y317921D01*
X290864Y318150D01*
X291312Y318369D01*
X291765Y318577D01*
X292224Y318773D01*
X292687Y318958D01*
X293154Y319132D01*
X293626Y319294D01*
X294101Y319445D01*
X294580Y319584D01*
X295063Y319711D01*
X295548Y319826D01*
X296036Y319930D01*
X296526Y320021D01*
X297018Y320100D01*
X297513Y320167D01*
X298008Y320222D01*
X298505Y320265D01*
X299003Y320296D01*
X299501Y320314D01*
X300000Y320320D01*
X300499Y320314D01*
X300997Y320296D01*
X301495Y320265D01*
X301992Y320222D01*
X302487Y320167D01*
X302982Y320100D01*
X303474Y320021D01*
X303964Y319930D01*
X304452Y319826D01*
X304937Y319711D01*
X305420Y319584D01*
X305899Y319445D01*
X306374Y319294D01*
X306846Y319132D01*
X307313Y318958D01*
X307776Y318773D01*
X308235Y318577D01*
X308688Y318369D01*
X309136Y318150D01*
X309579Y317921D01*
X310016Y317680D01*
X310447Y317429D01*
X310871Y317167D01*
X311289Y316895D01*
X311700Y316613D01*
X312105Y316321D01*
X312502Y316019D01*
X312891Y315708D01*
X313272Y315386D01*
X313646Y315056D01*
X314011Y314717D01*
X314368Y314368D01*
X314717Y314011D01*
X315056Y313646D01*
X315386Y313272D01*
X315708Y312891D01*
X316019Y312502D01*
X316321Y312105D01*
X316613Y311700D01*
X316895Y311289D01*
X317167Y310871D01*
X317429Y310447D01*
X317680Y310016D01*
X317921Y309579D01*
X318150Y309136D01*
X318369Y308688D01*
X318577Y308235D01*
X318773Y307776D01*
X318958Y307313D01*
X319132Y306846D01*
X319294Y306374D01*
X319445Y305899D01*
X319584Y305420D01*
X319711Y304937D01*
X319826Y304452D01*
X319930Y303964D01*
X320021Y303474D01*
X320100Y302982D01*
X320167Y302487D01*
X320222Y301992D01*
X320265Y301495D01*
X320296Y300997D01*
X320314Y300499D01*
X320320Y300000D01*
X320314Y299501D01*
X320296Y299003D01*
X320265Y298505D01*
X320222Y298008D01*
X320167Y297513D01*
X320100Y297018D01*
X320021Y296526D01*
X319930Y296036D01*
X319826Y295548D01*
X319711Y295063D01*
X319584Y294580D01*
X319445Y294101D01*
X319294Y293626D01*
X319132Y293154D01*
X318958Y292687D01*
X318773Y292224D01*
X318577Y291765D01*
X318369Y291312D01*
X318150Y290864D01*
X317921Y290421D01*
X317680Y289984D01*
X317429Y289553D01*
X317167Y289129D01*
X316895Y288711D01*
X316613Y288300D01*
X316321Y287895D01*
X316019Y287498D01*
X315708Y287109D01*
X315386Y286728D01*
X315056Y286354D01*
X314717Y285989D01*
X314368Y285632D01*
X314011Y285283D01*
X313646Y284944D01*
X313272Y284614D01*
X312891Y284292D01*
X312502Y283981D01*
X312105Y283679D01*
X311700Y283387D01*
X311289Y283105D01*
X310871Y282833D01*
X310447Y282571D01*
X310016Y282320D01*
X309579Y282079D01*
X309136Y281850D01*
X308688Y281631D01*
X308235Y281423D01*
X307776Y281227D01*
X307313Y281042D01*
X306846Y280868D01*
X306374Y280706D01*
X305899Y280555D01*
X305420Y280416D01*
X304937Y280289D01*
X304452Y280174D01*
X303964Y280070D01*
X303474Y279979D01*
X302982Y279900D01*
X302487Y279833D01*
X301992Y279778D01*
X301495Y279735D01*
X300997Y279704D01*
X300499Y279686D01*
X300000Y279680D01*
X299501Y279686D01*
X299003Y279704D01*
X298505Y279735D01*
X298008Y279778D01*
X297513Y279833D01*
X297018Y279900D01*
X296526Y279979D01*
X296036Y280070D01*
X295548Y280174D01*
X295063Y280289D01*
X294580Y280416D01*
X294101Y280555D01*
X293626Y280706D01*
X293154Y280868D01*
X292687Y281042D01*
X292224Y281227D01*
X291765Y281423D01*
X291312Y281631D01*
X290864Y281850D01*
X290421Y282079D01*
X289984Y282320D01*
X289553Y282571D01*
X289129Y282833D01*
X288711Y283105D01*
X288300Y283387D01*
X287895Y283679D01*
X287498Y283981D01*
X287109Y284292D01*
X286728Y284614D01*
X286354Y284944D01*
X285989Y285283D01*
X285632Y285632D01*
X285283Y285989D01*
X284944Y286354D01*
X284614Y286728D01*
X284292Y287109D01*
X283981Y287498D01*
X283679Y287895D01*
X283387Y288300D01*
X283105Y288711D01*
X282833Y289129D01*
X282571Y289553D01*
X282320Y289984D01*
X282079Y290421D01*
X281850Y290864D01*
X281631Y291312D01*
X281423Y291765D01*
X281227Y292224D01*
X281042Y292687D01*
X280868Y293154D01*
X280706Y293626D01*
X280555Y294101D01*
X280416Y294580D01*
X280289Y295063D01*
X280174Y295548D01*
X280070Y296036D01*
X279979Y296526D01*
X279900Y297018D01*
X279833Y297513D01*
X279778Y298008D01*
X279735Y298505D01*
X279704Y299003D01*
X279686Y299501D01*
X279680Y300000D01*
D13*
X351601Y380120D02*
X351601Y390280D01*
X357246Y390280D02*
X351601Y384071D01*
X353859Y386329D02*
X357246Y380120D01*
X362354Y382942D02*
X362356Y383048D01*
X362362Y383153D01*
X362372Y383258D01*
X362386Y383363D01*
X362403Y383467D01*
X362425Y383570D01*
X362450Y383672D01*
X362479Y383774D01*
X362512Y383874D01*
X362549Y383973D01*
X362589Y384070D01*
X362633Y384166D01*
X362681Y384261D01*
X362732Y384353D01*
X362787Y384443D01*
X362844Y384532D01*
X362905Y384618D01*
X362970Y384701D01*
X363037Y384783D01*
X363107Y384861D01*
X363181Y384937D01*
X363257Y385011D01*
X363335Y385081D01*
X363417Y385148D01*
X363500Y385213D01*
X363586Y385274D01*
X363675Y385331D01*
X363765Y385386D01*
X363857Y385437D01*
X363952Y385485D01*
X364048Y385529D01*
X364145Y385569D01*
X364244Y385606D01*
X364344Y385639D01*
X364446Y385668D01*
X364548Y385693D01*
X364651Y385715D01*
X364755Y385732D01*
X364860Y385746D01*
X364965Y385756D01*
X365070Y385762D01*
X365176Y385764D01*
X365282Y385762D01*
X365387Y385756D01*
X365492Y385746D01*
X365597Y385732D01*
X365701Y385715D01*
X365804Y385693D01*
X365906Y385668D01*
X366008Y385639D01*
X366108Y385606D01*
X366207Y385569D01*
X366304Y385529D01*
X366400Y385485D01*
X366495Y385437D01*
X366587Y385386D01*
X366677Y385331D01*
X366766Y385274D01*
X366852Y385213D01*
X366935Y385148D01*
X367017Y385081D01*
X367095Y385011D01*
X367171Y384937D01*
X367245Y384861D01*
X367315Y384783D01*
X367382Y384701D01*
X367447Y384618D01*
X367508Y384532D01*
X367565Y384443D01*
X367620Y384353D01*
X367671Y384261D01*
X367719Y384166D01*
X367763Y384070D01*
X367803Y383973D01*
X367840Y383874D01*
X367873Y383774D01*
X367902Y383672D01*
X367927Y383570D01*
X367949Y383467D01*
X367966Y383363D01*
X367980Y383258D01*
X367990Y383153D01*
X367996Y383048D01*
X367998Y382942D01*
X367996Y382836D01*
X367990Y382731D01*
X367980Y382626D01*
X367966Y382521D01*
X367949Y382417D01*
X367927Y382314D01*
X367902Y382212D01*
X367873Y382110D01*
X367840Y382010D01*
X367803Y381911D01*
X367763Y381814D01*
X367719Y381718D01*
X367671Y381623D01*
X367620Y381531D01*
X367565Y381441D01*
X367508Y381352D01*
X367447Y381266D01*
X367382Y381183D01*
X367315Y381101D01*
X367245Y381023D01*
X367171Y380947D01*
X367095Y380873D01*
X367017Y380803D01*
X366935Y380736D01*
X366852Y380671D01*
X366766Y380610D01*
X366677Y380553D01*
X366587Y380498D01*
X366495Y380447D01*
X366400Y380399D01*
X366304Y380355D01*
X366207Y380315D01*
X366108Y380278D01*
X366008Y380245D01*
X365906Y380216D01*
X365804Y380191D01*
X365701Y380169D01*
X365597Y380152D01*
X365492Y380138D01*
X365387Y380128D01*
X365282Y380122D01*
X365176Y380120D01*
X365070Y380122D01*
X364965Y380128D01*
X364860Y380138D01*
X364755Y380152D01*
X364651Y380169D01*
X364548Y380191D01*
X364446Y380216D01*
X364344Y380245D01*
X364244Y380278D01*
X364145Y380315D01*
X364048Y380355D01*
X363952Y380399D01*
X363857Y380447D01*
X363765Y380498D01*
X363675Y380553D01*
X363586Y380610D01*
X363500Y380671D01*
X363417Y380736D01*
X363335Y380803D01*
X363257Y380873D01*
X363181Y380947D01*
X363107Y381023D01*
X363037Y381101D01*
X362970Y381183D01*
X362905Y381266D01*
X362844Y381352D01*
X362787Y381441D01*
X362732Y381531D01*
X362681Y381623D01*
X362633Y381718D01*
X362589Y381814D01*
X362549Y381911D01*
X362512Y382010D01*
X362479Y382110D01*
X362450Y382212D01*
X362425Y382314D01*
X362403Y382417D01*
X362386Y382521D01*
X362372Y382626D01*
X362362Y382731D01*
X362356Y382836D01*
X362354Y382942D01*
X362918Y388022D02*
X362920Y388115D01*
X362926Y388208D01*
X362935Y388301D01*
X362949Y388394D01*
X362966Y388485D01*
X362987Y388576D01*
X363012Y388666D01*
X363040Y388755D01*
X363072Y388843D01*
X363108Y388929D01*
X363147Y389014D01*
X363190Y389097D01*
X363236Y389178D01*
X363286Y389257D01*
X363338Y389334D01*
X363394Y389409D01*
X363453Y389481D01*
X363515Y389551D01*
X363579Y389619D01*
X363647Y389683D01*
X363717Y389745D01*
X363789Y389804D01*
X363864Y389860D01*
X363941Y389912D01*
X364020Y389962D01*
X364101Y390008D01*
X364184Y390051D01*
X364269Y390090D01*
X364355Y390126D01*
X364443Y390158D01*
X364532Y390186D01*
X364622Y390211D01*
X364713Y390232D01*
X364804Y390249D01*
X364897Y390263D01*
X364990Y390272D01*
X365083Y390278D01*
X365176Y390280D01*
X365269Y390278D01*
X365362Y390272D01*
X365455Y390263D01*
X365548Y390249D01*
X365639Y390232D01*
X365730Y390211D01*
X365820Y390186D01*
X365909Y390158D01*
X365997Y390126D01*
X366083Y390090D01*
X366168Y390051D01*
X366251Y390008D01*
X366332Y389962D01*
X366411Y389912D01*
X366488Y389860D01*
X366563Y389804D01*
X366635Y389745D01*
X366705Y389683D01*
X366773Y389619D01*
X366837Y389551D01*
X366899Y389481D01*
X366958Y389409D01*
X367014Y389334D01*
X367066Y389257D01*
X367116Y389178D01*
X367162Y389097D01*
X367205Y389014D01*
X367244Y388929D01*
X367280Y388843D01*
X367312Y388755D01*
X367340Y388666D01*
X367365Y388576D01*
X367386Y388485D01*
X367403Y388394D01*
X367417Y388301D01*
X367426Y388208D01*
X367432Y388115D01*
X367434Y388022D01*
X367432Y387929D01*
X367426Y387836D01*
X367417Y387743D01*
X367403Y387650D01*
X367386Y387559D01*
X367365Y387468D01*
X367340Y387378D01*
X367312Y387289D01*
X367280Y387201D01*
X367244Y387115D01*
X367205Y387030D01*
X367162Y386947D01*
X367116Y386866D01*
X367066Y386787D01*
X367014Y386710D01*
X366958Y386635D01*
X366899Y386563D01*
X366837Y386493D01*
X366773Y386425D01*
X366705Y386361D01*
X366635Y386299D01*
X366563Y386240D01*
X366488Y386184D01*
X366411Y386132D01*
X366332Y386082D01*
X366251Y386036D01*
X366168Y385993D01*
X366083Y385954D01*
X365997Y385918D01*
X365909Y385886D01*
X365820Y385858D01*
X365730Y385833D01*
X365639Y385812D01*
X365548Y385795D01*
X365455Y385781D01*
X365362Y385772D01*
X365269Y385766D01*
X365176Y385764D01*
X365083Y385766D01*
X364990Y385772D01*
X364897Y385781D01*
X364804Y385795D01*
X364713Y385812D01*
X364622Y385833D01*
X364532Y385858D01*
X364443Y385886D01*
X364355Y385918D01*
X364269Y385954D01*
X364184Y385993D01*
X364101Y386036D01*
X364020Y386082D01*
X363941Y386132D01*
X363864Y386184D01*
X363789Y386240D01*
X363717Y386299D01*
X363647Y386361D01*
X363579Y386425D01*
X363515Y386493D01*
X363453Y386563D01*
X363394Y386635D01*
X363338Y386710D01*
X363286Y386787D01*
X363236Y386866D01*
X363190Y386947D01*
X363147Y387030D01*
X363108Y387115D01*
X363072Y387201D01*
X363040Y387289D01*
X363012Y387378D01*
X362987Y387468D01*
X362966Y387559D01*
X362949Y387650D01*
X362935Y387743D01*
X362926Y387836D01*
X362920Y387929D01*
X362918Y388022D01*
D12*
X413800Y376200D02*
X566200Y376200D01*
X566200Y223800D01*
X413800Y223800D01*
X413800Y376200D01*
D10*
X469680Y300000D02*
X469686Y300499D01*
X469704Y300997D01*
X469735Y301495D01*
X469778Y301992D01*
X469833Y302487D01*
X469900Y302982D01*
X469979Y303474D01*
X470070Y303964D01*
X470174Y304452D01*
X470289Y304937D01*
X470416Y305420D01*
X470555Y305899D01*
X470706Y306374D01*
X470868Y306846D01*
X471042Y307313D01*
X471227Y307776D01*
X471423Y308235D01*
X471631Y308688D01*
X471850Y309136D01*
X472079Y309579D01*
X472320Y310016D01*
X472571Y310447D01*
X472833Y310871D01*
X473105Y311289D01*
X473387Y311700D01*
X473679Y312105D01*
X473981Y312502D01*
X474292Y312891D01*
X474614Y313272D01*
X474944Y313646D01*
X475283Y314011D01*
X475632Y314368D01*
X475989Y314717D01*
X476354Y315056D01*
X476728Y315386D01*
X477109Y315708D01*
X477498Y316019D01*
X477895Y316321D01*
X478300Y316613D01*
X478711Y316895D01*
X479129Y317167D01*
X479553Y317429D01*
X479984Y317680D01*
X480421Y317921D01*
X480864Y318150D01*
X481312Y318369D01*
X481765Y318577D01*
X482224Y318773D01*
X482687Y318958D01*
X483154Y319132D01*
X483626Y319294D01*
X484101Y319445D01*
X484580Y319584D01*
X485063Y319711D01*
X485548Y319826D01*
X486036Y319930D01*
X486526Y320021D01*
X487018Y320100D01*
X487513Y320167D01*
X488008Y320222D01*
X488505Y320265D01*
X489003Y320296D01*
X489501Y320314D01*
X490000Y320320D01*
X490499Y320314D01*
X490997Y320296D01*
X491495Y320265D01*
X491992Y320222D01*
X492487Y320167D01*
X492982Y320100D01*
X493474Y320021D01*
X493964Y319930D01*
X494452Y319826D01*
X494937Y319711D01*
X495420Y319584D01*
X495899Y319445D01*
X496374Y319294D01*
X496846Y319132D01*
X497313Y318958D01*
X497776Y318773D01*
X498235Y318577D01*
X498688Y318369D01*
X499136Y318150D01*
X499579Y317921D01*
X500016Y317680D01*
X500447Y317429D01*
X500871Y317167D01*
X501289Y316895D01*
X501700Y316613D01*
X502105Y316321D01*
X502502Y316019D01*
X502891Y315708D01*
X503272Y315386D01*
X503646Y315056D01*
X504011Y314717D01*
X504368Y314368D01*
X504717Y314011D01*
X505056Y313646D01*
X505386Y313272D01*
X505708Y312891D01*
X506019Y312502D01*
X506321Y312105D01*
X506613Y311700D01*
X506895Y311289D01*
X507167Y310871D01*
X507429Y310447D01*
X507680Y310016D01*
X507921Y309579D01*
X508150Y309136D01*
X508369Y308688D01*
X508577Y308235D01*
X508773Y307776D01*
X508958Y307313D01*
X509132Y306846D01*
X509294Y306374D01*
X509445Y305899D01*
X509584Y305420D01*
X509711Y304937D01*
X509826Y304452D01*
X509930Y303964D01*
X510021Y303474D01*
X510100Y302982D01*
X510167Y302487D01*
X510222Y301992D01*
X510265Y301495D01*
X510296Y300997D01*
X510314Y300499D01*
X510320Y300000D01*
X510314Y299501D01*
X510296Y299003D01*
X510265Y298505D01*
X510222Y298008D01*
X510167Y297513D01*
X510100Y297018D01*
X510021Y296526D01*
X509930Y296036D01*
X509826Y295548D01*
X509711Y295063D01*
X509584Y294580D01*
X509445Y294101D01*
X509294Y293626D01*
X509132Y293154D01*
X508958Y292687D01*
X508773Y292224D01*
X508577Y291765D01*
X508369Y291312D01*
X508150Y290864D01*
X507921Y290421D01*
X507680Y289984D01*
X507429Y289553D01*
X507167Y289129D01*
X506895Y288711D01*
X506613Y288300D01*
X506321Y287895D01*
X506019Y287498D01*
X505708Y287109D01*
X505386Y286728D01*
X505056Y286354D01*
X504717Y285989D01*
X504368Y285632D01*
X504011Y285283D01*
X503646Y284944D01*
X503272Y284614D01*
X502891Y284292D01*
X502502Y283981D01*
X502105Y283679D01*
X501700Y283387D01*
X501289Y283105D01*
X500871Y282833D01*
X500447Y282571D01*
X500016Y282320D01*
X499579Y282079D01*
X499136Y281850D01*
X498688Y281631D01*
X498235Y281423D01*
X497776Y281227D01*
X497313Y281042D01*
X496846Y280868D01*
X496374Y280706D01*
X495899Y280555D01*
X495420Y280416D01*
X494937Y280289D01*
X494452Y280174D01*
X493964Y280070D01*
X493474Y279979D01*
X492982Y279900D01*
X492487Y279833D01*
X491992Y279778D01*
X491495Y279735D01*
X490997Y279704D01*
X490499Y279686D01*
X490000Y279680D01*
X489501Y279686D01*
X489003Y279704D01*
X488505Y279735D01*
X488008Y279778D01*
X487513Y279833D01*
X487018Y279900D01*
X486526Y279979D01*
X486036Y280070D01*
X485548Y280174D01*
X485063Y280289D01*
X484580Y280416D01*
X484101Y280555D01*
X483626Y280706D01*
X483154Y280868D01*
X482687Y281042D01*
X482224Y281227D01*
X481765Y281423D01*
X481312Y281631D01*
X480864Y281850D01*
X480421Y282079D01*
X479984Y282320D01*
X479553Y282571D01*
X479129Y282833D01*
X478711Y283105D01*
X478300Y283387D01*
X477895Y283679D01*
X477498Y283981D01*
X477109Y284292D01*
X476728Y284614D01*
X476354Y284944D01*
X475989Y285283D01*
X475632Y285632D01*
X475283Y285989D01*
X474944Y286354D01*
X474614Y286728D01*
X474292Y287109D01*
X473981Y287498D01*
X473679Y287895D01*
X473387Y288300D01*
X473105Y288711D01*
X472833Y289129D01*
X472571Y289553D01*
X472320Y289984D01*
X472079Y290421D01*
X471850Y290864D01*
X471631Y291312D01*
X471423Y291765D01*
X471227Y292224D01*
X471042Y292687D01*
X470868Y293154D01*
X470706Y293626D01*
X470555Y294101D01*
X470416Y294580D01*
X470289Y295063D01*
X470174Y295548D01*
X470070Y296036D01*
X469979Y296526D01*
X469900Y297018D01*
X469833Y297513D01*
X469778Y298008D01*
X469735Y298505D01*
X469704Y299003D01*
X469686Y299501D01*
X469680Y300000D01*
D13*
X541601Y380120D02*
X541601Y390280D01*
X547246Y390280D02*
X541601Y384071D01*
X543859Y386329D02*
X547246Y380120D01*
X554612Y384636D02*
X557999Y384636D01*
X554612Y384635D02*
X554519Y384637D01*
X554426Y384643D01*
X554333Y384652D01*
X554240Y384666D01*
X554149Y384683D01*
X554058Y384704D01*
X553968Y384729D01*
X553879Y384757D01*
X553791Y384789D01*
X553705Y384825D01*
X553620Y384864D01*
X553537Y384907D01*
X553456Y384953D01*
X553377Y385003D01*
X553300Y385055D01*
X553225Y385111D01*
X553153Y385170D01*
X553083Y385232D01*
X553015Y385296D01*
X552951Y385364D01*
X552889Y385434D01*
X552830Y385506D01*
X552774Y385581D01*
X552722Y385658D01*
X552672Y385737D01*
X552626Y385818D01*
X552583Y385901D01*
X552544Y385986D01*
X552508Y386072D01*
X552476Y386160D01*
X552448Y386249D01*
X552423Y386339D01*
X552402Y386430D01*
X552385Y386521D01*
X552371Y386614D01*
X552362Y386707D01*
X552356Y386800D01*
X552354Y386893D01*
X552354Y387458D01*
X552356Y387564D01*
X552362Y387669D01*
X552372Y387774D01*
X552386Y387879D01*
X552403Y387983D01*
X552425Y388086D01*
X552450Y388188D01*
X552479Y388290D01*
X552512Y388390D01*
X552549Y388489D01*
X552589Y388586D01*
X552633Y388682D01*
X552681Y388777D01*
X552732Y388869D01*
X552787Y388959D01*
X552844Y389048D01*
X552905Y389134D01*
X552970Y389217D01*
X553037Y389299D01*
X553107Y389377D01*
X553181Y389453D01*
X553257Y389527D01*
X553335Y389597D01*
X553417Y389664D01*
X553500Y389729D01*
X553586Y389790D01*
X553675Y389847D01*
X553765Y389902D01*
X553857Y389953D01*
X553952Y390001D01*
X554048Y390045D01*
X554145Y390085D01*
X554244Y390122D01*
X554344Y390155D01*
X554446Y390184D01*
X554548Y390209D01*
X554651Y390231D01*
X554755Y390248D01*
X554860Y390262D01*
X554965Y390272D01*
X555070Y390278D01*
X555176Y390280D01*
X555282Y390278D01*
X555387Y390272D01*
X555492Y390262D01*
X555597Y390248D01*
X555701Y390231D01*
X555804Y390209D01*
X555906Y390184D01*
X556008Y390155D01*
X556108Y390122D01*
X556207Y390085D01*
X556304Y390045D01*
X556400Y390001D01*
X556495Y389953D01*
X556587Y389902D01*
X556677Y389847D01*
X556766Y389790D01*
X556852Y389729D01*
X556935Y389664D01*
X557017Y389597D01*
X557095Y389527D01*
X557171Y389453D01*
X557245Y389377D01*
X557315Y389299D01*
X557382Y389217D01*
X557447Y389134D01*
X557508Y389048D01*
X557565Y388959D01*
X557620Y388869D01*
X557671Y388777D01*
X557719Y388682D01*
X557763Y388586D01*
X557803Y388489D01*
X557840Y388390D01*
X557873Y388290D01*
X557902Y388188D01*
X557927Y388086D01*
X557949Y387983D01*
X557966Y387879D01*
X557980Y387774D01*
X557990Y387669D01*
X557996Y387564D01*
X557998Y387458D01*
X557999Y387458D02*
X557999Y384636D01*
X557997Y384505D01*
X557991Y384373D01*
X557982Y384242D01*
X557968Y384112D01*
X557951Y383981D01*
X557930Y383852D01*
X557906Y383723D01*
X557877Y383595D01*
X557845Y383467D01*
X557809Y383341D01*
X557770Y383216D01*
X557727Y383091D01*
X557680Y382969D01*
X557630Y382847D01*
X557576Y382727D01*
X557519Y382609D01*
X557458Y382493D01*
X557394Y382378D01*
X557327Y382265D01*
X557256Y382154D01*
X557182Y382046D01*
X557105Y381939D01*
X557025Y381835D01*
X556942Y381733D01*
X556857Y381634D01*
X556768Y381537D01*
X556676Y381443D01*
X556582Y381351D01*
X556485Y381262D01*
X556386Y381177D01*
X556284Y381094D01*
X556180Y381014D01*
X556073Y380937D01*
X555965Y380863D01*
X555854Y380792D01*
X555741Y380725D01*
X555626Y380661D01*
X555510Y380600D01*
X555392Y380543D01*
X555272Y380489D01*
X555150Y380439D01*
X555028Y380392D01*
X554903Y380349D01*
X554778Y380310D01*
X554652Y380274D01*
X554524Y380242D01*
X554396Y380213D01*
X554267Y380189D01*
X554137Y380168D01*
X554007Y380151D01*
X553877Y380137D01*
X553746Y380128D01*
X553614Y380122D01*
X553483Y380120D01*
D12*
X186200Y186200D02*
X33800Y186200D01*
X186200Y186200D02*
X186200Y33800D01*
X33800Y33800D01*
X33800Y186200D01*
D10*
X89680Y110000D02*
X89686Y110499D01*
X89704Y110997D01*
X89735Y111495D01*
X89778Y111992D01*
X89833Y112487D01*
X89900Y112982D01*
X89979Y113474D01*
X90070Y113964D01*
X90174Y114452D01*
X90289Y114937D01*
X90416Y115420D01*
X90555Y115899D01*
X90706Y116374D01*
X90868Y116846D01*
X91042Y117313D01*
X91227Y117776D01*
X91423Y118235D01*
X91631Y118688D01*
X91850Y119136D01*
X92079Y119579D01*
X92320Y120016D01*
X92571Y120447D01*
X92833Y120871D01*
X93105Y121289D01*
X93387Y121700D01*
X93679Y122105D01*
X93981Y122502D01*
X94292Y122891D01*
X94614Y123272D01*
X94944Y123646D01*
X95283Y124011D01*
X95632Y124368D01*
X95989Y124717D01*
X96354Y125056D01*
X96728Y125386D01*
X97109Y125708D01*
X97498Y126019D01*
X97895Y126321D01*
X98300Y126613D01*
X98711Y126895D01*
X99129Y127167D01*
X99553Y127429D01*
X99984Y127680D01*
X100421Y127921D01*
X100864Y128150D01*
X101312Y128369D01*
X101765Y128577D01*
X102224Y128773D01*
X102687Y128958D01*
X103154Y129132D01*
X103626Y129294D01*
X104101Y129445D01*
X104580Y129584D01*
X105063Y129711D01*
X105548Y129826D01*
X106036Y129930D01*
X106526Y130021D01*
X107018Y130100D01*
X107513Y130167D01*
X108008Y130222D01*
X108505Y130265D01*
X109003Y130296D01*
X109501Y130314D01*
X110000Y130320D01*
X110499Y130314D01*
X110997Y130296D01*
X111495Y130265D01*
X111992Y130222D01*
X112487Y130167D01*
X112982Y130100D01*
X113474Y130021D01*
X113964Y129930D01*
X114452Y129826D01*
X114937Y129711D01*
X115420Y129584D01*
X115899Y129445D01*
X116374Y129294D01*
X116846Y129132D01*
X117313Y128958D01*
X117776Y128773D01*
X118235Y128577D01*
X118688Y128369D01*
X119136Y128150D01*
X119579Y127921D01*
X120016Y127680D01*
X120447Y127429D01*
X120871Y127167D01*
X121289Y126895D01*
X121700Y126613D01*
X122105Y126321D01*
X122502Y126019D01*
X122891Y125708D01*
X123272Y125386D01*
X123646Y125056D01*
X124011Y124717D01*
X124368Y124368D01*
X124717Y124011D01*
X125056Y123646D01*
X125386Y123272D01*
X125708Y122891D01*
X126019Y122502D01*
X126321Y122105D01*
X126613Y121700D01*
X126895Y121289D01*
X127167Y120871D01*
X127429Y120447D01*
X127680Y120016D01*
X127921Y119579D01*
X128150Y119136D01*
X128369Y118688D01*
X128577Y118235D01*
X128773Y117776D01*
X128958Y117313D01*
X129132Y116846D01*
X129294Y116374D01*
X129445Y115899D01*
X129584Y115420D01*
X129711Y114937D01*
X129826Y114452D01*
X129930Y113964D01*
X130021Y113474D01*
X130100Y112982D01*
X130167Y112487D01*
X130222Y111992D01*
X130265Y111495D01*
X130296Y110997D01*
X130314Y110499D01*
X130320Y110000D01*
X130314Y109501D01*
X130296Y109003D01*
X130265Y108505D01*
X130222Y108008D01*
X130167Y107513D01*
X130100Y107018D01*
X130021Y106526D01*
X129930Y106036D01*
X129826Y105548D01*
X129711Y105063D01*
X129584Y104580D01*
X129445Y104101D01*
X129294Y103626D01*
X129132Y103154D01*
X128958Y102687D01*
X128773Y102224D01*
X128577Y101765D01*
X128369Y101312D01*
X128150Y100864D01*
X127921Y100421D01*
X127680Y99984D01*
X127429Y99553D01*
X127167Y99129D01*
X126895Y98711D01*
X126613Y98300D01*
X126321Y97895D01*
X126019Y97498D01*
X125708Y97109D01*
X125386Y96728D01*
X125056Y96354D01*
X124717Y95989D01*
X124368Y95632D01*
X124011Y95283D01*
X123646Y94944D01*
X123272Y94614D01*
X122891Y94292D01*
X122502Y93981D01*
X122105Y93679D01*
X121700Y93387D01*
X121289Y93105D01*
X120871Y92833D01*
X120447Y92571D01*
X120016Y92320D01*
X119579Y92079D01*
X119136Y91850D01*
X118688Y91631D01*
X118235Y91423D01*
X117776Y91227D01*
X117313Y91042D01*
X116846Y90868D01*
X116374Y90706D01*
X115899Y90555D01*
X115420Y90416D01*
X114937Y90289D01*
X114452Y90174D01*
X113964Y90070D01*
X113474Y89979D01*
X112982Y89900D01*
X112487Y89833D01*
X111992Y89778D01*
X111495Y89735D01*
X110997Y89704D01*
X110499Y89686D01*
X110000Y89680D01*
X109501Y89686D01*
X109003Y89704D01*
X108505Y89735D01*
X108008Y89778D01*
X107513Y89833D01*
X107018Y89900D01*
X106526Y89979D01*
X106036Y90070D01*
X105548Y90174D01*
X105063Y90289D01*
X104580Y90416D01*
X104101Y90555D01*
X103626Y90706D01*
X103154Y90868D01*
X102687Y91042D01*
X102224Y91227D01*
X101765Y91423D01*
X101312Y91631D01*
X100864Y91850D01*
X100421Y92079D01*
X99984Y92320D01*
X99553Y92571D01*
X99129Y92833D01*
X98711Y93105D01*
X98300Y93387D01*
X97895Y93679D01*
X97498Y93981D01*
X97109Y94292D01*
X96728Y94614D01*
X96354Y94944D01*
X95989Y95283D01*
X95632Y95632D01*
X95283Y95989D01*
X94944Y96354D01*
X94614Y96728D01*
X94292Y97109D01*
X93981Y97498D01*
X93679Y97895D01*
X93387Y98300D01*
X93105Y98711D01*
X92833Y99129D01*
X92571Y99553D01*
X92320Y99984D01*
X92079Y100421D01*
X91850Y100864D01*
X91631Y101312D01*
X91423Y101765D01*
X91227Y102224D01*
X91042Y102687D01*
X90868Y103154D01*
X90706Y103626D01*
X90555Y104101D01*
X90416Y104580D01*
X90289Y105063D01*
X90174Y105548D01*
X90070Y106036D01*
X89979Y106526D01*
X89900Y107018D01*
X89833Y107513D01*
X89778Y108008D01*
X89735Y108505D01*
X89704Y109003D01*
X89686Y109501D01*
X89680Y110000D01*
D13*
X155886Y190120D02*
X155886Y200280D01*
X161531Y200280D02*
X155886Y194071D01*
X158144Y196329D02*
X161531Y190120D01*
X166639Y198022D02*
X169461Y200280D01*
X169461Y190120D01*
X166639Y190120D02*
X172284Y190120D01*
X178069Y195200D02*
X178071Y195400D01*
X178079Y195600D01*
X178090Y195799D01*
X178107Y195998D01*
X178129Y196197D01*
X178155Y196395D01*
X178186Y196593D01*
X178221Y196789D01*
X178262Y196985D01*
X178306Y197180D01*
X178356Y197374D01*
X178410Y197566D01*
X178469Y197757D01*
X178532Y197947D01*
X178600Y198135D01*
X178672Y198321D01*
X178749Y198506D01*
X178830Y198688D01*
X178916Y198869D01*
X178947Y198953D01*
X178981Y199035D01*
X179019Y199116D01*
X179060Y199196D01*
X179105Y199273D01*
X179152Y199348D01*
X179203Y199422D01*
X179258Y199493D01*
X179315Y199561D01*
X179375Y199628D01*
X179438Y199691D01*
X179503Y199752D01*
X179571Y199810D01*
X179641Y199865D01*
X179714Y199917D01*
X179789Y199965D01*
X179866Y200011D01*
X179944Y200053D01*
X180025Y200092D01*
X180107Y200127D01*
X180190Y200159D01*
X180275Y200187D01*
X180361Y200212D01*
X180448Y200232D01*
X180535Y200250D01*
X180624Y200263D01*
X180713Y200272D01*
X180802Y200278D01*
X180891Y200280D01*
X180980Y200278D01*
X181069Y200272D01*
X181158Y200263D01*
X181247Y200250D01*
X181334Y200232D01*
X181421Y200212D01*
X181507Y200187D01*
X181592Y200159D01*
X181675Y200127D01*
X181757Y200092D01*
X181838Y200053D01*
X181916Y200011D01*
X181993Y199965D01*
X182068Y199917D01*
X182141Y199865D01*
X182211Y199810D01*
X182279Y199752D01*
X182345Y199691D01*
X182407Y199627D01*
X182467Y199561D01*
X182524Y199493D01*
X182579Y199422D01*
X182630Y199348D01*
X182677Y199273D01*
X182722Y199196D01*
X182763Y199116D01*
X182801Y199035D01*
X182835Y198953D01*
X182866Y198869D01*
X182952Y198688D01*
X183033Y198505D01*
X183110Y198321D01*
X183182Y198134D01*
X183250Y197946D01*
X183313Y197757D01*
X183372Y197566D01*
X183426Y197373D01*
X183476Y197180D01*
X183520Y196985D01*
X183561Y196789D01*
X183596Y196593D01*
X183627Y196395D01*
X183653Y196197D01*
X183675Y195998D01*
X183692Y195799D01*
X183703Y195600D01*
X183711Y195400D01*
X183713Y195200D01*
X178069Y195200D02*
X178071Y195000D01*
X178079Y194800D01*
X178090Y194601D01*
X178107Y194402D01*
X178129Y194203D01*
X178155Y194005D01*
X178186Y193807D01*
X178221Y193611D01*
X178262Y193415D01*
X178306Y193220D01*
X178356Y193026D01*
X178410Y192834D01*
X178469Y192643D01*
X178532Y192453D01*
X178600Y192265D01*
X178672Y192079D01*
X178749Y191894D01*
X178830Y191712D01*
X178916Y191531D01*
X178947Y191447D01*
X178981Y191365D01*
X179019Y191284D01*
X179060Y191204D01*
X179105Y191127D01*
X179152Y191052D01*
X179204Y190978D01*
X179258Y190907D01*
X179315Y190839D01*
X179375Y190772D01*
X179438Y190709D01*
X179503Y190648D01*
X179571Y190590D01*
X179641Y190535D01*
X179714Y190483D01*
X179789Y190435D01*
X179866Y190389D01*
X179944Y190347D01*
X180025Y190308D01*
X180107Y190273D01*
X180190Y190241D01*
X180275Y190213D01*
X180361Y190188D01*
X180448Y190168D01*
X180535Y190150D01*
X180624Y190137D01*
X180713Y190128D01*
X180802Y190122D01*
X180891Y190120D01*
X182867Y191531D02*
X182953Y191712D01*
X183034Y191894D01*
X183111Y192079D01*
X183183Y192265D01*
X183251Y192453D01*
X183314Y192643D01*
X183373Y192834D01*
X183427Y193026D01*
X183477Y193220D01*
X183521Y193415D01*
X183562Y193611D01*
X183597Y193807D01*
X183628Y194005D01*
X183654Y194203D01*
X183676Y194402D01*
X183693Y194601D01*
X183704Y194800D01*
X183712Y195000D01*
X183714Y195200D01*
X182866Y191531D02*
X182835Y191447D01*
X182801Y191365D01*
X182763Y191284D01*
X182722Y191204D01*
X182677Y191127D01*
X182630Y191052D01*
X182579Y190978D01*
X182524Y190907D01*
X182467Y190839D01*
X182407Y190772D01*
X182344Y190709D01*
X182279Y190648D01*
X182211Y190590D01*
X182141Y190535D01*
X182068Y190483D01*
X181993Y190435D01*
X181916Y190389D01*
X181838Y190347D01*
X181757Y190308D01*
X181675Y190273D01*
X181592Y190241D01*
X181507Y190213D01*
X181421Y190188D01*
X181334Y190168D01*
X181247Y190150D01*
X181158Y190137D01*
X181069Y190128D01*
X180980Y190122D01*
X180891Y190120D01*
X178634Y192378D02*
X183149Y198022D01*
D12*
X223800Y186200D02*
X376200Y186200D01*
X376200Y33800D01*
X223800Y33800D01*
X223800Y186200D01*
D10*
X279680Y110000D02*
X279686Y110499D01*
X279704Y110997D01*
X279735Y111495D01*
X279778Y111992D01*
X279833Y112487D01*
X279900Y112982D01*
X279979Y113474D01*
X280070Y113964D01*
X280174Y114452D01*
X280289Y114937D01*
X280416Y115420D01*
X280555Y115899D01*
X280706Y116374D01*
X280868Y116846D01*
X281042Y117313D01*
X281227Y117776D01*
X281423Y118235D01*
X281631Y118688D01*
X281850Y119136D01*
X282079Y119579D01*
X282320Y120016D01*
X282571Y120447D01*
X282833Y120871D01*
X283105Y121289D01*
X283387Y121700D01*
X283679Y122105D01*
X283981Y122502D01*
X284292Y122891D01*
X284614Y123272D01*
X284944Y123646D01*
X285283Y124011D01*
X285632Y124368D01*
X285989Y124717D01*
X286354Y125056D01*
X286728Y125386D01*
X287109Y125708D01*
X287498Y126019D01*
X287895Y126321D01*
X288300Y126613D01*
X288711Y126895D01*
X289129Y127167D01*
X289553Y127429D01*
X289984Y127680D01*
X290421Y127921D01*
X290864Y128150D01*
X291312Y128369D01*
X291765Y128577D01*
X292224Y128773D01*
X292687Y128958D01*
X293154Y129132D01*
X293626Y129294D01*
X294101Y129445D01*
X294580Y129584D01*
X295063Y129711D01*
X295548Y129826D01*
X296036Y129930D01*
X296526Y130021D01*
X297018Y130100D01*
X297513Y130167D01*
X298008Y130222D01*
X298505Y130265D01*
X299003Y130296D01*
X299501Y130314D01*
X300000Y130320D01*
X300499Y130314D01*
X300997Y130296D01*
X301495Y130265D01*
X301992Y130222D01*
X302487Y130167D01*
X302982Y130100D01*
X303474Y130021D01*
X303964Y129930D01*
X304452Y129826D01*
X304937Y129711D01*
X305420Y129584D01*
X305899Y129445D01*
X306374Y129294D01*
X306846Y129132D01*
X307313Y128958D01*
X307776Y128773D01*
X308235Y128577D01*
X308688Y128369D01*
X309136Y128150D01*
X309579Y127921D01*
X310016Y127680D01*
X310447Y127429D01*
X310871Y127167D01*
X311289Y126895D01*
X311700Y126613D01*
X312105Y126321D01*
X312502Y126019D01*
X312891Y125708D01*
X313272Y125386D01*
X313646Y125056D01*
X314011Y124717D01*
X314368Y124368D01*
X314717Y124011D01*
X315056Y123646D01*
X315386Y123272D01*
X315708Y122891D01*
X316019Y122502D01*
X316321Y122105D01*
X316613Y121700D01*
X316895Y121289D01*
X317167Y120871D01*
X317429Y120447D01*
X317680Y120016D01*
X317921Y119579D01*
X318150Y119136D01*
X318369Y118688D01*
X318577Y118235D01*
X318773Y117776D01*
X318958Y117313D01*
X319132Y116846D01*
X319294Y116374D01*
X319445Y115899D01*
X319584Y115420D01*
X319711Y114937D01*
X319826Y114452D01*
X319930Y113964D01*
X320021Y113474D01*
X320100Y112982D01*
X320167Y112487D01*
X320222Y111992D01*
X320265Y111495D01*
X320296Y110997D01*
X320314Y110499D01*
X320320Y110000D01*
X320314Y109501D01*
X320296Y109003D01*
X320265Y108505D01*
X320222Y108008D01*
X320167Y107513D01*
X320100Y107018D01*
X320021Y106526D01*
X319930Y106036D01*
X319826Y105548D01*
X319711Y105063D01*
X319584Y104580D01*
X319445Y104101D01*
X319294Y103626D01*
X319132Y103154D01*
X318958Y102687D01*
X318773Y102224D01*
X318577Y101765D01*
X318369Y101312D01*
X318150Y100864D01*
X317921Y100421D01*
X317680Y99984D01*
X317429Y99553D01*
X317167Y99129D01*
X316895Y98711D01*
X316613Y98300D01*
X316321Y97895D01*
X316019Y97498D01*
X315708Y97109D01*
X315386Y96728D01*
X315056Y96354D01*
X314717Y95989D01*
X314368Y95632D01*
X314011Y95283D01*
X313646Y94944D01*
X313272Y94614D01*
X312891Y94292D01*
X312502Y93981D01*
X312105Y93679D01*
X311700Y93387D01*
X311289Y93105D01*
X310871Y92833D01*
X310447Y92571D01*
X310016Y92320D01*
X309579Y92079D01*
X309136Y91850D01*
X308688Y91631D01*
X308235Y91423D01*
X307776Y91227D01*
X307313Y91042D01*
X306846Y90868D01*
X306374Y90706D01*
X305899Y90555D01*
X305420Y90416D01*
X304937Y90289D01*
X304452Y90174D01*
X303964Y90070D01*
X303474Y89979D01*
X302982Y89900D01*
X302487Y89833D01*
X301992Y89778D01*
X301495Y89735D01*
X300997Y89704D01*
X300499Y89686D01*
X300000Y89680D01*
X299501Y89686D01*
X299003Y89704D01*
X298505Y89735D01*
X298008Y89778D01*
X297513Y89833D01*
X297018Y89900D01*
X296526Y89979D01*
X296036Y90070D01*
X295548Y90174D01*
X295063Y90289D01*
X294580Y90416D01*
X294101Y90555D01*
X293626Y90706D01*
X293154Y90868D01*
X292687Y91042D01*
X292224Y91227D01*
X291765Y91423D01*
X291312Y91631D01*
X290864Y91850D01*
X290421Y92079D01*
X289984Y92320D01*
X289553Y92571D01*
X289129Y92833D01*
X288711Y93105D01*
X288300Y93387D01*
X287895Y93679D01*
X287498Y93981D01*
X287109Y94292D01*
X286728Y94614D01*
X286354Y94944D01*
X285989Y95283D01*
X285632Y95632D01*
X285283Y95989D01*
X284944Y96354D01*
X284614Y96728D01*
X284292Y97109D01*
X283981Y97498D01*
X283679Y97895D01*
X283387Y98300D01*
X283105Y98711D01*
X282833Y99129D01*
X282571Y99553D01*
X282320Y99984D01*
X282079Y100421D01*
X281850Y100864D01*
X281631Y101312D01*
X281423Y101765D01*
X281227Y102224D01*
X281042Y102687D01*
X280868Y103154D01*
X280706Y103626D01*
X280555Y104101D01*
X280416Y104580D01*
X280289Y105063D01*
X280174Y105548D01*
X280070Y106036D01*
X279979Y106526D01*
X279900Y107018D01*
X279833Y107513D01*
X279778Y108008D01*
X279735Y108505D01*
X279704Y109003D01*
X279686Y109501D01*
X279680Y110000D01*
D13*
X345886Y190120D02*
X345886Y200280D01*
X351531Y200280D02*
X345886Y194071D01*
X348144Y196329D02*
X351531Y190120D01*
X356639Y198022D02*
X359461Y200280D01*
X359461Y190120D01*
X356639Y190120D02*
X362284Y190120D01*
X368069Y198022D02*
X370891Y200280D01*
X370891Y190120D01*
X368069Y190120D02*
X373714Y190120D01*
D12*
X413800Y186200D02*
X566200Y186200D01*
X566200Y33800D01*
X413800Y33800D01*
X413800Y186200D01*
D10*
X469680Y110000D02*
X469686Y110499D01*
X469704Y110997D01*
X469735Y111495D01*
X469778Y111992D01*
X469833Y112487D01*
X469900Y112982D01*
X469979Y113474D01*
X470070Y113964D01*
X470174Y114452D01*
X470289Y114937D01*
X470416Y115420D01*
X470555Y115899D01*
X470706Y116374D01*
X470868Y116846D01*
X471042Y117313D01*
X471227Y117776D01*
X471423Y118235D01*
X471631Y118688D01*
X471850Y119136D01*
X472079Y119579D01*
X472320Y120016D01*
X472571Y120447D01*
X472833Y120871D01*
X473105Y121289D01*
X473387Y121700D01*
X473679Y122105D01*
X473981Y122502D01*
X474292Y122891D01*
X474614Y123272D01*
X474944Y123646D01*
X475283Y124011D01*
X475632Y124368D01*
X475989Y124717D01*
X476354Y125056D01*
X476728Y125386D01*
X477109Y125708D01*
X477498Y126019D01*
X477895Y126321D01*
X478300Y126613D01*
X478711Y126895D01*
X479129Y127167D01*
X479553Y127429D01*
X479984Y127680D01*
X480421Y127921D01*
X480864Y128150D01*
X481312Y128369D01*
X481765Y128577D01*
X482224Y128773D01*
X482687Y128958D01*
X483154Y129132D01*
X483626Y129294D01*
X484101Y129445D01*
X484580Y129584D01*
X485063Y129711D01*
X485548Y129826D01*
X486036Y129930D01*
X486526Y130021D01*
X487018Y130100D01*
X487513Y130167D01*
X488008Y130222D01*
X488505Y130265D01*
X489003Y130296D01*
X489501Y130314D01*
X490000Y130320D01*
X490499Y130314D01*
X490997Y130296D01*
X491495Y130265D01*
X491992Y130222D01*
X492487Y130167D01*
X492982Y130100D01*
X493474Y130021D01*
X493964Y129930D01*
X494452Y129826D01*
X494937Y129711D01*
X495420Y129584D01*
X495899Y129445D01*
X496374Y129294D01*
X496846Y129132D01*
X497313Y128958D01*
X497776Y128773D01*
X498235Y128577D01*
X498688Y128369D01*
X499136Y128150D01*
X499579Y127921D01*
X500016Y127680D01*
X500447Y127429D01*
X500871Y127167D01*
X501289Y126895D01*
X501700Y126613D01*
X502105Y126321D01*
X502502Y126019D01*
X502891Y125708D01*
X503272Y125386D01*
X503646Y125056D01*
X504011Y124717D01*
X504368Y124368D01*
X504717Y124011D01*
X505056Y123646D01*
X505386Y123272D01*
X505708Y122891D01*
X506019Y122502D01*
X506321Y122105D01*
X506613Y121700D01*
X506895Y121289D01*
X507167Y120871D01*
X507429Y120447D01*
X507680Y120016D01*
X507921Y119579D01*
X508150Y119136D01*
X508369Y118688D01*
X508577Y118235D01*
X508773Y117776D01*
X508958Y117313D01*
X509132Y116846D01*
X509294Y116374D01*
X509445Y115899D01*
X509584Y115420D01*
X509711Y114937D01*
X509826Y114452D01*
X509930Y113964D01*
X510021Y113474D01*
X510100Y112982D01*
X510167Y112487D01*
X510222Y111992D01*
X510265Y111495D01*
X510296Y110997D01*
X510314Y110499D01*
X510320Y110000D01*
X510314Y109501D01*
X510296Y109003D01*
X510265Y108505D01*
X510222Y108008D01*
X510167Y107513D01*
X510100Y107018D01*
X510021Y106526D01*
X509930Y106036D01*
X509826Y105548D01*
X509711Y105063D01*
X509584Y104580D01*
X509445Y104101D01*
X509294Y103626D01*
X509132Y103154D01*
X508958Y102687D01*
X508773Y102224D01*
X508577Y101765D01*
X508369Y101312D01*
X508150Y100864D01*
X507921Y100421D01*
X507680Y99984D01*
X507429Y99553D01*
X507167Y99129D01*
X506895Y98711D01*
X506613Y98300D01*
X506321Y97895D01*
X506019Y97498D01*
X505708Y97109D01*
X505386Y96728D01*
X505056Y96354D01*
X504717Y95989D01*
X504368Y95632D01*
X504011Y95283D01*
X503646Y94944D01*
X503272Y94614D01*
X502891Y94292D01*
X502502Y93981D01*
X502105Y93679D01*
X501700Y93387D01*
X501289Y93105D01*
X500871Y92833D01*
X500447Y92571D01*
X500016Y92320D01*
X499579Y92079D01*
X499136Y91850D01*
X498688Y91631D01*
X498235Y91423D01*
X497776Y91227D01*
X497313Y91042D01*
X496846Y90868D01*
X496374Y90706D01*
X495899Y90555D01*
X495420Y90416D01*
X494937Y90289D01*
X494452Y90174D01*
X493964Y90070D01*
X493474Y89979D01*
X492982Y89900D01*
X492487Y89833D01*
X491992Y89778D01*
X491495Y89735D01*
X490997Y89704D01*
X490499Y89686D01*
X490000Y89680D01*
X489501Y89686D01*
X489003Y89704D01*
X488505Y89735D01*
X488008Y89778D01*
X487513Y89833D01*
X487018Y89900D01*
X486526Y89979D01*
X486036Y90070D01*
X485548Y90174D01*
X485063Y90289D01*
X484580Y90416D01*
X484101Y90555D01*
X483626Y90706D01*
X483154Y90868D01*
X482687Y91042D01*
X482224Y91227D01*
X481765Y91423D01*
X481312Y91631D01*
X480864Y91850D01*
X480421Y92079D01*
X479984Y92320D01*
X479553Y92571D01*
X479129Y92833D01*
X478711Y93105D01*
X478300Y93387D01*
X477895Y93679D01*
X477498Y93981D01*
X477109Y94292D01*
X476728Y94614D01*
X476354Y94944D01*
X475989Y95283D01*
X475632Y95632D01*
X475283Y95989D01*
X474944Y96354D01*
X474614Y96728D01*
X474292Y97109D01*
X473981Y97498D01*
X473679Y97895D01*
X473387Y98300D01*
X473105Y98711D01*
X472833Y99129D01*
X472571Y99553D01*
X472320Y99984D01*
X472079Y100421D01*
X471850Y100864D01*
X471631Y101312D01*
X471423Y101765D01*
X471227Y102224D01*
X471042Y102687D01*
X470868Y103154D01*
X470706Y103626D01*
X470555Y104101D01*
X470416Y104580D01*
X470289Y105063D01*
X470174Y105548D01*
X470070Y106036D01*
X469979Y106526D01*
X469900Y107018D01*
X469833Y107513D01*
X469778Y108008D01*
X469735Y108505D01*
X469704Y109003D01*
X469686Y109501D01*
X469680Y110000D01*
D13*
X535886Y190120D02*
X535886Y200280D01*
X541531Y200280D02*
X535886Y194071D01*
X538144Y196329D02*
X541531Y190120D01*
X546639Y198022D02*
X549461Y200280D01*
X549461Y190120D01*
X546639Y190120D02*
X552284Y190120D01*
X561174Y200280D02*
X561274Y200278D01*
X561373Y200272D01*
X561473Y200262D01*
X561571Y200249D01*
X561670Y200231D01*
X561767Y200210D01*
X561863Y200185D01*
X561959Y200156D01*
X562053Y200123D01*
X562146Y200087D01*
X562237Y200047D01*
X562327Y200003D01*
X562415Y199956D01*
X562501Y199906D01*
X562585Y199852D01*
X562667Y199795D01*
X562746Y199735D01*
X562824Y199671D01*
X562898Y199605D01*
X562970Y199536D01*
X563039Y199464D01*
X563105Y199390D01*
X563169Y199312D01*
X563229Y199233D01*
X563286Y199151D01*
X563340Y199067D01*
X563390Y198981D01*
X563437Y198893D01*
X563481Y198803D01*
X563521Y198712D01*
X563557Y198619D01*
X563590Y198525D01*
X563619Y198429D01*
X563644Y198333D01*
X563665Y198236D01*
X563683Y198137D01*
X563696Y198039D01*
X563706Y197939D01*
X563712Y197840D01*
X563714Y197740D01*
X561174Y200280D02*
X561063Y200278D01*
X560952Y200272D01*
X560842Y200263D01*
X560732Y200250D01*
X560622Y200233D01*
X560513Y200212D01*
X560405Y200188D01*
X560298Y200160D01*
X560191Y200129D01*
X560086Y200093D01*
X559982Y200055D01*
X559880Y200012D01*
X559779Y199967D01*
X559679Y199917D01*
X559582Y199865D01*
X559486Y199809D01*
X559392Y199750D01*
X559300Y199688D01*
X559210Y199623D01*
X559123Y199555D01*
X559038Y199483D01*
X558955Y199409D01*
X558875Y199333D01*
X558798Y199253D01*
X558723Y199171D01*
X558651Y199087D01*
X558582Y199000D01*
X558517Y198911D01*
X558454Y198819D01*
X558394Y198726D01*
X558338Y198630D01*
X558284Y198533D01*
X558235Y198434D01*
X558188Y198333D01*
X558145Y198231D01*
X558106Y198127D01*
X558070Y198022D01*
X562866Y195765D02*
X562938Y195835D01*
X563007Y195908D01*
X563073Y195984D01*
X563136Y196062D01*
X563196Y196142D01*
X563253Y196225D01*
X563308Y196309D01*
X563359Y196396D01*
X563407Y196484D01*
X563451Y196574D01*
X563492Y196665D01*
X563530Y196758D01*
X563565Y196853D01*
X563596Y196948D01*
X563623Y197045D01*
X563647Y197142D01*
X563667Y197241D01*
X563683Y197340D01*
X563696Y197439D01*
X563706Y197539D01*
X563711Y197640D01*
X563713Y197740D01*
X562867Y195764D02*
X558069Y190120D01*
X563714Y190120D01*
D10*
X273500Y950000D02*
X273502Y950134D01*
X273508Y950268D01*
X273518Y950401D01*
X273532Y950535D01*
X273550Y950668D01*
X273572Y950800D01*
X273597Y950931D01*
X273627Y951062D01*
X273661Y951192D01*
X273698Y951320D01*
X273739Y951448D01*
X273784Y951574D01*
X273833Y951699D01*
X273885Y951822D01*
X273941Y951944D01*
X274001Y952064D01*
X274064Y952182D01*
X274131Y952298D01*
X274201Y952412D01*
X274275Y952524D01*
X274352Y952634D01*
X274432Y952742D01*
X274515Y952847D01*
X274601Y952949D01*
X274690Y953049D01*
X274783Y953146D01*
X274878Y953241D01*
X274976Y953332D01*
X275076Y953421D01*
X275179Y953506D01*
X275285Y953589D01*
X275393Y953668D01*
X275503Y953744D01*
X275616Y953817D01*
X275731Y953886D01*
X275847Y953952D01*
X275966Y954014D01*
X276086Y954073D01*
X276209Y954128D01*
X276332Y954180D01*
X276457Y954227D01*
X276584Y954271D01*
X276712Y954312D01*
X276841Y954348D01*
X276971Y954381D01*
X277102Y954409D01*
X277233Y954434D01*
X277366Y954455D01*
X277499Y954472D01*
X277632Y954485D01*
X277766Y954494D01*
X277900Y954499D01*
X278034Y954500D01*
X278167Y954497D01*
X278301Y954490D01*
X278435Y954479D01*
X278568Y954464D01*
X278701Y954445D01*
X278833Y954422D01*
X278964Y954396D01*
X279094Y954365D01*
X279224Y954330D01*
X279352Y954292D01*
X279479Y954250D01*
X279605Y954204D01*
X279730Y954154D01*
X279853Y954101D01*
X279974Y954044D01*
X280094Y953983D01*
X280211Y953919D01*
X280327Y953852D01*
X280441Y953781D01*
X280552Y953706D01*
X280661Y953629D01*
X280768Y953548D01*
X280873Y953464D01*
X280974Y953377D01*
X281074Y953287D01*
X281170Y953194D01*
X281264Y953098D01*
X281355Y952999D01*
X281442Y952898D01*
X281527Y952794D01*
X281609Y952688D01*
X281687Y952580D01*
X281762Y952469D01*
X281834Y952356D01*
X281903Y952240D01*
X281968Y952123D01*
X282029Y952004D01*
X282087Y951883D01*
X282141Y951761D01*
X282192Y951637D01*
X282239Y951511D01*
X282282Y951384D01*
X282321Y951256D01*
X282357Y951127D01*
X282388Y950997D01*
X282416Y950866D01*
X282440Y950734D01*
X282460Y950601D01*
X282476Y950468D01*
X282488Y950335D01*
X282496Y950201D01*
X282500Y950067D01*
X282500Y949933D01*
X282496Y949799D01*
X282488Y949665D01*
X282476Y949532D01*
X282460Y949399D01*
X282440Y949266D01*
X282416Y949134D01*
X282388Y949003D01*
X282357Y948873D01*
X282321Y948744D01*
X282282Y948616D01*
X282239Y948489D01*
X282192Y948363D01*
X282141Y948239D01*
X282087Y948117D01*
X282029Y947996D01*
X281968Y947877D01*
X281903Y947760D01*
X281834Y947644D01*
X281762Y947531D01*
X281687Y947420D01*
X281609Y947312D01*
X281527Y947206D01*
X281442Y947102D01*
X281355Y947001D01*
X281264Y946902D01*
X281170Y946806D01*
X281074Y946713D01*
X280974Y946623D01*
X280873Y946536D01*
X280768Y946452D01*
X280661Y946371D01*
X280552Y946294D01*
X280441Y946219D01*
X280327Y946148D01*
X280211Y946081D01*
X280094Y946017D01*
X279974Y945956D01*
X279853Y945899D01*
X279730Y945846D01*
X279605Y945796D01*
X279479Y945750D01*
X279352Y945708D01*
X279224Y945670D01*
X279094Y945635D01*
X278964Y945604D01*
X278833Y945578D01*
X278701Y945555D01*
X278568Y945536D01*
X278435Y945521D01*
X278301Y945510D01*
X278167Y945503D01*
X278034Y945500D01*
X277900Y945501D01*
X277766Y945506D01*
X277632Y945515D01*
X277499Y945528D01*
X277366Y945545D01*
X277233Y945566D01*
X277102Y945591D01*
X276971Y945619D01*
X276841Y945652D01*
X276712Y945688D01*
X276584Y945729D01*
X276457Y945773D01*
X276332Y945820D01*
X276209Y945872D01*
X276086Y945927D01*
X275966Y945986D01*
X275847Y946048D01*
X275731Y946114D01*
X275616Y946183D01*
X275503Y946256D01*
X275393Y946332D01*
X275285Y946411D01*
X275179Y946494D01*
X275076Y946579D01*
X274976Y946668D01*
X274878Y946759D01*
X274783Y946854D01*
X274690Y946951D01*
X274601Y947051D01*
X274515Y947153D01*
X274432Y947258D01*
X274352Y947366D01*
X274275Y947476D01*
X274201Y947588D01*
X274131Y947702D01*
X274064Y947818D01*
X274001Y947936D01*
X273941Y948056D01*
X273885Y948178D01*
X273833Y948301D01*
X273784Y948426D01*
X273739Y948552D01*
X273698Y948680D01*
X273661Y948808D01*
X273627Y948938D01*
X273597Y949069D01*
X273572Y949200D01*
X273550Y949332D01*
X273532Y949465D01*
X273518Y949599D01*
X273508Y949732D01*
X273502Y949866D01*
X273500Y950000D01*
X317500Y950000D02*
X317502Y950134D01*
X317508Y950268D01*
X317518Y950401D01*
X317532Y950535D01*
X317550Y950668D01*
X317572Y950800D01*
X317597Y950931D01*
X317627Y951062D01*
X317661Y951192D01*
X317698Y951320D01*
X317739Y951448D01*
X317784Y951574D01*
X317833Y951699D01*
X317885Y951822D01*
X317941Y951944D01*
X318001Y952064D01*
X318064Y952182D01*
X318131Y952298D01*
X318201Y952412D01*
X318275Y952524D01*
X318352Y952634D01*
X318432Y952742D01*
X318515Y952847D01*
X318601Y952949D01*
X318690Y953049D01*
X318783Y953146D01*
X318878Y953241D01*
X318976Y953332D01*
X319076Y953421D01*
X319179Y953506D01*
X319285Y953589D01*
X319393Y953668D01*
X319503Y953744D01*
X319616Y953817D01*
X319731Y953886D01*
X319847Y953952D01*
X319966Y954014D01*
X320086Y954073D01*
X320209Y954128D01*
X320332Y954180D01*
X320457Y954227D01*
X320584Y954271D01*
X320712Y954312D01*
X320841Y954348D01*
X320971Y954381D01*
X321102Y954409D01*
X321233Y954434D01*
X321366Y954455D01*
X321499Y954472D01*
X321632Y954485D01*
X321766Y954494D01*
X321900Y954499D01*
X322034Y954500D01*
X322167Y954497D01*
X322301Y954490D01*
X322435Y954479D01*
X322568Y954464D01*
X322701Y954445D01*
X322833Y954422D01*
X322964Y954396D01*
X323094Y954365D01*
X323224Y954330D01*
X323352Y954292D01*
X323479Y954250D01*
X323605Y954204D01*
X323730Y954154D01*
X323853Y954101D01*
X323974Y954044D01*
X324094Y953983D01*
X324211Y953919D01*
X324327Y953852D01*
X324441Y953781D01*
X324552Y953706D01*
X324661Y953629D01*
X324768Y953548D01*
X324873Y953464D01*
X324974Y953377D01*
X325074Y953287D01*
X325170Y953194D01*
X325264Y953098D01*
X325355Y952999D01*
X325442Y952898D01*
X325527Y952794D01*
X325609Y952688D01*
X325687Y952580D01*
X325762Y952469D01*
X325834Y952356D01*
X325903Y952240D01*
X325968Y952123D01*
X326029Y952004D01*
X326087Y951883D01*
X326141Y951761D01*
X326192Y951637D01*
X326239Y951511D01*
X326282Y951384D01*
X326321Y951256D01*
X326357Y951127D01*
X326388Y950997D01*
X326416Y950866D01*
X326440Y950734D01*
X326460Y950601D01*
X326476Y950468D01*
X326488Y950335D01*
X326496Y950201D01*
X326500Y950067D01*
X326500Y949933D01*
X326496Y949799D01*
X326488Y949665D01*
X326476Y949532D01*
X326460Y949399D01*
X326440Y949266D01*
X326416Y949134D01*
X326388Y949003D01*
X326357Y948873D01*
X326321Y948744D01*
X326282Y948616D01*
X326239Y948489D01*
X326192Y948363D01*
X326141Y948239D01*
X326087Y948117D01*
X326029Y947996D01*
X325968Y947877D01*
X325903Y947760D01*
X325834Y947644D01*
X325762Y947531D01*
X325687Y947420D01*
X325609Y947312D01*
X325527Y947206D01*
X325442Y947102D01*
X325355Y947001D01*
X325264Y946902D01*
X325170Y946806D01*
X325074Y946713D01*
X324974Y946623D01*
X324873Y946536D01*
X324768Y946452D01*
X324661Y946371D01*
X324552Y946294D01*
X324441Y946219D01*
X324327Y946148D01*
X324211Y946081D01*
X324094Y946017D01*
X323974Y945956D01*
X323853Y945899D01*
X323730Y945846D01*
X323605Y945796D01*
X323479Y945750D01*
X323352Y945708D01*
X323224Y945670D01*
X323094Y945635D01*
X322964Y945604D01*
X322833Y945578D01*
X322701Y945555D01*
X322568Y945536D01*
X322435Y945521D01*
X322301Y945510D01*
X322167Y945503D01*
X322034Y945500D01*
X321900Y945501D01*
X321766Y945506D01*
X321632Y945515D01*
X321499Y945528D01*
X321366Y945545D01*
X321233Y945566D01*
X321102Y945591D01*
X320971Y945619D01*
X320841Y945652D01*
X320712Y945688D01*
X320584Y945729D01*
X320457Y945773D01*
X320332Y945820D01*
X320209Y945872D01*
X320086Y945927D01*
X319966Y945986D01*
X319847Y946048D01*
X319731Y946114D01*
X319616Y946183D01*
X319503Y946256D01*
X319393Y946332D01*
X319285Y946411D01*
X319179Y946494D01*
X319076Y946579D01*
X318976Y946668D01*
X318878Y946759D01*
X318783Y946854D01*
X318690Y946951D01*
X318601Y947051D01*
X318515Y947153D01*
X318432Y947258D01*
X318352Y947366D01*
X318275Y947476D01*
X318201Y947588D01*
X318131Y947702D01*
X318064Y947818D01*
X318001Y947936D01*
X317941Y948056D01*
X317885Y948178D01*
X317833Y948301D01*
X317784Y948426D01*
X317739Y948552D01*
X317698Y948680D01*
X317661Y948808D01*
X317627Y948938D01*
X317597Y949069D01*
X317572Y949200D01*
X317550Y949332D01*
X317532Y949465D01*
X317518Y949599D01*
X317508Y949732D01*
X317502Y949866D01*
X317500Y950000D01*
D12*
X172000Y824000D02*
X48000Y824000D01*
X172000Y824000D02*
X172000Y956000D01*
X48000Y956000D01*
X48000Y824000D01*
X84000Y905000D02*
X136000Y905000D01*
X80000Y890000D02*
X80009Y890736D01*
X80036Y891472D01*
X80081Y892207D01*
X80144Y892941D01*
X80226Y893672D01*
X80325Y894402D01*
X80442Y895129D01*
X80576Y895853D01*
X80729Y896573D01*
X80899Y897289D01*
X81087Y898001D01*
X81292Y898709D01*
X81514Y899410D01*
X81754Y900107D01*
X82010Y900797D01*
X82284Y901481D01*
X82574Y902157D01*
X82880Y902827D01*
X83203Y903488D01*
X83542Y904142D01*
X83897Y904787D01*
X84268Y905423D01*
X84654Y906050D01*
X85056Y906667D01*
X85472Y907274D01*
X85904Y907871D01*
X86350Y908457D01*
X86810Y909032D01*
X87284Y909595D01*
X87771Y910147D01*
X88273Y910686D01*
X88787Y911213D01*
X89314Y911727D01*
X89853Y912229D01*
X90405Y912716D01*
X90968Y913190D01*
X91543Y913650D01*
X92129Y914096D01*
X92726Y914528D01*
X93333Y914944D01*
X93950Y915346D01*
X94577Y915732D01*
X95213Y916103D01*
X95858Y916458D01*
X96512Y916797D01*
X97173Y917120D01*
X97843Y917426D01*
X98519Y917716D01*
X99203Y917990D01*
X99893Y918246D01*
X100590Y918486D01*
X101291Y918708D01*
X101999Y918913D01*
X102711Y919101D01*
X103427Y919271D01*
X104147Y919424D01*
X104871Y919558D01*
X105598Y919675D01*
X106328Y919774D01*
X107059Y919856D01*
X107793Y919919D01*
X108528Y919964D01*
X109264Y919991D01*
X110000Y920000D01*
X110736Y919991D01*
X111472Y919964D01*
X112207Y919919D01*
X112941Y919856D01*
X113672Y919774D01*
X114402Y919675D01*
X115129Y919558D01*
X115853Y919424D01*
X116573Y919271D01*
X117289Y919101D01*
X118001Y918913D01*
X118709Y918708D01*
X119410Y918486D01*
X120107Y918246D01*
X120797Y917990D01*
X121481Y917716D01*
X122157Y917426D01*
X122827Y917120D01*
X123488Y916797D01*
X124142Y916458D01*
X124787Y916103D01*
X125423Y915732D01*
X126050Y915346D01*
X126667Y914944D01*
X127274Y914528D01*
X127871Y914096D01*
X128457Y913650D01*
X129032Y913190D01*
X129595Y912716D01*
X130147Y912229D01*
X130686Y911727D01*
X131213Y911213D01*
X131727Y910686D01*
X132229Y910147D01*
X132716Y909595D01*
X133190Y909032D01*
X133650Y908457D01*
X134096Y907871D01*
X134528Y907274D01*
X134944Y906667D01*
X135346Y906050D01*
X135732Y905423D01*
X136103Y904787D01*
X136458Y904142D01*
X136797Y903488D01*
X137120Y902827D01*
X137426Y902157D01*
X137716Y901481D01*
X137990Y900797D01*
X138246Y900107D01*
X138486Y899410D01*
X138708Y898709D01*
X138913Y898001D01*
X139101Y897289D01*
X139271Y896573D01*
X139424Y895853D01*
X139558Y895129D01*
X139675Y894402D01*
X139774Y893672D01*
X139856Y892941D01*
X139919Y892207D01*
X139964Y891472D01*
X139991Y890736D01*
X140000Y890000D01*
X139991Y889264D01*
X139964Y888528D01*
X139919Y887793D01*
X139856Y887059D01*
X139774Y886328D01*
X139675Y885598D01*
X139558Y884871D01*
X139424Y884147D01*
X139271Y883427D01*
X139101Y882711D01*
X138913Y881999D01*
X138708Y881291D01*
X138486Y880590D01*
X138246Y879893D01*
X137990Y879203D01*
X137716Y878519D01*
X137426Y877843D01*
X137120Y877173D01*
X136797Y876512D01*
X136458Y875858D01*
X136103Y875213D01*
X135732Y874577D01*
X135346Y873950D01*
X134944Y873333D01*
X134528Y872726D01*
X134096Y872129D01*
X133650Y871543D01*
X133190Y870968D01*
X132716Y870405D01*
X132229Y869853D01*
X131727Y869314D01*
X131213Y868787D01*
X130686Y868273D01*
X130147Y867771D01*
X129595Y867284D01*
X129032Y866810D01*
X128457Y866350D01*
X127871Y865904D01*
X127274Y865472D01*
X126667Y865056D01*
X126050Y864654D01*
X125423Y864268D01*
X124787Y863897D01*
X124142Y863542D01*
X123488Y863203D01*
X122827Y862880D01*
X122157Y862574D01*
X121481Y862284D01*
X120797Y862010D01*
X120107Y861754D01*
X119410Y861514D01*
X118709Y861292D01*
X118001Y861087D01*
X117289Y860899D01*
X116573Y860729D01*
X115853Y860576D01*
X115129Y860442D01*
X114402Y860325D01*
X113672Y860226D01*
X112941Y860144D01*
X112207Y860081D01*
X111472Y860036D01*
X110736Y860009D01*
X110000Y860000D01*
X109264Y860009D01*
X108528Y860036D01*
X107793Y860081D01*
X107059Y860144D01*
X106328Y860226D01*
X105598Y860325D01*
X104871Y860442D01*
X104147Y860576D01*
X103427Y860729D01*
X102711Y860899D01*
X101999Y861087D01*
X101291Y861292D01*
X100590Y861514D01*
X99893Y861754D01*
X99203Y862010D01*
X98519Y862284D01*
X97843Y862574D01*
X97173Y862880D01*
X96512Y863203D01*
X95858Y863542D01*
X95213Y863897D01*
X94577Y864268D01*
X93950Y864654D01*
X93333Y865056D01*
X92726Y865472D01*
X92129Y865904D01*
X91543Y866350D01*
X90968Y866810D01*
X90405Y867284D01*
X89853Y867771D01*
X89314Y868273D01*
X88787Y868787D01*
X88273Y869314D01*
X87771Y869853D01*
X87284Y870405D01*
X86810Y870968D01*
X86350Y871543D01*
X85904Y872129D01*
X85472Y872726D01*
X85056Y873333D01*
X84654Y873950D01*
X84268Y874577D01*
X83897Y875213D01*
X83542Y875858D01*
X83203Y876512D01*
X82880Y877173D01*
X82574Y877843D01*
X82284Y878519D01*
X82010Y879203D01*
X81754Y879893D01*
X81514Y880590D01*
X81292Y881291D01*
X81087Y881999D01*
X80899Y882711D01*
X80729Y883427D01*
X80576Y884147D01*
X80442Y884871D01*
X80325Y885598D01*
X80226Y886328D01*
X80144Y887059D01*
X80081Y887793D01*
X80036Y888528D01*
X80009Y889264D01*
X80000Y890000D01*
D13*
X91577Y974920D02*
X96092Y974920D01*
X91577Y974920D02*
X91577Y985080D01*
X96092Y985080D01*
X94963Y980564D02*
X91577Y980564D01*
X101443Y985080D02*
X101443Y974920D01*
X107087Y974920D02*
X101443Y985080D01*
X107087Y985080D02*
X107087Y974920D01*
X115454Y974920D02*
X117711Y974920D01*
X115454Y974920D02*
X115361Y974922D01*
X115268Y974928D01*
X115175Y974937D01*
X115082Y974951D01*
X114991Y974968D01*
X114900Y974989D01*
X114810Y975014D01*
X114721Y975042D01*
X114633Y975074D01*
X114547Y975110D01*
X114462Y975149D01*
X114379Y975192D01*
X114298Y975238D01*
X114219Y975288D01*
X114142Y975340D01*
X114067Y975396D01*
X113995Y975455D01*
X113925Y975517D01*
X113857Y975581D01*
X113793Y975649D01*
X113731Y975719D01*
X113672Y975791D01*
X113616Y975866D01*
X113564Y975943D01*
X113514Y976022D01*
X113468Y976103D01*
X113425Y976186D01*
X113386Y976271D01*
X113350Y976357D01*
X113318Y976445D01*
X113290Y976534D01*
X113265Y976624D01*
X113244Y976715D01*
X113227Y976806D01*
X113213Y976899D01*
X113204Y976992D01*
X113198Y977085D01*
X113196Y977178D01*
X113196Y982822D01*
X113198Y982915D01*
X113204Y983008D01*
X113213Y983101D01*
X113227Y983194D01*
X113244Y983285D01*
X113265Y983376D01*
X113290Y983466D01*
X113318Y983555D01*
X113350Y983643D01*
X113386Y983729D01*
X113425Y983814D01*
X113468Y983897D01*
X113514Y983978D01*
X113564Y984057D01*
X113616Y984134D01*
X113672Y984209D01*
X113731Y984281D01*
X113793Y984351D01*
X113857Y984419D01*
X113925Y984483D01*
X113995Y984545D01*
X114067Y984604D01*
X114142Y984660D01*
X114219Y984712D01*
X114298Y984762D01*
X114379Y984808D01*
X114462Y984851D01*
X114547Y984890D01*
X114633Y984926D01*
X114721Y984958D01*
X114810Y984986D01*
X114900Y985011D01*
X114991Y985032D01*
X115082Y985049D01*
X115175Y985063D01*
X115268Y985072D01*
X115361Y985078D01*
X115454Y985080D01*
X117711Y985080D01*
X122779Y982822D02*
X125601Y985080D01*
X125601Y974920D01*
X122779Y974920D02*
X128423Y974920D01*
D12*
X428000Y824000D02*
X552000Y824000D01*
X552000Y956000D01*
X428000Y956000D01*
X428000Y824000D01*
X464000Y905000D02*
X516000Y905000D01*
X460000Y890000D02*
X460009Y890736D01*
X460036Y891472D01*
X460081Y892207D01*
X460144Y892941D01*
X460226Y893672D01*
X460325Y894402D01*
X460442Y895129D01*
X460576Y895853D01*
X460729Y896573D01*
X460899Y897289D01*
X461087Y898001D01*
X461292Y898709D01*
X461514Y899410D01*
X461754Y900107D01*
X462010Y900797D01*
X462284Y901481D01*
X462574Y902157D01*
X462880Y902827D01*
X463203Y903488D01*
X463542Y904142D01*
X463897Y904787D01*
X464268Y905423D01*
X464654Y906050D01*
X465056Y906667D01*
X465472Y907274D01*
X465904Y907871D01*
X466350Y908457D01*
X466810Y909032D01*
X467284Y909595D01*
X467771Y910147D01*
X468273Y910686D01*
X468787Y911213D01*
X469314Y911727D01*
X469853Y912229D01*
X470405Y912716D01*
X470968Y913190D01*
X471543Y913650D01*
X472129Y914096D01*
X472726Y914528D01*
X473333Y914944D01*
X473950Y915346D01*
X474577Y915732D01*
X475213Y916103D01*
X475858Y916458D01*
X476512Y916797D01*
X477173Y917120D01*
X477843Y917426D01*
X478519Y917716D01*
X479203Y917990D01*
X479893Y918246D01*
X480590Y918486D01*
X481291Y918708D01*
X481999Y918913D01*
X482711Y919101D01*
X483427Y919271D01*
X484147Y919424D01*
X484871Y919558D01*
X485598Y919675D01*
X486328Y919774D01*
X487059Y919856D01*
X487793Y919919D01*
X488528Y919964D01*
X489264Y919991D01*
X490000Y920000D01*
X490736Y919991D01*
X491472Y919964D01*
X492207Y919919D01*
X492941Y919856D01*
X493672Y919774D01*
X494402Y919675D01*
X495129Y919558D01*
X495853Y919424D01*
X496573Y919271D01*
X497289Y919101D01*
X498001Y918913D01*
X498709Y918708D01*
X499410Y918486D01*
X500107Y918246D01*
X500797Y917990D01*
X501481Y917716D01*
X502157Y917426D01*
X502827Y917120D01*
X503488Y916797D01*
X504142Y916458D01*
X504787Y916103D01*
X505423Y915732D01*
X506050Y915346D01*
X506667Y914944D01*
X507274Y914528D01*
X507871Y914096D01*
X508457Y913650D01*
X509032Y913190D01*
X509595Y912716D01*
X510147Y912229D01*
X510686Y911727D01*
X511213Y911213D01*
X511727Y910686D01*
X512229Y910147D01*
X512716Y909595D01*
X513190Y909032D01*
X513650Y908457D01*
X514096Y907871D01*
X514528Y907274D01*
X514944Y906667D01*
X515346Y906050D01*
X515732Y905423D01*
X516103Y904787D01*
X516458Y904142D01*
X516797Y903488D01*
X517120Y902827D01*
X517426Y902157D01*
X517716Y901481D01*
X517990Y900797D01*
X518246Y900107D01*
X518486Y899410D01*
X518708Y898709D01*
X518913Y898001D01*
X519101Y897289D01*
X519271Y896573D01*
X519424Y895853D01*
X519558Y895129D01*
X519675Y894402D01*
X519774Y893672D01*
X519856Y892941D01*
X519919Y892207D01*
X519964Y891472D01*
X519991Y890736D01*
X520000Y890000D01*
X519991Y889264D01*
X519964Y888528D01*
X519919Y887793D01*
X519856Y887059D01*
X519774Y886328D01*
X519675Y885598D01*
X519558Y884871D01*
X519424Y884147D01*
X519271Y883427D01*
X519101Y882711D01*
X518913Y881999D01*
X518708Y881291D01*
X518486Y880590D01*
X518246Y879893D01*
X517990Y879203D01*
X517716Y878519D01*
X517426Y877843D01*
X517120Y877173D01*
X516797Y876512D01*
X516458Y875858D01*
X516103Y875213D01*
X515732Y874577D01*
X515346Y873950D01*
X514944Y873333D01*
X514528Y872726D01*
X514096Y872129D01*
X513650Y871543D01*
X513190Y870968D01*
X512716Y870405D01*
X512229Y869853D01*
X511727Y869314D01*
X511213Y868787D01*
X510686Y868273D01*
X510147Y867771D01*
X509595Y867284D01*
X509032Y866810D01*
X508457Y866350D01*
X507871Y865904D01*
X507274Y865472D01*
X506667Y865056D01*
X506050Y864654D01*
X505423Y864268D01*
X504787Y863897D01*
X504142Y863542D01*
X503488Y863203D01*
X502827Y862880D01*
X502157Y862574D01*
X501481Y862284D01*
X500797Y862010D01*
X500107Y861754D01*
X499410Y861514D01*
X498709Y861292D01*
X498001Y861087D01*
X497289Y860899D01*
X496573Y860729D01*
X495853Y860576D01*
X495129Y860442D01*
X494402Y860325D01*
X493672Y860226D01*
X492941Y860144D01*
X492207Y860081D01*
X491472Y860036D01*
X490736Y860009D01*
X490000Y860000D01*
X489264Y860009D01*
X488528Y860036D01*
X487793Y860081D01*
X487059Y860144D01*
X486328Y860226D01*
X485598Y860325D01*
X484871Y860442D01*
X484147Y860576D01*
X483427Y860729D01*
X482711Y860899D01*
X481999Y861087D01*
X481291Y861292D01*
X480590Y861514D01*
X479893Y861754D01*
X479203Y862010D01*
X478519Y862284D01*
X477843Y862574D01*
X477173Y862880D01*
X476512Y863203D01*
X475858Y863542D01*
X475213Y863897D01*
X474577Y864268D01*
X473950Y864654D01*
X473333Y865056D01*
X472726Y865472D01*
X472129Y865904D01*
X471543Y866350D01*
X470968Y866810D01*
X470405Y867284D01*
X469853Y867771D01*
X469314Y868273D01*
X468787Y868787D01*
X468273Y869314D01*
X467771Y869853D01*
X467284Y870405D01*
X466810Y870968D01*
X466350Y871543D01*
X465904Y872129D01*
X465472Y872726D01*
X465056Y873333D01*
X464654Y873950D01*
X464268Y874577D01*
X463897Y875213D01*
X463542Y875858D01*
X463203Y876512D01*
X462880Y877173D01*
X462574Y877843D01*
X462284Y878519D01*
X462010Y879203D01*
X461754Y879893D01*
X461514Y880590D01*
X461292Y881291D01*
X461087Y881999D01*
X460899Y882711D01*
X460729Y883427D01*
X460576Y884147D01*
X460442Y884871D01*
X460325Y885598D01*
X460226Y886328D01*
X460144Y887059D01*
X460081Y887793D01*
X460036Y888528D01*
X460009Y889264D01*
X460000Y890000D01*
D13*
X471577Y974920D02*
X476092Y974920D01*
X471577Y974920D02*
X471577Y985080D01*
X476092Y985080D01*
X474963Y980564D02*
X471577Y980564D01*
X481443Y985080D02*
X481443Y974920D01*
X487087Y974920D02*
X481443Y985080D01*
X487087Y985080D02*
X487087Y974920D01*
X495454Y974920D02*
X497711Y974920D01*
X495454Y974920D02*
X495361Y974922D01*
X495268Y974928D01*
X495175Y974937D01*
X495082Y974951D01*
X494991Y974968D01*
X494900Y974989D01*
X494810Y975014D01*
X494721Y975042D01*
X494633Y975074D01*
X494547Y975110D01*
X494462Y975149D01*
X494379Y975192D01*
X494298Y975238D01*
X494219Y975288D01*
X494142Y975340D01*
X494067Y975396D01*
X493995Y975455D01*
X493925Y975517D01*
X493857Y975581D01*
X493793Y975649D01*
X493731Y975719D01*
X493672Y975791D01*
X493616Y975866D01*
X493564Y975943D01*
X493514Y976022D01*
X493468Y976103D01*
X493425Y976186D01*
X493386Y976271D01*
X493350Y976357D01*
X493318Y976445D01*
X493290Y976534D01*
X493265Y976624D01*
X493244Y976715D01*
X493227Y976806D01*
X493213Y976899D01*
X493204Y976992D01*
X493198Y977085D01*
X493196Y977178D01*
X493196Y982822D01*
X493198Y982915D01*
X493204Y983008D01*
X493213Y983101D01*
X493227Y983194D01*
X493244Y983285D01*
X493265Y983376D01*
X493290Y983466D01*
X493318Y983555D01*
X493350Y983643D01*
X493386Y983729D01*
X493425Y983814D01*
X493468Y983897D01*
X493514Y983978D01*
X493564Y984057D01*
X493616Y984134D01*
X493672Y984209D01*
X493731Y984281D01*
X493793Y984351D01*
X493857Y984419D01*
X493925Y984483D01*
X493995Y984545D01*
X494067Y984604D01*
X494142Y984660D01*
X494219Y984712D01*
X494298Y984762D01*
X494379Y984808D01*
X494462Y984851D01*
X494547Y984890D01*
X494633Y984926D01*
X494721Y984958D01*
X494810Y984986D01*
X494900Y985011D01*
X494991Y985032D01*
X495082Y985049D01*
X495175Y985063D01*
X495268Y985072D01*
X495361Y985078D01*
X495454Y985080D01*
X497711Y985080D01*
X505883Y985080D02*
X505983Y985078D01*
X506082Y985072D01*
X506182Y985062D01*
X506280Y985049D01*
X506379Y985031D01*
X506476Y985010D01*
X506572Y984985D01*
X506668Y984956D01*
X506762Y984923D01*
X506855Y984887D01*
X506946Y984847D01*
X507036Y984803D01*
X507124Y984756D01*
X507210Y984706D01*
X507294Y984652D01*
X507376Y984595D01*
X507455Y984535D01*
X507533Y984471D01*
X507607Y984405D01*
X507679Y984336D01*
X507748Y984264D01*
X507814Y984190D01*
X507878Y984112D01*
X507938Y984033D01*
X507995Y983951D01*
X508049Y983867D01*
X508099Y983781D01*
X508146Y983693D01*
X508190Y983603D01*
X508230Y983512D01*
X508266Y983419D01*
X508299Y983325D01*
X508328Y983229D01*
X508353Y983133D01*
X508374Y983036D01*
X508392Y982937D01*
X508405Y982839D01*
X508415Y982739D01*
X508421Y982640D01*
X508423Y982540D01*
X505883Y985080D02*
X505772Y985078D01*
X505661Y985072D01*
X505551Y985063D01*
X505441Y985050D01*
X505331Y985033D01*
X505222Y985012D01*
X505114Y984988D01*
X505007Y984960D01*
X504900Y984929D01*
X504795Y984893D01*
X504691Y984855D01*
X504589Y984812D01*
X504488Y984767D01*
X504388Y984717D01*
X504291Y984665D01*
X504195Y984609D01*
X504101Y984550D01*
X504009Y984488D01*
X503919Y984423D01*
X503832Y984355D01*
X503747Y984283D01*
X503664Y984209D01*
X503584Y984133D01*
X503507Y984053D01*
X503432Y983971D01*
X503360Y983887D01*
X503291Y983800D01*
X503226Y983711D01*
X503163Y983619D01*
X503103Y983526D01*
X503047Y983430D01*
X502993Y983333D01*
X502944Y983234D01*
X502897Y983133D01*
X502854Y983031D01*
X502815Y982927D01*
X502779Y982822D01*
X507576Y980565D02*
X507648Y980635D01*
X507717Y980708D01*
X507783Y980784D01*
X507846Y980862D01*
X507906Y980942D01*
X507963Y981025D01*
X508018Y981109D01*
X508069Y981196D01*
X508117Y981284D01*
X508161Y981374D01*
X508202Y981465D01*
X508240Y981558D01*
X508275Y981653D01*
X508306Y981748D01*
X508333Y981845D01*
X508357Y981942D01*
X508377Y982041D01*
X508393Y982140D01*
X508406Y982239D01*
X508416Y982339D01*
X508421Y982440D01*
X508423Y982540D01*
X507577Y980564D02*
X502779Y974920D01*
X508423Y974920D01*
D12*
X435560Y997780D02*
X364440Y997780D01*
X323000Y997000D02*
X277000Y997000D01*
X323000Y997000D02*
X323000Y995000D01*
X323000Y982000D02*
X323000Y978000D01*
X323000Y965000D02*
X323000Y963000D01*
X277000Y963000D01*
X277000Y965000D01*
X277000Y978000D02*
X277000Y982000D01*
X277000Y995000D02*
X277000Y997000D01*
D14*
X30000Y954760D02*
X29628Y954765D01*
X29257Y954778D01*
X28886Y954801D01*
X28516Y954832D01*
X28147Y954873D01*
X27779Y954923D01*
X27412Y954981D01*
X27047Y955049D01*
X26683Y955125D01*
X26322Y955210D01*
X25963Y955305D01*
X25606Y955407D01*
X25251Y955519D01*
X24900Y955639D01*
X24551Y955767D01*
X24206Y955904D01*
X23864Y956050D01*
X23526Y956203D01*
X23192Y956365D01*
X22862Y956535D01*
X22536Y956713D01*
X22214Y956899D01*
X21897Y957093D01*
X21585Y957294D01*
X21278Y957503D01*
X20976Y957719D01*
X20679Y957943D01*
X20388Y958173D01*
X20103Y958411D01*
X19823Y958656D01*
X19550Y958907D01*
X19283Y959165D01*
X19022Y959429D01*
X18767Y959700D01*
X18520Y959977D01*
X18279Y960260D01*
X18045Y960548D01*
X17818Y960842D01*
X17599Y961142D01*
X30000Y954760D02*
X30372Y954765D01*
X30743Y954778D01*
X31115Y954801D01*
X31485Y954833D01*
X31855Y954873D01*
X32223Y954923D01*
X32591Y954982D01*
X32956Y955049D01*
X33320Y955126D01*
X33682Y955212D01*
X34042Y955306D01*
X34399Y955409D01*
X34754Y955520D01*
X35106Y955641D01*
X35455Y955770D01*
X35800Y955907D01*
X36142Y956053D01*
X36481Y956207D01*
X36816Y956369D01*
X37146Y956539D01*
X37472Y956718D01*
X37794Y956904D01*
X38112Y957098D01*
X38424Y957300D01*
X38731Y957509D01*
X39033Y957726D01*
X39330Y957950D01*
X39622Y958181D01*
X39907Y958419D01*
X40187Y958665D01*
X40460Y958917D01*
X40728Y959175D01*
X40988Y959440D01*
X41243Y959711D01*
X41491Y959989D01*
X41731Y960272D01*
X41965Y960561D01*
X42192Y960856D01*
X30000Y985240D02*
X29635Y985236D01*
X29270Y985223D01*
X28906Y985201D01*
X28543Y985170D01*
X28180Y985131D01*
X27818Y985083D01*
X27458Y985026D01*
X27099Y984961D01*
X26741Y984888D01*
X26386Y984805D01*
X26033Y984715D01*
X25681Y984615D01*
X25333Y984508D01*
X24987Y984392D01*
X24644Y984268D01*
X24304Y984135D01*
X23967Y983995D01*
X23634Y983847D01*
X23304Y983690D01*
X22978Y983526D01*
X22656Y983354D01*
X22339Y983174D01*
X22026Y982987D01*
X21717Y982793D01*
X21413Y982591D01*
X21114Y982381D01*
X20820Y982165D01*
X20532Y981942D01*
X20249Y981712D01*
X19971Y981475D01*
X19699Y981232D01*
X19433Y980982D01*
X19173Y980726D01*
X18920Y980463D01*
X18672Y980195D01*
X18432Y979921D01*
X18197Y979641D01*
X17970Y979356D01*
X30000Y985240D02*
X30365Y985236D01*
X30730Y985223D01*
X31094Y985201D01*
X31457Y985170D01*
X31820Y985131D01*
X32182Y985083D01*
X32542Y985026D01*
X32901Y984961D01*
X33259Y984888D01*
X33614Y984805D01*
X33967Y984715D01*
X34319Y984615D01*
X34667Y984508D01*
X35013Y984392D01*
X35356Y984268D01*
X35696Y984135D01*
X36033Y983995D01*
X36366Y983847D01*
X36696Y983690D01*
X37022Y983526D01*
X37344Y983354D01*
X37661Y983174D01*
X37974Y982987D01*
X38283Y982793D01*
X38587Y982591D01*
X38886Y982381D01*
X39180Y982165D01*
X39468Y981942D01*
X39751Y981712D01*
X40029Y981475D01*
X40301Y981232D01*
X40567Y980982D01*
X40827Y980726D01*
X41080Y980463D01*
X41328Y980195D01*
X41568Y979921D01*
X41803Y979641D01*
X42030Y979356D01*
D13*
X30000Y949680D02*
X29506Y949686D01*
X29012Y949704D01*
X28518Y949734D01*
X28025Y949776D01*
X27534Y949830D01*
X27044Y949896D01*
X26556Y949974D01*
X26069Y950064D01*
X25585Y950165D01*
X25104Y950279D01*
X24626Y950404D01*
X24150Y950540D01*
X23679Y950688D01*
X23211Y950848D01*
X22747Y951019D01*
X22287Y951201D01*
X21832Y951394D01*
X21381Y951598D01*
X20936Y951813D01*
X20496Y952039D01*
X20062Y952276D01*
X19634Y952523D01*
X19212Y952780D01*
X18796Y953048D01*
X18387Y953326D01*
X17985Y953613D01*
X17589Y953910D01*
X17202Y954217D01*
X16821Y954533D01*
X16449Y954858D01*
X16084Y955193D01*
X15728Y955536D01*
X15381Y955887D01*
X15041Y956247D01*
X14711Y956615D01*
X14390Y956991D01*
X30000Y949680D02*
X30488Y949686D01*
X30975Y949703D01*
X31462Y949733D01*
X31949Y949774D01*
X32434Y949826D01*
X32918Y949891D01*
X33400Y949967D01*
X33880Y950054D01*
X34358Y950153D01*
X34833Y950263D01*
X35306Y950385D01*
X35775Y950518D01*
X36242Y950663D01*
X36704Y950818D01*
X37163Y950985D01*
X37618Y951162D01*
X38068Y951351D01*
X38513Y951550D01*
X38954Y951760D01*
X39390Y951980D01*
X39820Y952211D01*
X40244Y952452D01*
X40662Y952703D01*
X41075Y952964D01*
X41481Y953235D01*
X41880Y953515D01*
X42273Y953805D01*
X42658Y954105D01*
X43036Y954414D01*
X43407Y954731D01*
X43769Y955058D01*
X44124Y955393D01*
X44471Y955736D01*
X44809Y956088D01*
X45139Y956447D01*
X45460Y956815D01*
X45773Y957190D01*
X46076Y957573D01*
X46370Y957962D01*
X46654Y958359D01*
X46929Y958762D01*
X47194Y959172D01*
X47449Y959588D01*
X47694Y960010D01*
X47929Y960438D01*
X30000Y990320D02*
X29510Y990314D01*
X29020Y990296D01*
X28531Y990267D01*
X28042Y990225D01*
X27555Y990172D01*
X27069Y990108D01*
X26585Y990031D01*
X26103Y989943D01*
X25623Y989843D01*
X25145Y989732D01*
X24671Y989609D01*
X24199Y989474D01*
X23731Y989329D01*
X23267Y989172D01*
X22806Y989004D01*
X22350Y988825D01*
X21898Y988635D01*
X21451Y988434D01*
X21009Y988222D01*
X20572Y988000D01*
X20140Y987768D01*
X19714Y987525D01*
X19295Y987271D01*
X18881Y987008D01*
X18474Y986735D01*
X18074Y986452D01*
X17680Y986159D01*
X17294Y985858D01*
X16915Y985546D01*
X16544Y985226D01*
X16181Y984897D01*
X15825Y984560D01*
X15478Y984213D01*
X15140Y983859D01*
X14810Y983496D01*
X14488Y983126D01*
X30000Y990320D02*
X30497Y990314D01*
X30994Y990296D01*
X31490Y990265D01*
X31985Y990223D01*
X32479Y990168D01*
X32972Y990102D01*
X33462Y990023D01*
X33951Y989932D01*
X34437Y989830D01*
X34921Y989715D01*
X35401Y989589D01*
X35879Y989451D01*
X36353Y989302D01*
X36823Y989141D01*
X37289Y988968D01*
X37751Y988784D01*
X38208Y988589D01*
X38660Y988383D01*
X39107Y988166D01*
X39548Y987937D01*
X39984Y987699D01*
X40414Y987449D01*
X40837Y987189D01*
X41255Y986919D01*
X41665Y986639D01*
X42068Y986349D01*
X42465Y986049D01*
X42853Y985739D01*
X43234Y985420D01*
X43607Y985092D01*
X43972Y984755D01*
X44329Y984409D01*
X44677Y984054D01*
X45016Y983691D01*
X45347Y983320D01*
X45668Y982940D01*
X45980Y982553D01*
X46282Y982159D01*
X46574Y981757D01*
X46857Y981348D01*
X47129Y980933D01*
X47392Y980510D01*
X47643Y980082D01*
X30240Y901452D02*
X20080Y901452D01*
X30240Y901452D02*
X30240Y905968D01*
X30240Y911358D02*
X30240Y915874D01*
X30240Y911358D02*
X20080Y911358D01*
X20080Y915874D01*
X24596Y914745D02*
X24596Y911358D01*
X20080Y921225D02*
X30240Y921225D01*
X20080Y921225D02*
X20080Y924047D01*
X20082Y924153D01*
X20088Y924258D01*
X20098Y924363D01*
X20112Y924468D01*
X20129Y924572D01*
X20151Y924675D01*
X20176Y924777D01*
X20205Y924879D01*
X20238Y924979D01*
X20275Y925078D01*
X20315Y925176D01*
X20359Y925271D01*
X20407Y925366D01*
X20458Y925458D01*
X20513Y925548D01*
X20570Y925637D01*
X20631Y925723D01*
X20696Y925806D01*
X20763Y925888D01*
X20833Y925966D01*
X20907Y926042D01*
X20983Y926116D01*
X21061Y926186D01*
X21143Y926253D01*
X21226Y926318D01*
X21312Y926379D01*
X21401Y926436D01*
X21491Y926491D01*
X21583Y926542D01*
X21678Y926590D01*
X21774Y926634D01*
X21871Y926674D01*
X21970Y926711D01*
X22070Y926744D01*
X22172Y926773D01*
X22274Y926798D01*
X22377Y926820D01*
X22481Y926837D01*
X22586Y926851D01*
X22691Y926861D01*
X22797Y926867D01*
X22902Y926869D01*
X27418Y926869D01*
X27524Y926867D01*
X27629Y926861D01*
X27734Y926851D01*
X27839Y926837D01*
X27943Y926820D01*
X28046Y926798D01*
X28148Y926773D01*
X28250Y926744D01*
X28350Y926711D01*
X28449Y926674D01*
X28546Y926634D01*
X28642Y926590D01*
X28737Y926542D01*
X28829Y926491D01*
X28919Y926436D01*
X29008Y926379D01*
X29094Y926318D01*
X29177Y926253D01*
X29259Y926186D01*
X29337Y926116D01*
X29413Y926042D01*
X29487Y925966D01*
X29557Y925888D01*
X29624Y925806D01*
X29689Y925723D01*
X29750Y925637D01*
X29807Y925548D01*
X29862Y925458D01*
X29913Y925366D01*
X29961Y925271D01*
X30005Y925175D01*
X30045Y925078D01*
X30082Y924979D01*
X30115Y924879D01*
X30144Y924777D01*
X30169Y924675D01*
X30191Y924572D01*
X30208Y924468D01*
X30222Y924363D01*
X30232Y924258D01*
X30238Y924153D01*
X30240Y924047D01*
X30240Y921225D01*
X22338Y933036D02*
X20080Y935858D01*
X30240Y935858D01*
X30240Y933036D02*
X30240Y938680D01*
D14*
X557599Y961142D02*
X557818Y960842D01*
X558045Y960548D01*
X558279Y960260D01*
X558520Y959977D01*
X558767Y959700D01*
X559022Y959429D01*
X559283Y959165D01*
X559550Y958907D01*
X559823Y958656D01*
X560103Y958411D01*
X560388Y958173D01*
X560679Y957943D01*
X560976Y957719D01*
X561278Y957503D01*
X561585Y957294D01*
X561897Y957093D01*
X562214Y956899D01*
X562536Y956713D01*
X562862Y956535D01*
X563192Y956365D01*
X563526Y956203D01*
X563864Y956050D01*
X564206Y955904D01*
X564551Y955767D01*
X564900Y955639D01*
X565251Y955519D01*
X565606Y955407D01*
X565963Y955305D01*
X566322Y955210D01*
X566683Y955125D01*
X567047Y955049D01*
X567412Y954981D01*
X567779Y954923D01*
X568147Y954873D01*
X568516Y954832D01*
X568886Y954801D01*
X569257Y954778D01*
X569628Y954765D01*
X570000Y954760D01*
X570372Y954765D01*
X570743Y954778D01*
X571115Y954801D01*
X571485Y954833D01*
X571855Y954873D01*
X572223Y954923D01*
X572591Y954982D01*
X572956Y955049D01*
X573320Y955126D01*
X573682Y955212D01*
X574042Y955306D01*
X574399Y955409D01*
X574754Y955520D01*
X575106Y955641D01*
X575455Y955770D01*
X575800Y955907D01*
X576142Y956053D01*
X576481Y956207D01*
X576816Y956369D01*
X577146Y956539D01*
X577472Y956718D01*
X577794Y956904D01*
X578112Y957098D01*
X578424Y957300D01*
X578731Y957509D01*
X579033Y957726D01*
X579330Y957950D01*
X579622Y958181D01*
X579907Y958419D01*
X580187Y958665D01*
X580460Y958917D01*
X580728Y959175D01*
X580988Y959440D01*
X581243Y959711D01*
X581491Y959989D01*
X581731Y960272D01*
X581965Y960561D01*
X582192Y960856D01*
X570000Y985240D02*
X569635Y985236D01*
X569270Y985223D01*
X568906Y985201D01*
X568543Y985170D01*
X568180Y985131D01*
X567818Y985083D01*
X567458Y985026D01*
X567099Y984961D01*
X566741Y984888D01*
X566386Y984805D01*
X566033Y984715D01*
X565681Y984615D01*
X565333Y984508D01*
X564987Y984392D01*
X564644Y984268D01*
X564304Y984135D01*
X563967Y983995D01*
X563634Y983847D01*
X563304Y983690D01*
X562978Y983526D01*
X562656Y983354D01*
X562339Y983174D01*
X562026Y982987D01*
X561717Y982793D01*
X561413Y982591D01*
X561114Y982381D01*
X560820Y982165D01*
X560532Y981942D01*
X560249Y981712D01*
X559971Y981475D01*
X559699Y981232D01*
X559433Y980982D01*
X559173Y980726D01*
X558920Y980463D01*
X558672Y980195D01*
X558432Y979921D01*
X558197Y979641D01*
X557970Y979356D01*
X570000Y985240D02*
X570365Y985236D01*
X570730Y985223D01*
X571094Y985201D01*
X571457Y985170D01*
X571820Y985131D01*
X572182Y985083D01*
X572542Y985026D01*
X572901Y984961D01*
X573259Y984888D01*
X573614Y984805D01*
X573967Y984715D01*
X574319Y984615D01*
X574667Y984508D01*
X575013Y984392D01*
X575356Y984268D01*
X575696Y984135D01*
X576033Y983995D01*
X576366Y983847D01*
X576696Y983690D01*
X577022Y983526D01*
X577344Y983354D01*
X577661Y983174D01*
X577974Y982987D01*
X578283Y982793D01*
X578587Y982591D01*
X578886Y982381D01*
X579180Y982165D01*
X579468Y981942D01*
X579751Y981712D01*
X580029Y981475D01*
X580301Y981232D01*
X580567Y980982D01*
X580827Y980726D01*
X581080Y980463D01*
X581328Y980195D01*
X581568Y979921D01*
X581803Y979641D01*
X582030Y979356D01*
D13*
X570000Y949680D02*
X569506Y949686D01*
X569012Y949704D01*
X568518Y949734D01*
X568025Y949776D01*
X567534Y949830D01*
X567044Y949896D01*
X566556Y949974D01*
X566069Y950064D01*
X565585Y950165D01*
X565104Y950279D01*
X564626Y950404D01*
X564150Y950540D01*
X563679Y950688D01*
X563211Y950848D01*
X562747Y951019D01*
X562287Y951201D01*
X561832Y951394D01*
X561381Y951598D01*
X560936Y951813D01*
X560496Y952039D01*
X560062Y952276D01*
X559634Y952523D01*
X559212Y952780D01*
X558796Y953048D01*
X558387Y953326D01*
X557985Y953613D01*
X557589Y953910D01*
X557202Y954217D01*
X556821Y954533D01*
X556449Y954858D01*
X556084Y955193D01*
X555728Y955536D01*
X555381Y955887D01*
X555041Y956247D01*
X554711Y956615D01*
X554390Y956991D01*
X570000Y949680D02*
X570488Y949686D01*
X570975Y949703D01*
X571462Y949733D01*
X571949Y949774D01*
X572434Y949826D01*
X572918Y949891D01*
X573400Y949967D01*
X573880Y950054D01*
X574358Y950153D01*
X574833Y950263D01*
X575306Y950385D01*
X575775Y950518D01*
X576242Y950663D01*
X576704Y950818D01*
X577163Y950985D01*
X577618Y951162D01*
X578068Y951351D01*
X578513Y951550D01*
X578954Y951760D01*
X579390Y951980D01*
X579820Y952211D01*
X580244Y952452D01*
X580662Y952703D01*
X581075Y952964D01*
X581481Y953235D01*
X581880Y953515D01*
X582273Y953805D01*
X582658Y954105D01*
X583036Y954414D01*
X583407Y954731D01*
X583769Y955058D01*
X584124Y955393D01*
X584471Y955736D01*
X584809Y956088D01*
X585139Y956447D01*
X585460Y956815D01*
X585773Y957190D01*
X586076Y957573D01*
X586370Y957962D01*
X586654Y958359D01*
X586929Y958762D01*
X587194Y959172D01*
X587449Y959588D01*
X587694Y960010D01*
X587929Y960438D01*
X570000Y990320D02*
X569510Y990314D01*
X569020Y990296D01*
X568531Y990267D01*
X568042Y990225D01*
X567555Y990172D01*
X567069Y990108D01*
X566585Y990031D01*
X566103Y989943D01*
X565623Y989843D01*
X565145Y989732D01*
X564671Y989609D01*
X564199Y989474D01*
X563731Y989329D01*
X563267Y989172D01*
X562806Y989004D01*
X562350Y988825D01*
X561898Y988635D01*
X561451Y988434D01*
X561009Y988222D01*
X560572Y988000D01*
X560140Y987768D01*
X559714Y987525D01*
X559295Y987271D01*
X558881Y987008D01*
X558474Y986735D01*
X558074Y986452D01*
X557680Y986159D01*
X557294Y985858D01*
X556915Y985546D01*
X556544Y985226D01*
X556181Y984897D01*
X555825Y984560D01*
X555478Y984213D01*
X555140Y983859D01*
X554810Y983496D01*
X554488Y983126D01*
X570000Y990320D02*
X570497Y990314D01*
X570994Y990296D01*
X571490Y990265D01*
X571985Y990223D01*
X572479Y990168D01*
X572972Y990102D01*
X573462Y990023D01*
X573951Y989932D01*
X574437Y989830D01*
X574921Y989715D01*
X575401Y989589D01*
X575879Y989451D01*
X576353Y989302D01*
X576823Y989141D01*
X577289Y988968D01*
X577751Y988784D01*
X578208Y988589D01*
X578660Y988383D01*
X579107Y988166D01*
X579548Y987937D01*
X579984Y987699D01*
X580414Y987449D01*
X580837Y987189D01*
X581255Y986919D01*
X581665Y986639D01*
X582068Y986349D01*
X582465Y986049D01*
X582853Y985739D01*
X583234Y985420D01*
X583607Y985092D01*
X583972Y984755D01*
X584329Y984409D01*
X584677Y984054D01*
X585016Y983691D01*
X585347Y983320D01*
X585668Y982940D01*
X585980Y982553D01*
X586282Y982159D01*
X586574Y981757D01*
X586857Y981348D01*
X587129Y980933D01*
X587392Y980510D01*
X587643Y980082D01*
X581240Y901452D02*
X571080Y901452D01*
X581240Y901452D02*
X581240Y905968D01*
X581240Y911358D02*
X581240Y915874D01*
X581240Y911358D02*
X571080Y911358D01*
X571080Y915874D01*
X575596Y914745D02*
X575596Y911358D01*
X571080Y921225D02*
X581240Y921225D01*
X571080Y921225D02*
X571080Y924047D01*
X571082Y924153D01*
X571088Y924258D01*
X571098Y924363D01*
X571112Y924468D01*
X571129Y924572D01*
X571151Y924675D01*
X571176Y924777D01*
X571205Y924879D01*
X571238Y924979D01*
X571275Y925078D01*
X571315Y925176D01*
X571359Y925271D01*
X571407Y925366D01*
X571458Y925458D01*
X571513Y925548D01*
X571570Y925637D01*
X571631Y925723D01*
X571696Y925806D01*
X571763Y925888D01*
X571833Y925966D01*
X571907Y926042D01*
X571983Y926116D01*
X572061Y926186D01*
X572143Y926253D01*
X572226Y926318D01*
X572312Y926379D01*
X572401Y926436D01*
X572491Y926491D01*
X572583Y926542D01*
X572678Y926590D01*
X572774Y926634D01*
X572871Y926674D01*
X572970Y926711D01*
X573070Y926744D01*
X573172Y926773D01*
X573274Y926798D01*
X573377Y926820D01*
X573481Y926837D01*
X573586Y926851D01*
X573691Y926861D01*
X573797Y926867D01*
X573902Y926869D01*
X578418Y926869D01*
X578524Y926867D01*
X578629Y926861D01*
X578734Y926851D01*
X578839Y926837D01*
X578943Y926820D01*
X579046Y926798D01*
X579148Y926773D01*
X579250Y926744D01*
X579350Y926711D01*
X579449Y926674D01*
X579546Y926634D01*
X579642Y926590D01*
X579737Y926542D01*
X579829Y926491D01*
X579919Y926436D01*
X580008Y926379D01*
X580094Y926318D01*
X580177Y926253D01*
X580259Y926186D01*
X580337Y926116D01*
X580413Y926042D01*
X580487Y925966D01*
X580557Y925888D01*
X580624Y925806D01*
X580689Y925723D01*
X580750Y925637D01*
X580807Y925548D01*
X580862Y925458D01*
X580913Y925366D01*
X580961Y925271D01*
X581005Y925175D01*
X581045Y925078D01*
X581082Y924979D01*
X581115Y924879D01*
X581144Y924777D01*
X581169Y924675D01*
X581191Y924572D01*
X581208Y924468D01*
X581222Y924363D01*
X581232Y924258D01*
X581238Y924153D01*
X581240Y924047D01*
X581240Y921225D01*
X571080Y936140D02*
X571082Y936240D01*
X571088Y936339D01*
X571098Y936439D01*
X571111Y936537D01*
X571129Y936636D01*
X571150Y936733D01*
X571175Y936829D01*
X571204Y936925D01*
X571237Y937019D01*
X571273Y937112D01*
X571313Y937203D01*
X571357Y937293D01*
X571404Y937381D01*
X571454Y937467D01*
X571508Y937551D01*
X571565Y937633D01*
X571625Y937712D01*
X571689Y937790D01*
X571755Y937864D01*
X571824Y937936D01*
X571896Y938005D01*
X571970Y938071D01*
X572048Y938135D01*
X572127Y938195D01*
X572209Y938252D01*
X572293Y938306D01*
X572379Y938356D01*
X572467Y938403D01*
X572557Y938447D01*
X572648Y938487D01*
X572741Y938523D01*
X572835Y938556D01*
X572931Y938585D01*
X573027Y938610D01*
X573124Y938631D01*
X573223Y938649D01*
X573321Y938662D01*
X573421Y938672D01*
X573520Y938678D01*
X573620Y938680D01*
X571080Y936140D02*
X571082Y936029D01*
X571088Y935918D01*
X571097Y935808D01*
X571110Y935698D01*
X571127Y935588D01*
X571148Y935479D01*
X571172Y935371D01*
X571200Y935264D01*
X571231Y935157D01*
X571267Y935052D01*
X571305Y934948D01*
X571348Y934846D01*
X571393Y934745D01*
X571443Y934645D01*
X571495Y934548D01*
X571551Y934452D01*
X571610Y934358D01*
X571672Y934266D01*
X571737Y934176D01*
X571805Y934089D01*
X571877Y934004D01*
X571951Y933921D01*
X572027Y933841D01*
X572107Y933764D01*
X572189Y933689D01*
X572273Y933617D01*
X572360Y933548D01*
X572449Y933483D01*
X572541Y933420D01*
X572634Y933360D01*
X572730Y933304D01*
X572827Y933250D01*
X572926Y933201D01*
X573027Y933154D01*
X573129Y933111D01*
X573233Y933072D01*
X573338Y933036D01*
X575595Y937833D02*
X575525Y937905D01*
X575452Y937974D01*
X575376Y938040D01*
X575298Y938103D01*
X575218Y938163D01*
X575135Y938220D01*
X575051Y938275D01*
X574964Y938326D01*
X574876Y938374D01*
X574786Y938418D01*
X574695Y938459D01*
X574602Y938497D01*
X574507Y938532D01*
X574412Y938563D01*
X574315Y938590D01*
X574218Y938614D01*
X574119Y938634D01*
X574020Y938650D01*
X573921Y938663D01*
X573821Y938673D01*
X573720Y938678D01*
X573620Y938680D01*
X575596Y937833D02*
X581240Y933036D01*
X581240Y938680D01*
M02*
