M48
;GenerationSoftware,Autodesk,EAGLE,9.2.1*%
;CreationDate,2019-10-16T22:09:39Z*%
FMAT,2
ICI,OFF
METRIC,TZ,000.000
T10C0.350
T9C0.813
T8C0.900
T7C1.000
T6C1.016
T5C1.524
T4C1.714
T3C2.200
T2C2.500
T1C4.064
%
G90
M71
T1
X30000Y49000
X49000Y49000
X11000Y30000
X30000Y30000
X49000Y30000
X11000Y11000
X30000Y11000
X49000Y11000
X30000Y68000
X11000Y49000
X11000Y68000
X49000Y68000
T2
X20500Y20500
X39500Y58500
X39500Y20500
X20500Y58500
T3
X17100Y89000
X55100Y89000
X42900Y89000
X4900Y89000
T4
X43920Y68000
X16080Y49000
X35080Y68000
X5920Y68000
X16080Y68000
X24920Y68000
X54080Y11000
X35080Y49000
X35080Y11000
X24920Y11000
X16080Y11000
X5920Y11000
X54080Y30000
X43920Y30000
X43920Y11000
X35080Y30000
X24920Y30000
X16080Y30000
X5920Y30000
X54080Y49000
X43920Y49000
X24920Y49000
X5920Y49000
X54080Y68000
T5
X32540Y73080
X7190Y70540
X13540Y73080
X26190Y70540
X13540Y35080
X32540Y54080
X26190Y51540
X45190Y32540
X7190Y32540
X13540Y54080
X7190Y51540
X32540Y35080
X26190Y32540
X51540Y73080
X45190Y70540
X51540Y54080
X51540Y35080
X7190Y13540
X13540Y16080
X26190Y13540
X32540Y16080
X45190Y13540
X51540Y16080
X45190Y51540
T6
X31270Y43920
X47730Y43920
X50270Y43920
X9730Y24920
X12270Y24920
X28730Y24920
X47730Y24920
X50270Y24920
X9730Y5920
X12270Y5920
X28730Y5920
X31270Y5920
X47730Y5920
X50270Y5920
X9730Y62920
X12270Y62920
X31270Y24920
X28730Y62920
X31270Y62920
X47730Y62920
X50270Y62920
X9730Y43920
X12270Y43920
X28730Y43920
T7
X49000Y81500
X8500Y81500
X11000Y81500
X13500Y81500
X8500Y96000
X13500Y96000
X46500Y81500
X51500Y81500
X46500Y96000
X51500Y96000
T8
X32200Y95000
X27800Y95000
T9
X55730Y97000
X4270Y97000
X1730Y97000
X58270Y97000
T10
X12200Y76200
X36000Y80000
X25000Y78000
X35000Y80000
X25000Y79000
X20500Y65000
X27500Y75600
X39500Y95000
X37500Y93500
X40500Y93500
X21000Y89100
X41000Y4000
X15800Y81000
X7000Y86000
X15000Y86000
X53000Y86000
X58500Y23000
X45000Y86000
X41000Y78300
X35000Y82700
X30800Y86000
X32000Y77000
X33000Y76100
X22100Y66000
X25000Y77000
X27700Y86000
X42500Y94500
X58500Y1500
X25000Y80000
X9800Y76200
X1500Y1500
X39500Y1500
X20500Y1500
X39500Y39500
X22000Y42000
X4000Y46000
X36000Y78000
X24000Y77000
X20500Y39500
X21100Y80900
X23000Y64000
X25000Y81000
X25000Y82000
X25000Y83000
X28500Y75000
X18800Y74300
X5000Y75000
X19900Y80900
X21100Y82100
X30000Y81500
X43500Y23000
X33000Y88000
X25400Y85000
X49000Y88000
X22400Y85000
X19900Y82100
X11000Y88000
X42000Y84000
X26500Y76200
X3500Y61000
M30